<svg width="260" height="189" viewBox="0 0 260 189" fill="none" xmlns="http://www.w3.org/2000/svg"><script xmlns=""/>
<g clip-path="url(#clip0_23_1196)">
<path d="M225.3 29.569H18.49V170.897H225.3V29.569Z" fill="white"/>
<path d="M225.173 171.259H18.49C18.2367 171.259 17.9834 171.017 17.9834 170.776V29.5689C17.9834 29.3276 18.2367 29.0862 18.49 29.0862H225.3C225.553 29.0862 225.806 29.3276 225.806 29.5689V170.897C225.68 171.138 225.426 171.259 225.173 171.259ZM18.9966 170.414H224.793V30.0517H18.9966V170.414Z" fill="black"/>
<path d="M225.3 22.4483H18.49V34.638H225.3V22.4483Z" fill="#4E6075"/>
<path d="M225.173 35.1207H18.49C18.2367 35.1207 17.9834 34.8793 17.9834 34.6379V22.4483C17.9834 22.2069 18.2367 21.9655 18.49 21.9655H225.3C225.553 21.9655 225.806 22.2069 225.806 22.4483V34.6379C225.68 34.8793 225.426 35.1207 225.173 35.1207ZM18.9966 34.1552H224.793V22.931H18.9966V34.1552Z" fill="black"/>
<path d="M182.747 31.2586C184.286 31.2586 185.533 30.0698 185.533 28.6034C185.533 27.137 184.286 25.9482 182.747 25.9482C181.208 25.9482 179.961 27.137 179.961 28.6034C179.961 30.0698 181.208 31.2586 182.747 31.2586Z" fill="#74BD6C"/>
<path d="M182.747 31.6207C180.974 31.6207 179.581 30.2931 179.581 28.6034C179.581 26.9138 180.974 25.5862 182.747 25.5862C184.52 25.5862 185.913 26.9138 185.913 28.6034C185.913 30.2931 184.52 31.6207 182.747 31.6207ZM182.747 26.431C181.481 26.431 180.468 27.3965 180.468 28.6034C180.468 29.8103 181.481 30.7758 182.747 30.7758C184.014 30.7758 185.027 29.8103 185.027 28.6034C185.027 27.3965 184.014 26.431 182.747 26.431Z" fill="black"/>
<path d="M198.958 31.2586C200.496 31.2586 201.744 30.0698 201.744 28.6034C201.744 27.137 200.496 25.9482 198.958 25.9482C197.419 25.9482 196.171 27.137 196.171 28.6034C196.171 30.0698 197.419 31.2586 198.958 31.2586Z" fill="#74BD6C"/>
<path d="M198.958 31.6207C197.185 31.6207 195.792 30.2931 195.792 28.6034C195.792 26.9138 197.185 25.5862 198.958 25.5862C200.731 25.5862 202.124 26.9138 202.124 28.6034C202.124 30.2931 200.731 31.6207 198.958 31.6207ZM198.958 26.431C197.691 26.431 196.678 27.3965 196.678 28.6034C196.678 29.8103 197.691 30.7758 198.958 30.7758C200.224 30.7758 201.237 29.8103 201.237 28.6034C201.237 27.3965 200.224 26.431 198.958 26.431Z" fill="black"/>
<path d="M212.002 28.6034C212.002 27.1551 213.268 25.9482 214.788 25.9482C216.308 25.9482 217.574 27.1551 217.574 28.6034C217.574 30.0517 216.308 31.2586 214.788 31.2586C213.268 31.1379 212.002 30.0517 212.002 28.6034Z" fill="#74BD6C"/>
<path d="M214.788 31.6207C213.015 31.6207 211.622 30.2931 211.622 28.6034C211.622 26.9138 213.015 25.5862 214.788 25.5862C216.561 25.5862 217.954 26.9138 217.954 28.6034C217.954 30.2931 216.561 31.6207 214.788 31.6207ZM214.788 26.431C213.522 26.431 212.509 27.3965 212.509 28.6034C212.509 29.8103 213.522 30.7758 214.788 30.7758C216.055 30.7758 217.068 29.8103 217.068 28.6034C217.068 27.3965 216.055 26.431 214.788 26.431Z" fill="black"/>
<g opacity="0.1294">
<path d="M224.54 35.2414C224.286 35 223.4 35 223.653 35C223.147 35 222.64 35 222.133 35C219.981 34.8793 217.954 34.8793 215.801 34.7586C209.469 34.5172 203.137 35.2414 196.678 35.1207C193.385 35.1207 190.219 35.2414 186.926 35.1207C184.394 35.1207 181.987 34.8793 179.454 34.7586C172.236 34.7586 165.017 34.2759 157.798 34.3965C151.466 34.5172 145.261 34.3965 138.928 34.2759C133.863 34.2759 128.924 34.2759 123.858 34.2759C119.679 34.1552 115.499 34.5172 111.32 34.5172C102.202 34.6379 92.9566 34.6379 83.8383 34.3965C80.5455 34.3965 77.1262 34.2759 73.8334 34.3965C71.0472 34.5172 68.2611 34.3965 65.4749 34.5172C62.3088 34.5172 59.2694 34.5172 56.1033 34.5172C52.4306 34.3965 48.7579 34.2759 45.0852 34.3965C42.0458 34.3965 39.133 34.6379 36.0935 34.7586C33.3074 34.7586 30.6478 34.7586 27.8617 34.7586C25.8354 34.6379 23.8091 34.6379 21.7828 34.6379C20.7696 34.7586 19.5032 34.3965 18.6167 35.1207C17.4769 36.2069 18.2367 38.1379 19.8831 38.1379C22.2893 38.2586 24.6956 38.1379 27.1018 38.3793C30.6478 38.5 34.1939 38.5 37.7399 38.3793C42.0458 38.1379 46.3517 38.0172 50.7842 38.0172C54.077 38.1379 57.4963 38.1379 60.7891 38.1379C64.4618 38.2586 68.1344 38.2586 71.8071 38.1379C74.2133 38.0172 76.6196 37.8965 79.0258 38.0172C85.7379 38.1379 92.3234 38.3793 99.0356 38.2586C105.748 38.2586 112.46 38.3793 119.172 38.0172C125.124 38.0172 131.203 38.0172 137.155 38.1379C146.02 38.3793 155.012 38.1379 163.877 38.1379C169.323 38.2586 174.642 38.3793 180.088 38.3793C184.14 38.5 188.193 38.7414 192.245 38.6207C195.538 38.5 198.704 38.5 201.997 38.3793C203.897 38.2586 205.923 38.0172 207.823 38.0172C212.888 37.7759 217.954 37.8965 223.02 38.0172C223.527 38.0172 224.16 38.0172 224.54 37.5345C225.553 36.931 225.426 35.7241 224.54 35.2414Z" fill="black"/>
</g>
<path d="M183.887 51.7759H158.685C158.432 51.7759 158.178 51.5345 158.178 51.2931C158.178 51.0517 158.432 50.8104 158.685 50.8104H183.887C184.14 50.8104 184.394 51.0517 184.394 51.2931C184.394 51.5345 184.14 51.7759 183.887 51.7759Z" fill="black"/>
<path d="M183.887 63.2414H148.427C148.173 63.2414 147.92 63 147.92 62.7586C147.92 62.5173 148.173 62.2759 148.427 62.2759H183.887C184.14 62.2759 184.394 62.5173 184.394 62.7586C184.394 63 184.14 63.2414 183.887 63.2414Z" fill="black"/>
<path d="M34.0672 15.6897L32.5475 10.6207L35.8402 6.03449L27.735 0.603455C26.5952 2.4138 25.5821 3.98276 24.5689 5.67242C24.5689 5.79311 24.4423 5.79311 24.3156 5.9138C24.189 6.03449 24.0624 6.03449 23.9357 6.03449C22.1627 6.03449 20.263 6.03449 18.49 5.9138C17.6035 4.22414 16.717 2.65518 15.7039 1.2069C15.5772 1.08621 15.5772 0.965524 15.4506 0.965524C15.3239 0.965524 15.1973 0.965524 15.0706 1.08621C12.9177 2.29311 10.7647 3.6207 8.61179 4.82759L8.48515 4.94828C8.3585 5.06897 8.48515 5.31035 8.61179 5.43104C9.24501 6.75863 10.2582 8.08621 11.398 9.29311C10.3848 10.9828 9.37166 12.6724 8.23186 14.2414C7.97857 14.6035 7.59864 14.9655 7.21871 15.0862C6.83878 15.2069 6.45885 15.0862 6.07891 14.9655C4.55919 14.6035 3.03946 14.1207 1.64638 13.5172C0.379937 16.4138 0.12665 19.6724 1.01316 22.8104C1.1398 23.0517 6.71213 22.2069 6.71213 22.2069L10.0049 27.8793L7.34535 32.2241L13.5509 36.569L16.717 31.9828L22.416 32.1035L24.5689 36.931L32.9274 34.1552L30.9011 29.2069L33.9406 24.3793L39.6396 23.8966L39.7662 17.1379L34.0672 15.6897ZM24.3156 18.3448C24.3156 18.5862 24.189 19.069 24.0624 19.3104C23.9357 19.5517 23.9357 19.6724 23.8091 19.7931C23.5558 20.1552 23.3025 20.3966 23.0492 20.6379C22.416 21.2414 21.7828 21.6035 21.0229 21.8448C20.7696 21.9655 20.3897 22.0862 20.0097 22.0862C19.7565 22.0862 19.5032 22.2069 19.1232 22.0862C18.9966 22.0862 18.7433 21.9655 18.6167 21.9655C19.1232 21.9655 18.6167 21.9655 18.3634 21.9655C17.4769 21.7241 16.5904 21 16.2104 20.2759C15.9571 19.7931 15.7039 19.3104 15.7039 18.7069C15.7039 18.2241 15.8305 17.7414 15.9571 17.2586C16.2104 16.6552 16.5904 16.0517 16.9703 15.4483C17.4769 14.8448 17.9834 14.1207 18.7433 13.7586C19.5032 13.3966 20.263 13.3966 21.0229 13.6379C21.2762 13.5172 21.6561 13.5172 21.9094 13.5172C22.416 13.7586 22.9226 14 23.3025 14.3621C23.6824 14.7241 23.9357 15.2069 24.0624 15.6897C24.189 15.8104 24.189 16.0517 24.189 16.1724C24.189 16.2931 24.189 16.4138 24.189 16.4138C24.189 16.5345 24.189 16.7759 24.189 16.8966V16.7759C24.189 16.6552 24.189 16.6552 24.189 16.7759C24.189 16.8966 24.189 17.1379 24.3156 17.2586C24.3156 17.3793 24.3156 17.3793 24.3156 17.5C24.4423 17.8621 24.4423 18.1035 24.3156 18.3448Z" fill="white"/>
<path d="M9.37165 21.7241C9.24501 21.7241 9.24501 21.7241 9.37165 21.7241C9.24501 21.7241 9.24501 21.6034 9.24501 21.4827C10.7647 16.1724 12.6644 10.862 14.8173 5.67239C14.8173 5.5517 14.944 5.5517 15.0706 5.5517C15.1973 5.5517 15.1973 5.67239 15.1973 5.79308C13.0443 10.9827 11.1447 16.2931 9.62494 21.6034C9.4983 21.7241 9.37165 21.7241 9.37165 21.7241Z" fill="black"/>
<path d="M11.7779 22.569C11.6512 22.569 11.6512 22.4483 11.6512 22.3276C13.171 17.2587 15.0706 12.3104 17.4769 7.60348C17.4769 7.48279 17.6035 7.48279 17.7302 7.48279C17.7302 7.60348 17.7302 7.72417 17.7302 7.84486C15.3239 12.5518 13.4243 17.5 11.9045 22.4483C11.9045 22.569 11.9045 22.569 11.7779 22.569Z" fill="black"/>
<path d="M10.8914 32.2241C10.8914 32.2241 10.7647 32.2241 10.8914 32.2241C10.7647 32.2241 10.7647 32.1034 10.7647 31.9827L14.8173 22.4483C14.8173 22.3276 14.944 22.3276 15.0706 22.3276C15.1973 22.3276 15.1973 22.4483 15.1973 22.569L11.1447 32.1034C11.018 32.2241 10.8914 32.2241 10.8914 32.2241Z" fill="black"/>
<path d="M16.2104 30.1724C16.0838 30.1724 16.0838 30.0517 16.0838 29.931L18.3634 24.3793C18.3634 24.2586 18.49 24.2586 18.6167 24.2586C18.7433 24.2586 18.7433 24.3793 18.7433 24.5L16.3371 30.1724C16.3371 30.1724 16.3371 30.1724 16.2104 30.1724Z" fill="black"/>
<path d="M20.5163 12.069C20.5163 12.069 20.3897 12.069 20.5163 12.069C20.3897 12.069 20.3897 11.9483 20.3897 11.8276L21.4028 8.44829C21.4028 8.44829 21.5295 8.3276 21.6561 8.44829C21.7828 8.44829 21.7828 8.56898 21.7828 8.68967L20.643 12.069C20.643 12.069 20.5163 12.069 20.5163 12.069Z" fill="black"/>
<path d="M24.8222 12.9138C24.6956 12.9138 24.6956 12.9138 24.8222 12.9138C24.6956 12.9138 24.6956 12.7931 24.6956 12.6724C25.8354 9.77589 27.1018 6.87934 28.4949 4.10348C28.4949 3.98279 28.6215 3.98279 28.7482 3.98279C28.8748 3.98279 28.8748 4.10348 28.8748 4.22417C27.4817 7.00003 26.2153 9.89658 25.0755 12.7931C24.9489 12.9138 24.8222 12.9138 24.8222 12.9138Z" fill="black"/>
<path d="M20.5163 30.2931C20.5163 30.2931 20.3897 30.2931 20.5163 30.2931C20.3897 30.2931 20.3897 30.1724 20.3897 30.0517L30.7745 8.68966C30.7745 8.56897 30.9011 8.56897 31.0278 8.56897C31.1544 8.56897 31.1544 8.68966 31.1544 8.81035L20.643 30.1724C20.643 30.2931 20.5163 30.2931 20.5163 30.2931Z" fill="black"/>
<path d="M24.5689 31.1379C24.4423 31.1379 24.4423 31.0173 24.4423 30.8966L31.4077 16.2931C31.4077 16.1724 31.5344 16.1724 31.661 16.1724C31.7876 16.1724 31.7876 16.2931 31.7876 16.4138L24.8222 31.0173C24.6956 31.1379 24.6956 31.1379 24.5689 31.1379Z" fill="black"/>
<path d="M32.0409 23.8966C31.9143 23.8966 31.9143 23.7759 31.9143 23.6552L34.9537 18.2241C34.9537 18.1035 35.0804 18.1035 35.207 18.1035C35.3337 18.1035 35.3337 18.2241 35.3337 18.3448L32.2942 23.7759C32.1676 23.7759 32.0409 23.8966 32.0409 23.8966Z" fill="black"/>
<path d="M26.8485 34.0345C26.7219 34.0345 26.7219 33.9138 26.7219 33.7931L28.115 31.1379C28.115 31.0172 28.2416 31.0172 28.3682 31.0172C28.4949 31.0172 28.4949 31.1379 28.4949 31.2586L27.1018 33.9138C26.9752 34.0345 26.9752 34.0345 26.8485 34.0345Z" fill="black"/>
<path d="M3.54603 20.5173C3.41939 20.5173 3.41939 20.5173 3.54603 20.5173C3.41939 20.5173 3.41939 20.3966 3.41939 20.2759L5.31905 16.5345C5.31905 16.4138 5.44569 16.4138 5.57233 16.4138C5.69898 16.4138 5.69898 16.5345 5.69898 16.6552L3.79932 20.3966C3.54603 20.3966 3.54603 20.5173 3.54603 20.5173Z" fill="black"/>
<path d="M11.398 6.27584C11.2713 6.27584 11.2713 6.15515 11.2713 6.03446L12.6644 3.62067C12.6644 3.49998 12.791 3.49998 12.9177 3.62067C13.0443 3.62067 13.0443 3.74136 12.9177 3.86205L11.5246 6.27584H11.398Z" fill="black"/>
<g opacity="0.1294">
<path d="M25.962 19.3103C25.8354 18.4655 24.5689 18.3448 24.3156 19.1897C24.0624 20.0345 24.189 19.7931 23.3025 20.6379C22.416 21.2414 22.7959 21.1207 21.4028 21.6034C20.1364 21.9655 20.643 21.8448 19.6298 21.8448C19.5032 21.8448 19.3765 21.7241 19.2499 21.7241C18.7433 21.4828 18.8699 21.6034 17.9834 21.1207C17.6035 20.8793 17.2236 20.5172 16.717 20.5172C15.3239 20.2759 14.5641 22.2069 15.8305 22.931C17.9834 24.3793 20.263 25.1034 22.7959 23.8966C24.0624 23.1724 25.0755 22.0862 25.4554 20.6379C25.7087 20.2759 26.0887 19.7931 25.962 19.3103Z" fill="black"/>
</g>
<g opacity="0.1294">
<path d="M29.7613 32.9483C28.8748 33.1896 28.6215 33.431 27.1018 33.6724C26.3419 33.9138 25.4554 33.7931 24.8222 34.2758C23.5558 35.2414 24.5689 37.2931 26.0886 36.8103C27.9883 36.4483 30.0146 36.3276 31.5343 35C32.6741 33.7931 31.281 32.2241 29.7613 32.9483Z" fill="black"/>
</g>
<g opacity="0.1294">
<path d="M40.2728 21.2414C40.2728 21 40.1461 20.6379 40.0195 20.3966C39.3863 19.1897 37.4866 19.431 37.1067 20.6379C37.1067 20.6379 37.1067 20.7586 36.98 20.8793C36.8534 21.1207 36.7267 21.3621 36.7267 21.6035C36.6001 21.8448 36.4735 22.0862 36.4735 22.2069C36.3468 22.4483 36.2202 22.8104 36.2202 23.0517C36.2202 24.9828 39.133 25.4655 39.6396 23.5345C39.8928 22.931 40.1461 22.3276 40.2728 21.6035C40.2728 21.4828 40.2728 21.3621 40.2728 21.2414Z" fill="black"/>
</g>
<path d="M24.4423 37.2931C24.189 37.2931 24.0624 37.1724 24.0624 37.0517C23.4291 35.6034 22.7959 34.0345 21.9094 32.5862C20.1364 32.8276 18.2367 32.7069 16.4637 32.5862C15.9571 33.431 15.4506 34.3966 14.944 35.3621C14.6907 35.8448 14.3108 36.4483 14.0575 37.0517C13.9308 37.2931 13.6775 37.2931 13.4243 37.2931C10.7647 36.3276 8.3585 34.6379 6.58549 32.4655C6.45885 32.3448 6.45885 32.1034 6.58549 31.9828C7.472 30.7759 8.48515 29.4483 9.4983 27.8793C8.3585 26.5517 7.34535 24.8621 6.45885 22.8103C6.07891 22.931 5.57234 22.931 5.19241 23.0517C3.92597 23.2931 2.53288 23.6552 1.01316 23.7759C0.759868 23.7759 0.506581 23.6552 0.506581 23.4138C-0.379927 20.5172 -0.126639 17.1379 1.1398 13.5172C1.26644 13.2759 1.51973 13.1552 1.64638 13.2759C3.54603 13.7586 5.44569 14.2414 7.472 14.7241C8.23186 13.0345 9.37166 11.4655 10.3848 9.77586C9.62494 8.32759 8.61179 7 7.59864 5.31034C7.472 5.18966 7.59864 4.94828 7.72528 4.82759C9.75159 3.01724 12.2845 1.56897 15.3239 0.241379C15.5772 0.12069 15.8305 0.241379 15.9571 0.482759C16.8436 2.05172 17.7302 3.74138 18.49 5.43103C20.3897 5.06897 22.416 5.06897 24.4423 5.18966C25.3288 3.62069 26.2153 1.93103 27.3551 0.241379C27.3551 0 27.6084 0 27.8617 0C30.0146 1.08621 32.1676 2.41379 34.0672 3.98276C34.5738 4.34483 35.0804 4.82759 35.587 5.18966C35.8402 5.43103 36.0935 5.67241 36.2202 6.03448C36.2202 6.15517 36.2202 6.27586 36.0935 6.39655C35.7136 7 35.207 7.60345 34.7004 8.2069C34.0672 9.05172 33.434 10.0172 32.8008 10.9828C33.434 12.431 33.9406 13.7586 34.5738 15.2069C36.2202 15.3276 38.2465 15.6897 40.5261 16.5345C40.6527 16.6552 40.7794 16.7759 40.7794 16.8966C40.906 19.6724 40.5261 22.0862 39.6396 24.5C39.5129 24.7414 39.3863 24.8621 39.133 24.7414H38.4998C36.98 24.7414 35.5869 24.6207 33.9406 24.7414C33.3074 26.1897 32.4209 27.6379 31.0278 29.2069C31.9143 30.6552 32.8008 32.1034 33.5606 33.9138C33.6873 34.1552 33.5606 34.3966 33.3074 34.5172C30.3945 36.0862 27.4817 37.0517 24.4423 37.2931ZM22.036 31.6207C22.1627 31.6207 22.2893 31.7414 22.416 31.8621C23.4291 33.431 24.0624 34.8793 24.6956 36.4483C27.2285 36.0862 29.888 35.3621 32.4209 34.0345C31.661 32.3448 30.7745 30.8966 30.0146 29.569C29.888 29.4483 29.888 29.2069 30.0146 29.0862C31.5343 27.3966 32.4209 25.8276 33.0541 24.3793C33.1807 24.2586 33.3074 24.1379 33.434 24.1379C35.207 24.0172 36.8534 24.0172 38.3731 24.1379H38.6264C39.3863 22.0862 39.7662 19.9138 39.6396 17.5C37.4866 16.6552 35.4603 16.4138 33.9406 16.2931C33.8139 16.2931 33.5606 16.1724 33.5606 16.0517C32.9274 14.4828 32.2942 12.9138 31.661 11.3448C31.661 11.2241 31.661 11.1034 31.661 10.9828C32.4209 9.89655 33.0541 8.93103 33.8139 7.96552C34.1939 7.36207 34.5738 6.87931 34.9537 6.39655C35.0804 6.03448 34.9537 6.03448 34.8271 5.91379C34.3205 5.55172 33.8139 5.06897 33.434 4.7069C31.661 3.25862 29.7613 2.05172 27.8617 1.08621C26.8485 2.77586 25.962 4.34483 25.0755 5.91379C24.9489 6.03448 24.8222 6.15517 24.5689 6.15517C22.416 5.91379 20.263 6.03448 18.2367 6.39655C17.9834 6.39655 17.8568 6.27586 17.7302 6.15517C16.9703 4.46552 16.2104 2.89655 15.3239 1.32759C12.791 2.41379 10.5115 3.74138 8.73844 5.31034C9.62494 6.87931 10.6381 8.2069 11.5246 9.2931C11.6512 9.41379 11.6512 9.65517 11.5246 9.77586C10.2582 11.5862 9.11837 13.2759 8.3585 15.2069C8.23186 15.4483 7.97857 15.569 7.85193 15.4483C5.69898 14.9655 3.79932 14.4828 1.89966 14C0.886512 17.1379 0.633225 20.0345 1.26644 22.569C2.53288 22.3276 3.79932 22.0862 4.93912 21.8448C5.57234 21.7241 6.07891 21.6034 6.71213 21.4828C6.96542 21.4828 7.21871 21.6034 7.21871 21.7241C8.23186 24.0172 9.24501 25.7069 10.3848 27.1552C10.5115 27.2759 10.5115 27.5172 10.3848 27.6379C9.37166 29.2069 8.3585 30.5345 7.472 31.8621C8.99172 33.6724 11.018 35 13.2976 35.9655C13.5509 35.4828 13.8042 35.1207 14.0575 34.7586C14.6907 33.6724 15.1973 32.7069 15.7039 31.7414C15.8305 31.6207 15.9571 31.5 16.2104 31.5C17.9834 31.7414 20.0097 31.8621 22.036 31.6207C22.036 31.6207 21.9094 31.6207 22.036 31.6207Z" fill="black"/>
<path d="M19.3765 22.0862C18.6167 22.0862 17.8568 21.9655 17.2236 21.6034C16.5904 21.362 16.2104 21 15.9571 20.6379C15.5772 20.1551 15.4506 19.431 15.4506 18.9482C15.3239 17.1379 15.7039 15.5689 16.717 14.4827C17.8568 13.1551 19.7565 12.5517 21.2762 13.0345C21.4028 13.0345 21.4028 13.1551 21.5295 13.1551C21.5295 13.1551 21.5295 13.1551 21.6561 13.1551C23.3025 13.6379 24.5689 15.2069 24.5689 17.0172C24.6956 18.7069 23.6824 20.3965 22.2893 21.2414C21.2762 21.8448 20.3897 22.0862 19.3765 22.0862ZM20.1364 13.8793C19.1232 13.8793 18.1101 14.362 17.4769 15.2069C16.717 16.1724 16.3371 17.5 16.4637 19.0689C16.4637 19.431 16.5904 19.9138 16.8437 20.2758C16.9703 20.5172 17.3502 20.7586 17.7302 20.8793C18.9966 21.4827 20.643 21.362 21.7828 20.6379C22.9226 19.9138 23.6824 18.5862 23.6824 17.2586C23.5558 15.931 22.6693 14.6034 21.4028 14.2414H21.2762C21.1495 14.2414 20.8963 14.1207 20.8963 14C20.3897 13.8793 20.263 13.8793 20.1364 13.8793ZM21.0229 13.5172L21.1495 14L21.0229 13.5172Z" fill="black"/>
<path d="M36.2202 147C36.0935 147 35.9669 147 35.9669 146.879C35.7136 146.759 35.7136 146.397 35.9669 146.276L56.1033 123.224C56.2299 122.983 56.6098 122.983 56.7365 123.103L69.7808 132.397L98.529 87.7414C98.6556 87.6207 98.6556 87.5 98.7823 87.5C98.9089 87.5 99.0355 87.5 99.1622 87.6207L113.853 97.7586L129.81 71.2069C129.937 71.0862 130.063 70.9655 130.19 70.9655C130.317 70.9655 130.443 70.9655 130.57 71.0862L151.593 92.8103L157.798 88.1034C157.925 87.9828 158.052 87.9828 158.178 87.9828C158.305 87.9828 158.432 88.1034 158.558 88.2241L180.088 117.19L210.735 84.7241C210.862 84.4828 211.242 84.4828 211.369 84.7241C211.622 84.8448 211.622 85.2069 211.369 85.3276L180.341 118.276C180.214 118.397 180.088 118.397 179.961 118.397C179.834 118.397 179.708 118.276 179.581 118.155L157.925 89.069L151.719 93.7759C151.466 93.8965 151.213 93.8965 151.086 93.7759L130.317 72.1724L114.359 98.6034C114.233 98.7241 114.233 98.8448 114.106 98.8448C113.98 98.8448 113.853 98.8448 113.726 98.7241L99.0355 88.5862L70.2874 133.241C70.1607 133.362 70.1607 133.483 70.0341 133.483C69.9074 133.483 69.7808 133.483 69.6542 133.362L56.4832 124.069L36.6001 146.879C36.4734 147 36.3468 147 36.2202 147Z" fill="black"/>
<path d="M56.4832 159.069C56.2299 159.069 55.9766 158.828 55.9766 158.586V154.965C55.9766 154.724 56.2299 154.483 56.4832 154.483C56.7365 154.483 56.9898 154.724 56.9898 154.965V158.586C56.9898 158.828 56.8631 159.069 56.4832 159.069ZM56.4832 151.828C56.2299 151.828 55.9766 151.586 55.9766 151.345V147.724C55.9766 147.483 56.2299 147.241 56.4832 147.241C56.7365 147.241 56.9898 147.483 56.9898 147.724V151.345C56.9898 151.586 56.7365 151.828 56.4832 151.828ZM56.4832 144.586C56.2299 144.586 55.9766 144.345 55.9766 144.103V140.483C55.9766 140.241 56.2299 140 56.4832 140C56.7365 140 56.9898 140.241 56.9898 140.483V144.103C56.9898 144.345 56.7365 144.586 56.4832 144.586ZM56.4832 137.345C56.2299 137.345 55.9766 137.103 55.9766 136.862V133.241C55.9766 133 56.2299 132.759 56.4832 132.759C56.7365 132.759 56.9898 133 56.9898 133.241V136.862C56.9898 137.103 56.7365 137.345 56.4832 137.345ZM56.4832 130.103C56.2299 130.103 55.9766 129.862 55.9766 129.621V126C55.9766 125.759 56.2299 125.517 56.4832 125.517C56.7365 125.517 56.9898 125.759 56.9898 126V129.621C56.8631 129.862 56.7365 130.103 56.4832 130.103Z" fill="black"/>
<path d="M98.9089 158.345C98.6556 158.345 98.4023 158.103 98.4023 157.862V154.241C98.4023 154 98.6556 153.759 98.9089 153.759C99.1622 153.759 99.4155 154 99.4155 154.241V157.862C99.4155 158.103 99.1622 158.345 98.9089 158.345ZM98.9089 151.103C98.6556 151.103 98.4023 150.862 98.4023 150.621V147C98.4023 146.759 98.6556 146.517 98.9089 146.517C99.1622 146.517 99.4155 146.759 99.4155 147V150.621C99.4155 150.862 99.1622 151.103 98.9089 151.103ZM98.9089 143.862C98.6556 143.862 98.4023 143.621 98.4023 143.379V139.759C98.4023 139.517 98.6556 139.276 98.9089 139.276C99.1622 139.276 99.4155 139.517 99.4155 139.759V143.379C99.4155 143.621 99.1622 143.862 98.9089 143.862ZM98.9089 136.621C98.6556 136.621 98.4023 136.379 98.4023 136.138V132.517C98.4023 132.276 98.6556 132.034 98.9089 132.034C99.1622 132.034 99.4155 132.276 99.4155 132.517V136.138C99.4155 136.379 99.1622 136.621 98.9089 136.621ZM98.9089 129.379C98.6556 129.379 98.4023 129.138 98.4023 128.897V125.276C98.4023 125.034 98.6556 124.793 98.9089 124.793C99.1622 124.793 99.4155 125.034 99.4155 125.276V128.897C99.4155 129.138 99.1622 129.379 98.9089 129.379ZM98.9089 122.138C98.6556 122.138 98.4023 121.897 98.4023 121.655V118.034C98.4023 117.793 98.6556 117.552 98.9089 117.552C99.1622 117.552 99.4155 117.793 99.4155 118.034V121.655C99.4155 121.897 99.1622 122.138 98.9089 122.138ZM98.9089 114.897C98.6556 114.897 98.4023 114.655 98.4023 114.414V110.793C98.4023 110.552 98.6556 110.31 98.9089 110.31C99.1622 110.31 99.4155 110.552 99.4155 110.793V114.414C99.4155 114.655 99.1622 114.897 98.9089 114.897ZM98.9089 107.655C98.6556 107.655 98.4023 107.414 98.4023 107.172V103.552C98.4023 103.31 98.6556 103.069 98.9089 103.069C99.1622 103.069 99.4155 103.31 99.4155 103.552V107.172C99.2888 107.414 99.1622 107.655 98.9089 107.655ZM98.9089 100.414C98.6556 100.414 98.4023 100.172 98.4023 99.931V96.3103C98.4023 96.0689 98.6556 95.8276 98.9089 95.8276C99.1622 95.8276 99.4155 96.0689 99.4155 96.3103V99.931C99.2888 100.172 99.1622 100.414 98.9089 100.414ZM98.7823 93.1724C98.529 93.1724 98.2757 92.931 98.2757 92.6896V89.0689C98.2757 88.8276 98.529 88.5862 98.7823 88.5862C99.0356 88.5862 99.2888 88.8276 99.2888 89.0689V92.6896C99.2888 92.931 99.0356 93.1724 98.7823 93.1724Z" fill="black"/>
<path d="M131.076 158.345C130.823 158.345 130.57 158.103 130.57 157.862V154.241C130.57 154 130.823 153.759 131.076 153.759C131.33 153.759 131.583 154 131.583 154.241V157.862C131.456 158.103 131.33 158.345 131.076 158.345ZM131.076 151.103C130.823 151.103 130.57 150.862 130.57 150.621V147C130.57 146.759 130.823 146.517 131.076 146.517C131.33 146.517 131.583 146.759 131.583 147V150.621C131.456 150.862 131.33 151.103 131.076 151.103ZM130.95 143.862C130.697 143.862 130.443 143.621 130.443 143.379V139.759C130.443 139.517 130.697 139.276 130.95 139.276C131.203 139.276 131.456 139.517 131.456 139.759V143.379C131.456 143.621 131.33 143.862 130.95 143.862ZM130.95 136.621C130.697 136.621 130.443 136.379 130.443 136.138V132.517C130.443 132.276 130.697 132.034 130.95 132.034C131.203 132.034 131.456 132.276 131.456 132.517V136.138C131.456 136.379 131.203 136.621 130.95 136.621ZM130.95 129.379C130.697 129.379 130.443 129.138 130.443 128.897V125.276C130.443 125.034 130.697 124.793 130.95 124.793C131.203 124.793 131.456 125.034 131.456 125.276V128.897C131.456 129.138 131.203 129.379 130.95 129.379ZM130.95 122.138C130.697 122.138 130.443 121.897 130.443 121.655V118.034C130.443 117.793 130.697 117.552 130.95 117.552C131.203 117.552 131.456 117.793 131.456 118.034V121.655C131.456 121.897 131.203 122.138 130.95 122.138ZM130.95 114.897C130.697 114.897 130.443 114.655 130.443 114.414V110.793C130.443 110.552 130.697 110.31 130.95 110.31C131.203 110.31 131.456 110.552 131.456 110.793V114.414C131.456 114.655 131.203 114.897 130.95 114.897ZM130.95 107.655C130.697 107.655 130.443 107.414 130.443 107.172V103.552C130.443 103.31 130.697 103.069 130.95 103.069C131.203 103.069 131.456 103.31 131.456 103.552V107.172C131.456 107.414 131.203 107.655 130.95 107.655ZM130.95 100.414C130.697 100.414 130.443 100.172 130.443 99.931V96.3104C130.443 96.069 130.697 95.8276 130.95 95.8276C131.203 95.8276 131.456 96.069 131.456 96.3104V99.931C131.456 100.172 131.203 100.414 130.95 100.414ZM130.95 93.1724C130.697 93.1724 130.443 92.931 130.443 92.6897V89.069C130.443 88.8276 130.697 88.5862 130.95 88.5862C131.203 88.5862 131.456 88.8276 131.456 89.069V92.6897C131.456 92.931 131.203 93.1724 130.95 93.1724ZM130.95 85.931C130.697 85.931 130.443 85.6897 130.443 85.4483V81.8276C130.443 81.5862 130.697 81.3448 130.95 81.3448C131.203 81.3448 131.456 81.5862 131.456 81.8276V85.4483C131.33 85.6897 131.203 85.931 130.95 85.931ZM130.95 78.6897C130.697 78.6897 130.443 78.4483 130.443 78.2069V74.5862C130.443 74.3448 130.697 74.1035 130.95 74.1035C131.203 74.1035 131.456 74.3448 131.456 74.5862V78.2069C131.33 78.4483 131.203 78.6897 130.95 78.6897Z" fill="black"/>
<path d="M158.178 158.345C157.925 158.345 157.672 158.103 157.672 157.862V154.241C157.672 154 157.925 153.759 158.178 153.759C158.432 153.759 158.685 154 158.685 154.241V157.862C158.685 158.103 158.432 158.345 158.178 158.345ZM158.178 151.103C157.925 151.103 157.672 150.862 157.672 150.621V147C157.672 146.759 157.925 146.517 158.178 146.517C158.432 146.517 158.685 146.759 158.685 147V150.621C158.685 150.862 158.432 151.103 158.178 151.103ZM158.178 143.862C157.925 143.862 157.672 143.621 157.672 143.379V139.759C157.672 139.517 157.925 139.276 158.178 139.276C158.432 139.276 158.685 139.517 158.685 139.759V143.379C158.685 143.621 158.432 143.862 158.178 143.862ZM158.178 136.621C157.925 136.621 157.672 136.379 157.672 136.138V132.517C157.672 132.276 157.925 132.034 158.178 132.034C158.432 132.034 158.685 132.276 158.685 132.517V136.138C158.685 136.379 158.432 136.621 158.178 136.621ZM158.178 129.379C157.925 129.379 157.672 129.138 157.672 128.897V125.276C157.672 125.034 157.925 124.793 158.178 124.793C158.432 124.793 158.685 125.034 158.685 125.276V128.897C158.558 129.138 158.432 129.379 158.178 129.379ZM158.178 122.138C157.925 122.138 157.672 121.897 157.672 121.655V118.034C157.672 117.793 157.925 117.552 158.178 117.552C158.432 117.552 158.685 117.793 158.685 118.034V121.655C158.558 121.897 158.432 122.138 158.178 122.138ZM158.052 114.897C157.798 114.897 157.545 114.655 157.545 114.414V110.793C157.545 110.552 157.798 110.31 158.052 110.31C158.305 110.31 158.558 110.552 158.558 110.793V114.414C158.558 114.655 158.432 114.897 158.052 114.897ZM158.052 107.655C157.798 107.655 157.545 107.414 157.545 107.172V103.552C157.545 103.31 157.798 103.069 158.052 103.069C158.305 103.069 158.558 103.31 158.558 103.552V107.172C158.558 107.414 158.305 107.655 158.052 107.655ZM158.052 100.414C157.798 100.414 157.545 100.172 157.545 99.931V96.3103C157.545 96.0689 157.798 95.8276 158.052 95.8276C158.305 95.8276 158.558 96.0689 158.558 96.3103V99.931C158.558 100.172 158.305 100.414 158.052 100.414ZM158.052 93.1724C157.798 93.1724 157.545 92.931 157.545 92.6896V89.0689C157.545 88.8276 157.798 88.5862 158.052 88.5862C158.305 88.5862 158.558 88.8276 158.558 89.0689V92.6896C158.558 92.931 158.305 93.1724 158.052 93.1724Z" fill="black"/>
<path d="M211.115 159.069C210.862 159.069 210.609 158.828 210.609 158.586V154.965C210.609 154.724 210.862 154.483 211.115 154.483C211.369 154.483 211.622 154.724 211.622 154.965V158.586C211.495 158.828 211.369 159.069 211.115 159.069ZM211.115 151.828C210.862 151.828 210.609 151.586 210.609 151.345V147.724C210.609 147.483 210.862 147.241 211.115 147.241C211.369 147.241 211.622 147.483 211.622 147.724V151.345C211.495 151.586 211.369 151.828 211.115 151.828ZM210.989 144.586C210.736 144.586 210.482 144.345 210.482 144.103V140.483C210.482 140.241 210.736 140 210.989 140C211.242 140 211.495 140.241 211.495 140.483V144.103C211.495 144.345 211.242 144.586 210.989 144.586ZM210.989 137.345C210.736 137.345 210.482 137.103 210.482 136.862V133.241C210.482 133 210.736 132.759 210.989 132.759C211.242 132.759 211.495 133 211.495 133.241V136.862C211.495 137.103 211.242 137.345 210.989 137.345ZM210.989 130.103C210.736 130.103 210.482 129.862 210.482 129.621V126C210.482 125.759 210.736 125.517 210.989 125.517C211.242 125.517 211.495 125.759 211.495 126V129.621C211.495 129.862 211.242 130.103 210.989 130.103ZM210.989 122.862C210.736 122.862 210.482 122.621 210.482 122.379V118.759C210.482 118.517 210.736 118.276 210.989 118.276C211.242 118.276 211.495 118.517 211.495 118.759V122.379C211.495 122.621 211.242 122.862 210.989 122.862ZM210.989 115.621C210.736 115.621 210.482 115.379 210.482 115.138V111.517C210.482 111.276 210.736 111.034 210.989 111.034C211.242 111.034 211.495 111.276 211.495 111.517V115.138C211.495 115.379 211.242 115.621 210.989 115.621ZM210.989 108.379C210.736 108.379 210.482 108.138 210.482 107.897V104.276C210.482 104.034 210.736 103.793 210.989 103.793C211.242 103.793 211.495 104.034 211.495 104.276V107.897C211.495 108.138 211.242 108.379 210.989 108.379ZM210.989 101.138C210.736 101.138 210.482 100.897 210.482 100.655V97.0345C210.482 96.7931 210.736 96.5517 210.989 96.5517C211.242 96.5517 211.495 96.7931 211.495 97.0345V100.655C211.495 100.897 211.242 101.138 210.989 101.138ZM210.989 93.8965C210.736 93.8965 210.482 93.6552 210.482 93.4138V89.7931C210.482 89.5517 210.736 89.3103 210.989 89.3103C211.242 89.3103 211.495 89.5517 211.495 89.7931V93.4138C211.369 93.6552 211.242 93.8965 210.989 93.8965ZM210.989 86.6552C210.736 86.6552 210.482 86.4138 210.482 86.1724V84.8448C210.482 84.6034 210.736 84.3621 210.989 84.3621C211.242 84.3621 211.495 84.6034 211.495 84.8448V86.1724C211.369 86.4138 211.242 86.6552 210.989 86.6552Z" fill="black"/>
<path d="M217.828 159.069H32.1676C31.9143 159.069 31.661 158.828 31.661 158.586C31.661 158.345 31.9143 158.103 32.1676 158.103H217.828C218.081 158.103 218.334 158.345 218.334 158.586C218.208 158.828 218.081 159.069 217.828 159.069Z" fill="black"/>
<path d="M136.522 156.776C136.522 156.776 136.396 156.776 136.522 156.776L133.356 154.121C133.229 154.121 133.229 154 133.356 153.879C133.356 153.759 133.483 153.759 133.609 153.879L136.649 156.414C136.649 156.655 136.649 156.655 136.522 156.776C136.522 156.776 136.649 156.776 136.522 156.776Z" fill="black"/>
<path d="M141.335 156.897C138.295 154.966 135.509 152.793 132.723 150.621C132.596 150.621 132.596 150.5 132.723 150.379C132.723 150.259 132.849 150.259 132.976 150.379C135.636 152.552 138.548 154.724 141.461 156.655C141.588 156.655 141.588 156.776 141.461 156.897C141.461 156.897 141.461 156.897 141.335 156.897Z" fill="black"/>
<path d="M145.261 156.776C145.134 156.776 145.134 156.776 145.261 156.776C141.081 153.638 137.029 150.5 132.976 147.241C132.849 147.241 132.849 147.121 132.976 147C132.976 146.879 133.103 146.879 133.229 147C137.282 150.138 141.335 153.397 145.387 156.414C145.387 156.655 145.387 156.655 145.261 156.776Z" fill="black"/>
<path d="M149.06 156.897C143.488 152.672 138.042 148.328 132.849 143.983C132.723 143.983 132.723 143.862 132.849 143.741C132.849 143.621 132.976 143.621 133.103 143.741C138.295 148.207 143.741 152.552 149.187 156.655C149.313 156.655 149.313 156.776 149.06 156.897C149.187 156.897 149.187 156.897 149.06 156.897Z" fill="black"/>
<path d="M152.606 156.897C152.479 156.897 152.479 156.897 152.606 156.897C146.274 151.345 139.815 146.034 133.229 140.845C133.103 140.845 133.103 140.724 133.229 140.603C133.229 140.483 133.356 140.483 133.483 140.603C140.068 145.672 146.527 151.103 152.733 156.655C152.733 156.655 152.733 156.776 152.606 156.897Z" fill="black"/>
<path d="M156.785 156.534C156.785 156.534 156.659 156.534 156.785 156.534L132.976 136.379C132.849 136.379 132.849 136.259 132.976 136.138C132.976 136.017 133.103 136.017 133.229 136.138L156.912 156.293C156.912 156.414 156.912 156.414 156.785 156.534C156.785 156.534 156.912 156.534 156.785 156.534Z" fill="black"/>
<path d="M155.899 151.828C147.92 145.672 140.195 139.155 132.849 132.397C132.849 132.397 132.723 132.276 132.849 132.155C132.849 132.155 132.976 132.035 133.103 132.155C140.448 138.914 148.173 145.431 156.025 151.586C156.025 151.586 156.152 151.707 155.899 151.828C155.899 151.828 156.025 151.828 155.899 151.828Z" fill="black"/>
<path d="M155.519 147.724C155.519 147.724 155.392 147.724 155.519 147.724L132.849 128.414C132.723 128.414 132.723 128.293 132.849 128.172C132.849 128.052 132.976 128.052 133.103 128.172L155.645 147.362C155.645 147.603 155.645 147.603 155.519 147.724C155.519 147.724 155.645 147.724 155.519 147.724Z" fill="black"/>
<path d="M155.392 143.379C155.265 143.379 155.265 143.379 155.392 143.379C152.479 141.448 149.946 139.155 147.414 137.103C142.601 133 137.789 128.776 133.103 124.552C133.103 124.552 132.976 124.431 133.103 124.31C133.103 124.19 133.229 124.19 133.356 124.31C138.042 128.655 142.981 132.759 147.667 136.862C150.2 139.035 152.733 141.207 155.519 143.138C155.645 143.138 155.645 143.259 155.519 143.379C155.519 143.379 155.392 143.379 155.392 143.379Z" fill="black"/>
<path d="M155.392 139.759C155.392 139.759 155.265 139.759 155.392 139.759C147.54 133.845 140.068 127.569 132.976 121.052C132.976 121.052 132.849 120.931 132.976 120.81C132.976 120.81 133.103 120.69 133.229 120.81C140.321 127.328 147.793 133.603 155.519 139.397C155.519 139.638 155.519 139.638 155.392 139.759C155.392 139.759 155.519 139.759 155.392 139.759Z" fill="black"/>
<path d="M155.392 136.259C155.265 136.259 155.265 136.259 155.392 136.259C147.793 129.983 140.195 123.586 132.976 117.069C132.849 117.069 132.849 116.948 132.976 116.828C132.976 116.828 133.103 116.707 133.229 116.828C140.575 123.345 148.047 129.741 155.519 136.017C155.519 136.017 155.519 136.138 155.392 136.259Z" fill="black"/>
<path d="M155.265 132.517C155.265 132.517 155.139 132.517 155.265 132.517C147.54 126.603 140.068 120.448 132.849 114.052C132.723 114.052 132.723 113.931 132.849 113.81C132.849 113.69 132.976 113.69 133.103 113.81C140.321 120.086 147.793 126.241 155.392 132.155C155.392 132.276 155.392 132.397 155.265 132.517C155.265 132.517 155.392 132.517 155.265 132.517Z" fill="black"/>
<path d="M155.265 128.776L132.849 110.793C132.723 110.793 132.723 110.672 132.849 110.552C132.849 110.431 132.976 110.431 133.103 110.552L155.392 128.534C155.392 128.534 155.519 128.655 155.265 128.776C155.392 128.776 155.392 128.776 155.265 128.776Z" fill="black"/>
<path d="M155.519 125.397L132.723 107.172C132.596 107.172 132.596 107.052 132.723 106.931C132.723 106.81 132.849 106.81 132.976 106.931L155.772 125.034C155.772 125.155 155.772 125.276 155.519 125.397C155.645 125.397 155.645 125.397 155.519 125.397Z" fill="black"/>
<path d="M155.392 121.172C147.667 115.259 140.068 109.224 132.723 103.069C132.596 103.069 132.596 102.948 132.723 102.828C132.723 102.707 132.849 102.707 132.976 102.828C140.321 108.983 147.92 115.017 155.645 120.931C155.519 121.052 155.519 121.052 155.392 121.172C155.392 121.172 155.519 121.172 155.392 121.172Z" fill="black"/>
<path d="M155.519 117.914C147.667 112.121 139.942 105.966 132.47 99.8103C132.343 99.8103 132.343 99.6897 132.47 99.569C132.47 99.4483 132.596 99.4483 132.723 99.569C140.068 105.845 147.793 111.879 155.645 117.672C155.772 117.672 155.772 117.793 155.519 117.914C155.645 117.914 155.645 117.914 155.519 117.914Z" fill="black"/>
<path d="M155.519 114.293C155.519 114.293 155.392 114.293 155.519 114.293C147.54 108.862 139.815 102.948 132.723 96.5517C132.596 96.5517 132.596 96.4311 132.723 96.3104C132.723 96.1897 132.849 96.1897 132.976 96.3104C140.068 102.707 147.667 108.621 155.645 114.052C155.772 114.052 155.772 114.172 155.645 114.293H155.519Z" fill="black"/>
<path d="M155.265 110.914C155.265 110.914 155.139 110.793 155.265 110.914C147.287 105.483 139.815 99.569 132.723 93.1724C132.596 93.1724 132.596 93.0517 132.723 92.931C132.723 92.8103 132.849 92.8103 132.976 92.931C140.068 99.2069 147.54 105.121 155.392 110.552C155.519 110.552 155.519 110.672 155.392 110.793L155.265 110.914Z" fill="black"/>
<path d="M155.392 107.293C147.667 101.621 140.068 95.7069 132.723 89.7931C132.596 89.7931 132.596 89.6724 132.723 89.5517C132.723 89.431 132.849 89.431 132.976 89.5517C140.321 95.5862 147.92 101.5 155.519 107.052C155.645 107.052 155.645 107.172 155.392 107.293C155.519 107.293 155.519 107.293 155.392 107.293Z" fill="black"/>
<path d="M155.139 103.069C151.466 100.414 148.047 97.8793 144.247 95.1034C140.448 92.2069 136.522 89.3103 132.343 86.2931C132.216 86.2931 132.216 86.1724 132.343 86.0517C132.343 85.931 132.47 85.931 132.596 86.0517C136.649 89.0689 140.701 91.9655 144.501 94.862C148.173 97.6379 151.719 100.293 155.265 102.828C155.265 102.828 155.392 102.948 155.139 103.069C155.265 103.069 155.265 102.948 155.139 103.069Z" fill="black"/>
<path d="M155.012 99.569C154.886 99.569 154.886 99.569 155.012 99.569C148.807 94.8621 140.701 88.8276 132.47 83.0345C132.343 83.0345 132.343 82.9138 132.47 82.7931C132.47 82.6724 132.596 82.6724 132.723 82.7931C140.955 88.5862 149.06 94.7414 155.265 99.3276C155.139 99.3276 155.139 99.4483 155.012 99.569Z" fill="black"/>
<path d="M145.007 88.8276C140.575 85.6897 136.902 82.9138 133.483 80.2587C133.356 80.2587 133.356 80.138 133.483 80.0173C133.483 79.8966 133.609 79.8966 133.736 80.0173C137.155 82.5518 140.828 85.3276 145.134 88.4656C145.261 88.5862 145.261 88.7069 145.007 88.8276C145.134 88.8276 145.134 88.7069 145.007 88.8276Z" fill="black"/>
<path d="M155.265 96.069C155.265 96.069 155.139 96.069 155.265 96.069C154.506 95.5862 153.746 95.1035 153.113 94.6207C152.986 94.6207 152.986 94.5 153.113 94.3793C153.113 94.2586 153.239 94.2586 153.366 94.3793C154.126 94.8621 154.759 95.3449 155.519 95.8276C155.645 95.8276 155.645 95.9483 155.519 96.069C155.392 96.069 155.265 96.069 155.265 96.069Z" fill="black"/>
<path d="M115.879 55.7587H38.4998V106.448H115.879V55.7587Z" fill="#ACACAC"/>
<path d="M115.879 106.931H38.4998C38.2465 106.931 37.9932 106.69 37.9932 106.448V55.7586C37.9932 55.5173 38.2465 55.2759 38.4998 55.2759H115.879C116.132 55.2759 116.386 55.5173 116.386 55.7586V106.448C116.386 106.69 116.132 106.931 115.879 106.931ZM39.0063 105.966H115.373V56.2414H39.0063V105.966Z" fill="black"/>
<path d="M98.7823 71.569H55.47C55.2168 71.569 54.9635 71.3276 54.9635 71.0862C54.9635 70.8448 55.2168 70.6035 55.47 70.6035H98.7823C99.0356 70.6035 99.2889 70.8448 99.2889 71.0862C99.2889 71.4483 99.1622 71.569 98.7823 71.569Z" fill="black"/>
<path d="M99.7954 93.0518H56.4832C56.2299 93.0518 55.9766 92.8104 55.9766 92.569C55.9766 92.3276 56.2299 92.0862 56.4832 92.0862H99.7954C100.049 92.0862 100.302 92.3276 100.302 92.569C100.302 92.8104 100.049 93.0518 99.7954 93.0518Z" fill="black"/>
<path d="M80.7988 82.1897H48.1247C47.8714 82.1897 47.6181 81.9483 47.6181 81.7069C47.6181 81.4656 47.8714 81.2242 48.1247 81.2242H80.6722C80.9255 81.2242 81.1788 81.4656 81.1788 81.7069C81.1788 81.9483 81.0521 82.1897 80.7988 82.1897Z" fill="black"/>
<path d="M92.1968 73.6207C93.7355 73.6207 94.9829 72.4319 94.9829 70.9655C94.9829 69.4991 93.7355 68.3104 92.1968 68.3104C90.658 68.3104 89.4106 69.4991 89.4106 70.9655C89.4106 72.4319 90.658 73.6207 92.1968 73.6207Z" fill="#638ADC"/>
<path d="M92.1968 73.9828C90.4238 73.9828 89.0307 72.6552 89.0307 70.9655C89.0307 69.2759 90.4238 67.9483 92.1968 67.9483C93.9698 67.9483 95.3629 69.2759 95.3629 70.9655C95.3629 72.6552 93.9698 73.9828 92.1968 73.9828ZM92.1968 68.7931C90.9303 68.7931 89.9172 69.7586 89.9172 70.9655C89.9172 72.1724 90.9303 73.138 92.1968 73.138C93.4632 73.138 94.4764 72.1724 94.4764 70.9655C94.4764 69.7586 93.4632 68.7931 92.1968 68.7931Z" fill="black"/>
<path d="M64.2085 85.2069C65.7472 85.2069 66.9946 84.0181 66.9946 82.5517C66.9946 81.0853 65.7472 79.8965 64.2085 79.8965C62.6697 79.8965 61.4223 81.0853 61.4223 82.5517C61.4223 84.0181 62.6697 85.2069 64.2085 85.2069Z" fill="white"/>
<path d="M64.2085 85.569C62.4355 85.569 61.0424 84.2414 61.0424 82.5517C61.0424 80.8621 62.4355 79.5345 64.2085 79.5345C65.9815 79.5345 67.3746 80.8621 67.3746 82.5517C67.5012 84.1207 65.9815 85.569 64.2085 85.569ZM64.2085 80.3793C62.942 80.3793 61.9289 81.3448 61.9289 82.5517C61.9289 83.7586 62.942 84.7241 64.2085 84.7241C65.4749 84.7241 66.4881 83.7586 66.4881 82.5517C66.4881 81.3448 65.4749 80.3793 64.2085 80.3793Z" fill="black"/>
<path d="M89.4106 92.569C89.4106 91.1207 90.6771 89.9138 92.1968 89.9138C93.7165 89.9138 94.9829 91.1207 94.9829 92.569C94.9829 94.0173 93.7165 95.2242 92.1968 95.2242C90.6771 95.2242 89.4106 94.0173 89.4106 92.569Z" fill="#638ADC"/>
<path d="M92.1968 95.7069C90.4238 95.7069 89.0307 94.3793 89.0307 92.6897C89.0307 91 90.4238 89.6724 92.1968 89.6724C93.9698 89.6724 95.3629 91 95.3629 92.6897C95.3629 94.2586 93.9698 95.7069 92.1968 95.7069ZM92.1968 90.3966C90.9303 90.3966 89.9172 91.3621 89.9172 92.569C89.9172 93.7759 90.9303 94.7414 92.1968 94.7414C93.4632 94.7414 94.4764 93.7759 94.4764 92.569C94.4764 91.3621 93.4632 90.3966 92.1968 90.3966Z" fill="black"/>
<g opacity="0.1294">
<path d="M115.246 106.81C114.993 106.81 114.866 106.81 114.613 106.81C113.093 106.81 111.573 106.81 109.927 106.69C106.381 106.569 102.835 106.569 99.1622 106.448C94.983 106.448 90.8037 106.569 86.6245 106.69C84.3449 106.81 81.9386 106.69 79.659 106.69C76.3663 106.69 73.0735 106.81 69.9075 106.81C61.2957 106.207 52.6839 106.086 44.0721 106.328C42.2991 106.448 40.5261 105.845 38.8797 106.328C37.2333 106.931 37.7399 109.466 39.5129 109.345C40.906 109.224 42.2991 109.466 43.5655 109.466C47.2382 109.466 50.9109 109.466 54.4569 109.466C59.5226 109.466 64.5884 109.828 69.5275 110.069C72.9469 110.19 76.2396 110.069 79.659 110.069C82.1919 110.069 84.5982 110.19 87.131 110.19C90.8037 110.19 94.4764 110.069 98.149 110.069C101.442 110.069 104.735 110.069 108.027 110.069C109.927 110.069 111.827 110.069 113.726 109.948C114.233 109.948 114.866 109.948 115.373 109.828C115.879 109.828 116.386 109.466 116.512 108.983C117.019 107.897 116.259 106.69 115.246 106.81Z" fill="black"/>
</g>
<path d="M251.642 73.7414C249.868 71.2069 249.235 68.0689 250.122 65.1724C250.882 62.7586 252.528 60.5862 254.681 58.7758C252.275 55.3965 249.489 52.1379 246.576 49C246.322 48.7586 246.069 48.3965 245.689 48.2758C245.183 47.9138 244.549 47.6724 243.916 47.3103C241.257 50.0862 237.331 51.5345 233.278 51.5345C228.086 50.931 223.527 47.431 221.754 42.7241C216.688 43.4483 211.875 44.7758 207.316 46.7069C208.203 48.1552 208.456 49.9655 208.456 51.6552C208.456 53.4655 208.076 55.3965 207.19 57.0862C206.303 58.7758 204.91 60.2241 203.01 60.9483C201.997 61.431 200.857 61.5517 199.591 61.6724C197.565 61.7931 195.538 61.7931 193.639 61.6724C193.639 61.6724 189.839 74.8276 190.346 74.8276C191.612 75.0689 192.752 75.431 194.019 75.7931C195.412 76.1552 196.678 76.6379 197.818 77.362C198.958 78.0862 199.971 79.1724 200.351 80.3793C200.604 81.2241 200.477 82.069 200.351 83.0345C199.844 86.1724 198.071 89.0689 195.538 91.2414C195.538 91.2414 204.91 99.931 205.037 99.931C206.05 98.4827 207.823 97.5172 209.596 96.7931C210.356 96.431 210.989 96.0689 211.749 95.8276C214.535 94.9827 217.701 95.8276 219.854 97.7586C222.007 99.5689 223.147 102.345 223.273 105.121C226.566 105 229.859 104.759 233.278 104.397C234.671 104.276 236.191 104.155 237.584 103.069C237.457 100.293 238.091 97.5172 239.357 94.9827C239.99 93.7758 240.75 92.5689 241.89 91.7241C243.536 90.3965 245.689 89.9138 247.842 90.0345C249.995 90.1552 252.021 90.8793 254.048 91.6034C256.201 87.7414 258.48 83.7586 259.114 79.4138C256.074 78.0862 253.415 76.2758 251.642 73.7414Z" fill="white"/>
<path d="M235.431 61.5517C232.392 59.7413 228.466 59.0172 225.553 59.2586C220.487 59.7413 216.688 62.1551 214.028 66.3793C211.369 70.4827 210.989 75.7931 213.015 80.2586C215.168 84.6034 219.727 87.862 224.793 88.4655C229.099 88.9482 233.531 87.6207 236.698 84.9655C239.99 82.3103 241.257 78.4482 241.637 74.4655C241.89 72.4138 241.003 65.0517 235.431 61.5517ZM229.605 82.6724C225.553 84 220.614 82.5517 218.081 79.2931C217.321 78.3276 216.814 77.2413 216.561 76.0345C216.308 74.8276 216.561 73.6207 216.814 72.4138C217.574 69.6379 219.221 66.862 221.88 65.2931C224.54 63.7241 227.959 63.2413 230.745 64.5689C234.165 66.2586 236.318 69.7586 236.444 73.2586C236.698 77.362 233.658 81.3448 229.605 82.6724Z" fill="#638ADC"/>
<g opacity="0.1294">
<path d="M242.65 72.8965C242.523 72.4138 242.27 71.931 242.143 71.4483C241.763 70.6034 241.383 69.6379 241.13 68.7931H241.003C239.99 69.2758 240.497 70 240.497 70.8448C240.623 71.6896 240.877 72.5345 241.003 73.5C241.13 74.3448 241.13 75.3103 241.13 76.1552C241.13 76.1552 241.13 76.1552 241.13 76.2758C241.003 76.7586 240.75 77.2414 240.623 77.7241C239.99 79.7759 239.737 80.3793 238.471 82.069C238.344 82.1896 238.217 82.3103 238.217 82.431C238.091 82.5517 237.711 83.0345 237.711 83.1552C237.711 83.1552 237.711 83.2758 237.584 83.2758C237.584 83.3965 237.457 83.3965 237.457 83.5172C237.331 83.7586 236.571 84.4827 236.571 84.4827C235.558 85.2069 235.558 85.2069 234.418 86.0517C233.531 86.5345 232.645 87.0172 231.758 87.5C230.619 87.9827 229.226 88.5862 227.453 88.7069C226.059 88.7069 224.666 88.7069 223.273 88.5862C221.12 88.2241 220.614 87.8621 218.841 86.8965C218.334 86.6552 217.701 85.931 217.068 86.0517C217.574 86.5345 218.081 87.0172 218.587 87.5C219.221 88.1034 219.854 88.7069 220.614 89.3103C222.767 90.0345 225.046 90.5172 227.326 90.3965C228.592 90.3965 229.859 90.2758 231.125 90.0345C233.278 89.431 235.431 88.4655 237.204 87.1379C238.471 86.0517 239.864 84.9655 241.003 83.7586C242.523 81.3448 243.283 78.6896 243.283 76.6379C242.903 75.5517 242.903 74.2241 242.65 72.8965Z" fill="black"/>
</g>
<g opacity="0.1294">
<path d="M259.62 79.4138C259.493 78.8103 258.48 78.6896 258.1 79.2931C256.581 81.7069 255.188 84.1207 253.668 86.4138C253.035 87.3793 252.148 88.2241 251.768 89.3103C251.642 89.5517 251.388 89.7931 251.388 90.1552C251.135 91 252.401 91.7241 253.161 91.2414C253.415 91.1207 253.668 90.7586 253.794 90.5172C253.921 90.3965 254.048 90.2759 254.174 90.1552C255.694 88.1034 256.454 85.6896 257.72 83.5172C258.354 82.431 258.987 81.2241 259.62 80.1379C259.62 79.7759 259.62 79.5345 259.62 79.4138Z" fill="black"/>
</g>
<g opacity="0.1294">
<path d="M235.811 100.534C235.178 100.414 234.671 100.655 234.165 100.776C230.365 101.741 227.832 101.741 223.527 101.621C221.627 101.621 221.627 104.397 223.527 104.397C226.819 104.517 230.112 104.517 233.278 103.793C234.038 103.672 234.798 103.431 235.558 103.31C236.064 103.19 236.444 102.948 236.698 102.586C237.204 101.741 236.698 100.776 235.811 100.534Z" fill="black"/>
</g>
<path d="M223.02 105C222.767 105 222.513 104.759 222.513 104.517C222.387 101.862 221.12 99.3276 218.967 97.5172C218.081 96.7931 216.688 95.8276 215.041 95.7069C213.648 95.5862 212.255 96.069 210.862 96.5517C208.709 97.2758 206.683 98.2414 205.29 100.172C205.163 100.293 205.163 100.293 205.037 100.414C204.91 100.414 204.783 100.414 204.657 100.293C200.604 97.3965 197.438 94.5 195.032 91.4827C194.905 91.2414 194.905 91 195.158 90.8793C197.565 88.9483 199.338 86.1724 199.971 83.1552C200.224 81.9483 200.224 81.1034 199.971 80.2586C199.464 78.931 198.198 77.7241 196.045 76.7586C194.145 75.9138 191.992 75.3103 189.713 74.9483C189.586 74.9483 189.459 74.8276 189.459 74.7069C189.333 74.5862 189.333 74.4655 189.333 74.3448C190.093 69.8793 191.486 65.4138 193.385 60.9483C193.512 60.7069 193.765 60.5862 194.019 60.7069C196.551 61.5517 203.01 61.6724 205.543 58.7758C209.849 53.9483 207.823 48.3965 207.063 46.8276C206.936 46.5862 207.063 46.3448 207.316 46.2241C209.722 45.1379 213.775 44.0517 218.081 42.8448C219.347 42.4827 220.74 42.1207 222.133 41.7586C222.26 41.7586 222.513 41.7586 222.64 41.8793C222.767 42 222.767 42.1207 222.767 42.3621C222.513 43.3276 224.92 47.5517 228.592 49.2414C237.077 53.3448 242.523 48.2758 243.916 46.5862C244.043 46.4655 244.17 46.4655 244.296 46.4655C244.423 46.4655 244.549 46.4655 244.676 46.5862C248.855 50.4483 252.275 54.431 255.314 58.4138C255.441 58.5345 255.441 58.6552 255.441 58.7758C255.441 58.8965 255.314 59.0172 255.188 59.0172C251.642 61.431 249.742 66.0172 250.628 70C251.515 73.9827 255.188 77.4827 259.747 78.569C259.873 78.569 260 78.6896 260 78.8103C260.127 78.931 260.127 79.0517 260 79.1724C258.607 83.6379 256.581 88.1034 254.048 91.9655C253.921 92.2069 253.668 92.2069 253.415 92.2069C250.122 90.8793 246.956 89.7931 244.043 90.7586C241.89 91.4827 240.117 93.2931 239.104 95.7069C238.344 97.5172 238.091 99.5689 237.837 101.621C237.837 102.103 237.711 102.466 237.711 102.948C237.711 103.19 237.584 103.31 237.331 103.31C232.392 104.397 227.706 104.879 223.02 105ZM214.661 94.7414C214.915 94.7414 215.041 94.7414 215.295 94.7414C216.814 94.8621 218.334 95.5862 219.727 96.7931C221.88 98.7241 223.273 101.259 223.527 104.034C227.959 103.914 232.392 103.431 236.951 102.466C236.951 102.103 237.077 101.741 237.077 101.5C237.331 99.3276 237.584 97.2758 238.344 95.3448C239.484 92.6896 241.383 90.6379 243.79 89.9138C246.956 88.9483 250.248 90.0345 253.415 91.2414C255.694 87.7414 257.467 83.6379 258.86 79.4138C254.174 78.0862 250.502 74.4655 249.489 70.2414C248.475 66.0172 250.375 61.1896 254.048 58.5345C251.135 54.7931 247.842 51.1724 244.043 47.431C242.27 49.2414 236.571 54.1896 227.832 49.9655C224.413 48.3965 221.754 44.6552 221.5 42.7241C220.36 43.0862 219.221 43.3276 218.081 43.6896C214.028 44.7759 210.229 45.8621 207.823 46.8276C208.709 48.8793 210.356 54.431 205.923 59.2586C203.137 62.3965 196.805 62.5172 193.765 61.6724C192.119 65.7758 190.852 69.8793 190.093 74.1034C192.246 74.4655 194.272 75.069 196.171 75.9138C198.578 77 200.097 78.3276 200.604 79.8965C200.857 80.8621 200.984 81.8276 200.731 83.1552C200.097 86.1724 198.451 89.069 195.918 91.1207C198.198 93.8965 201.111 96.431 204.783 99.0862C206.303 97.2758 208.329 96.3103 210.482 95.4655C211.875 95.2241 213.268 94.7414 214.661 94.7414Z" fill="black"/>
<path d="M226.059 83.5173C222.64 83.5173 219.347 82.069 217.321 79.4138C216.435 78.3276 215.928 77.1207 215.675 75.9138C215.421 74.8276 215.548 73.6207 215.928 72.1724C216.814 69.0345 218.714 66.3793 221.247 64.8104C224.16 63 227.832 62.7586 230.619 64.0862C234.038 65.7759 236.444 69.2759 236.571 73.1379C236.824 77.3621 233.658 81.5862 229.352 82.9138C228.212 83.3966 227.073 83.5173 226.059 83.5173ZM226.566 64.2069C224.92 64.2069 223.147 64.6897 221.627 65.6552C219.347 67.1035 217.574 69.6379 216.814 72.5345C216.434 73.8621 216.434 74.9483 216.561 75.9138C216.688 76.8793 217.194 77.9655 217.954 78.9311C220.36 82.069 225.046 83.3966 228.972 82.1897C232.898 80.9828 235.684 77.1207 235.431 73.2586C235.304 69.7586 233.152 66.5 229.985 64.931C228.972 64.4483 227.832 64.2069 226.566 64.2069Z" fill="black"/>
<path d="M226.059 88.9483C225.426 88.9483 224.92 88.9483 224.286 88.8276C219.094 88.2241 214.282 84.8448 212.129 80.3793C209.976 75.9138 210.356 70.3621 213.142 66.1379C215.928 61.7931 219.981 59.3793 225.046 58.8966C228.339 58.5345 232.392 59.5 235.178 61.3104C241.257 65.0517 241.89 72.7759 241.637 74.5862C241.13 79.4138 239.484 83.0345 236.444 85.4483C233.658 87.6207 229.859 88.9483 226.059 88.9483ZM225.046 59.7414C220.234 60.2241 216.561 62.5173 213.902 66.6207C211.242 70.6035 210.862 75.7931 212.888 80.0173C214.915 84.3621 219.474 87.3793 224.286 87.9828C228.339 88.4655 232.645 87.1379 235.811 84.6035C238.597 82.3104 240.117 79.0517 240.623 74.3448C240.877 72.1724 239.864 65.1724 234.545 61.9138C232.012 60.3448 228.212 59.3793 225.046 59.7414Z" fill="black"/>
<g opacity="0.1294">
<path d="M223.147 104.759C223.02 103.914 222.64 101.5 222.26 100.293C221.12 96.6724 217.321 93.5344 213.268 95.2241C211.495 95.8275 209.976 96.9137 208.709 97.8793C208.456 97.7586 208.203 97.7586 207.949 97.8793C207.063 98.2413 206.176 98.6034 205.163 98.7241C205.163 98.7241 205.163 98.7241 205.037 98.7241H204.91C204.277 98.362 203.77 98 203.137 97.6379C203.01 97.5172 202.757 97.2758 202.63 97.1551C202.377 96.9138 201.997 96.5517 201.491 96.431C201.111 96.1896 200.731 95.8275 199.971 94.9827C199.084 94.1379 198.071 93.2931 197.185 92.4482C196.678 91.9655 196.045 91.362 195.285 91.2413C194.652 91.1206 193.892 91.6034 193.765 92.2069C193.512 92.8103 193.892 93.5344 194.525 93.7758C194.905 94.1379 195.285 94.5 195.665 94.862C197.185 96.431 198.578 98.1207 200.477 99.3275C201.491 100.172 202.377 101.017 203.39 101.741C204.277 102.345 205.163 102.828 206.303 102.828C207.696 102.828 208.836 101.741 209.722 100.897C212.255 98.8448 215.168 97.3965 216.308 98C217.574 98.6034 217.701 98.9655 218.081 99.4482C218.967 100.897 218.714 101.621 219.221 104.034C219.347 104.517 219.347 105 219.474 105.362C219.601 105.845 219.854 106.328 220.234 106.69C220.614 107.052 221.12 107.172 221.5 107.293C221.88 107.414 222.26 107.293 222.64 107.414C223.02 107.414 223.527 107.534 223.906 107.293C224.413 107.172 224.793 106.569 224.793 106.086C225.046 105.121 224.16 104.759 223.147 104.759Z" fill="black"/>
</g>
<g opacity="0.1294">
<path d="M198.578 77.8448C196.551 76.2758 194.145 75.5517 191.739 74.9482H191.612C191.612 74.9482 191.486 74.8276 191.486 74.7069C190.599 73.2586 188.32 74.4655 189.079 76.0344C189.839 77.4827 191.612 77.7241 193.005 78.0862C195.285 78.8103 197.565 79.6551 198.704 80.5C199.338 81.1034 200.351 80.6207 200.351 79.8965C200.224 78.8103 199.211 78.3276 198.578 77.8448Z" fill="black"/>
</g>
<path d="M81.6853 166.552L80.039 161.362L83.4584 156.655L74.9732 150.983C73.8334 152.672 72.8203 154.483 71.6805 156.172C71.6805 156.293 71.5538 156.414 71.4272 156.414C71.3005 156.535 71.1739 156.535 71.0472 156.535C69.1476 156.535 67.2479 156.535 65.3483 156.414C64.4618 154.724 63.5753 153.035 62.5621 151.466C62.4355 151.345 62.4355 151.224 62.1822 151.224C62.0555 151.224 61.9289 151.224 61.8022 151.345C59.5226 152.672 57.3697 154 55.0901 155.328L54.9635 155.448C54.8368 155.569 54.9635 155.81 55.0901 155.931C55.9766 157.379 56.9898 158.707 58.1296 160.035C57.1164 161.845 56.1033 163.535 54.8368 165.103C54.5835 165.466 54.2036 165.948 53.8237 166.069C53.4437 166.19 53.0638 166.069 52.6839 165.948C51.1641 165.466 49.5178 164.983 47.998 164.5C46.7316 167.517 46.4783 171.017 47.2382 174.155C47.3648 174.397 53.1904 173.552 53.1904 173.552L56.6098 179.466L53.8237 183.931L60.2825 188.517L63.5753 183.81L69.4009 183.931L71.6805 188.879L80.4189 185.983L78.2659 180.914L81.432 175.966L87.3843 175.483L87.511 168.483L81.6853 166.552ZM71.5538 169.207C71.5538 169.448 71.4272 169.931 71.3005 170.172C71.1739 170.414 71.1739 170.535 71.0472 170.776C70.794 171.138 70.5407 171.379 70.2874 171.741C69.6542 172.345 69.0209 172.707 68.1344 172.948C67.7545 173.069 67.5012 173.19 67.1213 173.19C66.868 173.19 66.4881 173.31 66.2348 173.19C66.1081 173.19 65.8548 173.069 65.7282 173.069C66.2348 173.069 65.7282 173.069 65.4749 173.069C64.5884 172.828 63.7019 172.103 63.1953 171.259C62.942 170.776 62.6887 170.293 62.6887 169.69C62.6887 169.207 62.8154 168.724 62.942 168.241C63.1953 167.638 63.5753 166.914 63.9552 166.31C64.4618 165.707 64.9683 164.983 65.7282 164.621C66.4881 164.259 67.2479 164.138 68.0078 164.5C68.2611 164.379 68.641 164.379 68.8943 164.379C69.4009 164.621 69.9074 164.862 70.2874 165.224C70.6673 165.707 70.9206 166.069 71.1739 166.672C71.3005 166.793 71.3005 167.035 71.3005 167.155C71.3005 167.276 71.3005 167.397 71.3005 167.397C71.3005 167.517 71.3005 167.759 71.4272 167.879V167.759C71.4272 167.638 71.4272 167.638 71.4272 167.759C71.4272 167.879 71.4272 168.121 71.5538 168.241C71.5538 168.362 71.5538 168.362 71.5538 168.483C71.6805 168.845 71.6805 169.086 71.5538 169.207Z" fill="white"/>
<path d="M55.9766 172.828C55.85 172.828 55.85 172.707 55.85 172.586C57.4963 167.034 59.5227 161.483 61.6756 156.052C61.6756 155.931 61.8022 155.931 61.9289 155.931C62.0555 155.931 62.0555 156.052 62.0555 156.172C59.7759 161.603 57.8763 167.034 56.2299 172.586C56.1033 172.707 55.9766 172.828 55.9766 172.828Z" fill="black"/>
<path d="M58.5095 173.672C58.3828 173.672 58.3828 173.552 58.3828 173.431C59.9026 168.121 61.9289 163.052 64.4618 158.103C64.4618 157.983 64.5884 157.983 64.715 157.983C64.8417 157.983 64.8417 158.103 64.8417 158.224C62.3088 163.052 60.2825 168.241 58.7628 173.431C58.6361 173.672 58.6361 173.672 58.5095 173.672Z" fill="black"/>
<path d="M57.623 183.81C57.4964 183.81 57.4964 183.81 57.623 183.81C57.4964 183.81 57.4964 183.69 57.4964 183.569L61.8022 173.552C61.8022 173.431 61.9289 173.431 62.0555 173.431C62.1822 173.431 62.1822 173.552 62.1822 173.672L57.8763 183.69C57.7496 183.69 57.623 183.81 57.623 183.81Z" fill="black"/>
<path d="M63.1953 181.638C63.0687 181.638 63.0687 181.638 63.1953 181.638C63.0687 181.638 63.0687 181.517 63.0687 181.397L65.4749 175.724C65.4749 175.603 65.6016 175.603 65.7282 175.603C65.8548 175.603 65.8548 175.724 65.8548 175.845L63.4486 181.517C63.322 181.638 63.1953 181.638 63.1953 181.638Z" fill="black"/>
<path d="M67.6279 162.69C67.6279 162.69 67.5012 162.69 67.6279 162.69C67.5012 162.69 67.5012 162.569 67.5012 162.448L68.641 158.948C68.641 158.828 68.7677 158.828 68.8943 158.828C69.021 158.828 69.0209 158.948 69.0209 159.069L67.8812 162.569C67.7545 162.69 67.6279 162.69 67.6279 162.69Z" fill="black"/>
<path d="M72.0604 163.655C71.9337 163.655 71.9337 163.535 71.9337 163.414C73.0735 160.397 74.4666 157.379 75.8597 154.483C75.8597 154.362 75.9864 154.362 76.113 154.362C76.2396 154.362 76.2396 154.483 76.2396 154.604C74.7199 157.5 73.4535 160.397 72.3137 163.414C72.187 163.655 72.0604 163.655 72.0604 163.655Z" fill="black"/>
<path d="M67.6279 181.638C67.5012 181.638 67.5012 181.638 67.6279 181.638C67.5012 181.638 67.5012 181.517 67.5012 181.397L78.266 159.069C78.266 158.948 78.3926 158.948 78.5192 158.948C78.6459 158.948 78.6459 159.069 78.6459 159.19L67.8812 181.517C67.7545 181.638 67.6279 181.638 67.6279 181.638Z" fill="black"/>
<path d="M71.9338 182.603C71.9338 182.603 71.8071 182.603 71.9338 182.603C71.8071 182.603 71.8071 182.483 71.8071 182.362L79.0258 167.155C79.0258 167.034 79.1525 167.034 79.2791 167.034C79.4057 167.034 79.4057 167.155 79.4057 167.276L72.187 182.483C72.0604 182.603 71.9338 182.603 71.9338 182.603Z" fill="black"/>
<path d="M79.659 175C79.5324 175 79.5324 175 79.659 175C79.5324 175 79.5324 174.879 79.5324 174.759L82.6985 169.086C82.6985 168.966 82.8251 168.966 82.9518 168.966C83.0784 168.966 83.0784 169.086 83.0784 169.207L79.9123 174.879C79.7857 175 79.659 175 79.659 175Z" fill="black"/>
<path d="M74.2133 185.621C74.0867 185.621 74.0867 185.5 74.0867 185.379L75.4798 182.603C75.4798 182.483 75.6064 182.483 75.7331 182.483C75.8597 182.483 75.8597 182.603 75.8597 182.724L74.4666 185.5C74.34 185.621 74.34 185.621 74.2133 185.621Z" fill="black"/>
<path d="M49.8977 171.5C49.7711 171.5 49.7711 171.379 49.7711 171.259L51.6707 167.397C51.6707 167.276 51.7974 167.276 51.924 167.276C52.0506 167.276 52.0506 167.397 52.0506 167.517L50.151 171.379C50.0243 171.5 49.8977 171.5 49.8977 171.5Z" fill="black"/>
<path d="M58.1296 156.776C58.1296 156.776 58.1296 156.655 58.1296 156.776C58.0029 156.776 58.0029 156.655 58.0029 156.534L59.396 154C59.396 153.879 59.5226 153.879 59.6493 154C59.7759 154 59.7759 154.121 59.6493 154.241L58.2562 156.776C58.2562 156.655 58.1296 156.776 58.1296 156.776Z" fill="black"/>
<g opacity="0.1294">
<path d="M73.3268 170.293C73.2002 169.448 71.9337 169.328 71.6805 170.172C71.4272 171.017 71.5538 170.897 70.5407 171.741C69.6542 172.466 70.0341 172.224 68.641 172.707C67.3746 173.069 67.8811 172.948 66.7413 172.948C66.6147 172.948 66.4881 172.828 66.3614 172.828C65.8548 172.586 65.9815 172.707 64.9683 172.224C64.5884 171.983 64.2085 171.621 63.7019 171.621C62.1822 171.379 61.5489 173.431 62.8154 174.155C65.095 175.724 67.3746 176.328 70.0341 175.121C71.4272 174.397 72.3137 173.19 72.8203 171.741C73.0735 171.259 73.3268 170.776 73.3268 170.293Z" fill="black"/>
</g>
<g opacity="0.1294">
<path d="M77.2528 184.414C76.3663 184.776 76.113 184.897 74.4666 185.259C73.7068 185.5 72.8203 185.379 72.0604 185.862C70.6673 186.828 71.8071 189 73.4535 188.517C75.3531 188.155 77.6327 188.035 79.0258 186.707C80.2923 185.379 78.7725 183.69 77.2528 184.414Z" fill="black"/>
</g>
<g opacity="0.1294">
<path d="M88.1442 172.345C88.1442 172.345 88.1442 172.224 88.1442 172.345C88.1442 172.224 88.1442 172.345 88.1442 172.345C88.1442 171.983 88.0175 171.741 87.8909 171.5C87.2577 170.293 85.2314 170.534 84.8514 171.741C84.8514 171.741 84.8514 171.862 84.7248 171.983C84.5982 172.224 84.4715 172.466 84.4715 172.707C84.3449 172.948 84.2182 173.19 84.2182 173.31C84.0916 173.552 83.9649 173.914 83.9649 174.155C83.9649 176.207 87.0044 176.569 87.511 174.638C87.7642 174.034 88.0175 173.31 88.1442 172.707C88.1442 172.466 88.1442 172.466 88.1442 172.345Z" fill="black"/>
</g>
<path d="M71.6805 189C71.4272 189 71.3005 188.879 71.3005 188.759C70.6673 187.19 70.0341 185.621 69.0209 184.052C67.1213 184.293 65.2216 184.172 63.4486 184.052C62.942 185.017 62.4355 185.862 61.8022 186.948C61.549 187.552 61.169 188.035 60.9157 188.638C60.7891 188.879 60.5358 188.879 60.2825 188.879C57.4963 187.793 55.0901 186.103 53.1905 183.931C53.0638 183.81 53.0638 183.569 53.1905 183.448C54.2036 182.121 55.2168 180.793 56.2299 179.103C55.0901 177.655 54.077 175.966 53.0638 173.793C52.5572 173.914 52.1773 174.034 51.6707 174.034C50.2776 174.276 48.8846 174.638 47.3648 174.759C47.1115 174.759 46.8583 174.638 46.8583 174.397C45.9717 171.379 46.225 167.879 47.6181 164.138C47.7448 163.897 47.9981 163.776 48.1247 163.897C50.151 164.379 52.1773 164.862 54.2036 165.345C55.0901 163.534 56.1033 161.966 57.2431 160.155C56.2299 158.948 55.2168 157.5 54.2036 155.81C54.077 155.569 54.077 155.448 54.3302 155.207C56.4832 153.397 59.0161 151.828 62.1822 150.5C62.4355 150.379 62.6887 150.5 62.8154 150.741C63.8285 152.431 64.7151 154.121 65.4749 155.931C67.5012 155.569 69.5275 155.569 71.6805 155.69C72.567 154 73.5801 152.31 74.7199 150.5C74.8466 150.259 75.0999 150.259 75.3531 150.379C77.6327 151.466 79.7857 152.914 81.812 154.483C82.3186 154.966 82.8251 155.328 83.3317 155.81C83.585 156.052 83.8383 156.293 83.9649 156.655C83.9649 156.776 83.9649 156.897 83.8383 157.017C83.3317 157.621 82.9518 158.345 82.4452 158.948C81.812 159.914 81.0521 160.759 80.4189 161.845C81.0521 163.293 81.6853 164.741 82.1919 166.31C83.8383 166.431 85.9912 166.793 88.3975 167.638C88.5241 167.759 88.6508 167.879 88.6508 168C88.7774 170.776 88.3975 173.431 87.511 175.845C87.3843 176.086 87.2577 176.086 87.0044 176.086H86.3712C84.8514 176.086 83.3317 175.966 81.5587 176.086C80.9255 177.534 79.9123 179.103 78.5192 180.793C79.4057 182.241 80.2923 183.81 81.1788 185.741C81.3054 185.983 81.1788 186.224 80.9255 186.345C77.886 187.793 74.8466 188.759 71.6805 189ZM69.1476 183.086C69.2742 183.086 69.4009 183.207 69.5275 183.328C70.6673 184.897 71.3005 186.586 71.9338 188.035C74.5933 187.672 77.3794 186.828 80.039 185.5C79.2791 183.81 78.3926 182.241 77.5061 180.793C77.3794 180.672 77.3794 180.431 77.5061 180.31C79.0258 178.5 80.039 176.931 80.6722 175.362C80.7988 175.241 80.9255 175.121 81.0521 175.121C82.9518 175 84.5981 175 86.2445 175.121H86.4978C87.2577 172.948 87.6376 170.655 87.511 168.241C85.2314 167.397 83.2051 167.155 81.5587 167.034C81.4321 167.034 81.1788 166.914 81.1788 166.793C80.5455 165.103 79.9123 163.535 79.1525 161.845C79.1525 161.724 79.1525 161.603 79.1525 161.483C79.9123 160.397 80.6722 159.31 81.3054 158.345C81.6853 157.741 82.0653 157.259 82.5718 156.655C82.4452 156.535 82.4452 156.535 82.3186 156.414C81.812 155.931 81.3054 155.569 80.7988 155.086C79.0258 153.638 76.9995 152.31 74.9732 151.345C73.8334 153.035 72.9469 154.724 72.0604 156.414C71.9338 156.535 71.8071 156.655 71.5538 156.655C69.4009 156.414 67.1213 156.534 64.9683 156.897C64.715 156.897 64.5884 156.776 64.4618 156.655C63.7019 154.966 62.942 153.276 61.9289 151.586C59.2694 152.793 56.8631 154.121 54.9635 155.69C55.9766 157.259 56.9898 158.707 57.8763 159.914C58.0029 160.034 58.0029 160.276 57.8763 160.397C56.6098 162.328 55.47 164.138 54.5835 166.069C54.4569 166.31 54.2036 166.431 54.077 166.31C51.924 165.828 49.8977 165.345 47.9981 164.862C46.8583 168.121 46.7316 171.138 47.3648 173.793C48.7579 173.552 50.0244 173.31 51.1642 173.069C51.7974 172.948 52.3039 172.828 52.9372 172.707C53.1905 172.707 53.4437 172.828 53.4437 172.948C54.4569 175.241 55.5967 177.172 56.8631 178.621C56.9898 178.741 56.9898 178.983 56.8631 179.103C55.7233 180.793 54.7102 182.121 53.8237 183.448C55.47 185.259 57.4963 186.707 59.9026 187.672C60.1559 187.19 60.4092 186.828 60.6624 186.345C61.2957 185.259 61.8022 184.172 62.4355 183.207C62.5621 183.086 62.6887 182.966 62.942 182.966C64.9683 183.328 67.1213 183.448 69.1476 183.086Z" fill="black"/>
<path d="M66.4881 173.19C65.7282 173.19 64.9683 173.069 64.2085 172.707C63.5753 172.466 63.1953 172.103 62.8154 171.741C62.4355 171.259 62.3088 170.534 62.3088 170.052C62.1822 168.241 62.5621 166.552 63.5753 165.345C64.715 163.897 66.7414 163.293 68.2611 163.776C68.3877 163.776 68.3877 163.897 68.5144 163.897C68.5144 163.897 68.5144 163.897 68.641 163.897C70.2874 164.5 71.5538 166.069 71.6805 167.879C71.8071 169.569 70.794 171.379 69.2742 172.224C68.5144 172.948 67.5012 173.19 66.4881 173.19ZM67.1213 164.621C66.1081 164.621 64.9683 165.103 64.3351 165.948C63.5753 166.914 63.0687 168.362 63.1953 169.931C63.1953 170.293 63.322 170.776 63.5753 171.138C63.7019 171.379 64.0818 171.621 64.4618 171.741C65.8548 172.345 67.5012 172.224 68.641 171.5C69.9074 170.776 70.6673 169.328 70.5407 167.879C70.414 166.431 69.4009 165.103 68.1344 164.741H68.0078C67.8811 164.741 67.6279 164.621 67.5012 164.5C67.5012 164.621 67.3746 164.621 67.1213 164.621ZM68.1344 164.259L68.2611 164.741L68.1344 164.259Z" fill="black"/>
</g>
<defs>
<clipPath id="clip0_23_1196">
<rect width="260" height="189" fill="white"/>
</clipPath>
</defs>
</svg>