<svg width="260" height="189" viewBox="0 0 260 189" fill="none" xmlns="http://www.w3.org/2000/svg"><script xmlns=""/>
<path d="M241.594 34.252H16.4062V188.139H241.594V34.252Z" fill="white"/>
<path d="M241.456 188.533H16.4061C16.1304 188.533 15.8546 188.27 15.8546 188.007V34.2519C15.8546 33.989 16.1304 33.7262 16.4061 33.7262H241.594C241.87 33.7262 242.145 33.989 242.145 34.2519V188.139C242.008 188.401 241.732 188.533 241.456 188.533ZM16.9577 187.613H241.042V34.7775H16.9577V187.613Z" fill="black"/>
<path d="M241.594 26.4984H16.4062V39.7713H241.594V26.4984Z" fill="#4E6075"/>
<path d="M241.456 40.297H16.4061C16.1304 40.297 15.8546 40.0342 15.8546 39.7713V26.4984C15.8546 26.2356 16.1304 25.9728 16.4061 25.9728H241.594C241.87 25.9728 242.145 26.2356 242.145 26.4984V39.7713C242.008 40.0342 241.732 40.297 241.456 40.297ZM16.9577 39.2457H241.042V27.0241H16.9577V39.2457Z" fill="black"/>
<path d="M195.26 36.0917C196.936 36.0917 198.294 34.7973 198.294 33.2006C198.294 31.6038 196.936 30.3094 195.26 30.3094C193.585 30.3094 192.226 31.6038 192.226 33.2006C192.226 34.7973 193.585 36.0917 195.26 36.0917Z" fill="#74BD6C"/>
<path d="M195.26 36.4859C193.329 36.4859 191.813 35.0403 191.813 33.2005C191.813 31.3607 193.329 29.9152 195.26 29.9152C197.191 29.9152 198.707 31.3607 198.707 33.2005C198.707 35.0403 197.191 36.4859 195.26 36.4859ZM195.26 30.8351C193.881 30.8351 192.778 31.8864 192.778 33.2005C192.778 34.5147 193.881 35.566 195.26 35.566C196.639 35.566 197.742 34.5147 197.742 33.2005C197.742 31.8864 196.639 30.8351 195.26 30.8351Z" fill="black"/>
<path d="M212.911 36.0917C214.587 36.0917 215.945 34.7973 215.945 33.2006C215.945 31.6038 214.587 30.3094 212.911 30.3094C211.236 30.3094 209.877 31.6038 209.877 33.2006C209.877 34.7973 211.236 36.0917 212.911 36.0917Z" fill="#74BD6C"/>
<path d="M212.911 36.4859C210.98 36.4859 209.464 35.0403 209.464 33.2005C209.464 31.3607 210.98 29.9152 212.911 29.9152C214.842 29.9152 216.358 31.3607 216.358 33.2005C216.358 35.0403 214.842 36.4859 212.911 36.4859ZM212.911 30.8351C211.532 30.8351 210.429 31.8864 210.429 33.2005C210.429 34.5147 211.532 35.566 212.911 35.566C214.29 35.566 215.393 34.5147 215.393 33.2005C215.393 31.8864 214.29 30.8351 212.911 30.8351Z" fill="black"/>
<path d="M227.115 33.2006C227.115 31.6236 228.494 30.3094 230.148 30.3094C231.803 30.3094 233.182 31.6236 233.182 33.2006C233.182 34.7775 231.803 36.0917 230.148 36.0917C228.494 35.9603 227.115 34.7775 227.115 33.2006Z" fill="#74BD6C"/>
<path d="M230.148 36.4859C228.218 36.4859 226.701 35.0403 226.701 33.2005C226.701 31.3607 228.218 29.9152 230.148 29.9152C232.079 29.9152 233.596 31.3607 233.596 33.2005C233.596 35.0403 232.079 36.4859 230.148 36.4859ZM230.148 30.8351C228.769 30.8351 227.666 31.8864 227.666 33.2005C227.666 34.5147 228.769 35.566 230.148 35.566C231.527 35.566 232.63 34.5147 232.63 33.2005C232.63 31.8864 231.527 30.8351 230.148 30.8351Z" fill="black"/>
<g opacity="0.1294">
<path d="M240.766 40.4284C240.491 40.1655 239.525 40.1655 239.801 40.1655C239.25 40.1655 238.698 40.1655 238.146 40.1655C235.802 40.0341 233.596 40.0341 231.251 39.9027C224.357 39.6399 217.462 40.4284 210.429 40.2969C206.844 40.2969 203.396 40.4284 199.811 40.2969C197.053 40.2969 194.433 40.0341 191.675 39.9027C183.815 39.9027 175.954 39.377 168.094 39.5085C161.199 39.6399 154.442 39.5085 147.547 39.377C142.031 39.377 136.653 39.377 131.137 39.377C126.587 39.2456 122.036 39.6399 117.486 39.6399C107.557 39.7713 97.4903 39.7713 87.5616 39.5085C83.9763 39.5085 80.253 39.377 76.6677 39.5085C73.6339 39.6399 70.6002 39.5085 67.5664 39.6399C64.119 39.6399 60.8094 39.6399 57.3619 39.6399C53.3629 39.5085 49.3638 39.377 45.3648 39.5085C42.0552 39.5085 38.8836 39.7713 35.574 39.9027C32.5403 39.9027 29.6444 39.9027 26.6107 39.9027C24.4043 39.7713 22.1979 39.7713 19.9915 39.7713C18.8884 39.9027 17.5094 39.5085 16.5441 40.2969C15.303 41.4797 16.1304 43.5823 17.9231 43.5823C20.5431 43.7137 23.1632 43.5823 25.7833 43.8451C29.6444 43.9766 33.5056 43.9766 37.3667 43.8451C42.0552 43.5823 46.7438 43.4509 51.5702 43.4509C55.1556 43.5823 58.8788 43.5823 62.4642 43.5823C66.4632 43.7137 70.4623 43.7137 74.4613 43.5823C77.0814 43.4509 79.7014 43.3195 82.3215 43.4509C89.6301 43.5823 96.8008 43.8451 104.109 43.7137C111.418 43.7137 118.727 43.8451 126.035 43.4509C132.516 43.4509 139.136 43.4509 145.617 43.5823C155.27 43.8451 165.06 43.5823 174.713 43.5823C180.643 43.7137 186.435 43.8451 192.364 43.8451C196.777 43.9766 201.19 44.2394 205.602 44.108C209.188 43.9766 212.635 43.9766 216.221 43.8451C218.289 43.7137 220.495 43.4509 222.564 43.4509C228.08 43.1881 233.596 43.3195 239.112 43.4509C239.663 43.4509 240.353 43.4509 240.766 42.9252C241.87 42.2682 241.732 40.954 240.766 40.4284Z" fill="black"/>
</g>
<path d="M126.813 104.25L126.726 90.2432C122.611 90.2432 118.409 91.9065 115.17 94.7955C111.406 98.1221 108.954 103.2 109.567 109.328C109.655 110.028 109.742 110.641 109.917 111.341C109.917 111.341 109.917 111.341 109.917 111.429L126.813 107.664V104.25V104.25Z" fill="#638ADC"/>
<g opacity="0.3">
<path d="M126.813 104.25L126.726 90.2432C122.611 90.2432 118.409 91.9065 115.17 94.7955C111.406 98.1221 108.954 103.2 109.567 109.328C109.655 110.028 109.742 110.641 109.917 111.341C109.917 111.341 109.917 111.341 109.917 111.429L126.813 107.664V104.25V104.25Z" fill="white"/>
</g>
<path d="M144.235 99.9605C141.871 95.0581 137.231 91.031 130.578 90.4182C130.403 90.4182 130.228 90.4182 130.053 90.3307C129.965 90.3307 129.79 90.3307 129.702 90.3307C129.352 90.3307 129.002 90.3307 128.652 90.3307C128.652 90.3307 128.652 90.3307 128.564 90.3307L128.652 104.338V107.664L145.548 111.341C145.81 110.116 145.898 108.978 145.898 107.664C145.986 105.038 145.373 102.324 144.235 99.9605Z" fill="#638ADC"/>
<g opacity="0.3">
<path d="M144.235 99.9605C141.871 95.0581 137.231 91.031 130.578 90.4182C130.403 90.4182 130.228 90.4182 130.053 90.3307C129.965 90.3307 129.79 90.3307 129.702 90.3307C129.352 90.3307 129.002 90.3307 128.652 90.3307C128.652 90.3307 128.652 90.3307 128.564 90.3307L128.652 104.338V107.664L145.548 111.341C145.81 110.116 145.898 108.978 145.898 107.664C145.986 105.038 145.373 102.324 144.235 99.9605Z" fill="black"/>
</g>
<path d="M127.689 109.328L110.793 113.092C112.544 120.796 119.46 126.662 127.689 126.662C136.006 126.662 142.922 120.796 144.585 113.005L127.689 109.328Z" fill="#638ADC"/>
<path d="M193.522 106.789C193.522 106.877 184.768 107.052 174 107.052C163.232 107.052 154.477 106.964 154.477 106.789C154.477 106.701 163.232 106.526 174 106.526C184.768 106.526 193.522 106.614 193.522 106.789Z" fill="#1A2E35"/>
<path d="M193.522 102.324C193.522 102.412 184.768 102.587 174 102.587C163.232 102.587 154.477 102.499 154.477 102.324C154.477 102.237 163.232 102.062 174 102.062C184.768 102.062 193.522 102.237 193.522 102.324Z" fill="#1A2E35"/>
<path d="M193.522 97.8594C193.522 97.947 184.768 98.1221 174 98.1221C163.232 98.1221 154.477 98.0345 154.477 97.8594C154.477 97.7719 163.232 97.5968 174 97.5968C184.768 97.6843 193.522 97.7719 193.522 97.8594Z" fill="#1A2E35"/>
<path d="M193.522 110.904C193.522 110.991 184.768 111.166 174 111.166C163.232 111.166 154.477 111.079 154.477 110.904C154.477 110.816 163.232 110.641 174 110.641C184.768 110.729 193.522 110.816 193.522 110.904Z" fill="#1A2E35"/>
<path d="M181.441 115.456C181.441 115.543 175.4 115.719 168.047 115.719C160.605 115.719 154.652 115.631 154.652 115.456C154.652 115.368 160.693 115.193 168.047 115.193C175.4 115.193 181.441 115.281 181.441 115.456Z" fill="#1A2E35"/>
<path d="M116.52 141.001H110.597V174.005H116.52V141.001Z" fill="#638ADC"/>
<path d="M127.98 152.195H122.057V174.005H127.98V152.195Z" fill="#638ADC"/>
<path d="M139.44 145.054H133.517V174.133H139.44V145.054Z" fill="#638ADC"/>
<path d="M150.772 142.223H144.849V173.94H150.772V142.223Z" fill="#638ADC"/>
<path d="M162.232 152.839H156.309V173.94H162.232V152.839Z" fill="#638ADC"/>
<path d="M173.692 157.02H167.769V174.005H173.692V157.02Z" fill="#638ADC"/>
<path d="M185.024 144.347H179.1V173.94H185.024V144.347Z" fill="#638ADC"/>
<path d="M196.484 149.686H190.56V173.94H196.484V149.686Z" fill="#638ADC"/>
<path d="M207.944 145.44H202.021V174.005H207.944V145.44Z" fill="#638ADC"/>
<path d="M219.404 154.511H213.481V173.94H219.404V154.511Z" fill="#638ADC"/>
<path d="M230.736 150.844H224.812V174.005H230.736V150.844Z" fill="#638ADC"/>
<path d="M233.182 176.256C233.182 176.321 205.111 176.385 170.473 176.385C135.835 176.385 107.764 176.321 107.764 176.256C107.764 176.192 135.835 176.128 170.473 176.128C205.111 176.192 233.182 176.192 233.182 176.256Z" fill="#1A2E35"/>
<path d="M119.095 178.894C119.095 178.958 117.164 179.023 114.717 179.023C112.271 179.023 110.339 178.958 110.339 178.894C110.339 178.83 112.271 178.765 114.717 178.765C117.164 178.765 119.095 178.83 119.095 178.894Z" fill="#1A2E35"/>
<path d="M133.646 179.023C133.646 179.087 131.328 179.151 128.367 179.151C125.405 179.151 123.087 179.087 123.087 179.023C123.087 178.958 125.405 178.894 128.367 178.894C131.328 178.894 133.646 178.958 133.646 179.023Z" fill="#1A2E35"/>
<path d="M146.007 179.023C146.007 179.087 143.69 179.151 140.728 179.151C137.766 179.151 135.449 179.087 135.449 179.023C135.449 178.958 137.766 178.894 140.728 178.894C143.69 178.894 146.007 178.958 146.007 179.023Z" fill="#1A2E35"/>
<path d="M158.498 179.023C158.498 179.087 156.18 179.151 153.218 179.151C150.257 179.151 147.939 179.087 147.939 179.023C147.939 178.958 150.257 178.894 153.218 178.894C156.18 178.894 158.498 178.958 158.498 179.023Z" fill="#1A2E35"/>
<path d="M170.859 179.023C170.859 179.087 168.542 179.151 165.58 179.151C162.618 179.151 160.3 179.087 160.3 179.023C160.3 178.958 162.618 178.894 165.58 178.894C168.542 178.894 170.859 178.958 170.859 179.023Z" fill="#1A2E35"/>
<path d="M183.35 179.023C183.35 179.087 181.032 179.151 178.07 179.151C175.109 179.151 172.791 179.087 172.791 179.023C172.791 178.958 175.109 178.894 178.07 178.894C181.032 178.894 183.35 178.958 183.35 179.023Z" fill="#1A2E35"/>
<path d="M195.711 179.023C195.711 179.087 193.393 179.151 190.432 179.151C187.47 179.151 185.152 179.087 185.152 179.023C185.152 178.958 187.47 178.894 190.432 178.894C193.393 178.894 195.711 178.958 195.711 179.023Z" fill="#1A2E35"/>
<path d="M208.201 179.023C208.201 179.087 205.884 179.151 202.922 179.151C199.96 179.151 197.643 179.087 197.643 179.023C197.643 178.958 199.96 178.894 202.922 178.894C205.755 178.894 208.201 178.958 208.201 179.023Z" fill="#1A2E35"/>
<path d="M220.563 179.023C220.563 179.087 218.245 179.151 215.284 179.151C212.322 179.151 210.004 179.087 210.004 179.023C210.004 178.958 212.322 178.894 215.284 178.894C218.245 178.894 220.563 178.958 220.563 179.023Z" fill="#1A2E35"/>
<path d="M233.053 179.023C233.053 179.087 230.735 179.151 227.774 179.151C224.812 179.151 222.494 179.087 222.494 179.023C222.494 178.958 224.812 178.894 227.774 178.894C230.607 178.894 233.053 178.958 233.053 179.023Z" fill="#1A2E35"/>
<g opacity="0.3">
<path d="M127.98 152.195H122.057V174.005H127.98V152.195Z" fill="white"/>
</g>
<g opacity="0.3">
<path d="M150.772 142.223H144.849V173.94H150.772V142.223Z" fill="white"/>
</g>
<g opacity="0.3">
<path d="M173.692 157.02H167.769V174.005H173.692V157.02Z" fill="white"/>
</g>
<g opacity="0.3">
<path d="M196.484 149.686H190.56V173.94H196.484V149.686Z" fill="white"/>
</g>
<g opacity="0.3">
<path d="M219.404 154.511H213.481V173.94H219.404V154.511Z" fill="white"/>
</g>
<path d="M98.3019 115.068C98.3019 115.155 83.1516 115.33 64.5167 115.33C45.8818 115.33 30.7314 115.243 30.7314 115.068C30.7314 114.98 45.8818 114.805 64.5167 114.805C83.1516 114.805 98.3019 114.893 98.3019 115.068Z" fill="#1A2E35"/>
<path d="M98.302 160.314C98.302 160.402 83.1516 160.577 64.5167 160.577C45.8818 160.577 30.7315 160.489 30.7315 160.314C30.7315 160.227 45.8818 160.052 64.5167 160.052C83.1516 160.052 98.302 160.139 98.302 160.314Z" fill="#1A2E35"/>
<path d="M98.3019 110.603C98.3019 110.691 83.1516 110.866 64.5167 110.866C45.8818 110.866 30.7314 110.778 30.7314 110.603C30.7314 110.515 45.8818 110.34 64.5167 110.34C83.1516 110.34 98.3019 110.515 98.3019 110.603Z" fill="#1A2E35"/>
<path d="M98.302 155.849C98.302 155.937 83.1516 156.112 64.5167 156.112C45.8818 156.112 30.7315 156.024 30.7315 155.849C30.7315 155.762 45.8818 155.587 64.5167 155.587C83.1516 155.587 98.302 155.762 98.302 155.849Z" fill="#1A2E35"/>
<path d="M98.3019 106.138C98.3019 106.226 83.1516 106.401 64.5167 106.401C45.8817 106.401 30.7314 106.313 30.7314 106.138C30.7314 106.051 45.8817 105.876 64.5167 105.876C83.1516 105.963 98.3019 106.051 98.3019 106.138Z" fill="#1A2E35"/>
<path d="M98.3019 165.775C98.3019 165.863 83.1516 166.038 64.5167 166.038C45.8818 166.038 30.7314 165.95 30.7314 165.775C30.7314 165.688 45.8818 165.513 64.5167 165.513C83.1516 165.6 98.3019 165.688 98.3019 165.775Z" fill="#1A2E35"/>
<path d="M77.3944 170.327C77.3944 170.415 66.9407 170.59 54.2144 170.59C41.3366 170.59 31.0344 170.503 31.0344 170.327C31.0344 170.24 41.4881 170.065 54.2144 170.065C66.9407 170.065 77.3944 170.152 77.3944 170.327Z" fill="#1A2E35"/>
<path d="M65.1224 134.255L79.1647 134.441C79.0404 141.959 72.7649 148.048 65.1224 148.048H65.0603L65.1224 134.255Z" fill="#375A64"/>
<path d="M93.269 147.427C93.269 147.427 93.1447 147.427 92.9583 147.427C92.7098 147.427 92.4612 147.427 92.0884 147.427C91.3428 147.427 90.2244 147.427 88.9196 147.489H88.8575V147.427C87.6148 145.874 85.9993 143.823 84.1975 141.586C82.8305 139.847 81.5257 138.231 80.4694 136.802L80.5316 136.864C78.8539 136.864 77.4249 136.864 76.3686 136.802C75.8715 136.802 75.4987 136.802 75.1881 136.802C74.9395 136.802 74.7531 136.802 74.7531 136.802C74.7531 136.802 74.8774 136.802 75.1881 136.802C75.4987 136.802 75.8715 136.802 76.3686 136.802C77.4249 136.802 78.7918 136.802 80.5316 136.74H80.5937V136.802C81.7121 138.169 82.9548 139.784 84.3839 141.524C86.1236 143.761 87.7391 145.811 88.9818 147.427L88.9196 147.365C90.2244 147.365 91.2807 147.365 92.0884 147.427C92.4612 147.427 92.7098 147.427 92.9583 147.427C93.1447 147.427 93.269 147.427 93.269 147.427Z" fill="#1A2E35"/>
<path d="M98.3018 149.042C98.3018 149.104 96.2514 149.167 93.7661 149.167C91.2807 149.167 89.2303 149.104 89.2303 149.042C89.2303 148.98 91.2807 148.918 93.7661 148.918C96.2514 148.918 98.3018 148.98 98.3018 149.042Z" fill="#1A2E35"/>
<path d="M98.3018 150.72C98.3018 150.782 96.2514 150.844 93.7661 150.844C91.2807 150.844 89.2303 150.782 89.2303 150.72C89.2303 150.658 91.2807 150.596 93.7661 150.596C96.2514 150.596 98.3018 150.658 98.3018 150.72Z" fill="#1A2E35"/>
<path d="M62.8856 132.266L62.6992 146.06C55.0567 145.936 48.8433 139.784 48.8433 132.266C48.8433 124.686 55.181 118.473 62.8856 118.473C70.5902 118.473 76.9278 124.686 76.9278 132.266H62.8856Z" fill="#638ADC"/>
<path d="M57.4178 127.731C57.4178 127.731 57.3557 127.731 57.1693 127.793C56.9829 127.793 56.7343 127.855 56.4858 127.917C55.8644 127.979 54.9946 128.103 53.9383 128.29H53.8762H53.814C52.882 127.358 51.7015 126.239 50.4588 124.997C48.8433 123.381 47.3521 121.952 46.358 120.896C45.8609 120.399 45.426 119.964 45.1153 119.653C44.8046 119.343 44.6804 119.156 44.6804 119.156C44.6804 119.156 44.8668 119.28 45.1774 119.591C45.4881 119.902 45.923 120.337 46.4822 120.772C47.5385 121.828 49.0297 123.257 50.6452 124.81C51.8879 126.053 53.0063 127.171 54.0004 128.103H53.9383C54.9946 127.979 55.8023 127.917 56.4858 127.793C56.7965 127.793 56.9829 127.731 57.1693 127.731C57.3557 127.731 57.4178 127.731 57.4178 127.731Z" fill="#1A2E35"/>
<path d="M41.1388 118.535C41.1388 118.597 39.0883 118.659 36.603 118.659C34.1176 118.659 32.0672 118.597 32.0672 118.535C32.0672 118.473 34.1176 118.41 36.603 118.41C39.0883 118.41 41.1388 118.473 41.1388 118.535Z" fill="#1A2E35"/>
<path d="M41.1387 120.212C41.1387 120.274 39.0883 120.337 36.603 120.337C34.1176 120.337 32.0672 120.274 32.0672 120.212C32.0672 120.15 34.1176 120.088 36.603 120.088C39.0883 120.088 41.1387 120.15 41.1387 120.212Z" fill="#1A2E35"/>
<path d="M128.841 62.6086C128.841 68.1832 124.195 72.8287 118.62 72.8287C113.046 72.8287 108.4 68.1832 108.4 62.6086C108.4 57.0339 113.046 52.3884 118.62 52.3884C124.195 52.3884 128.841 57.0339 128.841 62.6086Z" fill="#638ADC"/>
<path d="M237.246 53.933C237.246 54.0849 214.607 54.3888 186.65 54.3888C158.693 54.3888 136.053 54.2369 136.053 53.933C136.053 53.781 158.693 53.4772 186.65 53.4772C214.607 53.6291 237.246 53.781 237.246 53.933Z" fill="#638ADC"/>
<path d="M204.576 68.0175C204.576 68.1694 189.246 68.4733 170.315 68.4733C151.384 68.4733 136.053 68.3213 136.053 68.0175C136.053 67.8655 151.384 67.5616 170.315 67.5616C189.246 67.7136 204.576 67.8655 204.576 68.0175Z" fill="#638ADC"/>
<path d="M176.622 61.049C176.622 61.049 176.014 61.2009 175.102 61.2009C174.039 61.2009 172.671 61.3528 170.848 61.3528C167.201 61.3528 162.187 61.5048 156.718 61.5048C151.248 61.5048 146.234 61.5048 142.587 61.3528C140.764 61.3528 139.396 61.2009 138.333 61.2009C137.269 61.2009 136.813 61.049 136.813 61.049C136.813 61.049 137.421 60.897 138.333 60.897C139.396 60.897 140.764 60.7451 142.587 60.7451C146.234 60.7451 151.248 60.5931 156.718 60.5931C162.187 60.5931 167.201 60.5931 170.848 60.7451C172.671 60.7451 174.039 60.897 175.102 60.897C176.166 60.897 176.622 60.897 176.622 61.049Z" fill="#638ADC"/>
<g filter="url(#filter0_d_110_3973)">
<path d="M28.1503 5.94141L29.5139 7.79204H94.3836L95.8446 5.94141H28.1503Z" fill="#638ADC"/>
<g opacity="0.4">
<path d="M28.1503 5.94141L29.5139 7.79204H94.3836L95.8446 5.94141H28.1503Z" fill="#404040"/>
</g>
<path d="M29.9165 3.90894H93.8836V90.6681H29.9165V3.90894Z" fill="white" stroke="#1F1F1F"/>
<g opacity="0.8">
<path d="M32.0463 6.42856C32.1437 7.20777 31.5593 7.88959 30.8775 7.88959C30.1957 7.88959 29.5139 7.20777 29.4165 6.42856C29.3191 5.64934 29.9035 4.96753 30.5853 4.96753C31.3645 4.96753 31.9489 5.64934 32.0463 6.42856Z" fill="#EFEFEF"/>
<path d="M34.4814 6.42856C34.5788 7.20777 33.9944 7.88959 33.3126 7.88959C32.6308 7.88959 31.9489 7.20777 31.8515 6.42856C31.7541 5.64934 32.3386 4.96753 33.0204 4.96753C33.7022 4.96753 34.384 5.64934 34.4814 6.42856Z" fill="#EFEFEF"/>
<path d="M36.819 6.42856C36.9164 7.20777 36.332 7.88959 35.6502 7.88959C34.9684 7.88959 34.2866 7.20777 34.1892 6.42856C34.0918 5.64934 34.6762 4.96753 35.358 4.96753C36.1372 4.96753 36.819 5.64934 36.819 6.42856Z" fill="#EFEFEF"/>
<path d="M39.2541 6.42856C39.3515 7.20777 38.7671 7.88959 38.0852 7.88959C37.4034 7.88959 36.7216 7.20777 36.6242 6.42856C36.5268 5.64934 37.1112 4.96753 37.793 4.96753C38.5723 4.96753 39.1567 5.64934 39.2541 6.42856Z" fill="#EFEFEF"/>
<path d="M41.5917 6.42856C41.6891 7.20777 41.1047 7.88959 40.4229 7.88959C39.7411 7.88959 39.0593 7.20777 39.0593 6.42856C38.9619 5.64934 39.5463 4.96753 40.2281 4.96753C40.9099 4.96753 41.5917 5.64934 41.5917 6.42856Z" fill="#EFEFEF"/>
<path d="M44.0268 6.42856C44.0268 7.20777 43.5398 7.88959 42.7605 7.88959C42.0787 7.88959 41.3969 7.20777 41.3969 6.42856C41.2995 5.64934 41.8839 4.96753 42.5657 4.96753C43.345 4.96753 44.0268 5.64934 44.0268 6.42856Z" fill="#EFEFEF"/>
<path d="M46.4619 6.42856C46.4619 7.20777 45.9749 7.88959 45.1957 7.88959C44.5138 7.88959 43.832 7.20777 43.832 6.42856C43.832 5.64934 44.319 4.96753 45.0983 4.96753C45.8775 4.96753 46.3645 5.64934 46.4619 6.42856Z" fill="#EFEFEF"/>
<path d="M48.7995 6.42856C48.7995 7.20777 48.3125 7.88959 47.5332 7.88959C46.8514 7.88959 46.1696 7.20777 46.1696 6.42856C46.1696 5.64934 46.6566 4.96753 47.4358 4.96753C48.1177 4.96753 48.7995 5.64934 48.7995 6.42856Z" fill="#EFEFEF"/>
<path d="M51.2345 6.42856C51.2345 7.20777 50.7475 7.88959 49.9683 7.88959C49.2865 7.88959 48.6047 7.20777 48.6047 6.42856C48.6047 5.64934 49.0917 4.96753 49.8709 4.96753C50.6501 4.96753 51.1371 5.64934 51.2345 6.42856Z" fill="#EFEFEF"/>
<path d="M53.5722 6.42856C53.5722 7.20777 52.9878 7.88959 52.306 7.88959C51.6241 7.88959 50.9423 7.20777 50.9423 6.42856C50.9423 5.64934 51.5267 4.96753 52.2086 4.96753C52.8904 4.96753 53.5722 5.64934 53.5722 6.42856Z" fill="#EFEFEF"/>
<path d="M56.0072 6.42856C56.0072 7.20777 55.4228 7.88959 54.741 7.88959C54.0592 7.88959 53.3773 7.20777 53.3773 6.42856C53.3773 5.64934 53.9618 4.96753 54.6436 4.96753C55.3254 4.96753 56.0072 5.64934 56.0072 6.42856Z" fill="#EFEFEF"/>
<path d="M58.3449 6.42856C58.3449 7.20777 57.7605 7.88959 57.0787 7.88959C56.3968 7.88959 55.8124 7.20777 55.715 6.42856C55.715 5.64934 56.2994 4.96753 56.9813 4.96753C57.7605 4.96753 58.3449 5.64934 58.3449 6.42856Z" fill="#EFEFEF"/>
<path d="M60.7799 6.42856C60.7799 7.20777 60.1955 7.88959 59.5137 7.88959C58.8319 7.88959 58.2475 7.20777 58.1501 6.42856C58.1501 5.64934 58.7345 4.96753 59.4163 4.96753C60.1955 4.96753 60.7799 5.64934 60.7799 6.42856Z" fill="#EFEFEF"/>
<path d="M63.1176 6.42856C63.1176 7.20777 62.5332 7.88959 61.8513 7.88959C61.1695 7.88959 60.5851 7.20777 60.5851 6.42856C60.5851 5.64934 61.1695 4.96753 61.8513 4.96753C62.5332 4.96753 63.215 5.64934 63.1176 6.42856Z" fill="#EFEFEF"/>
<path d="M65.5526 6.42856C65.5526 7.20777 64.9682 7.88959 64.189 7.88959C63.5072 7.88959 62.9228 7.20777 62.9228 6.42856C62.9228 5.64934 63.5072 4.96753 64.2864 4.96753C64.9682 4.96753 65.5526 5.64934 65.5526 6.42856Z" fill="#EFEFEF"/>
<path d="M67.9877 6.42856C67.9877 7.20777 67.4033 7.88959 66.6241 7.88959C65.9423 7.88959 65.3578 7.20777 65.3578 6.42856C65.3578 5.64934 65.9423 4.96753 66.7215 4.96753C67.4033 4.96753 67.9877 5.64934 67.9877 6.42856Z" fill="#EFEFEF"/>
<path d="M70.3253 6.42856C70.3253 7.20777 69.7409 7.88959 68.9617 7.88959C68.2799 7.88959 67.6955 7.20777 67.6955 6.42856C67.6955 5.64934 68.2799 4.96753 69.0591 4.96753C69.8383 4.96753 70.3253 5.64934 70.3253 6.42856Z" fill="#EFEFEF"/>
<path d="M72.7604 6.42856C72.7604 7.20777 72.176 7.88959 71.3967 7.88959C70.7149 7.88959 70.1305 7.20777 70.1305 6.42856C70.1305 5.64934 70.7149 4.96753 71.4941 4.96753C72.176 4.96753 72.7604 5.64934 72.7604 6.42856Z" fill="#EFEFEF"/>
<path d="M75.098 6.42856C75.098 7.20777 74.4162 7.88959 73.7344 7.88959C73.0526 7.88959 72.4681 7.20777 72.4681 6.42856C72.4681 5.64934 73.15 4.96753 73.8318 4.96753C74.611 4.96753 75.1954 5.64934 75.098 6.42856Z" fill="#EFEFEF"/>
<path d="M77.5331 6.42856C77.5331 7.20777 76.8512 7.88959 76.1694 7.88959C75.4876 7.88959 74.9032 7.20777 74.9032 6.42856C74.9032 5.64934 75.585 4.96753 76.2668 4.96753C77.046 4.96753 77.5331 5.64934 77.5331 6.42856Z" fill="#EFEFEF"/>
<path d="M79.8707 6.42856C79.8707 7.20777 79.1889 7.88959 78.5071 7.88959C77.8253 7.88959 77.2408 7.20777 77.2408 6.42856C77.2408 5.64934 77.9227 4.96753 78.6045 4.96753C79.3837 4.96753 79.9681 5.64934 79.8707 6.42856Z" fill="#EFEFEF"/>
<path d="M82.3058 6.42856C82.2084 7.20777 81.6239 7.88959 80.9421 7.88959C80.2603 7.88959 79.6759 7.20777 79.6759 6.42856C79.6759 5.64934 80.3577 4.96753 81.0395 4.96753C81.8187 4.96753 82.3058 5.64934 82.3058 6.42856Z" fill="#EFEFEF"/>
<path d="M84.7408 6.42856C84.6434 7.20777 84.059 7.88959 83.3772 7.88959C82.6954 7.88959 82.111 7.20777 82.2084 6.42856C82.3058 5.64934 82.8902 4.96753 83.572 4.96753C84.2538 4.96753 84.7408 5.64934 84.7408 6.42856Z" fill="#EFEFEF"/>
<path d="M87.0784 6.42856C86.981 7.20777 86.3966 7.88959 85.6174 7.88959C84.9356 7.88959 84.3512 7.20777 84.4486 6.42856C84.546 5.64934 85.1304 4.96753 85.9096 4.96753C86.5914 4.96753 87.1758 5.64934 87.0784 6.42856Z" fill="#EFEFEF"/>
<path d="M89.5135 6.42856C89.4161 7.20777 88.8317 7.88959 88.0524 7.88959C87.2732 7.88959 86.7862 7.20777 86.8836 6.42856C86.981 5.64934 87.5654 4.96753 88.3447 4.96753C89.0265 4.96753 89.5135 5.64934 89.5135 6.42856Z" fill="#EFEFEF"/>
<path d="M91.8511 6.42856C91.7537 7.20777 91.1693 7.88959 90.3901 7.88959C89.7083 7.88959 89.1239 7.20777 89.2213 6.42856C89.3187 5.64934 89.9031 4.96753 90.6823 4.96753C91.4615 4.96753 91.9485 5.64934 91.8511 6.42856Z" fill="#EFEFEF"/>
<path d="M94.2862 6.42856C94.1888 7.20777 93.6044 7.88959 92.8252 7.88959C92.1434 7.88959 91.5589 7.20777 91.6564 6.42856C91.7538 5.64934 92.3382 4.96753 93.1174 4.96753C93.7992 4.96753 94.3836 5.64934 94.2862 6.42856Z" fill="#EFEFEF"/>
</g>
<path d="M28.1503 3.89612H95.8446V5.94156H28.1503V3.89612Z" fill="#4E6075"/>
<path d="M28.1503 1.948L29.5139 3.89604H94.3836L95.8446 1.948H28.1503Z" fill="#638ADC"/>
<g opacity="0.4">
<path d="M28.1503 1.948L29.5139 3.89604H94.3836L95.8446 1.948H28.1503Z" fill="#404040"/>
</g>
<path d="M28.1503 0H95.8446V1.94804H28.1503V0Z" fill="#4E6075"/>
<path d="M29.5139 1.948H94.3836V3.89604H29.5139V1.948Z" fill="#638ADC"/>
<g opacity="0.8">
<path d="M29.5139 1.948H94.3836V3.89604H29.5139V1.948Z" fill="#EFEFEF"/>
</g>
<g opacity="0.7">
<path d="M94.3836 7.98682H29.4165V8.86344H94.3836V7.98682Z" fill="#EFEFEF"/>
</g>
<g opacity="0.8">
<path d="M94.481 51.0386H29.6113V51.9152H94.481V51.0386Z" fill="#4E6075"/>
</g>
<path d="M50.9423 57.662H42.9554V66.9152H50.9423V57.662Z" fill="#638ADC"/>
<path d="M66.3318 57.662H58.3448V66.9152H66.3318V57.662Z" fill="#638ADC"/>
<path d="M81.7213 57.662H73.7344V66.9152H81.7213V57.662Z" fill="#638ADC"/>
<path d="M42.2735 77.045H34.2866V86.2982H42.2735V77.045Z" fill="#638ADC"/>
<path d="M89.5135 77.045H81.5265V86.2982H89.5135V77.045Z" fill="#638ADC"/>
<path d="M50.9423 16.1688H42.9554V25.422H50.9423V16.1688Z" fill="#638ADC"/>
<path d="M66.3318 16.1688H58.3448V25.422H66.3318V16.1688Z" fill="#638ADC"/>
<path d="M81.7213 16.1688H73.7344V25.422H81.7213V16.1688Z" fill="#638ADC"/>
<path d="M50.9423 29.9023H42.9554V39.1555H50.9423V29.9023Z" fill="#638ADC"/>
<path d="M66.3318 29.9023H58.3448V39.1555H66.3318V29.9023Z" fill="#638ADC"/>
<path d="M81.7213 29.9023H73.7344V39.1555H81.7213V29.9023Z" fill="#638ADC"/>
<g opacity="0.8">
<path d="M52.5982 78.1165H60.9747L60.8773 87.3696H52.5982V78.1165Z" fill="#EFEFEF"/>
</g>
<g opacity="0.8">
<path d="M62.5332 78.1165H71.2019L70.8123 87.3696H62.4358L62.5332 78.1165Z" fill="#EFEFEF"/>
</g>
<path d="M72.5656 89.2203H50.5527L50.4553 87.3696H72.663L72.5656 89.2203Z" fill="#638ADC"/>
<g opacity="0.1">
<path d="M72.5656 89.2203H50.5527L50.4553 87.3696H72.663L72.5656 89.2203Z" fill="#EFEFEF"/>
</g>
<path d="M73.4422 91.1684H49.7735L49.6761 89.3177H73.5396L73.4422 91.1684Z" fill="#638ADC"/>
<g opacity="0.4">
<path d="M74.2214 74.9021H48.9943L48.8969 72.8567H74.3188L74.2214 74.9021Z" fill="#EFEFEF"/>
</g>
<path d="M48.9943 74.9021L52.5982 78.1164H71.2019L74.2214 74.9021H48.9943Z" fill="#4E6075"/>
<path d="M50.6501 76.4607L51.9164 87.3697H52.9878L52.5982 76.4607C52.0138 76.0711 51.2346 76.0711 50.6501 76.4607Z" fill="#638ADC"/>
<path d="M72.8578 76.4607L71.5916 87.3697H70.5201L70.9098 76.4607C71.4942 76.0711 72.2734 76.0711 72.8578 76.4607Z" fill="#638ADC"/>
</g>
<defs>
<filter id="filter0_d_110_3973" x="28.1503" y="0" width="72.6944" height="95.1683" filterUnits="userSpaceOnUse" color-interpolation-filters="sRGB">
<feFlood flood-opacity="0" result="BackgroundImageFix"/>
<feColorMatrix in="SourceAlpha" type="matrix" values="0 0 0 0 0 0 0 0 0 0 0 0 0 0 0 0 0 0 127 0" result="hardAlpha"/>
<feOffset dx="5" dy="4"/>
<feComposite in2="hardAlpha" operator="out"/>
<feColorMatrix type="matrix" values="0 0 0 0 0.0694166 0 0 0 0 0 0 0 0 0 0.495833 0 0 0 0.25 0"/>
<feBlend mode="normal" in2="BackgroundImageFix" result="effect1_dropShadow_110_3973"/>
<feBlend mode="normal" in="SourceGraphic" in2="effect1_dropShadow_110_3973" result="shape"/>
</filter>
</defs>
</svg>