<svg width="260" height="189" viewBox="0 0 260 189" fill="none" xmlns="http://www.w3.org/2000/svg"><script xmlns=""/>
<g clip-path="url(#clip0_25_2941)">
<path opacity="0.7" d="M40.9084 148.419C40.9084 148.419 7.52702 131.78 3.84115 87.2369C0.207034 42.6787 38.9236 14.7925 69.9151 14.6799C100.907 14.5674 111.372 26.861 137.072 28.2182C162.773 29.5754 205.647 11.3163 235.618 32.0817C265.589 52.8471 250.095 105.896 222.042 144.422C194.052 182.975 96.7642 191.714 40.9084 148.419Z" fill="white" fill-opacity="0.1"/>
<path d="M33.5863 77.3869L68.7791 83.0832L126.193 75.131L169 86.5235L212.201 76.8793L252.244 153.469L187.724 168.697L125.798 162.323L53.3823 169.148L7.75565 150.931L33.5863 77.3869Z" fill="#EFEFEF" stroke="#1A2E35" stroke-miterlimit="10" stroke-linecap="round" stroke-linejoin="round"/>
<path d="M40.2977 82.2938L67.7639 87.2569L125.855 79.8687L169.902 90.246L208.028 81.5606L240.683 150.706L185.581 164.41L126.193 158.714L53.8898 163.677L19.3738 148.393L40.2977 82.2938Z" fill="#74BD6C" stroke="#1A2E35" stroke-miterlimit="10" stroke-linecap="round" stroke-linejoin="round"/>
<g opacity="0.64">
<path d="M196.635 112.862L175.373 118.389H168.887C168.887 118.389 177.234 126.397 193.251 127.977C209.268 129.499 212.991 126.454 212.991 126.454L196.635 112.862Z" fill="white"/>
<path d="M104.141 84.8315L89.9287 87.8771L88.0675 92.8402L97.0349 90.979L94.8917 102.09L105.382 100.849L107.243 88.2155L104.141 84.8315Z" fill="white"/>
<path d="M95.1737 103.951L94.2713 109.478L100.419 108.237V103.612L95.1737 103.951Z" fill="white"/>
<path d="M91.5078 103.951L90.2671 110.098L78.1977 111.621L78.5361 107.335L91.5078 103.951Z" fill="white"/>
<path d="M162.57 131.361C156.705 131.361 151.911 134.406 151.911 138.129C151.911 141.851 156.648 144.896 162.57 144.896C168.436 144.896 173.23 141.851 173.23 138.129C173.23 134.406 168.436 131.361 162.57 131.361ZM162.57 141.231C159.92 141.231 157.72 139.877 157.72 138.129C157.72 136.437 159.863 135.027 162.57 135.027C165.221 135.027 167.421 136.38 167.421 138.129C167.421 139.877 165.277 141.231 162.57 141.231Z" fill="white"/>
<path d="M78.1977 155.725L86.5447 135.421L68.0459 136.324L65.2824 143.43H73.9114L67.4255 158.206L78.1977 155.725Z" fill="white"/>
<path d="M114.011 111.339L126.362 108.575L142.38 113.482L130.028 115.682L126.644 112.862L114.011 115.343V111.339Z" fill="white"/>
<path d="M114.631 99.608L114.913 107.617L120.497 106.376L119.538 99.326L114.631 99.608Z" fill="white"/>
<path d="M37.8162 103.951L32.9095 118.107L52.931 123.352L56.033 112.242L47.404 104.233L37.8162 103.951Z" fill="white"/>
</g>
<path d="M236.453 141.738L228.444 133.842C229.798 133.673 231.151 133.504 232.448 133.278L231.433 131.135C229.854 131.361 228.162 131.586 226.414 131.812L202.613 108.294C208.93 107.335 214.965 106.545 219.533 106.038L218.518 103.894C213.555 104.402 207.238 105.304 200.752 106.263L200.809 105.868L200.019 105.756L191.616 97.465L210.509 86.8056L209.55 84.7753L190.036 95.8294L181.689 87.5388L179.095 88.1592L196.297 105.192L141.534 96.5626C141.252 95.9422 141.026 95.3782 140.744 94.7579C138.996 90.3024 137.868 86.0724 137.134 82.5193L134.709 81.9553C135.442 85.8469 136.683 90.5279 138.657 95.5474C138.77 95.773 138.826 95.9986 138.939 96.2242L126.137 94.1939L112.939 95.3782L112.375 81.5605L110.119 81.8425L111.36 119.461C110.571 119.461 109.837 119.461 109.104 119.404C88.2931 118.784 65.7336 112.749 62.406 110.888C60.1501 109.647 55.0742 103.782 52.3671 100.454C57.8941 100.172 63.252 99.439 66.4103 97.8034C70.7531 95.5474 81.0176 89.5692 89.8158 84.4369L84.1196 85.1701C76.6185 89.5692 68.9483 93.9683 65.3952 95.8294C59.0221 99.157 41.8769 98.4802 35.3346 98.029L34.6578 100.229C37.083 100.398 41.3693 100.623 46.1068 100.623C47.2348 100.623 48.4191 100.623 49.6599 100.567C50.5059 101.639 57.9505 111.001 61.3909 112.862C64.944 114.779 87.5599 120.983 109.104 121.66C109.894 121.66 110.683 121.716 111.529 121.716L111.699 126.849L94.4405 127.356L94.1585 127.244L94.1021 127.356L59.8681 128.372L28.2284 120.363L27.5516 122.506L47.0092 127.413L28.9616 152.567L31.0483 153.525L49.3779 128.033L59.5861 130.627L93.2562 129.669L83.4428 157.36L71.9374 162.436L78.5925 161.985L126.137 141.061L160.089 122.901C163.698 125.326 167.815 127.413 172.496 129.105C176.557 130.515 180.618 131.643 184.622 132.545L179.659 142.471L159.186 161.872L162.175 162.154L181.407 143.938L181.577 143.825L186.991 132.996C192.913 134.124 198.722 134.745 204.305 134.97L199.737 160.914L202.106 160.293L206.561 135.027C207.746 135.083 208.93 135.083 210.058 135.083C215.642 135.083 220.83 134.745 225.624 134.237L239.273 147.773L236.453 141.738ZM86.3191 156.12L95.6813 129.612L111.699 129.161L112.206 144.727L86.3191 156.12ZM194.83 107.222C181.746 109.309 169.282 111.508 166.518 112.072C165.954 112.185 165.221 112.354 164.262 112.523C161.837 113.031 158.115 113.821 153.546 114.667C149.204 110.324 145.538 105.079 142.661 99.0442L194.83 107.222ZM112.939 97.5778L126.024 96.3934L139.954 98.593C142.379 103.951 145.876 109.816 150.952 115.118C143.282 116.528 133.807 117.994 124.557 118.84L124.445 118.671L124.163 118.84C120.553 119.179 117 119.348 113.56 119.404L112.939 97.5778ZM113.729 121.716C115.928 121.66 118.184 121.604 120.44 121.434L113.842 125.89L113.729 121.716ZM125.234 139.031L114.462 143.768L113.955 128.597L125.009 121.152C134.878 120.25 144.974 118.615 152.926 117.148C154.505 118.671 156.197 120.081 158.058 121.491L125.234 139.031ZM173.286 126.905C166.518 124.536 160.596 121.04 155.577 116.584C159.412 115.851 162.627 115.174 164.77 114.723C165.672 114.554 166.462 114.385 166.969 114.272C170.974 113.482 185.807 110.832 199.85 108.688L223.537 132.094C209.325 133.504 191.052 133.165 173.286 126.905Z" fill="white" stroke="#1A2E35" stroke-miterlimit="10" stroke-linecap="round" stroke-linejoin="round"/>
<path d="M57.2738 144.276L53.6642 165.426" stroke="#1A2E35" stroke-miterlimit="10" stroke-linecap="round" stroke-linejoin="round"/>
<path d="M67.2563 85.7903L58.0069 139.99" stroke="#1A2E35" stroke-miterlimit="10" stroke-linecap="round" stroke-linejoin="round"/>
<path d="M125.742 77.3871L126.024 99.3262" stroke="#1A2E35" stroke-miterlimit="10" stroke-linecap="round" stroke-linejoin="round"/>
<path d="M171.368 103.387L184.002 156.684" stroke="#1A2E35" stroke-miterlimit="10" stroke-linecap="round" stroke-linejoin="round"/>
<path d="M167.985 89.1179L170.748 100.849" stroke="#1A2E35" stroke-miterlimit="10" stroke-linecap="round" stroke-linejoin="round"/>
<path d="M126.362 160.688L126.024 147.716" stroke="#1A2E35" stroke-miterlimit="10" stroke-linecap="round" stroke-linejoin="round"/>
<ellipse cx="89.4112" cy="109.072" rx="5.13708" ry="1.46871" fill="black" fill-opacity="0.3"/>
<path d="M95.0646 89.956C96.0329 91.1663 96.5978 92.7317 96.5816 94.2971C96.5655 95.2331 96.2589 96.1368 95.92 96.9922C94.4353 100.688 92.0145 104.125 89.5938 107.288C89.5454 107.369 89.2226 107.482 89.1581 107.385C87.9155 105.771 86.7535 104.077 85.6723 102.35C84.7847 100.962 83.9455 99.5258 83.2515 98.0411C82.7351 96.9115 82.2026 95.685 82.1864 94.4262C82.2348 91.1502 84.4619 88.3744 87.6088 87.5514C90.3523 86.8413 93.3056 87.7289 95.0646 89.956ZM95.1453 97.8636C96.1298 95.7334 96.5332 93.6516 95.4681 91.4245C94.177 88.6972 91.0947 87.0188 88.093 87.5675C84.8815 88.1485 82.6706 91.1179 82.6222 94.2971C82.6383 95.5881 83.187 96.8469 83.7357 97.9927C84.4296 99.4613 85.2527 100.865 86.1241 102.237C87.157 103.883 88.2544 105.481 89.4324 107.03C90.2232 105.981 90.9656 104.9 91.7079 103.819C92.9667 101.914 94.1932 99.9454 95.1453 97.8636Z" fill="#111111"/>
<path d="M95.4681 91.4243C96.5171 93.6514 96.1136 95.7332 95.1453 97.8634C94.1932 99.9453 92.9667 101.898 91.6918 103.802C90.9656 104.9 90.2071 105.965 89.4163 107.014C88.2382 105.464 87.1408 103.867 86.108 102.221C85.2527 100.865 84.4296 99.4611 83.7357 97.9925C83.2031 96.8467 82.6544 95.588 82.6222 94.2969C82.6706 91.1177 84.8815 88.1483 88.093 87.5673C91.0947 87.0186 94.177 88.697 95.4681 91.4243ZM92.3857 96.2658C94.8871 93.5062 92.3212 89.1489 88.7224 89.7621C86.8019 90.0849 85.4141 91.7471 85.3656 93.6675C85.4786 97.2663 89.9489 98.9447 92.3857 96.2658Z" fill="#ACD4F7"/>
<path d="M94.5482 94.3617C94.5482 97.1697 92.2566 99.6066 89.4163 99.5904C86.5114 99.5743 84.3005 97.1374 84.2198 94.3294C84.3005 91.5052 86.4469 89.0845 89.3679 89.1007C92.2082 89.1007 94.5482 91.5375 94.5482 94.3617Z" fill="white"/>
<path d="M88.4319 88.6969C93.6445 87.8093 97.3563 94.1193 93.7413 98.1216C90.2232 102.011 83.7196 99.574 83.5743 94.3614C83.655 91.5695 85.6561 89.1649 88.4319 88.6969ZM89.4163 99.5901C92.2566 99.6063 94.5644 97.1855 94.5482 94.3614C94.5482 91.5372 92.1921 89.1003 89.3518 89.1003C86.4469 89.1003 84.2844 91.5049 84.2198 94.3291C84.3005 97.1371 86.5114 99.574 89.4163 99.5901Z" fill="#111111"/>
<ellipse cx="224.133" cy="151.227" rx="5.13708" ry="1.46871" fill="black" fill-opacity="0.3"/>
<path d="M229.786 132.111C230.754 133.321 231.319 134.886 231.303 136.452C231.287 137.388 230.98 138.292 230.642 139.147C229.157 142.843 226.736 146.28 224.315 149.443C224.267 149.524 223.944 149.637 223.88 149.54C222.637 147.926 221.475 146.232 220.394 144.505C219.506 143.117 218.667 141.681 217.973 140.196C217.457 139.066 216.924 137.84 216.908 136.581C216.956 133.305 219.183 130.529 222.33 129.706C225.074 128.996 228.027 129.884 229.786 132.111ZM229.867 140.018C230.851 137.888 231.255 135.806 230.19 133.579C228.899 130.852 225.816 129.174 222.815 129.722C219.603 130.303 217.392 133.273 217.344 136.452C217.36 137.743 217.909 139.002 218.457 140.148C219.151 141.616 219.974 143.02 220.846 144.392C221.879 146.038 222.976 147.636 224.154 149.185C224.945 148.136 225.687 147.055 226.429 145.973C227.688 144.069 228.915 142.1 229.867 140.018Z" fill="#111111"/>
<path d="M230.19 133.579C231.239 135.806 230.835 137.888 229.867 140.018C228.915 142.1 227.688 144.053 226.413 145.957C225.687 147.055 224.929 148.12 224.138 149.169C222.96 147.619 221.862 146.022 220.83 144.376C219.974 143.02 219.151 141.616 218.457 140.147C217.925 139.002 217.376 137.743 217.344 136.452C217.392 133.273 219.603 130.303 222.815 129.722C225.816 129.174 228.899 130.852 230.19 133.579ZM227.107 138.421C229.609 135.661 227.043 131.304 223.444 131.917C221.523 132.24 220.136 133.902 220.087 135.822C220.2 139.421 224.67 141.1 227.107 138.421Z" fill="#ACD4F7"/>
<path d="M229.27 136.517C229.27 139.325 226.978 141.761 224.138 141.745C221.233 141.729 219.022 139.292 218.941 136.484C219.022 133.66 221.168 131.239 224.089 131.256C226.93 131.256 229.27 133.692 229.27 136.517Z" fill="white"/>
<path d="M223.153 130.852C228.366 129.964 232.078 136.274 228.463 140.277C224.945 144.166 218.441 141.729 218.296 136.516C218.377 133.725 220.378 131.32 223.153 130.852ZM224.138 141.745C226.978 141.761 229.286 139.341 229.27 136.516C229.27 133.692 226.914 131.255 224.073 131.255C221.168 131.255 219.006 133.66 218.941 136.484C219.022 139.292 221.233 141.729 224.138 141.745Z" fill="#111111"/>
<ellipse cx="144.74" cy="119.217" rx="5.13708" ry="1.46871" fill="black" fill-opacity="0.3"/>
<path d="M150.394 100.102C151.362 101.312 151.927 102.877 151.911 104.443C151.894 105.379 151.588 106.282 151.249 107.138C149.764 110.833 147.343 114.271 144.923 117.434C144.874 117.515 144.552 117.628 144.487 117.531C143.244 115.917 142.082 114.222 141.001 112.496C140.114 111.108 139.274 109.671 138.58 108.187C138.064 107.057 137.532 105.831 137.515 104.572C137.564 101.296 139.791 98.52 142.938 97.697C145.681 96.9869 148.635 97.8745 150.394 100.102ZM150.474 108.009C151.459 105.879 151.862 103.797 150.797 101.57C149.506 98.8428 146.424 97.1644 143.422 97.7131C140.21 98.2941 138 101.264 137.951 104.443C137.967 105.734 138.516 106.993 139.065 108.138C139.759 109.607 140.582 111.011 141.453 112.383C142.486 114.029 143.583 115.626 144.761 117.176C145.552 116.127 146.294 115.045 147.037 113.964C148.296 112.06 149.522 110.091 150.474 108.009Z" fill="#111111"/>
<path d="M150.797 101.57C151.846 103.797 151.443 105.879 150.474 108.009C149.522 110.091 148.296 112.044 147.021 113.948C146.295 115.045 145.536 116.111 144.745 117.16C143.567 115.61 142.47 114.013 141.437 112.366C140.582 111.011 139.759 109.607 139.065 108.138C138.532 106.992 137.983 105.734 137.951 104.443C138 101.263 140.21 98.2941 143.422 97.7131C146.424 97.1644 149.506 98.8427 150.797 101.57ZM147.715 106.412C150.216 103.652 147.65 99.2946 144.051 99.9079C142.131 100.231 140.743 101.893 140.695 103.813C140.808 107.412 145.278 109.09 147.715 106.412Z" fill="#ACD4F7"/>
<path d="M149.877 104.507C149.877 107.315 147.586 109.752 144.745 109.736C141.84 109.72 139.629 107.283 139.549 104.475C139.629 101.651 141.776 99.23 144.697 99.2462C147.537 99.2462 149.877 101.683 149.877 104.507Z" fill="white"/>
<path d="M143.761 98.8428C148.973 97.9552 152.685 104.265 149.07 108.267C145.552 112.157 139.048 109.72 138.903 104.507C138.984 101.715 140.985 99.3108 143.761 98.8428ZM144.745 109.736C147.586 109.752 149.893 107.331 149.877 104.507C149.877 101.683 147.521 99.2462 144.681 99.2462C141.776 99.2462 139.613 101.651 139.549 104.475C139.629 107.283 141.84 109.72 144.745 109.736Z" fill="#111111"/>
<ellipse cx="67.2833" cy="149.982" rx="5.13708" ry="1.46871" fill="black" fill-opacity="0.3"/>
<path d="M72.9368 131.047C73.9051 132.257 74.4699 133.823 74.4538 135.388C74.4376 136.324 74.131 137.228 73.7921 138.083C72.3074 141.779 69.8867 145.216 67.466 148.379C67.4176 148.46 67.0948 148.573 67.0302 148.476C65.7876 146.862 64.6257 145.168 63.5444 143.441C62.6568 142.053 61.8176 140.617 61.1237 139.132C60.6073 138.003 60.0747 136.776 60.0586 135.517C60.107 132.241 62.3341 129.465 65.481 128.642C68.2245 127.932 71.1777 128.82 72.9368 131.047ZM73.0175 138.955C74.0019 136.824 74.4054 134.743 73.3402 132.516C72.0492 129.788 68.9668 128.11 65.9651 128.659C62.7536 129.24 60.5427 132.209 60.4943 135.388C60.5104 136.679 61.0591 137.938 61.6078 139.084C62.3018 140.552 63.1248 141.956 63.9963 143.328C65.0291 144.974 66.1265 146.572 67.3046 148.121C68.0954 147.072 68.8377 145.991 69.5801 144.91C70.8388 143.005 72.0653 141.037 73.0175 138.955Z" fill="#111111"/>
<path d="M73.3402 132.516C74.3892 134.743 73.9858 136.824 73.0175 138.955C72.0653 141.036 70.8388 142.989 69.5639 144.893C68.8377 145.991 68.0792 147.056 67.2884 148.105C66.1104 146.556 65.013 144.958 63.9801 143.312C63.1248 141.956 62.3018 140.552 61.6078 139.084C61.0753 137.938 60.5266 136.679 60.4943 135.388C60.5427 132.209 62.7536 129.239 65.9651 128.659C68.9668 128.11 72.0492 129.788 73.3402 132.516ZM70.2579 137.357C72.7593 134.597 70.1933 130.24 66.5945 130.853C64.6741 131.176 63.2862 132.838 63.2378 134.759C63.3508 138.358 67.821 140.036 70.2579 137.357Z" fill="#ACD4F7"/>
<path d="M72.4204 135.453C72.4204 138.261 70.1287 140.698 67.2884 140.682C64.3836 140.665 62.1727 138.229 62.092 135.421C62.1727 132.596 64.319 130.176 67.24 130.192C70.0803 130.192 72.4204 132.629 72.4204 135.453Z" fill="white"/>
<path d="M66.304 129.788C71.5166 128.901 75.2284 135.211 71.6135 139.213C68.0954 143.102 61.5917 140.665 61.4465 135.453C61.5271 132.661 63.5283 130.256 66.304 129.788ZM67.2885 140.681C70.1288 140.698 72.4365 138.277 72.4204 135.453C72.4204 132.629 70.0642 130.192 67.2239 130.192C64.319 130.192 62.1565 132.596 62.092 135.42C62.1727 138.228 64.3836 140.665 67.2885 140.681Z" fill="#111111"/>
<ellipse cx="54.2756" cy="109.381" rx="5.13708" ry="1.46871" fill="black" fill-opacity="0.3"/>
<path d="M59.9291 90.4463C60.8974 91.6567 61.4623 93.2221 61.4461 94.7875C61.43 95.7235 61.1234 96.6272 60.7845 97.4825C59.2998 101.178 56.879 104.616 54.4583 107.779C54.4099 107.859 54.0871 107.972 54.0226 107.875C52.78 106.262 51.618 104.567 50.5368 102.84C49.6492 101.452 48.81 100.016 48.116 98.5315C47.5996 97.4018 47.0671 96.1753 47.0509 94.9166C47.0993 91.6405 49.3264 88.8648 52.4733 88.0417C55.2168 87.3317 58.1701 88.2192 59.9291 90.4463ZM60.0098 98.354C60.9943 96.2237 61.3977 94.1419 60.3326 91.9149C59.0415 89.1875 55.9592 87.5092 52.9575 88.0579C49.746 88.6388 47.5351 91.6082 47.4867 94.7875C47.5028 96.0785 48.0515 97.3373 48.6002 98.4831C49.2941 99.9517 50.1172 101.356 50.9886 102.727C52.0215 104.373 53.1189 105.971 54.2969 107.52C55.0877 106.471 55.8301 105.39 56.5724 104.309C57.8312 102.405 59.0577 100.436 60.0098 98.354Z" fill="#111111"/>
<path d="M60.3326 91.9148C61.3816 94.1419 60.9781 96.2237 60.0098 98.3539C59.0577 100.436 57.8312 102.388 56.5563 104.293C55.83 105.39 55.0716 106.455 54.2808 107.504C53.1027 105.955 52.0053 104.357 50.9725 102.711C50.1172 101.356 49.2941 99.9516 48.6002 98.483C48.0676 97.3372 47.5189 96.0784 47.4866 94.7874C47.5351 91.6082 49.746 88.6388 52.9575 88.0578C55.9592 87.5091 59.0415 89.1875 60.3326 91.9148ZM57.2502 96.7562C59.7516 93.9966 57.1856 89.6393 53.5869 90.2526C51.6664 90.5754 50.2785 92.2376 50.2301 94.158C50.3431 97.7568 54.8133 99.4352 57.2502 96.7562Z" fill="#ACD4F7"/>
<path d="M59.4127 94.8518C59.4127 97.6598 57.1211 100.097 54.2808 100.081C51.3759 100.064 49.165 97.6276 49.0843 94.8195C49.165 91.9954 51.3114 89.5746 54.2324 89.5908C57.0727 89.5908 59.4127 92.0276 59.4127 94.8518Z" fill="white"/>
<path d="M53.2964 89.1873C58.509 88.2997 62.2207 94.6097 58.6058 98.6119C55.0877 102.501 48.584 100.064 48.4388 94.8517C48.5195 92.0598 50.5206 89.6553 53.2964 89.1873ZM54.2808 100.08C57.1211 100.097 59.4288 97.6759 59.4127 94.8517C59.4127 92.0276 57.0565 89.5907 54.2162 89.5907C51.3114 89.5907 49.1489 91.9953 49.0843 94.8195C49.165 97.6275 51.3759 100.064 54.2808 100.08Z" fill="#111111"/>
<ellipse cx="160.814" cy="137.261" rx="5.13708" ry="1.46871" fill="black" fill-opacity="0.3"/>
<path d="M166.467 118.326C167.435 119.536 168 121.102 167.984 122.667C167.968 123.603 167.661 124.507 167.323 125.362C165.838 129.058 163.417 132.495 160.996 135.658C160.948 135.739 160.625 135.852 160.561 135.755C159.318 134.141 158.156 132.447 157.075 130.72C156.187 129.332 155.348 127.896 154.654 126.411C154.138 125.281 153.605 124.055 153.589 122.796C153.637 119.52 155.864 116.744 159.011 115.921C161.755 115.211 164.708 116.099 166.467 118.326ZM166.548 126.233C167.532 124.103 167.936 122.021 166.871 119.794C165.58 117.067 162.497 115.389 159.496 115.937C156.284 116.518 154.073 119.488 154.025 122.667C154.041 123.958 154.59 125.217 155.138 126.363C155.832 127.831 156.655 129.235 157.527 130.607C158.56 132.253 159.657 133.851 160.835 135.4C161.626 134.351 162.368 133.27 163.11 132.188C164.369 130.284 165.596 128.315 166.548 126.233Z" fill="#111111"/>
<path d="M166.871 119.794C167.92 122.021 167.516 124.103 166.548 126.233C165.596 128.315 164.369 130.268 163.094 132.172C162.368 133.27 161.61 134.335 160.819 135.384C159.641 133.834 158.543 132.237 157.511 130.591C156.655 129.235 155.832 127.831 155.138 126.363C154.606 125.217 154.057 123.958 154.025 122.667C154.073 119.488 156.284 116.518 159.496 115.937C162.497 115.389 165.58 117.067 166.871 119.794ZM163.788 124.636C166.29 121.876 163.724 117.519 160.125 118.132C158.205 118.455 156.817 120.117 156.768 122.038C156.881 125.636 161.351 127.315 163.788 124.636Z" fill="#ACD4F7"/>
<path d="M165.951 122.731C165.951 125.539 163.659 127.976 160.819 127.96C157.914 127.944 155.703 125.507 155.622 122.699C155.703 119.875 157.849 117.454 160.77 117.47C163.611 117.47 165.951 119.907 165.951 122.731Z" fill="white"/>
<path d="M159.834 117.067C165.047 116.179 168.759 122.489 165.144 126.491C161.626 130.381 155.122 127.944 154.977 122.731C155.058 119.939 157.059 117.535 159.834 117.067ZM160.819 127.96C163.659 127.976 165.967 125.555 165.951 122.731C165.951 119.907 163.595 117.47 160.754 117.47C157.849 117.47 155.687 119.875 155.622 122.699C155.703 125.507 157.914 127.944 160.819 127.96Z" fill="#111111"/>
<ellipse cx="198.164" cy="136.99" rx="5.13708" ry="1.46871" fill="black" fill-opacity="0.3"/>
<path d="M203.817 118.054C204.785 119.265 205.35 120.83 205.334 122.395C205.318 123.331 205.011 124.235 204.672 125.091C203.188 128.786 200.767 132.224 198.346 135.387C198.298 135.467 197.975 135.58 197.911 135.483C196.668 133.87 195.506 132.175 194.425 130.448C193.537 129.061 192.698 127.624 192.004 126.14C191.488 125.01 190.955 123.783 190.939 122.525C190.987 119.249 193.214 116.473 196.361 115.65C199.105 114.94 202.058 115.827 203.817 118.054ZM203.898 125.962C204.882 123.832 205.286 121.75 204.221 119.523C202.929 116.796 199.847 115.117 196.845 115.666C193.634 116.247 191.423 119.216 191.375 122.395C191.391 123.687 191.939 124.945 192.488 126.091C193.182 127.56 194.005 128.964 194.877 130.335C195.909 131.982 197.007 133.579 198.185 135.128C198.976 134.079 199.718 132.998 200.46 131.917C201.719 130.013 202.946 128.044 203.898 125.962Z" fill="#111111"/>
<path d="M204.221 119.523C205.269 121.75 204.866 123.832 203.898 125.962C202.946 128.044 201.719 129.997 200.444 131.901C199.718 132.998 198.959 134.063 198.169 135.112C196.991 133.563 195.893 131.965 194.86 130.319C194.005 128.964 193.182 127.56 192.488 126.091C191.956 124.945 191.407 123.687 191.375 122.396C191.423 119.216 193.634 116.247 196.845 115.666C199.847 115.117 202.929 116.796 204.221 119.523ZM201.138 124.364C203.64 121.605 201.074 117.247 197.475 117.861C195.554 118.184 194.166 119.846 194.118 121.766C194.231 125.365 198.701 127.043 201.138 124.364Z" fill="#ACD4F7"/>
<path d="M203.301 122.46C203.301 125.268 201.009 127.705 198.169 127.689C195.264 127.673 193.053 125.236 192.972 122.428C193.053 119.604 195.199 117.183 198.12 117.199C200.961 117.199 203.301 119.636 203.301 122.46Z" fill="white"/>
<path d="M197.184 116.795C202.397 115.908 206.109 122.218 202.494 126.22C198.976 130.109 192.472 127.672 192.327 122.46C192.407 119.668 194.409 117.263 197.184 116.795ZM198.169 127.689C201.009 127.705 203.317 125.284 203.301 122.46C203.301 119.636 200.944 117.199 198.104 117.199C195.199 117.199 193.037 119.603 192.972 122.428C193.053 125.236 195.264 127.672 198.169 127.689Z" fill="#111111"/>
<ellipse cx="194.181" cy="105.545" rx="5.13708" ry="1.46871" fill="black" fill-opacity="0.3"/>
<path d="M199.834 86.61C200.802 87.8204 201.367 89.3858 201.351 90.9512C201.335 91.8872 201.028 92.7909 200.689 93.6462C199.205 97.3418 196.784 100.779 194.363 103.942C194.315 104.023 193.992 104.136 193.927 104.039C192.685 102.425 191.523 100.731 190.442 99.0041C189.554 97.6162 188.715 96.1799 188.021 94.6952C187.505 93.5655 186.972 92.339 186.956 91.0803C187.004 87.8042 189.231 85.0285 192.378 84.2054C195.122 83.4953 198.075 84.3829 199.834 86.61ZM199.915 94.5177C200.899 92.3874 201.303 90.3056 200.237 88.0786C198.946 85.3512 195.864 83.6729 192.862 84.2216C189.651 84.8025 187.44 87.7719 187.392 90.9512C187.408 92.2422 187.956 93.501 188.505 94.6468C189.199 96.1153 190.022 97.5194 190.894 98.8911C191.926 100.537 193.024 102.135 194.202 103.684C194.993 102.635 195.735 101.554 196.477 100.473C197.736 98.5683 198.963 96.5995 199.915 94.5177Z" fill="#111111"/>
<path d="M200.237 88.0784C201.286 90.3054 200.883 92.3873 199.915 94.5175C198.963 96.5993 197.736 98.552 196.461 100.456C195.735 101.554 194.976 102.619 194.186 103.668C193.008 102.119 191.91 100.521 190.877 98.8748C190.022 97.5192 189.199 96.1152 188.505 94.6466C187.973 93.5008 187.424 92.242 187.392 90.951C187.44 87.7718 189.651 84.8024 192.862 84.2214C195.864 83.6727 198.946 85.3511 200.237 88.0784ZM197.155 92.9198C199.656 90.1602 197.091 85.8029 193.492 86.4162C191.571 86.7389 190.183 88.4012 190.135 90.3216C190.248 93.9204 194.718 95.5987 197.155 92.9198Z" fill="#ACD4F7"/>
<path d="M199.318 91.0157C199.318 93.8238 197.026 96.2606 194.186 96.2445C191.281 96.2283 189.07 93.7915 188.989 90.9835C189.07 88.1593 191.216 85.7386 194.137 85.7547C196.978 85.7547 199.318 88.1916 199.318 91.0157Z" fill="white"/>
<path d="M193.201 85.3511C198.414 84.4635 202.126 90.7735 198.511 94.7757C194.993 98.665 188.489 96.2282 188.344 91.0155C188.424 88.2237 190.426 85.8191 193.201 85.3511ZM194.186 96.2443C197.026 96.2604 199.334 93.8397 199.318 91.0155C199.318 88.1914 196.961 85.7545 194.121 85.7545C191.216 85.7545 189.054 88.1591 188.989 90.9833C189.07 93.7913 191.281 96.2282 194.186 96.2443Z" fill="#111111"/>
<ellipse cx="110.393" cy="141.416" rx="5.13708" ry="1.46871" fill="black" fill-opacity="0.3"/>
<path d="M116.047 122.48C117.015 123.691 117.58 125.256 117.564 126.822C117.548 127.758 117.241 128.661 116.902 129.517C115.417 133.212 112.997 136.65 110.576 139.813C110.528 139.894 110.205 140.006 110.14 139.91C108.898 138.296 107.736 136.601 106.654 134.875C105.767 133.487 104.928 132.05 104.234 130.566C103.717 129.436 103.185 128.21 103.169 126.951C103.217 123.675 105.444 120.899 108.591 120.076C111.334 119.366 114.288 120.253 116.047 122.48ZM116.127 130.388C117.112 128.258 117.515 126.176 116.45 123.949C115.159 121.222 112.077 119.543 109.075 120.092C105.864 120.673 103.653 123.642 103.604 126.822C103.62 128.113 104.169 129.371 104.718 130.517C105.412 131.986 106.235 133.39 107.106 134.762C108.139 136.408 109.236 138.005 110.415 139.555C111.205 138.506 111.948 137.424 112.69 136.343C113.949 134.439 115.175 132.47 116.127 130.388Z" fill="#111111"/>
<path d="M116.45 123.949C117.499 126.176 117.096 128.258 116.127 130.388C115.175 132.47 113.949 134.423 112.674 136.327C111.948 137.425 111.189 138.49 110.398 139.539C109.22 137.989 108.123 136.392 107.09 134.746C106.235 133.39 105.412 131.986 104.718 130.517C104.185 129.372 103.637 128.113 103.604 126.822C103.653 123.643 105.864 120.673 109.075 120.092C112.077 119.544 115.159 121.222 116.45 123.949ZM113.368 128.791C115.869 126.031 113.303 121.674 109.704 122.287C107.784 122.61 106.396 124.272 106.348 126.192C106.461 129.791 110.931 131.47 113.368 128.791Z" fill="#ACD4F7"/>
<path d="M115.53 126.886C115.53 129.694 113.239 132.131 110.398 132.115C107.494 132.099 105.283 129.662 105.202 126.854C105.283 124.03 107.429 121.609 110.35 121.625C113.19 121.625 115.53 124.062 115.53 126.886Z" fill="white"/>
<path d="M109.414 121.222C114.627 120.334 118.338 126.644 114.723 130.646C111.205 134.536 104.702 132.099 104.556 126.886C104.637 124.094 106.638 121.69 109.414 121.222ZM110.398 132.115C113.239 132.131 115.546 129.71 115.53 126.886C115.53 124.062 113.174 121.625 110.334 121.625C107.429 121.625 105.266 124.03 105.202 126.854C105.283 129.662 107.494 132.099 110.398 132.115Z" fill="#111111"/>
<ellipse cx="136.362" cy="151.771" rx="5.13708" ry="1.46871" fill="black" fill-opacity="0.3"/>
<path d="M142.016 132.836C142.984 134.046 143.549 135.612 143.533 137.177C143.517 138.113 143.21 139.017 142.871 139.872C141.386 143.568 138.966 147.005 136.545 150.168C136.496 150.249 136.174 150.362 136.109 150.265C134.867 148.651 133.705 146.957 132.623 145.23C131.736 143.842 130.897 142.406 130.203 140.921C129.686 139.791 129.154 138.565 129.137 137.306C129.186 134.03 131.413 131.254 134.56 130.431C137.303 129.721 140.257 130.609 142.016 132.836ZM142.096 140.744C143.081 138.613 143.484 136.532 142.419 134.305C141.128 131.577 138.046 129.899 135.044 130.448C131.833 131.028 129.622 133.998 129.573 137.177C129.589 138.468 130.138 139.727 130.687 140.873C131.381 142.341 132.204 143.745 133.075 145.117C134.108 146.763 135.205 148.361 136.383 149.91C137.174 148.861 137.917 147.78 138.659 146.699C139.918 144.794 141.144 142.825 142.096 140.744Z" fill="#111111"/>
<path d="M142.419 134.304C143.468 136.532 143.065 138.613 142.096 140.744C141.144 142.825 139.918 144.778 138.643 146.682C137.917 147.78 137.158 148.845 136.367 149.894C135.189 148.345 134.092 146.747 133.059 145.101C132.204 143.745 131.381 142.341 130.687 140.873C130.154 139.727 129.605 138.468 129.573 137.177C129.622 133.998 131.833 131.028 135.044 130.447C138.046 129.899 141.128 131.577 142.419 134.304ZM139.337 139.146C141.838 136.386 139.272 132.029 135.673 132.642C133.753 132.965 132.365 134.627 132.317 136.548C132.43 140.146 136.9 141.825 139.337 139.146Z" fill="#ACD4F7"/>
<path d="M141.499 137.242C141.499 140.05 139.208 142.486 136.367 142.47C133.463 142.454 131.252 140.017 131.171 137.209C131.252 134.385 133.398 131.964 136.319 131.981C139.159 131.981 141.499 134.417 141.499 137.242Z" fill="white"/>
<path d="M135.383 131.577C140.596 130.69 144.307 137 140.692 141.002C137.174 144.891 130.671 142.454 130.525 137.242C130.606 134.45 132.607 132.045 135.383 131.577ZM136.367 142.47C139.208 142.487 141.515 140.066 141.499 137.242C141.499 134.417 139.143 131.981 136.303 131.981C133.398 131.981 131.235 134.385 131.171 137.209C131.252 140.017 133.463 142.454 136.367 142.47Z" fill="#111111"/>
<ellipse cx="68.6068" cy="123.036" rx="5.13708" ry="1.46871" fill="black" fill-opacity="0.3"/>
<path d="M74.2603 104.1C75.2286 105.311 75.7934 106.876 75.7773 108.442C75.7612 109.378 75.4545 110.281 75.1156 111.137C73.6309 114.832 71.2102 118.27 68.7895 121.433C68.7411 121.513 68.4183 121.626 68.3538 121.53C67.1111 119.916 65.9492 118.221 64.8679 116.494C63.9803 115.107 63.1412 113.67 62.4472 112.186C61.9308 111.056 61.3982 109.829 61.3821 108.571C61.4305 105.295 63.6576 102.519 66.8045 101.696C69.548 100.986 72.5013 101.873 74.2603 104.1ZM74.341 112.008C75.3254 109.878 75.7289 107.796 74.6638 105.569C73.3727 102.842 70.2903 101.163 67.2887 101.712C64.0772 102.293 61.8663 105.262 61.8178 108.442C61.834 109.733 62.3827 110.991 62.9314 112.137C63.6253 113.606 64.4484 115.01 65.3198 116.381C66.3526 118.028 67.45 119.625 68.6281 121.174C69.4189 120.125 70.1612 119.044 70.9036 117.963C72.1624 116.059 73.3889 114.09 74.341 112.008Z" fill="#111111"/>
<path d="M74.6638 105.569C75.7127 107.796 75.3093 109.878 74.341 112.008C73.3889 114.09 72.1624 116.043 70.8875 117.947C70.1612 119.044 69.4027 120.109 68.612 121.158C67.4339 119.609 66.3365 118.011 65.3037 116.365C64.4484 115.01 63.6253 113.606 62.9314 112.137C62.3988 110.991 61.8501 109.733 61.8178 108.442C61.8663 105.262 64.0772 102.293 67.2887 101.712C70.2903 101.163 73.3727 102.842 74.6638 105.569ZM71.5814 110.41C74.0828 107.651 71.5168 103.294 67.918 103.907C65.9976 104.23 64.6097 105.892 64.5613 107.812C64.6743 111.411 69.1445 113.089 71.5814 110.41Z" fill="#ACD4F7"/>
<path d="M73.7439 108.506C73.7439 111.314 71.4523 113.751 68.612 113.735C65.7071 113.719 63.4962 111.282 63.4155 108.474C63.4962 105.65 65.6426 103.229 68.5636 103.245C71.4039 103.245 73.7439 105.682 73.7439 108.506Z" fill="white"/>
<path d="M67.6276 102.842C72.8402 101.954 76.5519 108.264 72.937 112.266C69.4189 116.155 62.9152 113.719 62.77 108.506C62.8507 105.714 64.8518 103.31 67.6276 102.842ZM68.612 113.735C71.4523 113.751 73.76 111.33 73.7439 108.506C73.7439 105.682 71.3877 103.245 68.5474 103.245C65.6426 103.245 63.4801 105.65 63.4155 108.474C63.4962 111.282 65.7071 113.719 68.612 113.735Z" fill="#111111"/>
<ellipse cx="39.8801" cy="152.733" rx="5.13708" ry="1.46871" fill="black" fill-opacity="0.3"/>
<path d="M45.5336 133.798C46.5019 135.008 47.0667 136.574 47.0506 138.139C47.0344 139.075 46.7278 139.979 46.3889 140.834C44.9042 144.53 42.4835 147.967 40.0628 151.13C40.0144 151.211 39.6916 151.324 39.6271 151.227C38.3844 149.613 37.2225 147.919 36.1412 146.192C35.2536 144.804 34.4144 143.368 33.7205 141.883C33.2041 140.754 32.6715 139.527 32.6554 138.268C32.7038 134.992 34.9309 132.216 38.0778 131.393C40.8213 130.683 43.7745 131.571 45.5336 133.798ZM45.6143 141.706C46.5987 139.575 47.0022 137.494 45.9371 135.267C44.646 132.539 41.5636 130.861 38.5619 131.41C35.3505 131.991 33.1395 134.96 33.0911 138.139C33.1073 139.43 33.656 140.689 34.2047 141.835C34.8986 143.303 35.7216 144.707 36.5931 146.079C37.6259 147.725 38.7233 149.323 39.9014 150.872C40.6922 149.823 41.4345 148.742 42.1769 147.661C43.4356 145.756 44.6621 143.787 45.6143 141.706Z" fill="#111111"/>
<path d="M45.937 135.267C46.986 137.494 46.5826 139.575 45.6143 141.706C44.6621 143.788 43.4356 145.74 42.1607 147.645C41.4345 148.742 40.676 149.807 39.8853 150.856C38.7072 149.307 37.6098 147.709 36.5769 146.063C35.7216 144.707 34.8986 143.303 34.2046 141.835C33.6721 140.689 33.1234 139.43 33.0911 138.139C33.1395 134.96 35.3504 131.991 38.5619 131.41C41.5636 130.861 44.646 132.539 45.937 135.267ZM42.8547 140.108C45.3561 137.348 42.7901 132.991 39.1913 133.604C37.2709 133.927 35.883 135.589 35.8346 137.51C35.9476 141.109 40.4178 142.787 42.8547 140.108Z" fill="#ACD4F7"/>
<path d="M45.0172 138.204C45.0172 141.012 42.7256 143.449 39.8853 143.433C36.9804 143.416 34.7695 140.98 34.6888 138.172C34.7695 135.347 36.9159 132.927 39.8369 132.943C42.6772 132.943 45.0172 135.38 45.0172 138.204Z" fill="white"/>
<path d="M38.9008 132.539C44.1134 131.652 47.8252 137.962 44.2103 141.964C40.6922 145.853 34.1885 143.416 34.0433 138.204C34.1239 135.412 36.1251 133.007 38.9008 132.539ZM39.8853 143.432C42.7256 143.449 45.0333 141.028 45.0172 138.204C45.0172 135.379 42.661 132.943 39.8207 132.943C36.9158 132.943 34.7533 135.347 34.6888 138.171C34.7695 140.979 36.9804 143.416 39.8853 143.432Z" fill="#111111"/>
<path d="M156.977 15.2031H53.0779V79.3905H156.977V15.2031Z" fill="#638ADC"/>
<path d="M155.429 11.722H51.5302V77.953H155.429V11.722Z" fill="white"/>
<g clip-path="url(#clip1_25_2941)">
<path d="M84.3326 51.0767H59.9692V54.493H84.3326V51.0767Z" fill="white"/>
<path d="M84.2965 54.6437H59.9692C59.8969 54.6437 59.8246 54.5432 59.8246 54.4428V51.0767C59.8246 50.9763 59.8969 50.8758 59.9692 50.8758H84.3326C84.4049 50.8758 84.4772 50.9763 84.4772 51.0767V54.493C84.4411 54.5432 84.3688 54.6437 84.2965 54.6437ZM60.1138 54.292H84.1881V51.2777H60.1138V54.292Z" fill="black"/>
<path d="M80.9348 51.0767H74.5367V54.493H80.9348V51.0767Z" fill="#ACD4F7"/>
<path d="M80.9348 54.6437H74.5367C74.4644 54.6437 74.3921 54.5432 74.3921 54.4428V51.0767C74.3921 50.9763 74.4644 50.8758 74.5367 50.8758H80.9348C81.0071 50.8758 81.0794 50.9763 81.0794 51.0767V54.493C81.0432 54.5432 81.0071 54.6437 80.9348 54.6437ZM74.6812 54.292H80.7902V51.2777H74.6812V54.292Z" fill="black"/>
<path d="M89.321 56.9305H72.5124V60.3467H89.321V56.9305Z" fill="white"/>
<path d="M89.321 60.4974H72.5124C72.4401 60.4974 72.3678 60.3969 72.3678 60.2965V56.8802C72.3678 56.7797 72.4401 56.6793 72.5124 56.6793H89.321C89.3933 56.6793 89.4656 56.7797 89.4656 56.8802V60.2965C89.4656 60.3467 89.4656 60.3969 89.4295 60.4472C89.3933 60.4472 89.3572 60.4974 89.321 60.4974ZM72.657 60.0955H89.1764V57.0812H72.657V60.0955Z" fill="black"/>
<path d="M72.5124 56.9305H65.789V60.3467H72.5124V56.9305Z" fill="#ACD4F7"/>
<path d="M72.5124 60.4974H65.789C65.7167 60.4974 65.6444 60.3969 65.6444 60.2965V56.8802C65.6444 56.7797 65.7167 56.6793 65.789 56.6793H72.5124C72.5847 56.6793 72.657 56.7797 72.657 56.8802V60.2965C72.657 60.3969 72.5847 60.4974 72.5124 60.4974ZM65.9335 60.0955H72.404V57.0812H65.9335V60.0955Z" fill="black"/>
<path d="M73.5245 59.8443C73.4884 59.8443 73.4884 59.8443 73.5245 59.8443L72.91 58.94C72.91 58.8898 72.91 58.8898 72.91 58.8395C72.9462 58.8395 72.9462 58.8395 72.9823 58.8395L73.5607 59.6936C73.5607 59.7438 73.5607 59.7941 73.5245 59.8443Z" fill="black"/>
<path d="M74.4282 59.8443C74.4282 59.8443 74.3921 59.8443 74.4282 59.8443L72.91 57.7343C72.91 57.7343 72.91 57.684 72.91 57.6338C72.91 57.6338 72.9462 57.6338 72.9823 57.6338L74.4644 59.6936C74.4644 59.7438 74.4644 59.7941 74.4282 59.8443C74.4282 59.8443 74.4644 59.8443 74.4282 59.8443Z" fill="black"/>
<path d="M75.3319 59.8946C75.2958 59.8946 75.2958 59.8946 75.3319 59.8946L73.633 57.5333C73.633 57.5333 73.633 57.4831 73.633 57.4329C73.633 57.4329 73.6691 57.4329 73.7053 57.4329L75.3681 59.7439C75.3681 59.7941 75.3681 59.8443 75.3319 59.8946Z" fill="black"/>
<path d="M76.2718 59.8443C76.2718 59.8443 76.2356 59.8443 76.2718 59.8443L74.5728 57.4831C74.5728 57.4831 74.5728 57.4329 74.5728 57.3826C74.5728 57.3826 74.609 57.3826 74.6451 57.3826L76.3079 59.6936C76.3079 59.7439 76.3079 59.7941 76.2718 59.8443C76.2718 59.8443 76.3079 59.8443 76.2718 59.8443Z" fill="black"/>
<path d="M77.3562 59.9448C77.3562 59.9448 77.3562 59.8946 77.3562 59.9448L75.6572 57.5836C75.6572 57.5836 75.6572 57.5333 75.6572 57.4831C75.6572 57.4328 75.6934 57.4831 75.7295 57.4831L77.3923 59.7941C77.4285 59.8443 77.4285 59.8946 77.3562 59.9448C77.3923 59.9448 77.3923 59.8946 77.3562 59.9448Z" fill="black"/>
<path d="M78.3321 59.7941C78.3321 59.7941 78.296 59.7941 78.3321 59.7941L76.8501 57.6338C76.8501 57.5836 76.8501 57.5836 76.8501 57.5333C76.8501 57.5333 76.8862 57.5333 76.9224 57.5333L78.3683 59.6936C78.3683 59.6936 78.3683 59.7438 78.3321 59.7941Z" fill="black"/>
<path d="M79.4889 59.7941C78.9105 59.0907 78.3683 58.3372 77.8622 57.5836C77.8622 57.5333 77.8622 57.5333 77.8622 57.4831C77.8984 57.4831 77.8984 57.4831 77.9345 57.4831C78.4406 58.2367 78.9828 58.9903 79.525 59.6936C79.5612 59.7438 79.5612 59.7438 79.4889 59.7941C79.525 59.7941 79.525 59.7941 79.4889 59.7941Z" fill="black"/>
<path d="M80.7179 59.7941C80.7179 59.7941 80.6817 59.7941 80.7179 59.7941L79.0912 57.5836C79.0912 57.5836 79.0912 57.5333 79.0912 57.4831C79.0912 57.4831 79.1274 57.4831 79.1635 57.4831L80.754 59.6936C80.754 59.7438 80.754 59.7438 80.7179 59.7941C80.7179 59.7941 80.754 59.7941 80.7179 59.7941Z" fill="black"/>
<path d="M81.9108 59.7941L80.248 57.4831C80.248 57.4831 80.248 57.4329 80.248 57.3826C80.248 57.3826 80.2841 57.3826 80.3203 57.3826L81.9831 59.6936C81.9831 59.6936 81.9831 59.7439 81.9108 59.7941C81.9469 59.7941 81.9469 59.7941 81.9108 59.7941Z" fill="black"/>
<path d="M83.1398 59.7941L81.5131 57.5836C81.5131 57.5836 81.5131 57.5333 81.5131 57.4831C81.5131 57.4831 81.5493 57.4831 81.5854 57.4831L83.1759 59.6936C83.2121 59.6936 83.2121 59.7438 83.1398 59.7941C83.1759 59.7941 83.1759 59.7941 83.1398 59.7941Z" fill="black"/>
<path d="M84.2604 59.6936C84.2242 59.6936 84.2242 59.6936 84.2604 59.6936L82.6699 57.4831C82.6699 57.4831 82.6699 57.4329 82.6699 57.3826C82.6699 57.3826 82.706 57.3826 82.7422 57.3826L84.2965 59.5429C84.2965 59.6434 84.2965 59.6936 84.2604 59.6936Z" fill="black"/>
<path d="M85.3809 59.6936L83.7904 57.5333C83.7904 57.5333 83.7904 57.4831 83.7904 57.4329C83.7904 57.4329 83.8266 57.4329 83.8627 57.4329L85.4171 59.5931C85.4532 59.5931 85.4532 59.6434 85.3809 59.6936C85.3809 59.6936 85.4171 59.6936 85.3809 59.6936Z" fill="black"/>
<path d="M86.4292 59.7438L84.8749 57.5836C84.8749 57.5836 84.8749 57.5333 84.8749 57.4831C84.8749 57.4831 84.911 57.4831 84.9472 57.4831L86.5015 59.6434C86.5015 59.6434 86.5015 59.6936 86.4292 59.7438C86.4654 59.7438 86.4654 59.7438 86.4292 59.7438Z" fill="black"/>
<path d="M87.6582 59.7438L85.9593 57.5333C85.9593 57.5333 85.9232 57.4831 85.9593 57.4329C85.9593 57.4329 85.9954 57.3826 86.0316 57.4329L87.6944 59.5931C87.7305 59.6936 87.7305 59.6936 87.6582 59.7438C87.6944 59.7438 87.6944 59.7438 87.6582 59.7438Z" fill="black"/>
<path d="M88.6704 59.5429L87.2968 57.6338C87.2968 57.6338 87.2968 57.5836 87.2968 57.5333C87.2968 57.5333 87.3329 57.5333 87.369 57.5333L88.7427 59.4424C88.7427 59.4926 88.7427 59.4926 88.6704 59.5429C88.7065 59.5429 88.7065 59.5429 88.6704 59.5429Z" fill="black"/>
<path d="M88.8511 58.3372C88.815 58.3372 88.815 58.3372 88.8511 58.3372L88.2727 57.5333C88.2727 57.5333 88.2727 57.4831 88.2727 57.4329C88.2727 57.4329 88.3089 57.4329 88.345 57.4329L88.8872 58.1864C88.8872 58.2869 88.8872 58.3372 88.8511 58.3372Z" fill="black"/>
</g>
<path d="M155.366 78.1347H51.5301C51.4029 78.1347 51.2756 78.022 51.2756 77.9092V11.9475C51.2756 11.8347 51.4029 11.722 51.5301 11.722H155.429C155.556 11.722 155.684 11.8347 155.684 11.9475V77.9656C155.62 78.0784 155.493 78.1347 155.366 78.1347ZM51.7846 77.7401H155.175V12.173H51.7846V77.7401Z" fill="black"/>
<path d="M59.8653 45.6545C70.4264 45.6545 79.6 45.7315 89.4673 45.6545C89.4673 36.9434 89.0048 28.1553 89.159 19.3672C79.0604 19.2901 69.5785 19.3672 59.7882 19.3672C59.7882 28.1553 59.8653 36.9434 59.8653 45.6545Z" fill="#638ADC"/>
<path d="M79.6771 46.3483C76.5164 46.3483 73.4329 46.3483 70.1952 46.3483C66.8803 46.3483 63.4114 46.3483 59.8653 46.3483C59.4798 46.3483 59.1715 46.04 59.1715 45.6545C59.1715 41.2605 59.1715 36.9435 59.1715 32.5494C59.1715 28.1554 59.1715 23.7613 59.1715 19.3673C59.1715 18.9818 59.4798 18.6735 59.8653 18.6735C63.103 18.6735 66.3407 18.6735 69.5785 18.6735C75.8997 18.6735 82.5294 18.6735 89.2361 18.6735C89.3902 18.6735 89.6215 18.7506 89.6986 18.9047C89.8528 19.0589 89.9299 19.2131 89.8528 19.3673C89.7757 24.4551 89.8528 29.6201 90.007 34.5537C90.084 38.1769 90.1611 41.9543 90.1611 45.6545C90.1611 46.04 89.8528 46.3483 89.4673 46.3483C86.1525 46.3483 82.9148 46.3483 79.6771 46.3483ZM60.482 44.9607C63.7968 44.9607 67.0345 44.9607 70.1952 44.9607C76.5164 44.9607 82.4523 44.9607 88.7735 44.9607C88.7735 41.4917 88.6965 37.9456 88.6194 34.5537C88.5423 29.7742 88.3881 24.8406 88.4652 19.984C81.9897 19.9069 75.6685 19.984 69.5014 19.984C66.4949 19.984 63.4884 19.984 60.4049 19.984C60.4049 24.1468 60.4049 28.3096 60.4049 32.4723C60.482 36.7122 60.482 40.875 60.482 44.9607Z" fill="black"/>
<path d="M62.6405 24.3781C62.5634 24.3781 62.5634 24.3781 62.4863 24.301C62.4092 24.2239 62.3321 24.0698 62.4092 23.9927C63.0259 23.1447 63.6426 22.4509 64.4135 21.7571C64.4906 21.68 64.6448 21.68 64.7219 21.7571C64.799 21.8342 64.799 21.9884 64.7219 22.0655C64.0281 22.7592 63.3343 23.453 62.7947 24.301C62.7176 24.3781 62.7176 24.3781 62.6405 24.3781Z" fill="black"/>
<path d="M61.8696 29.6972C61.7925 29.6972 61.7925 29.6972 61.7154 29.6201C61.6384 29.543 61.6384 29.3888 61.7154 29.3117C64.1052 26.6907 66.4949 24.0697 68.8076 21.3716C68.8847 21.2945 69.0389 21.2945 69.116 21.3716C69.193 21.4487 69.193 21.6029 69.116 21.68C66.8033 24.3781 64.4135 27.0762 62.0238 29.6201C61.9467 29.6972 61.9467 29.6972 61.8696 29.6972Z" fill="black"/>
<path d="M61.8696 35.0162C61.7925 35.0162 61.7925 35.0162 61.7154 34.9391C61.6384 34.8621 61.6384 34.7079 61.7154 34.6308L72.662 21.6799C72.7391 21.6028 72.8933 21.6028 72.9704 21.6799C73.0475 21.757 73.0475 21.9112 72.9704 21.9882L62.0238 34.9391C62.0238 35.0162 61.9467 35.0162 61.8696 35.0162Z" fill="black"/>
<path d="M62.1008 39.95C62.0237 39.95 62.0237 39.95 61.9467 39.8729C61.8696 39.7958 61.8696 39.6416 61.9467 39.5645C67.1116 33.86 72.1224 27.847 76.979 21.8341C77.056 21.757 77.2102 21.757 77.2873 21.8341C77.3644 21.9112 77.3644 22.0654 77.2873 22.1425C72.4307 28.1554 67.42 34.0912 62.255 39.8729C62.255 39.95 62.1779 39.95 62.1008 39.95Z" fill="black"/>
<path d="M63.7197 43.8045C63.6426 43.8045 63.6426 43.8045 63.5655 43.7274C63.4884 43.6503 63.4884 43.4961 63.5655 43.419C69.4243 36.0956 75.5143 28.8493 81.6814 21.7571C81.7585 21.68 81.9127 21.68 81.9897 21.7571C82.0668 21.8342 82.0668 21.9884 81.9897 22.0655C75.8226 29.1576 69.7326 36.404 63.8739 43.6503C63.8739 43.7274 63.7968 43.8045 63.7197 43.8045Z" fill="black"/>
<path d="M68.5763 43.6502C68.4992 43.6502 68.4992 43.6502 68.4221 43.5731C68.345 43.496 68.345 43.3419 68.4221 43.2648L85.9213 21.8341C85.9984 21.757 86.1525 21.757 86.2296 21.8341C86.3067 21.9112 86.3067 22.0654 86.2296 22.1425L68.8076 43.5731C68.7305 43.5731 68.6534 43.6502 68.5763 43.6502Z" fill="black"/>
<path d="M73.5871 43.6502C73.51 43.6502 73.51 43.6502 73.4329 43.5731C73.3558 43.496 73.3558 43.3418 73.4329 43.2648C77.9041 38.0998 82.2981 32.7807 86.6151 27.4616C86.6922 27.3845 86.8463 27.3845 86.9234 27.4616C87.0005 27.5387 87.0005 27.6928 86.9234 27.7699C82.6065 33.089 78.2124 38.4853 73.7413 43.6502C73.7413 43.6502 73.6642 43.6502 73.5871 43.6502Z" fill="black"/>
<path d="M79.2146 43.5731C79.1375 43.5731 79.1375 43.5731 79.0604 43.496C78.9833 43.4189 78.9062 43.2647 78.9833 43.1876C81.2959 40.027 83.6857 36.9434 86.1525 33.937C86.2296 33.8599 86.3838 33.8599 86.4609 33.937C86.538 34.0141 86.538 34.1682 86.4609 34.2453C83.9941 37.2518 81.6043 40.3353 79.2916 43.496C79.3687 43.5731 79.2916 43.5731 79.2146 43.5731Z" fill="black"/>
<path d="M83.6086 43.8044C83.5315 43.8044 83.5315 43.8044 83.4544 43.7273C83.3773 43.6502 83.3773 43.496 83.4544 43.419C84.3795 42.3397 85.3046 41.1834 86.1525 39.95C86.2296 39.8729 86.3838 39.7958 86.4609 39.8729C86.538 39.95 86.6151 40.1041 86.538 40.1812C85.69 41.3376 84.7649 42.571 83.8399 43.6502C83.6857 43.7273 83.6857 43.8044 83.6086 43.8044Z" fill="black"/>
<path d="M118.606 70.8373C118.606 69.5268 119.685 68.4475 120.995 68.4475C122.306 68.4475 123.385 69.5268 123.385 70.8373C123.385 72.1478 122.306 73.227 120.995 73.227C119.685 73.227 118.606 72.1478 118.606 70.8373Z" fill="white"/>
<path d="M120.995 73.9209C119.299 73.9209 117.989 72.5333 117.989 70.9144C117.989 69.2956 119.377 67.908 120.995 67.908C122.691 67.908 124.002 69.2956 124.002 70.9144C124.002 72.5333 122.691 73.9209 120.995 73.9209ZM120.995 69.1414C120.07 69.1414 119.299 69.9123 119.299 70.8373C119.299 71.7624 120.07 72.5333 120.995 72.5333C121.921 72.5333 122.691 71.7624 122.691 70.8373C122.691 69.9123 121.921 69.1414 120.995 69.1414Z" fill="black"/>
<path d="M130.092 70.8373C130.092 69.5268 131.171 68.4475 132.482 68.4475C133.792 68.4475 134.871 69.5268 134.871 70.8373C134.871 72.1478 133.792 73.227 132.482 73.227C131.171 73.227 130.092 72.1478 130.092 70.8373Z" fill="white"/>
<path d="M132.482 73.9209C130.786 73.9209 129.475 72.5333 129.475 70.9144C129.475 69.2956 130.863 67.908 132.482 67.908C134.178 67.908 135.488 69.2956 135.488 70.9144C135.488 72.5333 134.101 73.9209 132.482 73.9209ZM132.482 69.1414C131.557 69.1414 130.786 69.9123 130.786 70.8373C130.786 71.7624 131.557 72.5333 132.482 72.5333C133.407 72.5333 134.178 71.7624 134.178 70.8373C134.178 69.9123 133.407 69.1414 132.482 69.1414Z" fill="black"/>
<path d="M141.578 70.8373C141.578 69.5268 142.657 68.4475 143.968 68.4475C145.278 68.4475 146.358 69.5268 146.358 70.8373C146.358 72.1478 145.278 73.227 143.968 73.227C142.58 73.227 141.578 72.1478 141.578 70.8373Z" fill="white"/>
<path d="M143.891 73.9209C142.195 73.9209 140.884 72.5333 140.884 70.9144C140.884 69.2956 142.272 67.908 143.891 67.908C145.587 67.908 146.897 69.2956 146.897 70.9144C146.897 72.5333 145.587 73.9209 143.891 73.9209ZM143.891 69.1414C142.966 69.1414 142.195 69.9123 142.195 70.8373C142.195 71.7624 142.966 72.5333 143.891 72.5333C144.816 72.5333 145.587 71.7624 145.587 70.8373C145.587 69.9123 144.816 69.1414 143.891 69.1414Z" fill="black"/>
<g opacity="0.1294">
<path d="M124.079 72.9189C123.771 71.9938 122.383 71.8396 121.766 72.6105C121.689 72.6876 121.612 72.7647 121.535 72.7647C121.458 72.7647 121.304 72.8418 121.227 72.8418C121.227 72.8418 121.227 72.8418 121.15 72.8418C121.073 72.8418 121.073 72.8418 120.995 72.8418C120.918 72.8418 120.918 72.8418 120.841 72.8418C120.687 72.8418 120.61 72.7647 120.533 72.7647C120.456 72.7647 120.379 72.6876 120.302 72.6105C120.225 72.5334 120.147 72.4563 119.993 72.3793C118.914 71.6855 117.526 72.6876 117.912 73.921C118.22 74.9232 119.377 75.3086 120.302 75.5399C121.689 75.9253 124.85 74.6919 124.079 72.9189Z" fill="black"/>
</g>
<g opacity="0.1294">
<path d="M135.874 72.7647C135.565 71.9167 134.409 71.6854 133.792 72.3792C133.715 72.4563 133.638 72.5334 133.561 72.6105C133.561 72.6105 133.484 72.6105 133.484 72.6876C133.021 72.9188 133.098 72.8418 132.482 72.9188C132.405 72.9188 132.327 72.9188 132.25 72.9188C132.173 72.9188 132.096 72.8417 132.019 72.8417C131.865 72.7647 131.711 72.6876 131.634 72.6105C131.634 72.6105 131.634 72.6105 131.557 72.6105C131.402 72.4563 131.248 72.3021 131.094 72.3021C129.861 71.7625 128.781 73.3814 129.706 74.3064C130.863 75.4628 132.482 75.7711 134.023 75.3086C134.948 74.8461 136.413 73.9981 135.874 72.7647Z" fill="black"/>
</g>
<g opacity="0.1294">
<path d="M147.283 72.9959C147.051 72.0708 145.895 71.8395 145.201 72.4562C145.124 72.5333 145.047 72.5333 144.97 72.6104C144.893 72.6104 144.893 72.6875 144.816 72.6875C144.739 72.6875 144.662 72.7646 144.507 72.7646C144.43 72.7646 144.43 72.7646 144.353 72.7646C144.276 72.7646 144.122 72.7646 144.045 72.7646C143.428 72.6104 143.428 72.6104 143.274 72.5333C142.734 72.225 142.118 71.7624 141.424 71.9166C140.422 72.1479 140.191 73.6126 141.116 74.1522C141.655 74.3835 142.118 74.7689 142.657 74.9231C143.274 75.1543 143.968 75.2314 144.662 75.1543C145.818 75.1543 147.591 74.4605 147.283 72.9959Z" fill="black"/>
</g>
<path d="M132.868 26.2282H100.26C99.4889 26.2282 98.7951 25.9198 98.7951 25.5344C98.7951 25.1489 99.4118 24.8406 100.26 24.8406H132.791C133.562 24.8406 134.256 25.1489 134.256 25.5344C134.333 25.9198 133.639 26.2282 132.868 26.2282Z" fill="black"/>
<path d="M111.206 31.5472H99.4118C99.1035 31.5472 98.8722 31.2388 98.8722 30.8534C98.8722 30.468 99.1035 30.1596 99.4118 30.1596H111.283C111.592 30.1596 111.823 30.468 111.823 30.8534C111.746 31.2388 111.515 31.5472 111.206 31.5472Z" fill="black"/>
<path d="M106.427 49.3891C107.747 49.3891 108.817 48.3191 108.817 46.9993C108.817 45.6795 107.747 44.6096 106.427 44.6096C105.107 44.6096 104.037 45.6795 104.037 46.9993C104.037 48.3191 105.107 49.3891 106.427 49.3891Z" fill="#ACD4F7"/>
<path d="M106.427 49.6203C104.962 49.6203 103.806 48.4639 103.806 46.9992C103.806 45.5346 104.962 44.3782 106.427 44.3782C107.892 44.3782 109.048 45.5346 109.048 46.9992C108.971 48.4639 107.814 49.6203 106.427 49.6203ZM106.427 44.9179C105.271 44.9179 104.345 45.8429 104.345 46.9992C104.345 48.1556 105.271 49.0806 106.427 49.0806C107.583 49.0806 108.508 48.1556 108.508 46.9992C108.508 45.8429 107.583 44.9179 106.427 44.9179Z" fill="black"/>
<path d="M117.065 54.0914C118.385 54.0914 119.455 53.0215 119.455 51.7016C119.455 50.3818 118.385 49.3119 117.065 49.3119C115.745 49.3119 114.675 50.3818 114.675 51.7016C114.675 53.0215 115.745 54.0914 117.065 54.0914Z" fill="white"/>
<path d="M117.065 54.3227C115.6 54.3227 114.444 53.1663 114.444 51.7016C114.444 50.237 115.6 49.0806 117.065 49.0806C118.53 49.0806 119.686 50.237 119.686 51.7016C119.686 53.1663 118.53 54.3227 117.065 54.3227ZM117.065 49.6202C115.909 49.6202 114.984 50.5453 114.984 51.7016C114.984 52.858 115.909 53.783 117.065 53.783C118.221 53.783 119.147 52.858 119.147 51.7016C119.147 50.5453 118.221 49.6202 117.065 49.6202Z" fill="black"/>
<path d="M125.159 43.8388C126.479 43.8388 127.549 42.7688 127.549 41.449C127.549 40.1292 126.479 39.0593 125.159 39.0593C123.84 39.0593 122.77 40.1292 122.77 41.449C122.77 42.7688 123.84 43.8388 125.159 43.8388Z" fill="white"/>
<path d="M125.159 44.0699C123.695 44.0699 122.538 42.9136 122.538 41.4489C122.538 39.9842 123.695 38.8279 125.159 38.8279C126.624 38.8279 127.78 39.9842 127.78 41.4489C127.703 42.9136 126.547 44.0699 125.159 44.0699ZM125.159 39.3675C124.003 39.3675 123.078 40.2926 123.078 41.4489C123.078 42.6052 124.003 43.5303 125.159 43.5303C126.316 43.5303 127.241 42.6052 127.241 41.4489C127.241 40.2926 126.316 39.3675 125.159 39.3675Z" fill="black"/>
<path d="M133.562 51.7016C133.562 50.3911 134.641 49.3119 135.952 49.3119C137.262 49.3119 138.342 50.3911 138.342 51.7016C138.342 53.0121 137.262 54.0914 135.952 54.0914C134.564 54.0914 133.562 53.0121 133.562 51.7016Z" fill="#ACD4F7"/>
<path d="M135.875 54.3227C134.41 54.3227 133.254 53.1663 133.254 51.7016C133.254 50.237 134.41 49.0806 135.875 49.0806C137.339 49.0806 138.496 50.237 138.496 51.7016C138.496 53.1663 137.339 54.3227 135.875 54.3227ZM135.875 49.6202C134.718 49.6202 133.793 50.5453 133.793 51.7016C133.793 52.858 134.718 53.783 135.875 53.783C137.031 53.783 137.956 52.858 137.956 51.7016C137.956 50.5453 137.031 49.6202 135.875 49.6202Z" fill="black"/>
<path d="M143.815 39.7528C143.815 38.4423 144.894 37.363 146.205 37.363C147.515 37.363 148.594 38.4423 148.594 39.7528C148.594 41.0633 147.515 42.1425 146.205 42.1425C144.894 42.0654 143.815 41.0633 143.815 39.7528Z" fill="white"/>
<path d="M146.128 42.2968C144.663 42.2968 143.507 41.1405 143.507 39.6758C143.507 38.2111 144.663 37.0548 146.128 37.0548C147.592 37.0548 148.749 38.2111 148.749 39.6758C148.749 41.1405 147.592 42.2968 146.128 42.2968ZM146.128 37.5944C144.971 37.5944 144.046 38.5195 144.046 39.6758C144.046 40.8322 144.971 41.7572 146.128 41.7572C147.284 41.7572 148.209 40.8322 148.209 39.6758C148.286 38.5966 147.361 37.5944 146.128 37.5944Z" fill="black"/>
<path d="M114.907 50.8538H114.83C112.748 50.0058 110.59 49.1578 108.508 48.2327C108.354 48.1556 108.354 48.0786 108.354 47.9244C108.431 47.7702 108.508 47.7702 108.662 47.7702C110.744 48.6953 112.825 49.5432 114.984 50.3912C115.138 50.4683 115.138 50.5454 115.138 50.6996C115.061 50.7767 114.984 50.8538 114.907 50.8538Z" fill="black"/>
<path d="M118.915 50.3141C118.838 50.3141 118.838 50.3141 118.761 50.237C118.684 50.1599 118.607 50.0058 118.761 49.9287L123.849 43.5303C123.926 43.4532 124.08 43.3761 124.157 43.5303C124.234 43.6074 124.311 43.7616 124.157 43.8387L119.069 50.237C119.069 50.3141 118.992 50.3141 118.915 50.3141Z" fill="black"/>
<path d="M134.102 50.3141C134.025 50.3141 133.948 50.3141 133.948 50.237L126.855 43.2219C126.778 43.1449 126.778 42.9907 126.855 42.9136C126.932 42.8365 127.087 42.8365 127.164 42.9136L134.256 49.9287C134.333 50.0058 134.333 50.1599 134.256 50.237C134.179 50.3141 134.102 50.3141 134.102 50.3141Z" fill="black"/>
<path d="M137.802 50.4683C137.725 50.4683 137.725 50.4683 137.648 50.3912C137.571 50.3141 137.494 50.16 137.648 50.0829L144.586 41.526C144.663 41.4489 144.817 41.3718 144.894 41.526C144.971 41.6031 145.048 41.7573 144.894 41.8344L137.956 50.3912C137.956 50.4683 137.879 50.4683 137.802 50.4683Z" fill="black"/>
<path d="M115.369 52.3955C115.292 52.3955 115.292 52.3184 115.292 52.3184L116.371 50.3141C116.371 50.3141 116.448 50.237 116.448 50.3141C116.448 50.3141 116.525 50.3912 116.448 50.3912L115.369 52.3955C115.446 52.3955 115.446 52.3955 115.369 52.3955Z" fill="black"/>
<path d="M116.217 53.1663C116.14 53.1663 116.14 53.0892 116.14 53.0892L117.682 50.237C117.682 50.237 117.759 50.1599 117.759 50.237C117.759 50.237 117.836 50.314 117.759 50.314L116.217 53.1663C116.294 53.1663 116.294 53.1663 116.217 53.1663Z" fill="black"/>
<path d="M117.373 53.0122C117.296 53.0122 117.296 52.9351 117.296 52.858L118.221 51.2392C118.221 51.2392 118.299 51.1621 118.299 51.2392C118.299 51.2392 118.376 51.3162 118.299 51.3162L117.373 53.0122C117.373 53.0122 117.451 53.0122 117.373 53.0122Z" fill="black"/>
<path d="M144.509 39.83C144.432 39.83 144.432 39.7529 144.432 39.7529C144.663 39.2904 144.894 38.9049 145.203 38.4424C145.203 38.4424 145.28 38.3653 145.28 38.4424C145.28 38.4424 145.357 38.5195 145.28 38.5195C145.048 38.9049 144.817 39.2904 144.509 39.83C144.509 39.83 144.586 39.7529 144.509 39.83Z" fill="black"/>
<path d="M145.125 40.6779C145.048 40.6779 145.048 40.6779 145.125 40.6779C145.048 40.6779 145.048 40.6008 145.048 40.6008C145.434 39.8299 145.896 39.0591 146.436 38.2882C146.436 38.2882 146.513 38.2111 146.513 38.2882C146.513 38.2882 146.59 38.3653 146.513 38.3653C146.05 39.0591 145.588 39.8299 145.125 40.6779Z" fill="black"/>
<path d="M145.742 41.4488C145.665 41.4488 145.665 41.3717 145.665 41.3717C146.128 40.4466 146.667 39.5987 147.207 38.7507C147.207 38.7507 147.284 38.6736 147.284 38.7507C147.284 38.7507 147.361 38.8278 147.284 38.8278C146.821 39.5987 146.282 40.5237 145.742 41.4488C145.819 41.4488 145.819 41.4488 145.742 41.4488Z" fill="black"/>
<path d="M146.898 41.1406C146.821 41.0635 146.821 41.0635 146.821 40.9864C147.13 40.5238 147.438 40.0613 147.669 39.5988C147.669 39.5988 147.746 39.5217 147.746 39.5988C147.746 39.5988 147.824 39.6759 147.746 39.6759C147.592 40.2155 147.284 40.678 146.898 41.1406C146.898 41.1406 146.976 41.1406 146.898 41.1406Z" fill="black"/>
<path d="M88.2789 67.0908H59.6262C59.2109 67.0908 58.8787 66.9212 58.8787 66.7093C58.8787 66.4973 59.2109 66.3278 59.6262 66.3278H88.1958C88.6111 66.3278 88.9433 66.4973 88.9433 66.7093C88.9433 66.9212 88.6941 67.0908 88.2789 67.0908Z" fill="black"/>
<path d="M80.0298 70.5668H59.4164C59.1177 70.5668 58.8787 70.3972 58.8787 70.1852C58.8787 69.9733 59.1177 69.8037 59.4164 69.8037H79.9701C80.2688 69.8037 80.5078 69.9733 80.5078 70.1852C80.5078 70.3972 80.3286 70.5668 80.0298 70.5668Z" fill="black"/>
<ellipse cx="41.9135" cy="127.526" rx="5.13708" ry="1.46871" fill="black" fill-opacity="0.3"/>
<path d="M47.567 108.591C48.5353 109.801 49.1001 111.366 49.084 112.932C49.0678 113.868 48.7612 114.772 48.4223 115.627C46.9376 119.323 44.5169 122.76 42.0962 125.923C42.0478 126.004 41.725 126.117 41.6605 126.02C40.4178 124.406 39.2559 122.712 38.1746 120.985C37.287 119.597 36.4479 118.161 35.7539 116.676C35.2375 115.546 34.7049 114.32 34.6888 113.061C34.7372 109.785 36.9643 107.009 40.1112 106.186C42.8547 105.476 45.808 106.364 47.567 108.591ZM47.6477 116.498C48.6321 114.368 49.0356 112.286 47.9705 110.059C46.6794 107.332 43.597 105.654 40.5953 106.202C37.3839 106.783 35.1729 109.753 35.1245 112.932C35.1407 114.223 35.6894 115.482 36.2381 116.627C36.932 118.096 37.755 119.5 38.6265 120.872C39.6593 122.518 40.7567 124.116 41.9348 125.665C42.7256 124.616 43.4679 123.535 44.2103 122.453C45.4691 120.549 46.6955 118.58 47.6477 116.498Z" fill="#111111"/>
<path d="M47.9704 110.059C49.0194 112.286 48.616 114.368 47.6477 116.498C46.6955 118.58 45.469 120.533 44.1941 122.437C43.4679 123.535 42.7094 124.6 41.9187 125.649C40.7406 124.099 39.6432 122.502 38.6103 120.856C37.755 119.5 36.932 118.096 36.238 116.627C35.7055 115.482 35.1568 114.223 35.1245 112.932C35.1729 109.753 37.3838 106.783 40.5953 106.202C43.597 105.654 46.6794 107.332 47.9704 110.059ZM44.8881 114.901C47.3895 112.141 44.8235 107.784 41.2247 108.397C39.3043 108.72 37.9164 110.382 37.868 112.302C37.981 115.901 42.4512 117.58 44.8881 114.901Z" fill="#ACD4F7"/>
<path d="M47.0506 112.996C47.0506 115.804 44.759 118.241 41.9187 118.225C39.0138 118.209 36.8029 115.772 36.7222 112.964C36.8029 110.14 38.9493 107.719 41.8703 107.735C44.7106 107.735 47.0506 110.172 47.0506 112.996Z" fill="white"/>
<path d="M40.9342 107.332C46.1469 106.444 49.8586 112.754 46.2437 116.756C42.7256 120.646 36.2219 118.209 36.0767 112.996C36.1574 110.204 38.1585 107.8 40.9342 107.332ZM41.9187 118.225C44.759 118.241 47.0667 115.82 47.0506 112.996C47.0506 110.172 44.6944 107.735 41.8541 107.735C38.9493 107.735 36.7868 110.14 36.7222 112.964C36.8029 115.772 39.0138 118.209 41.9187 118.225Z" fill="#111111"/>
<ellipse cx="119.287" cy="105.545" rx="5.13708" ry="1.46871" fill="black" fill-opacity="0.3"/>
<path d="M124.941 86.61C125.909 87.8204 126.474 89.3858 126.458 90.9512C126.442 91.8872 126.135 92.7909 125.796 93.6462C124.311 97.3418 121.891 100.779 119.47 103.942C119.422 104.023 119.099 104.136 119.034 104.039C117.792 102.425 116.63 100.731 115.548 99.0041C114.661 97.6162 113.822 96.1799 113.128 94.6952C112.611 93.5655 112.079 92.339 112.063 91.0803C112.111 87.8042 114.338 85.0285 117.485 84.2054C120.229 83.4953 123.182 84.3829 124.941 86.61ZM125.022 94.5177C126.006 92.3874 126.409 90.3056 125.344 88.0786C124.053 85.3512 120.971 83.6729 117.969 84.2216C114.758 84.8025 112.547 87.7719 112.498 90.9512C112.515 92.2422 113.063 93.501 113.612 94.6468C114.306 96.1153 115.129 97.5194 116 98.8911C117.033 100.537 118.131 102.135 119.309 103.684C120.099 102.635 120.842 101.554 121.584 100.473C122.843 98.5683 124.069 96.5995 125.022 94.5177Z" fill="#111111"/>
<path d="M125.344 88.0784C126.393 90.3054 125.99 92.3873 125.022 94.5175C124.069 96.5993 122.843 98.552 121.568 100.456C120.842 101.554 120.083 102.619 119.293 103.668C118.114 102.119 117.017 100.521 115.984 98.8748C115.129 97.5192 114.306 96.1152 113.612 94.6466C113.079 93.5008 112.531 92.242 112.498 90.951C112.547 87.7718 114.758 84.8024 117.969 84.2214C120.971 83.6727 124.053 85.3511 125.344 88.0784ZM122.262 92.9198C124.763 90.1602 122.197 85.8029 118.599 86.4162C116.678 86.7389 115.29 88.4012 115.242 90.3216C115.355 93.9204 119.825 95.5987 122.262 92.9198Z" fill="#ACD4F7"/>
<path d="M124.424 91.0157C124.424 93.8238 122.133 96.2606 119.293 96.2445C116.388 96.2283 114.177 93.7915 114.096 90.9835C114.177 88.1593 116.323 85.7386 119.244 85.7547C122.084 85.7547 124.424 88.1916 124.424 91.0157Z" fill="white"/>
<path d="M118.308 85.3511C123.521 84.4635 127.232 90.7735 123.618 94.7757C120.099 98.665 113.596 96.2282 113.451 91.0155C113.531 88.2237 115.532 85.8191 118.308 85.3511ZM119.293 96.2443C122.133 96.2604 124.441 93.8397 124.424 91.0155C124.424 88.1914 122.068 85.7545 119.228 85.7545C116.323 85.7545 114.161 88.1591 114.096 90.9833C114.177 93.7913 116.388 96.2282 119.293 96.2443Z" fill="#111111"/>
<ellipse cx="183.768" cy="160.911" rx="5.13708" ry="1.46871" fill="black" fill-opacity="0.3"/>
<path d="M189.422 141.976C190.39 143.186 190.955 144.752 190.939 146.317C190.922 147.253 190.616 148.157 190.277 149.012C188.792 152.708 186.371 156.145 183.951 159.308C183.902 159.389 183.58 159.502 183.515 159.405C182.272 157.791 181.11 156.097 180.029 154.37C179.142 152.982 178.302 151.546 177.608 150.061C177.092 148.932 176.559 147.705 176.543 146.446C176.592 143.17 178.819 140.395 181.966 139.572C184.709 138.861 187.662 139.749 189.422 141.976ZM189.502 149.884C190.487 147.754 190.89 145.672 189.825 143.445C188.534 140.717 185.452 139.039 182.45 139.588C179.238 140.169 177.027 143.138 176.979 146.317C176.995 147.608 177.544 148.867 178.093 150.013C178.787 151.481 179.61 152.885 180.481 154.257C181.514 155.903 182.611 157.501 183.789 159.05C184.58 158.001 185.322 156.92 186.065 155.839C187.324 153.934 188.55 151.966 189.502 149.884Z" fill="#111111"/>
<path d="M189.825 143.445C190.874 145.672 190.471 147.753 189.502 149.884C188.55 151.966 187.324 153.918 186.049 155.823C185.322 156.92 184.564 157.985 183.773 159.034C182.595 157.485 181.498 155.887 180.465 154.241C179.61 152.885 178.787 151.481 178.093 150.013C177.56 148.867 177.011 147.608 176.979 146.317C177.027 143.138 179.238 140.169 182.45 139.588C185.452 139.039 188.534 140.717 189.825 143.445ZM186.743 148.286C189.244 145.526 186.678 141.169 183.079 141.782C181.159 142.105 179.771 143.767 179.723 145.688C179.836 149.287 184.306 150.965 186.743 148.286Z" fill="#ACD4F7"/>
<path d="M188.905 146.382C188.905 149.19 186.614 151.627 183.773 151.611C180.868 151.595 178.657 149.158 178.577 146.35C178.657 143.526 180.804 141.105 183.725 141.121C186.565 141.121 188.905 143.558 188.905 146.382Z" fill="white"/>
<path d="M182.789 140.718C188.001 139.83 191.713 146.14 188.098 150.142C184.58 154.031 178.076 151.595 177.931 146.382C178.012 143.59 180.013 141.186 182.789 140.718ZM183.773 151.611C186.614 151.627 188.921 149.206 188.905 146.382C188.905 143.558 186.549 141.121 183.709 141.121C180.804 141.121 178.641 143.526 178.577 146.35C178.657 149.158 180.868 151.595 183.773 151.611Z" fill="#111111"/>
<ellipse cx="162.221" cy="97.3563" rx="8.829" ry="2.52425" fill="black" fill-opacity="0.3"/>
<path d="M171.938 64.8127C173.602 66.8929 174.572 69.5833 174.545 72.2738C174.517 73.8825 173.99 75.4357 173.408 76.9057C170.856 83.2573 166.695 89.1652 162.535 94.6015C162.452 94.7401 161.897 94.9343 161.786 94.7679C159.65 91.9943 157.653 89.0819 155.795 86.1142C154.27 83.7288 152.827 81.2603 151.635 78.7086C150.747 76.767 149.832 74.6591 149.804 72.4956C149.887 66.8652 153.715 62.0945 159.123 60.68C163.839 59.4596 168.914 60.9851 171.938 64.8127ZM172.076 78.4035C173.768 74.7423 174.462 71.1643 172.631 67.3367C170.412 62.6493 165.114 59.7647 159.955 60.7077C154.436 61.7062 150.636 66.8097 150.553 72.2738C150.581 74.4927 151.524 76.6561 152.467 78.6254C153.659 81.1494 155.074 83.5624 156.572 85.92C158.347 88.7491 160.233 91.495 162.258 94.1577C163.617 92.3548 164.893 90.4965 166.168 88.6382C168.332 85.3653 170.44 81.9815 172.076 78.4035Z" fill="#111111"/>
<path d="M172.631 67.3366C174.434 71.1642 173.74 74.7422 172.076 78.4033C170.44 81.9813 168.332 85.3374 166.141 88.6103C164.893 90.4964 163.589 92.327 162.23 94.1298C160.205 91.4671 158.319 88.7212 156.544 85.8921C155.074 83.5623 153.659 81.1492 152.467 78.6252C151.551 76.656 150.608 74.4925 150.553 72.2736C150.636 66.8096 154.436 61.7061 159.955 60.7076C165.114 59.7646 170.412 62.6491 172.631 67.3366ZM167.333 75.6575C171.632 70.9145 167.222 63.4258 161.037 64.4797C157.737 65.0345 155.351 67.8913 155.268 71.1919C155.462 77.3771 163.145 80.2617 167.333 75.6575Z" fill="#638ADC"/>
<path d="M171.05 72.3848C171.05 77.2109 167.111 81.3991 162.23 81.3714C157.237 81.3436 153.437 77.1555 153.299 72.3293C153.437 67.4755 157.126 63.3151 162.147 63.3428C167.028 63.3428 171.05 67.531 171.05 72.3848Z" fill="white"/>
<path d="M160.538 62.6493C169.497 61.1238 175.876 71.9687 169.663 78.8473C163.617 85.5318 152.439 81.3436 152.189 72.3848C152.328 67.5864 155.767 63.4537 160.538 62.6493ZM162.23 81.3713C167.111 81.399 171.078 77.2386 171.05 72.3848C171.05 67.5309 167 63.3427 162.119 63.3427C157.126 63.3427 153.41 67.4754 153.299 72.3293C153.437 77.1554 157.237 81.3436 162.23 81.3713Z" fill="#111111"/>
</g>
<defs>
<clipPath id="clip0_25_2941">
<rect width="260" height="189" fill="white"/>
</clipPath>
<clipPath id="clip1_25_2941">
<rect width="29.641" height="13.0621" fill="white" transform="translate(59.8246 50.8758)"/>
</clipPath>
</defs>
</svg>