<svg width="260" height="189" viewBox="0 0 260 189" fill="none" xmlns="http://www.w3.org/2000/svg"><script xmlns=""/>
<path d="M225.3 29.569H18.4901V170.897H225.3V29.569Z" fill="white"/>
<g clip-path="url(#clip0_24_2566)">
<path d="M83.783 117.4H35.2878V124.2H83.783V117.4Z" fill="white"/>
<path d="M83.711 124.5H35.2878C35.1439 124.5 35 124.3 35 124.1V117.4C35 117.2 35.1439 117 35.2878 117H83.783C83.9269 117 84.0708 117.2 84.0708 117.4V124.2C83.9988 124.3 83.8549 124.5 83.711 124.5ZM35.5756 123.8H83.4952V117.8H35.5756V123.8Z" fill="black"/>
<path d="M77.0195 117.4H64.2842V124.2H77.0195V117.4Z" fill="#ACD4F7"/>
<path d="M77.0195 124.5H64.2842C64.1403 124.5 63.9964 124.3 63.9964 124.1V117.4C63.9964 117.2 64.1403 117 64.2842 117H77.0195C77.1634 117 77.3073 117.2 77.3073 117.4V124.2C77.2354 124.3 77.1634 124.5 77.0195 124.5ZM64.572 123.8H76.7317V117.8H64.572V123.8Z" fill="black"/>
<path d="M93.7122 129.052H60.2549V135.852H93.7122V129.052Z" fill="white"/>
<path d="M93.7122 136.152H60.2549C60.111 136.152 59.9671 135.952 59.9671 135.752V128.952C59.9671 128.752 60.111 128.552 60.2549 128.552H93.7122C93.8561 128.552 94 128.752 94 128.952V135.752C94 135.852 94 135.952 93.9281 136.052C93.8561 136.052 93.7842 136.152 93.7122 136.152ZM60.5427 135.352H93.4244V129.352H60.5427V135.352Z" fill="black"/>
<path d="M60.2549 129.052H46.872V135.852H60.2549V129.052Z" fill="#ACD4F7"/>
<path d="M60.2549 136.152H46.872C46.7281 136.152 46.5842 135.952 46.5842 135.752V128.952C46.5842 128.752 46.7281 128.552 46.872 128.552H60.2549C60.3988 128.552 60.5427 128.752 60.5427 128.952V135.752C60.5427 135.952 60.3988 136.152 60.2549 136.152ZM47.1598 135.352H60.039V129.352H47.1598V135.352Z" fill="black"/>
<path d="M62.2695 134.852C62.1976 134.852 62.1976 134.852 62.2695 134.852L61.0464 133.052C61.0464 132.952 61.0464 132.952 61.0464 132.852C61.1183 132.852 61.1183 132.852 61.1903 132.852L62.3415 134.552C62.3415 134.652 62.3415 134.752 62.2695 134.852Z" fill="black"/>
<path d="M64.0683 134.852C64.0683 134.852 63.9964 134.852 64.0683 134.852L61.0464 130.652C61.0464 130.652 61.0464 130.552 61.0464 130.452C61.0464 130.452 61.1183 130.452 61.1903 130.452L64.1403 134.552C64.1403 134.652 64.1403 134.752 64.0683 134.852C64.0683 134.852 64.1403 134.852 64.0683 134.852Z" fill="black"/>
<path d="M65.8671 134.952C65.7951 134.952 65.7951 134.952 65.8671 134.952L62.4854 130.252C62.4854 130.252 62.4854 130.152 62.4854 130.052C62.4854 130.052 62.5573 130.052 62.6293 130.052L65.939 134.652C65.939 134.752 65.939 134.852 65.8671 134.952Z" fill="black"/>
<path d="M67.7378 134.852C67.7378 134.852 67.6659 134.852 67.7378 134.852L64.3561 130.152C64.3561 130.152 64.3561 130.052 64.3561 129.952C64.3561 129.952 64.4281 129.952 64.5 129.952L67.8098 134.552C67.8098 134.652 67.8098 134.752 67.7378 134.852C67.7378 134.852 67.8098 134.852 67.7378 134.852Z" fill="black"/>
<path d="M69.8964 135.052C69.8964 135.052 69.8964 134.952 69.8964 135.052L66.5146 130.352C66.5146 130.352 66.5146 130.252 66.5146 130.152C66.5146 130.052 66.5866 130.152 66.6586 130.152L69.9683 134.752C70.0403 134.852 70.0403 134.952 69.8964 135.052C69.9683 135.052 69.9683 134.952 69.8964 135.052Z" fill="black"/>
<path d="M71.839 134.752C71.839 134.752 71.7671 134.752 71.839 134.752L68.889 130.452C68.889 130.352 68.889 130.352 68.889 130.252C68.889 130.252 68.961 130.252 69.0329 130.252L71.911 134.552C71.911 134.552 71.911 134.652 71.839 134.752Z" fill="black"/>
<path d="M74.1415 134.752C72.9903 133.352 71.911 131.852 70.9037 130.352C70.9037 130.252 70.9037 130.252 70.9037 130.152C70.9756 130.152 70.9756 130.152 71.0476 130.152C72.0549 131.652 73.1342 133.152 74.2134 134.552C74.2854 134.652 74.2854 134.652 74.1415 134.752C74.2134 134.752 74.2134 134.752 74.1415 134.752Z" fill="black"/>
<path d="M76.5878 134.752C76.5878 134.752 76.5159 134.752 76.5878 134.752L73.35 130.352C73.35 130.352 73.35 130.252 73.35 130.152C73.35 130.152 73.422 130.152 73.4939 130.152L76.6598 134.552C76.6598 134.652 76.6598 134.652 76.5878 134.752C76.5878 134.752 76.6598 134.752 76.5878 134.752Z" fill="black"/>
<path d="M78.9622 134.752L75.6525 130.152C75.6525 130.152 75.6525 130.052 75.6525 129.952C75.6525 129.952 75.7244 129.952 75.7964 129.952L79.1061 134.552C79.1061 134.552 79.1061 134.652 78.9622 134.752C79.0342 134.752 79.0342 134.752 78.9622 134.752Z" fill="black"/>
<path d="M81.4086 134.752L78.1707 130.352C78.1707 130.352 78.1707 130.252 78.1707 130.152C78.1707 130.152 78.2427 130.152 78.3146 130.152L81.4805 134.552C81.5525 134.552 81.5525 134.652 81.4086 134.752C81.4805 134.752 81.4805 134.752 81.4086 134.752Z" fill="black"/>
<path d="M83.6391 134.552C83.5671 134.552 83.5671 134.552 83.6391 134.552L80.4732 130.152C80.4732 130.152 80.4732 130.052 80.4732 129.952C80.4732 129.952 80.5452 129.952 80.6171 129.952L83.711 134.252C83.711 134.452 83.711 134.552 83.6391 134.552Z" fill="black"/>
<path d="M85.8695 134.552L82.7037 130.252C82.7037 130.252 82.7037 130.152 82.7037 130.052C82.7037 130.052 82.7756 130.052 82.8476 130.052L85.9415 134.352C86.0134 134.352 86.0134 134.452 85.8695 134.552C85.8695 134.552 85.9415 134.552 85.8695 134.552Z" fill="black"/>
<path d="M87.9561 134.652L84.8622 130.352C84.8622 130.352 84.8622 130.252 84.8622 130.152C84.8622 130.152 84.9342 130.152 85.0061 130.152L88.1 134.452C88.1 134.452 88.1 134.552 87.9561 134.652C88.0281 134.652 88.0281 134.652 87.9561 134.652Z" fill="black"/>
<path d="M90.4025 134.652L87.0207 130.252C87.0207 130.252 86.9488 130.152 87.0207 130.052C87.0207 130.052 87.0927 129.952 87.1646 130.052L90.4744 134.352C90.5464 134.552 90.5464 134.552 90.4025 134.652C90.4744 134.652 90.4744 134.652 90.4025 134.652Z" fill="black"/>
<path d="M92.4171 134.252L89.683 130.452C89.683 130.452 89.683 130.352 89.683 130.252C89.683 130.252 89.7549 130.252 89.8269 130.252L92.561 134.052C92.561 134.152 92.561 134.152 92.4171 134.252C92.4891 134.252 92.4891 134.252 92.4171 134.252Z" fill="black"/>
<path d="M92.7769 131.852C92.7049 131.852 92.7049 131.852 92.7769 131.852L91.6256 130.252C91.6256 130.252 91.6256 130.152 91.6256 130.052C91.6256 130.052 91.6976 130.052 91.7695 130.052L92.8488 131.552C92.8488 131.752 92.8488 131.852 92.7769 131.852Z" fill="black"/>
</g>
<path d="M225.173 171.259H18.49C18.2367 171.259 17.9835 171.017 17.9835 170.776V29.5689C17.9835 29.3276 18.2367 29.0862 18.49 29.0862H225.3C225.553 29.0862 225.806 29.3276 225.806 29.5689V170.897C225.68 171.138 225.426 171.259 225.173 171.259ZM18.9966 170.414H224.793V30.0517H18.9966V170.414Z" fill="black"/>
<path d="M225.3 22.4483H18.4901V34.638H225.3V22.4483Z" fill="#4E6075"/>
<path d="M225.173 35.1207H18.49C18.2367 35.1207 17.9835 34.8793 17.9835 34.6379V22.4483C17.9835 22.2069 18.2367 21.9655 18.49 21.9655H225.3C225.553 21.9655 225.806 22.2069 225.806 22.4483V34.6379C225.68 34.8793 225.426 35.1207 225.173 35.1207ZM18.9966 34.1552H224.793V22.931H18.9966V34.1552Z" fill="black"/>
<path d="M182.747 31.2586C184.286 31.2586 185.533 30.0698 185.533 28.6034C185.533 27.137 184.286 25.9482 182.747 25.9482C181.208 25.9482 179.961 27.137 179.961 28.6034C179.961 30.0698 181.208 31.2586 182.747 31.2586Z" fill="#74BD6C"/>
<path d="M182.747 31.6207C180.974 31.6207 179.581 30.2931 179.581 28.6034C179.581 26.9138 180.974 25.5862 182.747 25.5862C184.52 25.5862 185.913 26.9138 185.913 28.6034C185.913 30.2931 184.52 31.6207 182.747 31.6207ZM182.747 26.431C181.481 26.431 180.468 27.3965 180.468 28.6034C180.468 29.8103 181.481 30.7758 182.747 30.7758C184.014 30.7758 185.027 29.8103 185.027 28.6034C185.027 27.3965 184.014 26.431 182.747 26.431Z" fill="black"/>
<path d="M198.958 31.2586C200.496 31.2586 201.744 30.0698 201.744 28.6034C201.744 27.137 200.496 25.9482 198.958 25.9482C197.419 25.9482 196.171 27.137 196.171 28.6034C196.171 30.0698 197.419 31.2586 198.958 31.2586Z" fill="#74BD6C"/>
<path d="M198.958 31.6207C197.185 31.6207 195.792 30.2931 195.792 28.6034C195.792 26.9138 197.185 25.5862 198.958 25.5862C200.731 25.5862 202.124 26.9138 202.124 28.6034C202.124 30.2931 200.731 31.6207 198.958 31.6207ZM198.958 26.431C197.691 26.431 196.678 27.3965 196.678 28.6034C196.678 29.8103 197.691 30.7758 198.958 30.7758C200.224 30.7758 201.237 29.8103 201.237 28.6034C201.237 27.3965 200.224 26.431 198.958 26.431Z" fill="black"/>
<path d="M212.002 28.6034C212.002 27.1551 213.268 25.9482 214.788 25.9482C216.308 25.9482 217.574 27.1551 217.574 28.6034C217.574 30.0517 216.308 31.2586 214.788 31.2586C213.268 31.1379 212.002 30.0517 212.002 28.6034Z" fill="#74BD6C"/>
<path d="M214.788 31.6207C213.015 31.6207 211.622 30.2931 211.622 28.6034C211.622 26.9138 213.015 25.5862 214.788 25.5862C216.561 25.5862 217.954 26.9138 217.954 28.6034C217.954 30.2931 216.561 31.6207 214.788 31.6207ZM214.788 26.431C213.522 26.431 212.509 27.3965 212.509 28.6034C212.509 29.8103 213.522 30.7758 214.788 30.7758C216.055 30.7758 217.068 29.8103 217.068 28.6034C217.068 27.3965 216.055 26.431 214.788 26.431Z" fill="black"/>
<g opacity="0.1294">
<path d="M224.54 35.2414C224.286 35 223.4 35 223.653 35C223.147 35 222.64 35 222.133 35C219.981 34.8793 217.954 34.8793 215.801 34.7586C209.469 34.5172 203.137 35.2414 196.678 35.1207C193.385 35.1207 190.219 35.2414 186.926 35.1207C184.394 35.1207 181.987 34.8793 179.454 34.7586C172.236 34.7586 165.017 34.2759 157.798 34.3965C151.466 34.5172 145.261 34.3965 138.928 34.2759C133.863 34.2759 128.924 34.2759 123.858 34.2759C119.679 34.1552 115.499 34.5172 111.32 34.5172C102.202 34.6379 92.9567 34.6379 83.8383 34.3965C80.5456 34.3965 77.1262 34.2759 73.8335 34.3965C71.0473 34.5172 68.2611 34.3965 65.475 34.5172C62.3089 34.5172 59.2694 34.5172 56.1033 34.5172C52.4306 34.3965 48.758 34.2759 45.0853 34.3965C42.0458 34.3965 39.133 34.6379 36.0936 34.7586C33.3074 34.7586 30.6479 34.7586 27.8617 34.7586C25.8354 34.6379 23.8091 34.6379 21.7828 34.6379C20.7697 34.7586 19.5032 34.3965 18.6167 35.1207C17.4769 36.2069 18.2368 38.1379 19.8831 38.1379C22.2894 38.2586 24.6956 38.1379 27.1018 38.3793C30.6479 38.5 34.1939 38.5 37.7399 38.3793C42.0458 38.1379 46.3517 38.0172 50.7843 38.0172C54.077 38.1379 57.4964 38.1379 60.7891 38.1379C64.4618 38.2586 68.1345 38.2586 71.8072 38.1379C74.2134 38.0172 76.6196 37.8965 79.0259 38.0172C85.738 38.1379 92.3235 38.3793 99.0356 38.2586C105.748 38.2586 112.46 38.3793 119.172 38.0172C125.124 38.0172 131.203 38.0172 137.155 38.1379C146.021 38.3793 155.012 38.1379 163.877 38.1379C169.323 38.2586 174.642 38.3793 180.088 38.3793C184.14 38.5 188.193 38.7414 192.246 38.6207C195.538 38.5 198.704 38.5 201.997 38.3793C203.897 38.2586 205.923 38.0172 207.823 38.0172C212.889 37.7759 217.954 37.8965 223.02 38.0172C223.527 38.0172 224.16 38.0172 224.54 37.5345C225.553 36.931 225.426 35.7241 224.54 35.2414Z" fill="black"/>
</g>
<path d="M35.081 106.607C56.1029 106.607 74.3627 106.76 94.0035 106.607C94.0035 89.2678 93.0829 71.7752 93.3897 54.2826C73.2886 54.1291 54.415 54.2826 34.9276 54.2826C34.9276 71.7752 35.081 89.2678 35.081 106.607Z" fill="#638ADC"/>
<path d="M74.5161 107.988C68.2249 107.988 62.0872 107.988 55.6425 107.988C49.0444 107.988 42.1394 107.988 35.081 107.988C34.3138 107.988 33.7 107.374 33.7 106.607C33.7 97.8607 33.7 89.2678 33.7 80.5215C33.7 71.7752 33.7 63.0289 33.7 54.2826C33.7 53.5154 34.3138 52.9016 35.081 52.9016C41.5257 52.9016 47.9703 52.9016 54.415 52.9016C66.9974 52.9016 80.1935 52.9016 93.5432 52.9016C93.8501 52.9016 94.3104 53.0551 94.4638 53.3619C94.7707 53.6688 94.9242 53.9757 94.7707 54.2826C94.6173 64.4099 94.7707 74.6907 95.0776 84.5111C95.2311 91.7229 95.3845 99.2417 95.3845 106.607C95.3845 107.374 94.7707 107.988 94.0035 107.988C87.4054 107.988 80.9608 107.988 74.5161 107.988ZM36.3086 105.226C42.9067 105.226 49.3513 105.226 55.6425 105.226C68.2249 105.226 80.0401 105.226 92.6225 105.226C92.6225 98.321 92.4691 91.2626 92.3156 84.5111C92.1622 74.9975 91.8553 65.1771 92.0087 55.5102C79.1194 55.3567 66.537 55.5102 54.2615 55.5102C48.2772 55.5102 42.2929 55.5102 36.1551 55.5102C36.1551 63.7961 36.1551 72.0821 36.1551 80.3681C36.3086 88.8075 36.3086 97.0935 36.3086 105.226Z" fill="black"/>
<path d="M40.605 64.2566C40.4516 64.2566 40.4516 64.2566 40.2981 64.1031C40.1447 63.9497 39.9912 63.6428 40.1447 63.4893C41.3722 61.8015 42.5998 60.4205 44.1342 59.0395C44.2877 58.886 44.5946 58.886 44.748 59.0395C44.9014 59.1929 44.9014 59.4998 44.748 59.6532C43.367 61.0342 41.986 62.4152 40.9119 64.1031C40.7585 64.2566 40.7585 64.2566 40.605 64.2566Z" fill="black"/>
<path d="M39.0706 74.8442C38.9171 74.8442 38.9171 74.8442 38.7637 74.6908C38.6102 74.5373 38.6102 74.2304 38.7637 74.077C43.5204 68.8599 48.2772 63.6428 52.8805 58.2722C53.034 58.1188 53.3409 58.1188 53.4943 58.2722C53.6477 58.4257 53.6477 58.7326 53.4943 58.886C48.891 64.2566 44.1342 69.6271 39.3774 74.6908C39.224 74.8442 39.224 74.8442 39.0706 74.8442Z" fill="black"/>
<path d="M39.0706 85.4316C38.9171 85.4316 38.9171 85.4316 38.7637 85.2782C38.6102 85.1248 38.6102 84.8179 38.7637 84.6644L60.5527 58.8858C60.7062 58.7324 61.0131 58.7324 61.1665 58.8858C61.3199 59.0393 61.3199 59.3462 61.1665 59.4996L39.3774 85.2782C39.3774 85.4316 39.224 85.4316 39.0706 85.4316Z" fill="black"/>
<path d="M39.5309 95.2522C39.3774 95.2522 39.3774 95.2522 39.224 95.0987C39.0706 94.9453 39.0706 94.6384 39.224 94.485C49.5047 83.1301 59.4786 71.1615 69.1456 59.1928C69.299 59.0394 69.6059 59.0394 69.7594 59.1928C69.9128 59.3463 69.9128 59.6532 69.7594 59.8066C60.0924 71.7752 50.1185 83.5904 39.8378 95.0987C39.8378 95.2522 39.6843 95.2522 39.5309 95.2522Z" fill="black"/>
<path d="M42.7532 102.924C42.5998 102.924 42.5998 102.924 42.4463 102.771C42.2929 102.618 42.2929 102.311 42.4463 102.157C54.1081 87.58 66.2301 73.1563 78.5057 59.0395C78.6591 58.886 78.966 58.886 79.1194 59.0395C79.2729 59.1929 79.2729 59.4998 79.1194 59.6532C66.8439 73.7701 54.7218 88.1938 43.0601 102.618C43.0601 102.771 42.9067 102.924 42.7532 102.924Z" fill="black"/>
<path d="M52.4202 102.617C52.2668 102.617 52.2668 102.617 52.1133 102.464C51.9599 102.311 51.9599 102.004 52.1133 101.85L86.9451 59.1928C87.0985 59.0394 87.4054 59.0394 87.5589 59.1928C87.7123 59.3463 87.7123 59.6532 87.5589 59.8066L52.8805 102.464C52.7271 102.464 52.5736 102.617 52.4202 102.617Z" fill="black"/>
<path d="M62.394 102.617C62.2406 102.617 62.2406 102.617 62.0872 102.464C61.9337 102.31 61.9337 102.004 62.0872 101.85C70.9869 91.5694 79.7332 80.9818 88.3261 70.3941C88.4795 70.2407 88.7864 70.2407 88.9399 70.3941C89.0933 70.5476 89.0933 70.8545 88.9399 71.0079C80.347 81.5956 71.6007 92.3366 62.7009 102.617C62.7009 102.617 62.5475 102.617 62.394 102.617Z" fill="black"/>
<path d="M73.5955 102.464C73.442 102.464 73.442 102.464 73.2886 102.311C73.1351 102.157 72.9817 101.85 73.1351 101.697C77.7384 95.4056 82.4952 89.2679 87.4054 83.2835C87.5589 83.1301 87.8657 83.1301 88.0192 83.2835C88.1726 83.437 88.1726 83.7439 88.0192 83.8973C83.109 89.8816 78.3522 96.0194 73.7489 102.311C73.9023 102.464 73.7489 102.464 73.5955 102.464Z" fill="black"/>
<path d="M82.3418 102.924C82.1883 102.924 82.1883 102.924 82.0349 102.771C81.8814 102.617 81.8814 102.311 82.0349 102.157C83.8762 100.009 85.7175 97.7073 87.4054 95.2522C87.5589 95.0987 87.8658 94.9453 88.0192 95.0987C88.1726 95.2522 88.3261 95.559 88.1726 95.7125C86.4848 98.0142 84.6434 100.469 82.8021 102.617C82.4952 102.771 82.4952 102.924 82.3418 102.924Z" fill="black"/>
<path d="M152.003 156.733C152.003 154.124 154.151 151.976 156.76 151.976C159.368 151.976 161.517 154.124 161.517 156.733C161.517 159.341 159.368 161.489 156.76 161.489C154.151 161.489 152.003 159.341 152.003 156.733Z" fill="white"/>
<path d="M156.76 162.871C153.384 162.871 150.775 160.109 150.775 156.886C150.775 153.664 153.537 150.902 156.76 150.902C160.136 150.902 162.744 153.664 162.744 156.886C162.744 160.109 160.136 162.871 156.76 162.871ZM156.76 153.357C154.918 153.357 153.384 154.892 153.384 156.733C153.384 158.574 154.918 160.109 156.76 160.109C158.601 160.109 160.136 158.574 160.136 156.733C160.136 154.892 158.601 153.357 156.76 153.357Z" fill="black"/>
<path d="M174.866 156.733C174.866 154.124 177.014 151.976 179.623 151.976C182.231 151.976 184.38 154.124 184.38 156.733C184.38 159.341 182.231 161.489 179.623 161.489C177.014 161.489 174.866 159.341 174.866 156.733Z" fill="white"/>
<path d="M179.623 162.871C176.247 162.871 173.639 160.109 173.639 156.886C173.639 153.664 176.401 150.902 179.623 150.902C182.999 150.902 185.607 153.664 185.607 156.886C185.607 160.109 182.845 162.871 179.623 162.871ZM179.623 153.357C177.782 153.357 176.247 154.892 176.247 156.733C176.247 158.574 177.782 160.109 179.623 160.109C181.464 160.109 182.999 158.574 182.999 156.733C182.999 154.892 181.464 153.357 179.623 153.357Z" fill="black"/>
<path d="M197.729 156.733C197.729 154.124 199.878 151.976 202.486 151.976C205.095 151.976 207.243 154.124 207.243 156.733C207.243 159.341 205.095 161.489 202.486 161.489C199.724 161.489 197.729 159.341 197.729 156.733Z" fill="white"/>
<path d="M202.333 162.871C198.957 162.871 196.348 160.109 196.348 156.886C196.348 153.664 199.11 150.902 202.333 150.902C205.708 150.902 208.317 153.664 208.317 156.886C208.317 160.109 205.708 162.871 202.333 162.871ZM202.333 153.357C200.491 153.357 198.957 154.892 198.957 156.733C198.957 158.574 200.491 160.109 202.333 160.109C204.174 160.109 205.708 158.574 205.708 156.733C205.708 154.892 204.174 153.357 202.333 153.357Z" fill="black"/>
<g opacity="0.1294">
<path d="M162.898 160.876C162.284 159.034 159.522 158.728 158.294 160.262C158.141 160.415 157.987 160.569 157.834 160.569C157.68 160.569 157.374 160.722 157.22 160.722C157.22 160.722 157.22 160.722 157.067 160.722C156.913 160.722 156.913 160.722 156.76 160.722C156.606 160.722 156.606 160.722 156.453 160.722C156.146 160.722 155.993 160.569 155.839 160.569C155.686 160.569 155.532 160.415 155.379 160.262C155.225 160.109 155.072 159.955 154.765 159.802C152.617 158.421 149.855 160.415 150.622 162.871C151.236 164.865 153.537 165.633 155.379 166.093C158.141 166.86 164.432 164.405 162.898 160.876Z" fill="black"/>
</g>
<g opacity="0.1294">
<path d="M186.374 160.569C185.761 158.881 183.459 158.421 182.231 159.802C182.078 159.955 181.925 160.109 181.771 160.262C181.771 160.262 181.618 160.262 181.618 160.415C180.697 160.876 180.85 160.722 179.623 160.876C179.469 160.876 179.316 160.876 179.163 160.876C179.009 160.876 178.856 160.722 178.702 160.722C178.395 160.569 178.088 160.415 177.935 160.262C177.935 160.262 177.935 160.262 177.782 160.262C177.475 159.955 177.168 159.648 176.861 159.648C174.406 158.574 172.258 161.796 174.099 163.638C176.401 165.939 179.623 166.553 182.692 165.633C184.533 164.712 187.449 163.024 186.374 160.569Z" fill="black"/>
</g>
<g opacity="0.1294">
<path d="M209.084 161.029C208.624 159.188 206.322 158.728 204.941 159.955C204.788 160.109 204.634 160.109 204.481 160.262C204.327 160.262 204.327 160.415 204.174 160.415C204.021 160.415 203.867 160.569 203.56 160.569C203.407 160.569 203.407 160.569 203.253 160.569C203.1 160.569 202.793 160.569 202.64 160.569C201.412 160.262 201.412 160.262 201.105 160.109C200.031 159.495 198.803 158.574 197.422 158.881C195.428 159.341 194.967 162.257 196.809 163.331C197.883 163.791 198.803 164.558 199.878 164.865C201.105 165.326 202.486 165.479 203.867 165.326C206.169 165.326 209.698 163.945 209.084 161.029Z" fill="black"/>
</g>
<path d="M180.393 67.9391H115.486C113.951 67.9391 112.57 67.3253 112.57 66.5581C112.57 65.7909 113.798 65.1771 115.486 65.1771H180.239C181.773 65.1771 183.154 65.7909 183.154 66.5581C183.308 67.3253 181.927 67.9391 180.393 67.9391Z" fill="black"/>
<path d="M137.275 78.5268H113.798C113.184 78.5268 112.724 77.913 112.724 77.1458C112.724 76.3785 113.184 75.7648 113.798 75.7648H137.428C138.042 75.7648 138.502 76.3785 138.502 77.1458C138.349 77.913 137.889 78.5268 137.275 78.5268Z" fill="black"/>
<path d="M127.761 114.041C130.388 114.041 132.518 111.911 132.518 109.284C132.518 106.657 130.388 104.527 127.761 104.527C125.134 104.527 123.004 106.657 123.004 109.284C123.004 111.911 125.134 114.041 127.761 114.041Z" fill="#ACD4F7"/>
<path d="M127.761 114.501C124.846 114.501 122.544 112.199 122.544 109.284C122.544 106.368 124.846 104.067 127.761 104.067C130.677 104.067 132.978 106.368 132.978 109.284C132.825 112.199 130.523 114.501 127.761 114.501ZM127.761 105.141C125.46 105.141 123.618 106.982 123.618 109.284C123.618 111.585 125.46 113.427 127.761 113.427C130.063 113.427 131.904 111.585 131.904 109.284C131.904 106.982 130.063 105.141 127.761 105.141Z" fill="black"/>
<path d="M148.936 123.401C151.564 123.401 153.693 121.271 153.693 118.644C153.693 116.017 151.564 113.887 148.936 113.887C146.309 113.887 144.18 116.017 144.18 118.644C144.18 121.271 146.309 123.401 148.936 123.401Z" fill="white"/>
<path d="M148.936 123.861C146.021 123.861 143.719 121.559 143.719 118.644C143.719 115.728 146.021 113.427 148.936 113.427C151.852 113.427 154.154 115.728 154.154 118.644C154.154 121.559 151.852 123.861 148.936 123.861ZM148.936 114.501C146.635 114.501 144.793 116.342 144.793 118.644C144.793 120.946 146.635 122.787 148.936 122.787C151.238 122.787 153.079 120.946 153.079 118.644C153.079 116.342 151.238 114.501 148.936 114.501Z" fill="black"/>
<path d="M165.048 102.993C167.675 102.993 169.805 100.863 169.805 98.236C169.805 95.6089 167.675 93.4792 165.048 93.4792C162.421 93.4792 160.291 95.6089 160.291 98.236C160.291 100.863 162.421 102.993 165.048 102.993Z" fill="white"/>
<path d="M165.048 103.453C162.133 103.453 159.831 101.151 159.831 98.2359C159.831 95.3205 162.133 93.0188 165.048 93.0188C167.964 93.0188 170.265 95.3205 170.265 98.2359C170.112 101.151 167.81 103.453 165.048 103.453ZM165.048 94.0929C162.746 94.0929 160.905 95.9342 160.905 98.2359C160.905 100.538 162.746 102.379 165.048 102.379C167.35 102.379 169.191 100.538 169.191 98.2359C169.191 95.9342 167.35 94.0929 165.048 94.0929Z" fill="black"/>
<path d="M181.773 118.644C181.773 116.035 183.922 113.887 186.53 113.887C189.139 113.887 191.287 116.035 191.287 118.644C191.287 121.252 189.139 123.401 186.53 123.401C183.768 123.401 181.773 121.252 181.773 118.644Z" fill="#ACD4F7"/>
<path d="M186.377 123.861C183.461 123.861 181.16 121.559 181.16 118.644C181.16 115.728 183.461 113.427 186.377 113.427C189.292 113.427 191.594 115.728 191.594 118.644C191.594 121.559 189.292 123.861 186.377 123.861ZM186.377 114.501C184.075 114.501 182.234 116.342 182.234 118.644C182.234 120.946 184.075 122.787 186.377 122.787C188.678 122.787 190.52 120.946 190.52 118.644C190.52 116.342 188.678 114.501 186.377 114.501Z" fill="black"/>
<path d="M202.182 94.86C202.182 92.2515 204.33 90.1033 206.938 90.1033C209.547 90.1033 211.695 92.2515 211.695 94.86C211.695 97.4686 209.547 99.6168 206.938 99.6168C204.33 99.4634 202.182 97.4686 202.182 94.86Z" fill="white"/>
<path d="M206.785 99.9237C203.869 99.9237 201.568 97.622 201.568 94.7066C201.568 91.7912 203.869 89.4895 206.785 89.4895C209.7 89.4895 212.002 91.7912 212.002 94.7066C212.002 97.622 209.7 99.9237 206.785 99.9237ZM206.785 90.5636C204.483 90.5636 202.642 92.4049 202.642 94.7066C202.642 97.0083 204.483 98.8496 206.785 98.8496C209.087 98.8496 210.928 97.0083 210.928 94.7066C211.081 92.5584 209.24 90.5636 206.785 90.5636Z" fill="black"/>
<path d="M144.64 116.956H144.487C140.344 115.268 136.047 113.58 131.904 111.739C131.597 111.585 131.597 111.432 131.597 111.125C131.751 110.818 131.904 110.818 132.211 110.818C136.354 112.66 140.497 114.347 144.793 116.035C145.1 116.189 145.1 116.342 145.1 116.649C144.947 116.803 144.793 116.956 144.64 116.956Z" fill="black"/>
<path d="M152.619 115.882C152.466 115.882 152.466 115.882 152.312 115.728C152.159 115.575 152.005 115.268 152.312 115.115L162.44 102.379C162.593 102.225 162.9 102.072 163.053 102.379C163.207 102.532 163.36 102.839 163.053 102.993L152.926 115.728C152.926 115.882 152.773 115.882 152.619 115.882Z" fill="black"/>
<path d="M182.848 115.882C182.694 115.882 182.541 115.882 182.541 115.729L168.424 101.765C168.27 101.612 168.27 101.305 168.424 101.151C168.577 100.998 168.884 100.998 169.038 101.151L183.154 115.115C183.308 115.268 183.308 115.575 183.154 115.729C183.001 115.882 182.848 115.882 182.848 115.882Z" fill="black"/>
<path d="M190.213 116.189C190.059 116.189 190.059 116.189 189.906 116.035C189.753 115.882 189.599 115.575 189.906 115.422L203.716 98.3893C203.869 98.2359 204.176 98.0825 204.33 98.3893C204.483 98.5428 204.637 98.8497 204.33 99.0031L190.52 116.035C190.52 116.189 190.366 116.189 190.213 116.189Z" fill="black"/>
<path d="M145.561 120.025C145.407 120.025 145.407 119.871 145.407 119.871L147.555 115.882C147.555 115.882 147.709 115.728 147.709 115.882C147.709 115.882 147.862 116.035 147.709 116.035L145.561 120.025C145.714 120.025 145.714 120.025 145.561 120.025Z" fill="black"/>
<path d="M147.249 121.559C147.095 121.559 147.095 121.406 147.095 121.406L150.164 115.728C150.164 115.728 150.317 115.575 150.317 115.728C150.317 115.728 150.471 115.882 150.317 115.882L147.249 121.559C147.402 121.559 147.402 121.559 147.249 121.559Z" fill="black"/>
<path d="M149.55 121.252C149.397 121.252 149.397 121.099 149.397 120.946L151.238 117.723C151.238 117.723 151.392 117.57 151.392 117.723C151.392 117.723 151.545 117.877 151.392 117.877L149.55 121.252C149.55 121.252 149.704 121.252 149.55 121.252Z" fill="black"/>
<path d="M203.563 95.0135C203.409 95.0135 203.409 94.8601 203.409 94.8601C203.869 93.9394 204.33 93.1722 204.944 92.2515C204.944 92.2515 205.097 92.0981 205.097 92.2515C205.097 92.2515 205.25 92.405 205.097 92.405C204.637 93.1722 204.176 93.9394 203.563 95.0135C203.563 95.0135 203.716 94.8601 203.563 95.0135Z" fill="black"/>
<path d="M204.79 96.7013C204.637 96.7013 204.637 96.7013 204.79 96.7013C204.637 96.7013 204.637 96.5479 204.637 96.5479C205.404 95.0134 206.325 93.479 207.399 91.9445C207.399 91.9445 207.552 91.7911 207.552 91.9445C207.552 91.9445 207.706 92.098 207.552 92.098C206.631 93.479 205.711 95.0134 204.79 96.7013Z" fill="black"/>
<path d="M206.018 98.2357C205.864 98.2357 205.864 98.0823 205.864 98.0823C206.785 96.241 207.859 94.5531 208.933 92.8652C208.933 92.8652 209.087 92.7118 209.087 92.8652C209.087 92.8652 209.24 93.0186 209.087 93.0186C208.166 94.5531 207.092 96.3944 206.018 98.2357C206.171 98.2357 206.171 98.2357 206.018 98.2357Z" fill="black"/>
<path d="M208.319 97.6222C208.166 97.4687 208.166 97.4687 208.166 97.3153C208.78 96.3946 209.393 95.474 209.854 94.5533C209.854 94.5533 210.007 94.3999 210.007 94.5533C210.007 94.5533 210.161 94.7067 210.007 94.7067C209.7 95.7809 209.087 96.7015 208.319 97.6222C208.319 97.6222 208.473 97.6222 208.319 97.6222Z" fill="black"/>
<path d="M91.6379 149.276H34.605C33.7785 149.276 33.1172 148.938 33.1172 148.516C33.1172 148.094 33.7785 147.757 34.605 147.757H91.4726C92.2991 147.757 92.9604 148.094 92.9604 148.516C92.9604 148.938 92.4644 149.276 91.6379 149.276Z" fill="black"/>
<path d="M75.2183 156.195H34.1876C33.5929 156.195 33.1172 155.857 33.1172 155.435C33.1172 155.014 33.5929 154.676 34.1876 154.676H75.0993C75.694 154.676 76.1697 155.014 76.1697 155.435C76.1697 155.857 75.8129 156.195 75.2183 156.195Z" fill="black"/>
<defs>
<clipPath id="clip0_24_2566">
<rect width="59" height="26" fill="white" transform="translate(35 117)"/>
</clipPath>
</defs>
</svg>