<svg width="260" height="189" viewBox="0 0 260 189" fill="none" xmlns="http://www.w3.org/2000/svg">
    <script xmlns="" />
    <path d="M233.898 28.6608H21.5248V173.791H233.898V28.6608Z" fill="white"/>
<g clip-path="url(#clip0_23_1402)">
<path d="M78.5304 67.3958C78.169 67.3958 77.8076 67.0358 77.8076 66.6758C77.8076 66.3158 78.169 65.9558 78.5304 65.9558H86.1188C86.4802 65.9558 86.8415 66.3158 86.8415 66.6758C86.8415 67.0358 86.4802 67.3958 86.1188 67.3958H78.5304Z" fill="black"/>
<path d="M78.5304 83.0563C78.169 83.0563 77.8076 82.6963 77.8076 82.3363C77.8076 81.9763 78.169 81.6163 78.5304 81.6163H86.1188C86.4802 81.6163 86.8415 81.9763 86.8415 82.3363C86.8415 82.6963 86.4802 83.0563 86.1188 83.0563H78.5304Z" fill="black"/>
<path d="M31.9155 98.5366C31.5541 98.5366 31.1927 98.1766 31.1927 97.8166C31.1927 97.4566 31.5541 97.0966 31.9155 97.0966H90.6358C90.9972 97.0966 91.3585 97.4566 91.3585 97.8166C91.3585 98.1766 90.9972 98.5366 90.6358 98.5366H31.9155Z" fill="black"/>
<path d="M63.5341 82.3362C63.5341 69.7359 63.5341 58.7556 63.5341 46.8753C53.0548 46.8753 42.3948 47.4153 31.9154 47.2353C31.7348 59.2956 31.9154 70.6359 31.9154 82.5162C42.5754 82.3362 53.0548 82.3362 63.5341 82.3362Z" fill="#638ADC"/>
<path d="M31.9155 83.0562C31.5541 83.0562 31.1927 82.6962 31.1927 82.3362C31.1927 78.3761 31.1927 74.596 31.1927 70.6359C31.1927 63.0757 31.1927 55.1555 31.1927 47.2353C31.1927 47.0553 31.1927 46.8753 31.3734 46.6953C31.5541 46.5153 31.7348 46.5153 31.9155 46.5153C38.0585 46.6953 44.2016 46.5153 50.1639 46.3353C54.6809 46.3353 59.1978 46.1553 63.5341 46.1553C63.8955 46.1553 64.2568 46.5153 64.2568 46.8753C64.2568 54.7955 64.2568 62.1757 64.2568 69.9159C64.2568 73.876 64.2568 78.0161 64.2568 82.3362C64.2568 82.6962 63.8955 83.0562 63.5341 83.0562C58.2944 83.0562 53.0548 83.0562 47.8151 83.0562C42.5755 83.0562 37.1551 83.0562 31.9155 83.0562ZM32.6382 47.7753C32.6382 55.5155 32.6382 63.2557 32.6382 70.6359C32.6382 74.236 32.6382 78.0161 32.6382 81.6162C37.6972 81.6162 42.7561 81.6162 47.8151 81.6162C52.8741 81.6162 57.9331 81.6162 62.9921 81.6162C62.9921 77.4761 62.9921 73.696 62.9921 69.9159C62.9921 62.3557 62.9921 55.1555 62.9921 47.5953C58.8365 47.5953 54.5002 47.7753 50.3446 47.7753C44.3822 47.7753 38.4199 47.9553 32.6382 47.7753Z" fill="black"/>
<path d="M37.6971 79.2762C36.6131 78.3762 35.7097 77.6562 34.8063 76.7561C34.8063 76.7561 34.8063 76.5761 34.8063 76.3961C34.8063 76.3961 34.987 76.3961 35.1676 76.3961C36.071 77.2961 36.9744 78.0162 37.8778 78.7362C38.0585 78.7362 38.0585 78.9162 37.8778 79.0962C37.8778 79.2762 37.6971 79.2762 37.6971 79.2762Z" fill="black"/>
<path d="M44.0209 80.1762C40.7687 77.2961 37.5165 74.416 34.2643 71.536C34.0836 71.536 34.0836 71.356 34.2643 71.176C34.2643 70.996 34.445 70.996 34.6256 71.176C37.8779 73.876 41.1301 76.7561 44.2016 79.6362C44.3823 79.8162 44.3823 79.9962 44.0209 80.1762C44.2016 80.1762 44.2016 80.1762 44.0209 80.1762Z" fill="black"/>
<path d="M50.5253 80.1762C50.5253 80.1762 50.3446 80.1762 50.5253 80.1762L34.8063 66.8559C34.6256 66.8559 34.6256 66.6758 34.8063 66.4958C34.8063 66.3158 34.987 66.3158 35.1676 66.4958L50.7059 79.6362C50.7059 79.8162 50.7059 79.9962 50.5253 80.1762C50.5253 80.1762 50.7059 79.9962 50.5253 80.1762Z" fill="black"/>
<path d="M56.4877 79.8162C56.307 79.8162 56.307 79.8162 56.4877 79.8162C49.4412 73.5161 42.2141 67.5759 34.987 61.8158C34.8063 61.6357 34.8063 61.4557 34.987 61.4557C34.987 61.2757 35.1677 61.2757 35.3484 61.4557C42.5755 67.2159 49.8026 73.336 56.6684 79.4562C56.6684 79.4562 56.6684 79.6362 56.4877 79.8162Z" fill="black"/>
<path d="M61.0046 77.8361C52.1514 70.8159 43.2981 63.4357 34.8063 56.0555V55.8755C34.8063 55.6955 34.987 55.6955 35.1676 55.8755C43.6595 63.2557 52.332 70.6359 61.1853 77.6561C61.3659 77.6561 61.3659 77.6561 61.0046 77.8361C61.1853 77.8361 61.1853 77.8361 61.0046 77.8361Z" fill="black"/>
<path d="M60.824 72.076L34.987 51.0155C34.8063 50.8355 34.8063 50.8355 34.987 50.6555C34.987 50.4754 35.1677 50.4754 35.3484 50.6555L61.1853 71.716C61.1853 71.716 61.1853 71.896 60.824 72.076C61.0046 72.076 61.0046 72.076 60.824 72.076Z" fill="black"/>
<path d="M60.8239 65.9558C54.5002 60.5556 47.9958 55.1555 41.672 50.1154C41.4914 50.1154 41.4914 49.9354 41.672 49.7554C41.672 49.7554 41.8527 49.7554 42.0334 49.7554C48.5378 54.9755 54.8615 60.1956 61.1853 65.5958C61.1853 65.7758 61.1853 65.7758 60.8239 65.9558C61.0046 65.9558 61.0046 65.9558 60.8239 65.9558Z" fill="black"/>
<path d="M60.8239 59.2956C56.849 56.5956 53.0548 53.5355 49.6219 50.6554C49.4412 50.6554 49.4412 50.4754 49.6219 50.2954C49.6219 50.1154 49.8026 50.1154 49.9833 50.2954C53.5968 53.3555 57.3911 56.2356 61.1853 58.9356C61.366 58.9356 61.366 59.1156 61.1853 59.2956C61.0046 59.2956 61.0046 59.2956 60.8239 59.2956Z" fill="black"/>
<path d="M61.0046 54.0756C59.5592 52.8155 58.1137 51.7355 56.6683 50.8355C56.4876 50.8355 56.4876 50.6555 56.6683 50.4755C56.6683 50.2955 56.849 50.2955 57.0297 50.4755C58.4751 51.5555 59.9205 52.6355 61.1853 53.7155C61.3659 53.7155 61.3659 53.8955 61.0046 54.0756C61.1853 54.0756 61.1853 54.0756 61.0046 54.0756Z" fill="black"/>
</g>
<g clip-path="url(#clip1_23_1402)">
<path d="M78.5304 125.691C78.169 125.691 77.8076 125.331 77.8076 124.971C77.8076 124.611 78.169 124.251 78.5304 124.251H86.1188C86.4802 124.251 86.8415 124.611 86.8415 124.971C86.8415 125.331 86.4802 125.691 86.1188 125.691H78.5304Z" fill="black"/>
<path d="M78.5304 141.352C78.169 141.352 77.8076 140.992 77.8076 140.632C77.8076 140.272 78.169 139.912 78.5304 139.912H86.1188C86.4802 139.912 86.8415 140.272 86.8415 140.632C86.8415 140.992 86.4802 141.352 86.1188 141.352H78.5304Z" fill="black"/>
<path d="M31.9155 156.832C31.5541 156.832 31.1927 156.472 31.1927 156.112C31.1927 155.752 31.5541 155.392 31.9155 155.392H90.6358C90.9972 155.392 91.3585 155.752 91.3585 156.112C91.3585 156.472 90.9972 156.832 90.6358 156.832H31.9155Z" fill="black"/>
<path d="M63.5341 140.632C63.5341 128.031 63.5341 117.051 63.5341 105.171C53.0548 105.171 42.3948 105.711 31.9154 105.531C31.7348 117.591 31.9154 128.931 31.9154 140.812C42.5754 140.632 53.0548 140.632 63.5341 140.632Z" fill="#ACACAC"/>
<path d="M31.9155 141.352C31.5541 141.352 31.1927 140.992 31.1927 140.632C31.1927 136.672 31.1927 132.891 31.1927 128.931C31.1927 121.371 31.1927 113.451 31.1927 105.531C31.1927 105.351 31.1927 105.171 31.3734 104.991C31.5541 104.811 31.7348 104.811 31.9155 104.811C38.0585 104.991 44.2016 104.811 50.1639 104.631C54.6809 104.631 59.1978 104.451 63.5341 104.451C63.8955 104.451 64.2568 104.811 64.2568 105.171C64.2568 113.091 64.2568 120.471 64.2568 128.211C64.2568 132.171 64.2568 136.311 64.2568 140.632C64.2568 140.992 63.8955 141.352 63.5341 141.352C58.2944 141.352 53.0548 141.352 47.8151 141.352C42.5755 141.352 37.1551 141.352 31.9155 141.352ZM32.6382 106.071C32.6382 113.811 32.6382 121.551 32.6382 128.931C32.6382 132.531 32.6382 136.312 32.6382 139.912C37.6972 139.912 42.7561 139.912 47.8151 139.912C52.8741 139.912 57.9331 139.912 62.9921 139.912C62.9921 135.771 62.9921 131.991 62.9921 128.211C62.9921 120.651 62.9921 113.451 62.9921 105.891C58.8365 105.891 54.5002 106.071 50.3446 106.071C44.3822 106.071 38.4199 106.251 32.6382 106.071Z" fill="black"/>
<path d="M37.6971 137.572C36.6131 136.672 35.7097 135.952 34.8063 135.051C34.8063 135.051 34.8063 134.871 34.8063 134.691C34.8063 134.691 34.987 134.691 35.1676 134.691C36.071 135.591 36.9744 136.312 37.8778 137.032C38.0585 137.032 38.0585 137.212 37.8778 137.392C37.8778 137.572 37.6971 137.572 37.6971 137.572Z" fill="black"/>
<path d="M44.0209 138.472C40.7687 135.591 37.5165 132.711 34.2643 129.831C34.0836 129.831 34.0836 129.651 34.2643 129.471C34.2643 129.291 34.445 129.291 34.6256 129.471C37.8779 132.171 41.1301 135.051 44.2016 137.932C44.3823 138.112 44.3823 138.292 44.0209 138.472C44.2016 138.472 44.2016 138.472 44.0209 138.472Z" fill="black"/>
<path d="M50.5253 138.472C50.5253 138.472 50.3446 138.472 50.5253 138.472L34.8063 125.151C34.6256 125.151 34.6256 124.971 34.8063 124.791C34.8063 124.611 34.987 124.611 35.1676 124.791L50.7059 137.932C50.7059 138.112 50.7059 138.292 50.5253 138.472C50.5253 138.472 50.7059 138.292 50.5253 138.472Z" fill="black"/>
<path d="M56.4877 138.112C56.307 138.112 56.307 138.112 56.4877 138.112C49.4412 131.811 42.2141 125.871 34.987 120.111C34.8063 119.931 34.8063 119.751 34.987 119.751C34.987 119.571 35.1677 119.571 35.3484 119.751C42.5755 125.511 49.8026 131.631 56.6684 137.752C56.6684 137.752 56.6684 137.932 56.4877 138.112Z" fill="black"/>
<path d="M61.0046 136.131C52.1514 129.111 43.2981 121.731 34.8063 114.351V114.171C34.8063 113.991 34.987 113.991 35.1676 114.171C43.6595 121.551 52.332 128.931 61.1853 135.951C61.3659 135.951 61.3659 135.951 61.0046 136.131C61.1853 136.131 61.1853 136.131 61.0046 136.131Z" fill="black"/>
<path d="M60.824 130.371L34.987 109.311C34.8063 109.131 34.8063 109.131 34.987 108.951C34.987 108.771 35.1677 108.771 35.3484 108.951L61.1853 130.011C61.1853 130.011 61.1853 130.191 60.824 130.371C61.0046 130.371 61.0046 130.371 60.824 130.371Z" fill="black"/>
<path d="M60.8239 124.251C54.5002 118.851 47.9958 113.451 41.672 108.411C41.4914 108.411 41.4914 108.231 41.672 108.051C41.672 108.051 41.8527 108.051 42.0334 108.051C48.5378 113.271 54.8615 118.491 61.1853 123.891C61.1853 124.071 61.1853 124.071 60.8239 124.251C61.0046 124.251 61.0046 124.251 60.8239 124.251Z" fill="black"/>
<path d="M60.8239 117.591C56.849 114.891 53.0548 111.831 49.6219 108.951C49.4412 108.951 49.4412 108.771 49.6219 108.591C49.6219 108.411 49.8026 108.411 49.9833 108.591C53.5968 111.651 57.3911 114.531 61.1853 117.231C61.366 117.231 61.366 117.411 61.1853 117.591C61.0046 117.591 61.0046 117.591 60.8239 117.591Z" fill="black"/>
<path d="M61.0046 112.371C59.5592 111.111 58.1137 110.031 56.6683 109.131C56.4876 109.131 56.4876 108.951 56.6683 108.771C56.6683 108.591 56.849 108.591 57.0297 108.771C58.4751 109.851 59.9205 110.931 61.1853 112.011C61.3659 112.011 61.3659 112.191 61.0046 112.371C61.1853 112.371 61.1853 112.371 61.0046 112.371Z" fill="black"/>
</g>
<g clip-path="url(#clip2_23_1402)">
<path d="M146.119 67.3958C145.758 67.3958 145.396 67.0358 145.396 66.6758C145.396 66.3158 145.758 65.9558 146.119 65.9558H153.708C154.069 65.9558 154.43 66.3158 154.43 66.6758C154.43 67.0358 154.069 67.3958 153.708 67.3958H146.119Z" fill="black"/>
<path d="M146.119 83.0563C145.758 83.0563 145.396 82.6963 145.396 82.3363C145.396 81.9763 145.758 81.6163 146.119 81.6163H153.708C154.069 81.6163 154.43 81.9763 154.43 82.3363C154.43 82.6963 154.069 83.0563 153.708 83.0563H146.119Z" fill="black"/>
<path d="M99.5043 98.5366C99.1429 98.5366 98.7816 98.1766 98.7816 97.8166C98.7816 97.4566 99.1429 97.0966 99.5043 97.0966H158.225C158.586 97.0966 158.947 97.4566 158.947 97.8166C158.947 98.1766 158.586 98.5366 158.225 98.5366H99.5043Z" fill="black"/>
<path d="M131.123 82.3362C131.123 69.7359 131.123 58.7556 131.123 46.8753C120.644 46.8753 109.984 47.4153 99.5043 47.2353C99.3236 59.2956 99.5043 70.6359 99.5043 82.5162C110.164 82.3362 120.644 82.3362 131.123 82.3362Z" fill="#74BD6C"/>
<path d="M99.5043 83.0562C99.1429 83.0562 98.7816 82.6962 98.7816 82.3362C98.7816 78.3761 98.7816 74.596 98.7816 70.6359C98.7816 63.0757 98.7816 55.1555 98.7816 47.2353C98.7816 47.0553 98.7816 46.8753 98.9622 46.6953C99.1429 46.5153 99.3236 46.5153 99.5043 46.5153C105.647 46.6953 111.79 46.5153 117.753 46.3353C122.27 46.3353 126.787 46.1553 131.123 46.1553C131.484 46.1553 131.846 46.5153 131.846 46.8753C131.846 54.7955 131.846 62.1757 131.846 69.9159C131.846 73.876 131.846 78.0161 131.846 82.3362C131.846 82.6962 131.484 83.0562 131.123 83.0562C125.883 83.0562 120.644 83.0562 115.404 83.0562C110.164 83.0562 104.744 83.0562 99.5043 83.0562ZM100.227 47.7753C100.227 55.5155 100.227 63.2557 100.227 70.6359C100.227 74.236 100.227 78.0161 100.227 81.6162C105.286 81.6162 110.345 81.6162 115.404 81.6162C120.463 81.6162 125.522 81.6162 130.581 81.6162C130.581 77.4761 130.581 73.696 130.581 69.9159C130.581 62.3557 130.581 55.1555 130.581 47.5953C126.425 47.5953 122.089 47.7753 117.933 47.7753C111.971 47.7753 106.009 47.9553 100.227 47.7753Z" fill="black"/>
<path d="M105.286 79.2762C104.202 78.3762 103.299 77.6562 102.395 76.7561C102.395 76.7561 102.395 76.5761 102.395 76.3961C102.395 76.3961 102.576 76.3961 102.756 76.3961C103.66 77.2961 104.563 78.0162 105.467 78.7362C105.647 78.7362 105.647 78.9162 105.467 79.0962C105.467 79.2762 105.286 79.2762 105.286 79.2762Z" fill="black"/>
<path d="M111.61 80.1762C108.358 77.2961 105.105 74.416 101.853 71.536C101.672 71.536 101.672 71.356 101.853 71.176C101.853 70.996 102.034 70.996 102.214 71.176C105.467 73.876 108.719 76.7561 111.79 79.6362C111.971 79.8162 111.971 79.9962 111.61 80.1762C111.79 80.1762 111.79 80.1762 111.61 80.1762Z" fill="black"/>
<path d="M118.114 80.1762C118.114 80.1762 117.933 80.1762 118.114 80.1762L102.395 66.8559C102.214 66.8559 102.214 66.6758 102.395 66.4958C102.395 66.3158 102.576 66.3158 102.757 66.4958L118.295 79.6362C118.295 79.8162 118.295 79.9962 118.114 80.1762C118.114 80.1762 118.295 79.9962 118.114 80.1762Z" fill="black"/>
<path d="M124.076 79.8162C123.896 79.8162 123.896 79.8162 124.076 79.8162C117.03 73.5161 109.803 67.5759 102.576 61.8158C102.395 61.6357 102.395 61.4557 102.576 61.4557C102.576 61.2757 102.756 61.2757 102.937 61.4557C110.164 67.2159 117.391 73.336 124.257 79.4562C124.257 79.4562 124.257 79.6362 124.076 79.8162Z" fill="black"/>
<path d="M128.593 77.8361C119.74 70.8159 110.887 63.4357 102.395 56.0555V55.8755C102.395 55.6955 102.576 55.6955 102.756 55.8755C111.248 63.2557 119.921 70.6359 128.774 77.6561C128.955 77.6561 128.955 77.6561 128.593 77.8361C128.774 77.8361 128.774 77.8361 128.593 77.8361Z" fill="black"/>
<path d="M128.413 72.076L102.576 51.0155C102.395 50.8355 102.395 50.8355 102.576 50.6555C102.576 50.4754 102.756 50.4754 102.937 50.6555L128.774 71.716C128.774 71.716 128.774 71.896 128.413 72.076C128.593 72.076 128.593 72.076 128.413 72.076Z" fill="black"/>
<path d="M128.413 65.9558C122.089 60.5556 115.585 55.1555 109.261 50.1154C109.08 50.1154 109.08 49.9354 109.261 49.7554C109.261 49.7554 109.442 49.7554 109.622 49.7554C116.127 54.9755 122.45 60.1956 128.774 65.5958C128.774 65.7758 128.774 65.7758 128.413 65.9558C128.593 65.9558 128.593 65.9558 128.413 65.9558Z" fill="black"/>
<path d="M128.413 59.2956C124.438 56.5956 120.644 53.5355 117.211 50.6554C117.03 50.6554 117.03 50.4754 117.211 50.2954C117.211 50.1154 117.391 50.1154 117.572 50.2954C121.186 53.3555 124.98 56.2356 128.774 58.9356C128.955 58.9356 128.955 59.1156 128.774 59.2956C128.593 59.2956 128.593 59.2956 128.413 59.2956Z" fill="black"/>
<path d="M128.593 54.0756C127.148 52.8155 125.703 51.7355 124.257 50.8355C124.076 50.8355 124.076 50.6555 124.257 50.4755C124.257 50.2955 124.438 50.2955 124.619 50.4755C126.064 51.5555 127.509 52.6355 128.774 53.7155C128.955 53.7155 128.955 53.8955 128.593 54.0756C128.774 54.0756 128.774 54.0756 128.593 54.0756Z" fill="black"/>
</g>
<g clip-path="url(#clip3_23_1402)">
<path d="M146.119 125.691C145.758 125.691 145.396 125.331 145.396 124.971C145.396 124.611 145.758 124.251 146.119 124.251H153.708C154.069 124.251 154.43 124.611 154.43 124.971C154.43 125.331 154.069 125.691 153.708 125.691H146.119Z" fill="black"/>
<path d="M146.119 141.352C145.758 141.352 145.396 140.992 145.396 140.632C145.396 140.272 145.758 139.912 146.119 139.912H153.708C154.069 139.912 154.43 140.272 154.43 140.632C154.43 140.992 154.069 141.352 153.708 141.352H146.119Z" fill="black"/>
<path d="M99.5043 156.832C99.1429 156.832 98.7816 156.472 98.7816 156.112C98.7816 155.752 99.1429 155.392 99.5043 155.392H158.225C158.586 155.392 158.947 155.752 158.947 156.112C158.947 156.472 158.586 156.832 158.225 156.832H99.5043Z" fill="black"/>
<path d="M131.123 140.632C131.123 128.031 131.123 117.051 131.123 105.171C120.644 105.171 109.984 105.711 99.5043 105.531C99.3236 117.591 99.5043 128.931 99.5043 140.812C110.164 140.632 120.644 140.632 131.123 140.632Z" fill="#638ADC"/>
<path d="M99.5043 141.352C99.1429 141.352 98.7816 140.992 98.7816 140.632C98.7816 136.672 98.7816 132.891 98.7816 128.931C98.7816 121.371 98.7816 113.451 98.7816 105.531C98.7816 105.351 98.7816 105.171 98.9622 104.991C99.1429 104.811 99.3236 104.811 99.5043 104.811C105.647 104.991 111.79 104.811 117.753 104.631C122.27 104.631 126.787 104.451 131.123 104.451C131.484 104.451 131.846 104.811 131.846 105.171C131.846 113.091 131.846 120.471 131.846 128.211C131.846 132.171 131.846 136.311 131.846 140.632C131.846 140.992 131.484 141.352 131.123 141.352C125.883 141.352 120.644 141.352 115.404 141.352C110.164 141.352 104.744 141.352 99.5043 141.352ZM100.227 106.071C100.227 113.811 100.227 121.551 100.227 128.931C100.227 132.531 100.227 136.312 100.227 139.912C105.286 139.912 110.345 139.912 115.404 139.912C120.463 139.912 125.522 139.912 130.581 139.912C130.581 135.771 130.581 131.991 130.581 128.211C130.581 120.651 130.581 113.451 130.581 105.891C126.425 105.891 122.089 106.071 117.933 106.071C111.971 106.071 106.009 106.251 100.227 106.071Z" fill="black"/>
<path d="M105.286 137.572C104.202 136.672 103.299 135.952 102.395 135.051C102.395 135.051 102.395 134.871 102.395 134.691C102.395 134.691 102.576 134.691 102.756 134.691C103.66 135.591 104.563 136.312 105.467 137.032C105.647 137.032 105.647 137.212 105.467 137.392C105.467 137.572 105.286 137.572 105.286 137.572Z" fill="black"/>
<path d="M111.61 138.472C108.358 135.591 105.105 132.711 101.853 129.831C101.672 129.831 101.672 129.651 101.853 129.471C101.853 129.291 102.034 129.291 102.214 129.471C105.467 132.171 108.719 135.051 111.79 137.932C111.971 138.112 111.971 138.292 111.61 138.472C111.79 138.472 111.79 138.472 111.61 138.472Z" fill="black"/>
<path d="M118.114 138.472C118.114 138.472 117.933 138.472 118.114 138.472L102.395 125.151C102.214 125.151 102.214 124.971 102.395 124.791C102.395 124.611 102.576 124.611 102.757 124.791L118.295 137.932C118.295 138.112 118.295 138.292 118.114 138.472C118.114 138.472 118.295 138.292 118.114 138.472Z" fill="black"/>
<path d="M124.076 138.112C123.896 138.112 123.896 138.112 124.076 138.112C117.03 131.811 109.803 125.871 102.576 120.111C102.395 119.931 102.395 119.751 102.576 119.751C102.576 119.571 102.756 119.571 102.937 119.751C110.164 125.511 117.391 131.631 124.257 137.752C124.257 137.752 124.257 137.932 124.076 138.112Z" fill="black"/>
<path d="M128.593 136.131C119.74 129.111 110.887 121.731 102.395 114.351V114.171C102.395 113.991 102.576 113.991 102.756 114.171C111.248 121.551 119.921 128.931 128.774 135.951C128.955 135.951 128.955 135.951 128.593 136.131C128.774 136.131 128.774 136.131 128.593 136.131Z" fill="black"/>
<path d="M128.413 130.371L102.576 109.311C102.395 109.131 102.395 109.131 102.576 108.951C102.576 108.771 102.756 108.771 102.937 108.951L128.774 130.011C128.774 130.011 128.774 130.191 128.413 130.371C128.593 130.371 128.593 130.371 128.413 130.371Z" fill="black"/>
<path d="M128.413 124.251C122.089 118.851 115.585 113.451 109.261 108.411C109.08 108.411 109.08 108.231 109.261 108.051C109.261 108.051 109.442 108.051 109.622 108.051C116.127 113.271 122.45 118.491 128.774 123.891C128.774 124.071 128.774 124.071 128.413 124.251C128.593 124.251 128.593 124.251 128.413 124.251Z" fill="black"/>
<path d="M128.413 117.591C124.438 114.891 120.644 111.831 117.211 108.951C117.03 108.951 117.03 108.771 117.211 108.591C117.211 108.411 117.391 108.411 117.572 108.591C121.186 111.651 124.98 114.531 128.774 117.231C128.955 117.231 128.955 117.411 128.774 117.591C128.593 117.591 128.593 117.591 128.413 117.591Z" fill="black"/>
<path d="M128.593 112.371C127.148 111.111 125.703 110.031 124.257 109.131C124.076 109.131 124.076 108.951 124.257 108.771C124.257 108.591 124.438 108.591 124.619 108.771C126.064 109.851 127.509 110.931 128.774 112.011C128.955 112.011 128.955 112.191 128.593 112.371C128.774 112.371 128.774 112.371 128.593 112.371Z" fill="black"/>
</g>
<g clip-path="url(#clip4_23_1402)">
<path d="M213.708 67.3958C213.347 67.3958 212.985 67.0358 212.985 66.6758C212.985 66.3158 213.347 65.9558 213.708 65.9558H221.297C221.658 65.9558 222.019 66.3158 222.019 66.6758C222.019 67.0358 221.658 67.3958 221.297 67.3958H213.708Z" fill="black"/>
<path d="M213.708 83.0563C213.347 83.0563 212.985 82.6963 212.985 82.3363C212.985 81.9763 213.347 81.6163 213.708 81.6163H221.297C221.658 81.6163 222.019 81.9763 222.019 82.3363C222.019 82.6963 221.658 83.0563 221.297 83.0563H213.708Z" fill="black"/>
<path d="M167.093 98.5366C166.732 98.5366 166.37 98.1766 166.37 97.8166C166.37 97.4566 166.732 97.0966 167.093 97.0966H225.813C226.175 97.0966 226.536 97.4566 226.536 97.8166C226.536 98.1766 226.175 98.5366 225.813 98.5366H167.093Z" fill="black"/>
<path d="M198.712 82.3362C198.712 69.7359 198.712 58.7556 198.712 46.8753C188.232 46.8753 177.572 47.4153 167.093 47.2353C166.912 59.2956 167.093 70.6359 167.093 82.5162C177.753 82.3362 188.232 82.3362 198.712 82.3362Z" fill="#638ADC"/>
<path d="M167.093 83.0562C166.732 83.0562 166.37 82.6962 166.37 82.3362C166.37 78.3761 166.37 74.596 166.37 70.6359C166.37 63.0757 166.37 55.1555 166.37 47.2353C166.37 47.0553 166.37 46.8753 166.551 46.6953C166.732 46.5153 166.912 46.5153 167.093 46.5153C173.236 46.6953 179.379 46.5153 185.342 46.3353C189.859 46.3353 194.375 46.1553 198.712 46.1553C199.073 46.1553 199.434 46.5153 199.434 46.8753C199.434 54.7955 199.434 62.1757 199.434 69.9159C199.434 73.876 199.434 78.0161 199.434 82.3362C199.434 82.6962 199.073 83.0562 198.712 83.0562C193.472 83.0562 188.232 83.0562 182.993 83.0562C177.753 83.0562 172.333 83.0562 167.093 83.0562ZM167.816 47.7753C167.816 55.5155 167.816 63.2557 167.816 70.6359C167.816 74.236 167.816 78.0161 167.816 81.6162C172.875 81.6162 177.934 81.6162 182.993 81.6162C188.052 81.6162 193.111 81.6162 198.17 81.6162C198.17 77.4761 198.17 73.696 198.17 69.9159C198.17 62.3557 198.17 55.1555 198.17 47.5953C194.014 47.5953 189.678 47.7753 185.522 47.7753C179.56 47.7753 173.598 47.9553 167.816 47.7753Z" fill="black"/>
<path d="M172.875 79.2762C171.791 78.3762 170.887 77.6562 169.984 76.7561C169.984 76.7561 169.984 76.5761 169.984 76.3961C169.984 76.3961 170.165 76.3961 170.345 76.3961C171.249 77.2961 172.152 78.0162 173.055 78.7362C173.236 78.7362 173.236 78.9162 173.055 79.0962C173.055 79.2762 172.875 79.2762 172.875 79.2762Z" fill="black"/>
<path d="M179.199 80.1762C175.946 77.2961 172.694 74.416 169.442 71.536C169.261 71.536 169.261 71.356 169.442 71.176C169.442 70.996 169.623 70.996 169.803 71.176C173.055 73.876 176.308 76.7561 179.379 79.6362C179.56 79.8162 179.56 79.9962 179.199 80.1762C179.379 80.1762 179.379 80.1762 179.199 80.1762Z" fill="black"/>
<path d="M185.703 80.1762C185.703 80.1762 185.522 80.1762 185.703 80.1762L169.984 66.8559C169.803 66.8559 169.803 66.6758 169.984 66.4958C169.984 66.3158 170.165 66.3158 170.345 66.4958L185.884 79.6362C185.884 79.8162 185.884 79.9962 185.703 80.1762C185.703 80.1762 185.884 79.9962 185.703 80.1762Z" fill="black"/>
<path d="M191.665 79.8162C191.485 79.8162 191.485 79.8162 191.665 79.8162C184.619 73.5161 177.392 67.5759 170.165 61.8158C169.984 61.6357 169.984 61.4557 170.165 61.4557C170.165 61.2757 170.345 61.2757 170.526 61.4557C177.753 67.2159 184.98 73.336 191.846 79.4562C191.846 79.4562 191.846 79.6362 191.665 79.8162Z" fill="black"/>
<path d="M196.182 77.8361C187.329 70.8159 178.476 63.4357 169.984 56.0555V55.8755C169.984 55.6955 170.165 55.6955 170.345 55.8755C178.837 63.2557 187.51 70.6359 196.363 77.6561C196.544 77.6561 196.544 77.6561 196.182 77.8361C196.363 77.8361 196.363 77.8361 196.182 77.8361Z" fill="black"/>
<path d="M196.002 72.076L170.165 51.0155C169.984 50.8355 169.984 50.8355 170.165 50.6555C170.165 50.4754 170.345 50.4754 170.526 50.6555L196.363 71.716C196.363 71.716 196.363 71.896 196.002 72.076C196.182 72.076 196.182 72.076 196.002 72.076Z" fill="black"/>
<path d="M196.002 65.9558C189.678 60.5556 183.173 55.1555 176.85 50.1154C176.669 50.1154 176.669 49.9354 176.85 49.7554C176.85 49.7554 177.03 49.7554 177.211 49.7554C183.715 54.9755 190.039 60.1956 196.363 65.5958C196.363 65.7758 196.363 65.7758 196.002 65.9558C196.182 65.9558 196.182 65.9558 196.002 65.9558Z" fill="black"/>
<path d="M196.002 59.2956C192.027 56.5956 188.232 53.5355 184.8 50.6554C184.619 50.6554 184.619 50.4754 184.8 50.2954C184.8 50.1154 184.98 50.1154 185.161 50.2954C188.774 53.3555 192.569 56.2356 196.363 58.9356C196.544 58.9356 196.544 59.1156 196.363 59.2956C196.182 59.2956 196.182 59.2956 196.002 59.2956Z" fill="black"/>
<path d="M196.182 54.0756C194.737 52.8155 193.291 51.7355 191.846 50.8355C191.665 50.8355 191.665 50.6555 191.846 50.4755C191.846 50.2955 192.027 50.2955 192.207 50.4755C193.653 51.5555 195.098 52.6355 196.363 53.7155C196.544 53.7155 196.544 53.8955 196.182 54.0756C196.363 54.0756 196.363 54.0756 196.182 54.0756Z" fill="black"/>
</g>
<g clip-path="url(#clip5_23_1402)">
<path d="M213.708 125.691C213.347 125.691 212.985 125.331 212.985 124.971C212.985 124.611 213.347 124.251 213.708 124.251H221.297C221.658 124.251 222.019 124.611 222.019 124.971C222.019 125.331 221.658 125.691 221.297 125.691H213.708Z" fill="black"/>
<path d="M213.708 141.352C213.347 141.352 212.985 140.992 212.985 140.632C212.985 140.272 213.347 139.912 213.708 139.912H221.297C221.658 139.912 222.019 140.272 222.019 140.632C222.019 140.992 221.658 141.352 221.297 141.352H213.708Z" fill="black"/>
<path d="M167.093 156.832C166.732 156.832 166.37 156.472 166.37 156.112C166.37 155.752 166.732 155.392 167.093 155.392H225.813C226.175 155.392 226.536 155.752 226.536 156.112C226.536 156.472 226.175 156.832 225.813 156.832H167.093Z" fill="black"/>
<path d="M198.712 140.632C198.712 128.031 198.712 117.051 198.712 105.171C188.232 105.171 177.572 105.711 167.093 105.531C166.912 117.591 167.093 128.931 167.093 140.812C177.753 140.632 188.232 140.632 198.712 140.632Z" fill="white"/>
<path d="M167.093 141.352C166.732 141.352 166.37 140.992 166.37 140.632C166.37 136.672 166.37 132.891 166.37 128.931C166.37 121.371 166.37 113.451 166.37 105.531C166.37 105.351 166.37 105.171 166.551 104.991C166.732 104.811 166.912 104.811 167.093 104.811C173.236 104.991 179.379 104.811 185.342 104.631C189.859 104.631 194.375 104.451 198.712 104.451C199.073 104.451 199.434 104.811 199.434 105.171C199.434 113.091 199.434 120.471 199.434 128.211C199.434 132.171 199.434 136.311 199.434 140.632C199.434 140.992 199.073 141.352 198.712 141.352C193.472 141.352 188.232 141.352 182.993 141.352C177.753 141.352 172.333 141.352 167.093 141.352ZM167.816 106.071C167.816 113.811 167.816 121.551 167.816 128.931C167.816 132.531 167.816 136.312 167.816 139.912C172.875 139.912 177.934 139.912 182.993 139.912C188.052 139.912 193.111 139.912 198.17 139.912C198.17 135.771 198.17 131.991 198.17 128.211C198.17 120.651 198.17 113.451 198.17 105.891C194.014 105.891 189.678 106.071 185.522 106.071C179.56 106.071 173.598 106.251 167.816 106.071Z" fill="black"/>
<path d="M172.875 137.572C171.791 136.672 170.887 135.952 169.984 135.051C169.984 135.051 169.984 134.871 169.984 134.691C169.984 134.691 170.165 134.691 170.345 134.691C171.249 135.591 172.152 136.312 173.055 137.032C173.236 137.032 173.236 137.212 173.055 137.392C173.055 137.572 172.875 137.572 172.875 137.572Z" fill="black"/>
<path d="M179.199 138.472C175.946 135.591 172.694 132.711 169.442 129.831C169.261 129.831 169.261 129.651 169.442 129.471C169.442 129.291 169.623 129.291 169.803 129.471C173.055 132.171 176.308 135.051 179.379 137.932C179.56 138.112 179.56 138.292 179.199 138.472C179.379 138.472 179.379 138.472 179.199 138.472Z" fill="black"/>
<path d="M185.703 138.472C185.703 138.472 185.522 138.472 185.703 138.472L169.984 125.151C169.803 125.151 169.803 124.971 169.984 124.791C169.984 124.611 170.165 124.611 170.345 124.791L185.884 137.932C185.884 138.112 185.884 138.292 185.703 138.472C185.703 138.472 185.884 138.292 185.703 138.472Z" fill="black"/>
<path d="M191.665 138.112C191.485 138.112 191.485 138.112 191.665 138.112C184.619 131.811 177.392 125.871 170.165 120.111C169.984 119.931 169.984 119.751 170.165 119.751C170.165 119.571 170.345 119.571 170.526 119.751C177.753 125.511 184.98 131.631 191.846 137.752C191.846 137.752 191.846 137.932 191.665 138.112Z" fill="black"/>
<path d="M196.182 136.131C187.329 129.111 178.476 121.731 169.984 114.351V114.171C169.984 113.991 170.165 113.991 170.345 114.171C178.837 121.551 187.51 128.931 196.363 135.951C196.544 135.951 196.544 135.951 196.182 136.131C196.363 136.131 196.363 136.131 196.182 136.131Z" fill="black"/>
<path d="M196.002 130.371L170.165 109.311C169.984 109.131 169.984 109.131 170.165 108.951C170.165 108.771 170.345 108.771 170.526 108.951L196.363 130.011C196.363 130.011 196.363 130.191 196.002 130.371C196.182 130.371 196.182 130.371 196.002 130.371Z" fill="black"/>
<path d="M196.002 124.251C189.678 118.851 183.173 113.451 176.85 108.411C176.669 108.411 176.669 108.231 176.85 108.051C176.85 108.051 177.03 108.051 177.211 108.051C183.715 113.271 190.039 118.491 196.363 123.891C196.363 124.071 196.363 124.071 196.002 124.251C196.182 124.251 196.182 124.251 196.002 124.251Z" fill="black"/>
<path d="M196.002 117.591C192.027 114.891 188.232 111.831 184.8 108.951C184.619 108.951 184.619 108.771 184.8 108.591C184.8 108.411 184.98 108.411 185.161 108.591C188.774 111.651 192.569 114.531 196.363 117.231C196.544 117.231 196.544 117.411 196.363 117.591C196.182 117.591 196.182 117.591 196.002 117.591Z" fill="black"/>
<path d="M196.182 112.371C194.737 111.111 193.291 110.031 191.846 109.131C191.665 109.131 191.665 108.951 191.846 108.771C191.846 108.591 192.027 108.591 192.207 108.771C193.653 109.851 195.098 110.931 196.363 112.011C196.544 112.011 196.544 112.191 196.182 112.371C196.363 112.371 196.363 112.371 196.182 112.371Z" fill="black"/>
</g>
<path d="M233.768 174.162H21.5248C21.2647 174.162 21.0046 173.915 21.0046 173.667V28.6607C21.0046 28.4129 21.2647 28.165 21.5248 28.165H233.898C234.159 28.165 234.419 28.4129 234.419 28.6607V173.791C234.289 174.038 234.029 174.162 233.768 174.162ZM22.045 173.295H233.378V29.1565H22.045V173.295Z" fill="black"/>
<path d="M233.898 21.3485H21.5248V33.8661H233.898V21.3485Z" fill="#4E6075"/>
<path d="M233.768 34.3619H21.5248C21.2647 34.3619 21.0046 34.114 21.0046 33.8661V21.3485C21.0046 21.1007 21.2647 20.8528 21.5248 20.8528H233.898C234.159 20.8528 234.419 21.1007 234.419 21.3485V33.8661C234.289 34.114 234.029 34.3619 233.768 34.3619ZM22.045 33.3704H233.378V21.8443H22.045V33.3704Z" fill="black"/>
<path d="M190.201 30.3958C191.781 30.3958 193.062 29.1751 193.062 27.6692C193.062 26.1634 191.781 24.9426 190.201 24.9426C188.621 24.9426 187.34 26.1634 187.34 27.6692C187.34 29.1751 188.621 30.3958 190.201 30.3958Z" fill="#74BD6C"/>
<path d="M190.201 30.7677C188.381 30.7677 186.95 29.4044 186.95 27.6693C186.95 25.9342 188.381 24.5709 190.201 24.5709C192.022 24.5709 193.453 25.9342 193.453 27.6693C193.453 29.4044 192.022 30.7677 190.201 30.7677ZM190.201 25.4384C188.901 25.4384 187.86 26.4299 187.86 27.6693C187.86 28.9086 188.901 29.9001 190.201 29.9001C191.502 29.9001 192.542 28.9086 192.542 27.6693C192.542 26.4299 191.502 25.4384 190.201 25.4384Z" fill="black"/>
<path d="M206.848 30.3958C208.428 30.3958 209.709 29.1751 209.709 27.6692C209.709 26.1634 208.428 24.9426 206.848 24.9426C205.268 24.9426 203.987 26.1634 203.987 27.6692C203.987 29.1751 205.268 30.3958 206.848 30.3958Z" fill="#74BD6C"/>
<path d="M206.848 30.7677C205.027 30.7677 203.597 29.4044 203.597 27.6693C203.597 25.9342 205.027 24.5709 206.848 24.5709C208.669 24.5709 210.099 25.9342 210.099 27.6693C210.099 29.4044 208.669 30.7677 206.848 30.7677ZM206.848 25.4384C205.547 25.4384 204.507 26.4299 204.507 27.6693C204.507 28.9086 205.547 29.9001 206.848 29.9001C208.148 29.9001 209.189 28.9086 209.189 27.6693C209.189 26.4299 208.148 25.4384 206.848 25.4384Z" fill="black"/>
<path d="M220.243 27.6692C220.243 26.182 221.544 24.9426 223.104 24.9426C224.665 24.9426 225.965 26.182 225.965 27.6692C225.965 29.1565 224.665 30.3958 223.104 30.3958C221.544 30.2719 220.243 29.1565 220.243 27.6692Z" fill="#74BD6C"/>
<path d="M223.104 30.7677C221.284 30.7677 219.853 29.4044 219.853 27.6693C219.853 25.9342 221.284 24.5709 223.104 24.5709C224.925 24.5709 226.356 25.9342 226.356 27.6693C226.356 29.4044 224.925 30.7677 223.104 30.7677ZM223.104 25.4384C221.804 25.4384 220.763 26.4299 220.763 27.6693C220.763 28.9086 221.804 29.9001 223.104 29.9001C224.405 29.9001 225.445 28.9086 225.445 27.6693C225.445 26.4299 224.405 25.4384 223.104 25.4384Z" fill="black"/>
<g opacity="0.1294">
<path d="M233.118 34.4858C232.858 34.2379 231.948 34.2379 232.208 34.2379C231.688 34.2379 231.167 34.2379 230.647 34.2379C228.436 34.114 226.355 34.114 224.145 33.99C217.642 33.7422 211.139 34.4858 204.507 34.3618C201.126 34.3618 197.874 34.4858 194.493 34.3618C191.892 34.3618 189.421 34.114 186.82 33.99C179.407 33.99 171.994 33.4943 164.581 33.6182C158.079 33.7422 151.706 33.6182 145.204 33.4943C140.001 33.4943 134.929 33.4943 129.727 33.4943C125.436 33.3704 121.144 33.7422 116.852 33.7422C107.489 33.8661 97.9949 33.8661 88.6313 33.6182C85.2499 33.6182 81.7386 33.4943 78.3572 33.6182C75.4961 33.7422 72.635 33.6182 69.7738 33.7422C66.5226 33.7422 63.4013 33.7422 60.1501 33.7422C56.3786 33.6182 52.6071 33.4943 48.8356 33.6182C45.7144 33.6182 42.7232 33.8661 39.602 33.99C36.7408 33.99 34.0098 33.99 31.1486 33.99C29.0678 33.8661 26.987 33.8661 24.9062 33.8661C23.8658 33.99 22.5653 33.6182 21.6549 34.3618C20.4844 35.4773 21.2648 37.4603 22.9554 37.4603C25.4264 37.5842 27.8974 37.4603 30.3683 37.7081C34.0098 37.8321 37.6512 37.8321 41.2926 37.7081C45.7144 37.4603 50.1361 37.3363 54.6879 37.3363C58.0692 37.4603 61.5806 37.4603 64.962 37.4603C68.7334 37.5842 72.5049 37.5842 76.2764 37.4603C78.7474 37.3363 81.2184 37.2124 83.6893 37.3363C90.582 37.4603 97.3447 37.7081 104.237 37.5842C111.13 37.5842 118.023 37.7081 124.916 37.3363C131.028 37.3363 137.27 37.3363 143.383 37.4603C152.486 37.7081 161.72 37.4603 170.824 37.4603C176.416 37.5842 181.878 37.7081 187.47 37.7081C191.632 37.8321 195.793 38.0799 199.955 37.956C203.336 37.8321 206.588 37.8321 209.969 37.7081C211.92 37.5842 214.001 37.3363 215.951 37.3363C221.153 37.0885 226.355 37.2124 231.558 37.3363C232.078 37.3363 232.728 37.3363 233.118 36.8406C234.159 36.2209 234.028 34.9815 233.118 34.4858Z" fill="black"/>
</g>
<g clip-path="url(#clip6_23_1402)">
<path d="M222.82 159.378C227.662 164.152 232.504 168.772 237.502 173.546C240.001 176.01 242.657 178.474 245.468 180.784C247.03 182.016 248.592 183.094 250.466 183.094C252.34 183.094 254.215 181.554 254.215 179.552C254.215 178.012 253.121 176.626 252.028 175.548C244.219 167.54 236.097 159.84 227.662 152.602C226.257 154.758 224.695 157.068 222.82 159.378Z" fill="#4E6075"/>
<path d="M250.466 183.556C248.436 183.556 246.718 182.478 244.999 181.092C242.188 178.936 239.533 176.318 237.034 173.854L222.352 159.686C222.196 159.532 222.196 159.224 222.352 158.916C224.226 156.606 225.788 154.296 227.194 152.14C227.35 151.986 227.506 151.986 227.662 151.832C227.818 151.832 227.975 151.832 228.131 151.986C236.565 159.224 244.687 167.078 252.497 175.086C253.59 176.318 254.839 177.704 254.839 179.398C254.839 180.476 254.371 181.4 253.59 182.17C252.809 183.094 251.559 183.556 250.466 183.556ZM223.601 159.378L237.815 173.238C240.314 175.702 242.969 178.166 245.78 180.322C247.186 181.4 248.748 182.478 250.466 182.478C251.247 182.478 252.184 182.17 252.809 181.554C253.434 180.938 253.746 180.322 253.746 179.552C253.746 178.166 252.809 177.088 251.716 176.01C244.218 168.156 236.097 160.61 227.975 153.526C226.569 155.374 225.163 157.222 223.601 159.378Z" fill="black"/>
<path d="M233.344 137.125C233.344 153.292 220.171 166.403 203.916 166.403C187.661 166.403 174.489 153.292 174.489 137.125C174.489 120.959 187.661 107.848 203.916 107.848C220.171 107.848 233.344 120.959 233.344 137.125Z" fill="white" fill-opacity="0.77" stroke="black"/>
<path fill-rule="evenodd" clip-rule="evenodd" d="M203.916 159.903C216.612 159.903 226.844 149.672 226.844 137.125C226.844 124.579 216.612 114.348 203.916 114.348C191.22 114.348 180.989 124.579 180.989 137.125C180.989 149.672 191.22 159.903 203.916 159.903ZM203.916 166.903C220.445 166.903 233.844 153.571 233.844 137.125C233.844 120.68 220.445 107.348 203.916 107.348C187.388 107.348 173.989 120.68 173.989 137.125C173.989 153.571 187.388 166.903 203.916 166.903Z" fill="#638ADC"/>
<path d="M203.765 167.694C186.74 167.694 172.839 153.988 172.839 137.048C172.839 120.262 186.74 106.556 203.765 106.556C220.79 106.556 234.691 120.262 234.691 137.048C234.847 153.988 220.946 167.694 203.765 167.694ZM203.765 107.788C187.365 107.788 174.089 120.878 174.089 137.048C174.089 153.218 187.521 166.462 203.921 166.462C220.321 166.462 233.754 153.218 233.754 137.048C233.598 120.878 220.321 107.788 203.765 107.788ZM203.765 160.456C190.645 160.456 180.024 149.984 180.024 137.048C180.024 124.112 190.645 113.64 203.765 113.64C216.885 113.64 227.506 124.112 227.506 137.048C227.506 149.984 216.885 160.456 203.765 160.456ZM181.274 137.048C181.274 149.214 191.426 159.224 203.765 159.224C216.104 159.224 226.257 149.214 226.257 137.048C226.257 124.882 216.104 114.872 203.765 114.872C191.426 114.872 181.274 124.882 181.274 137.048Z" fill="black"/>
<path d="M189.552 136.74C189.552 135.508 190.645 134.43 191.895 134.43C193.144 134.43 194.238 135.508 194.238 136.74C194.238 137.972 193.144 139.05 191.895 139.05C190.645 139.05 189.552 138.126 189.552 136.74Z" fill="#638ADC"/>
<path d="M191.895 139.666C190.333 139.666 188.927 138.28 188.927 136.74C188.927 135.2 190.333 133.814 191.895 133.814C193.457 133.814 194.862 135.2 194.862 136.74C194.862 138.434 193.613 139.666 191.895 139.666ZM191.895 135.046C190.958 135.046 190.02 135.816 190.02 136.894C190.02 137.818 190.801 138.742 191.895 138.742C192.832 138.742 193.769 137.972 193.769 136.894C193.769 135.816 192.988 135.046 191.895 135.046Z" fill="black"/>
<path d="M201.11 136.74C201.11 135.508 202.203 134.43 203.453 134.43C204.702 134.43 205.796 135.508 205.796 136.74C205.796 137.972 204.702 139.05 203.453 139.05C202.203 139.204 201.11 138.126 201.11 136.74Z" fill="#638ADC"/>
<path d="M203.453 139.666C201.891 139.666 200.485 138.28 200.485 136.74C200.485 135.2 201.891 133.814 203.453 133.814C205.015 133.814 206.42 135.2 206.42 136.74C206.42 138.434 205.171 139.666 203.453 139.666ZM203.453 135.046C202.516 135.046 201.579 135.816 201.579 136.894C201.579 137.818 202.359 138.742 203.453 138.742C204.39 138.742 205.327 137.972 205.327 136.894C205.327 135.816 204.546 135.046 203.453 135.046Z" fill="black"/>
<path d="M212.668 136.74C212.668 135.508 213.761 134.43 215.011 134.43C216.26 134.43 217.354 135.508 217.354 136.74C217.354 137.972 216.26 139.05 215.011 139.05C213.761 139.204 212.668 138.126 212.668 136.74Z" fill="#638ADC"/>
<path d="M215.011 139.666C213.449 139.666 212.043 138.28 212.043 136.74C212.043 135.2 213.449 133.814 215.011 133.814C216.573 133.814 217.979 135.2 217.979 136.74C217.979 138.434 216.729 139.666 215.011 139.666ZM215.011 135.046C214.074 135.046 213.137 135.816 213.137 136.894C213.137 137.818 213.918 138.742 215.011 138.742C215.948 138.742 216.885 137.972 216.885 136.894C216.885 135.816 216.104 135.046 215.011 135.046Z" fill="black"/>
<path d="M226.725 160.302C226.569 160.302 226.569 160.148 226.569 159.994L227.038 158.146C227.038 157.992 227.194 157.992 227.35 157.992C227.506 157.992 227.506 158.146 227.506 158.3L227.038 160.148C226.881 160.148 226.881 160.302 226.725 160.302Z" fill="black"/>
<path d="M229.38 163.382C229.224 163.382 229.224 163.382 229.38 163.382C229.224 163.382 229.224 163.228 229.224 163.228C229.537 161.072 229.849 158.916 230.318 156.76C230.318 156.606 230.474 156.606 230.474 156.606C230.63 156.606 230.63 156.76 230.63 156.76C230.161 158.916 229.849 161.072 229.537 163.228C229.537 163.382 229.38 163.382 229.38 163.382Z" fill="black"/>
<path d="M232.66 166.616C232.504 166.616 232.504 166.462 232.504 166.462C232.504 165.384 232.66 163.536 232.817 161.996C232.973 161.072 232.973 160.148 232.973 159.686C232.973 159.532 233.129 159.532 233.129 159.532C233.285 159.532 233.285 159.686 233.285 159.686C233.285 160.148 233.129 161.072 233.129 161.996C232.973 163.536 232.817 165.384 232.817 166.462L232.66 166.616Z" fill="black"/>
<path d="M236.097 169.696C235.94 169.696 235.94 169.542 235.94 169.542L235.784 161.842C235.784 161.688 235.94 161.688 235.94 161.688C236.097 161.688 236.097 161.842 236.097 161.842L236.253 169.542L236.097 169.696Z" fill="black"/>
<path d="M239.22 173.084C239.064 173.084 239.064 172.93 239.064 172.93L238.752 164.922C238.752 164.768 238.908 164.768 238.908 164.768C239.064 164.768 239.064 164.922 239.064 164.922L239.377 172.93C239.533 172.93 239.377 173.084 239.22 173.084Z" fill="black"/>
<path d="M242.5 175.856C242.344 175.856 242.344 175.702 242.344 175.702L241.876 168.156C241.876 168.002 241.876 168.002 242.032 168.002C242.188 168.002 242.188 168.002 242.188 168.156L242.657 175.702C242.813 175.856 242.657 175.856 242.5 175.856Z" fill="black"/>
<path d="M245.78 178.628C245.624 178.628 245.624 178.628 245.624 178.474L244.999 171.236C244.999 171.082 244.999 171.082 245.156 171.082C245.312 171.082 245.312 171.082 245.312 171.236L245.937 178.474C246.093 178.474 245.937 178.628 245.78 178.628Z" fill="black"/>
<path d="M248.904 180.938C248.748 180.938 248.748 180.938 248.748 180.784L247.967 174.316C247.967 174.162 247.967 174.162 248.123 174.162C248.279 174.162 248.279 174.162 248.279 174.316L248.904 180.784C249.06 180.784 249.06 180.938 248.904 180.938Z" fill="black"/>
<path d="M251.872 180.63C251.716 180.63 251.716 180.63 251.716 180.476L251.247 177.55C251.247 177.396 251.247 177.396 251.403 177.396C251.559 177.396 251.559 177.396 251.559 177.55L252.028 180.476C252.184 180.476 252.028 180.63 251.872 180.63Z" fill="black"/>
<g opacity="0.1294">
<path d="M222.664 148.444C221.727 147.982 221.102 148.598 220.478 149.214C219.697 149.984 218.916 150.6 218.135 151.37C217.978 151.524 217.51 151.832 217.354 151.832C215.479 152.91 214.386 153.372 213.137 153.834C212.668 153.988 209.857 155.066 207.982 155.374C207.045 155.528 205.952 155.528 205.015 155.528C204.078 155.528 203.14 155.528 202.047 155.374C201.891 155.374 201.891 155.374 201.891 155.374C201.735 155.374 201.735 155.374 201.578 155.374C199.548 155.066 195.799 153.68 194.394 152.91C193.3 152.294 192.207 151.832 191.114 151.062C189.708 149.83 188.615 148.444 187.209 147.366C187.365 147.52 187.365 147.52 187.521 147.674C186.74 146.904 186.897 147.058 186.116 145.826C185.022 143.978 184.71 143.67 184.241 141.822C184.085 141.206 183.929 140.744 183.773 140.128C183.773 139.666 183.617 139.204 183.304 138.896C182.992 137.048 182.836 135.354 182.679 133.044C182.679 131.35 180.18 131.35 180.18 133.044C180.649 136.586 180.649 138.588 181.43 142.13C181.43 142.438 181.586 142.746 181.742 142.9C182.367 145.056 183.148 146.596 184.398 148.906C185.335 150.138 185.335 149.984 186.74 151.524C187.521 152.294 188.146 153.064 188.927 153.834C188.615 154.45 188.771 155.22 189.552 155.682C191.27 156.606 192.832 157.838 194.55 158.454C197.986 159.84 201.891 160.302 205.639 159.686C207.045 159.378 208.451 159.378 209.857 158.916C210.481 158.762 211.106 158.608 211.418 158.146C211.418 157.992 211.575 157.992 211.575 157.838C213.449 157.376 215.323 156.606 216.885 155.528C218.603 154.45 220.165 153.064 221.727 151.678C222.196 151.216 222.977 150.754 223.289 150.138C223.445 149.522 223.133 148.752 222.664 148.444Z" fill="black"/>
</g>
<g opacity="0.1294">
<path d="M231.567 156.298C231.567 156.144 231.567 155.836 231.567 155.682C231.098 154.142 229.068 154.142 228.443 155.22C227.818 155.99 227.038 156.606 226.257 157.222C225.788 157.684 225.632 157.684 224.538 158.454C224.226 158.608 223.914 159.07 223.758 159.378C223.445 160.456 224.382 161.38 225.319 161.534C225.319 162.612 226.881 163.382 227.662 162.458C229.224 161.226 230.63 159.686 232.036 158.454C232.817 157.53 232.348 156.606 231.567 156.298Z" fill="black"/>
</g>
</g>
<defs>
<clipPath id="clip0_23_1402">
<rect width="59.9851" height="52.3813" fill="white" transform="translate(31.1927 46.1553)"/>
</clipPath>
<clipPath id="clip1_23_1402">
<rect width="59.9851" height="52.3813" fill="white" transform="translate(31.1927 104.451)"/>
</clipPath>
<clipPath id="clip2_23_1402">
<rect width="59.9851" height="52.3813" fill="white" transform="translate(98.7816 46.1553)"/>
</clipPath>
<clipPath id="clip3_23_1402">
<rect width="59.9851" height="52.3813" fill="white" transform="translate(98.7816 104.451)"/>
</clipPath>
<clipPath id="clip4_23_1402">
<rect width="59.9851" height="52.3813" fill="white" transform="translate(166.37 46.1553)"/>
</clipPath>
<clipPath id="clip5_23_1402">
<rect width="59.9851" height="52.3813" fill="white" transform="translate(166.37 104.451)"/>
</clipPath>
<clipPath id="clip6_23_1402">
<rect width="82" height="77" fill="white" transform="translate(172.839 106.556)"/>
</clipPath>
</defs>
</svg>