<svg width="260" height="190" viewBox="0 0 260 190" fill="none" xmlns="http://www.w3.org/2000/svg"><script xmlns=""/>
<g clip-path="url(#clip0_139_28)">
<g clip-path="url(#clip1_139_28)">
<path d="M257.374 44.8384C258.541 37.9449 253.684 31.4456 246.525 30.3218C239.366 29.198 232.617 33.8753 231.45 40.7689C230.283 47.6624 235.14 54.1617 242.299 55.2855C249.458 56.4093 256.207 51.732 257.374 44.8384Z" fill="#74BD6C"/>
<path d="M244.411 55.8136C236.972 55.8136 230.911 49.9769 230.911 42.8136C230.911 35.6503 236.972 29.8136 244.411 29.8136C251.849 29.8136 257.911 35.6503 257.911 42.8136C257.911 49.9769 251.849 55.8136 244.411 55.8136ZM244.411 30.5211C237.339 30.5211 231.645 36.0041 231.645 42.8136C231.645 49.6231 237.431 55.1061 244.411 55.1061C251.39 55.1061 257.176 49.5347 257.176 42.8136C257.176 36.0041 251.482 30.5211 244.411 30.5211Z" fill="#4E6075"/>
<path d="M237.523 40.868L239.635 38.7455L242.941 43.1673L247.625 35.6503L250.288 37.5958L243.217 48.1197L237.523 40.868Z" fill="white"/>
<path d="M243.217 48.4734C243.125 48.4734 243.033 48.385 242.941 48.385L237.247 41.0449C237.156 40.9564 237.156 40.6911 237.247 40.6027L239.36 38.5687C239.452 38.4802 239.543 38.4802 239.635 38.4802C239.727 38.4802 239.819 38.5687 239.911 38.6571L242.849 42.6367L247.258 35.5619C247.349 35.4734 247.349 35.385 247.533 35.385C247.625 35.385 247.717 35.385 247.809 35.4734L250.472 37.419C250.656 37.5075 250.656 37.6843 250.564 37.8612L243.492 48.385C243.492 48.385 243.309 48.4734 243.217 48.4734ZM237.982 40.868L243.217 47.5891L249.829 37.6843L247.809 36.1809L243.309 43.4326C243.217 43.5211 243.125 43.6095 243.033 43.6095C242.941 43.6095 242.849 43.5211 242.758 43.4326L239.727 39.3646L237.982 40.868Z" fill="#4E6075"/>
<g opacity="0.1294">
<path d="M256.717 46.2625C256.166 46.0857 255.982 46.6163 255.707 46.8816C255.339 47.4122 254.972 47.8544 254.605 48.385C254.421 48.6503 254.237 48.9156 253.962 49.0925C253.594 49.4462 253.227 49.7115 252.86 50.0653C252.676 50.2421 252.492 50.5074 252.217 50.6843C252.217 50.6843 252.217 50.6843 252.125 50.6843L252.033 50.7727C252.033 50.7727 252.033 50.7727 251.941 50.8612C251.298 51.3033 250.564 51.7455 249.921 52.0993C249.554 52.3646 246.615 53.1605 246.247 53.0721C244.319 53.2489 243.768 53.0721 242.023 52.7183C240.554 52.3646 240.37 52.2761 239.268 51.834C239.268 51.834 239.176 51.834 239.176 51.834C238.349 51.4802 237.523 51.1265 236.788 50.6843C235.962 50.2421 235.778 49.7999 234.768 49.0925C234.768 49.0925 234.768 49.0925 234.676 49.004C234.401 48.7387 234.033 48.385 233.666 48.385C232.931 48.385 232.564 49.2693 233.115 49.7999C234.033 50.5074 234.768 51.5687 235.778 52.1877C237.064 52.9836 238.349 53.6911 239.727 54.3102C241.196 54.8408 242.758 55.1061 244.319 55.2829C245.421 55.3714 246.615 55.1061 247.625 54.8408C249.003 54.487 250.38 54.0448 251.574 53.2489C252.125 52.8952 252.86 52.5414 253.227 51.9224C253.411 51.834 254.421 50.6843 254.605 50.419C255.431 49.6231 256.074 48.7387 256.717 47.8544C256.901 47.5891 257.176 47.3238 257.176 46.97C257.268 46.7047 257.084 46.351 256.717 46.2625Z" fill="#4E6075"/>
</g>
<g opacity="0.1294">
<path d="M234.768 49.0924L234.86 49.1809C234.768 49.0924 234.768 49.0924 234.768 49.0924C234.676 49.004 234.676 49.004 234.768 49.0924C234.768 49.0924 234.676 49.004 234.768 49.0924Z" fill="#4E6075"/>
</g>
</g>
<path d="M233.494 22.4252H14.0799V172.366H233.494V22.4252Z" fill="white"/>
<path d="M233.359 172.75H14.0799C13.8112 172.75 13.5424 172.494 13.5424 172.238V22.4251C13.5424 22.1691 13.8112 21.913 14.0799 21.913H233.494C233.763 21.913 234.031 22.1691 234.031 22.4251V172.366C233.897 172.622 233.628 172.75 233.359 172.75ZM14.6173 171.854H232.956V22.9373H14.6173V171.854Z" fill="black"/>
<path d="M233.494 14.8705H14.0799V27.8031H233.494V14.8705Z" fill="#4E6075"/>
<path d="M233.359 28.3152H14.0799C13.8111 28.3152 13.5424 28.0591 13.5424 27.803V14.8705C13.5424 14.6144 13.8111 14.3583 14.0799 14.3583H233.494C233.762 14.3583 234.031 14.6144 234.031 14.8705V27.803C233.897 28.0591 233.628 28.3152 233.359 28.3152ZM14.6173 27.2909H232.956V15.3826H14.6173V27.2909Z" fill="black"/>
<path d="M188.348 24.2177C189.981 24.2177 191.304 22.9565 191.304 21.4007C191.304 19.845 189.981 18.5837 188.348 18.5837C186.715 18.5837 185.392 19.845 185.392 21.4007C185.392 22.9565 186.715 24.2177 188.348 24.2177Z" fill="#74BD6C"/>
<path d="M188.348 24.602C186.467 24.602 184.989 23.1935 184.989 21.4008C184.989 19.6082 186.467 18.1997 188.348 18.1997C190.229 18.1997 191.707 19.6082 191.707 21.4008C191.707 23.1935 190.229 24.602 188.348 24.602ZM188.348 19.096C187.004 19.096 185.929 20.1204 185.929 21.4008C185.929 22.6813 187.004 23.7057 188.348 23.7057C189.692 23.7057 190.766 22.6813 190.766 21.4008C190.766 20.1204 189.692 19.096 188.348 19.096Z" fill="black"/>
<path d="M205.546 24.2177C207.179 24.2177 208.502 22.9565 208.502 21.4007C208.502 19.845 207.179 18.5837 205.546 18.5837C203.914 18.5837 202.59 19.845 202.59 21.4007C202.59 22.9565 203.914 24.2177 205.546 24.2177Z" fill="#74BD6C"/>
<path d="M205.546 24.602C203.665 24.602 202.187 23.1935 202.187 21.4008C202.187 19.6082 203.665 18.1997 205.546 18.1997C207.428 18.1997 208.906 19.6082 208.906 21.4008C208.906 23.1935 207.428 24.602 205.546 24.602ZM205.546 19.096C204.203 19.096 203.128 20.1204 203.128 21.4008C203.128 22.6813 204.203 23.7057 205.546 23.7057C206.89 23.7057 207.965 22.6813 207.965 21.4008C207.965 20.1204 206.89 19.096 205.546 19.096Z" fill="black"/>
<path d="M219.386 21.4007C219.386 19.8642 220.729 18.5837 222.342 18.5837C223.954 18.5837 225.298 19.8642 225.298 21.4007C225.298 22.9373 223.954 24.2177 222.342 24.2177C220.729 24.0897 219.386 22.9373 219.386 21.4007Z" fill="#74BD6C"/>
<path d="M222.342 24.602C220.461 24.602 218.983 23.1935 218.983 21.4008C218.983 19.6082 220.461 18.1997 222.342 18.1997C224.223 18.1997 225.701 19.6082 225.701 21.4008C225.701 23.1935 224.223 24.602 222.342 24.602ZM222.342 19.096C220.998 19.096 219.923 20.1204 219.923 21.4008C219.923 22.6813 220.998 23.7057 222.342 23.7057C223.685 23.7057 224.76 22.6813 224.76 21.4008C224.76 20.1204 223.685 19.096 222.342 19.096Z" fill="black"/>
<g opacity="0.1294">
<path d="M232.688 28.4432C232.419 28.1871 231.478 28.1871 231.747 28.1871C231.21 28.1871 230.672 28.1871 230.135 28.1871C227.851 28.0591 225.701 28.0591 223.417 27.931C216.699 27.6749 209.98 28.4432 203.128 28.3151C199.634 28.3151 196.275 28.4432 192.782 28.3151C190.095 28.3151 187.542 28.0591 184.855 27.931C177.196 27.931 169.537 27.4188 161.879 27.5469C155.161 27.6749 148.577 27.5469 141.859 27.4188C136.484 27.4188 131.244 27.4188 125.869 27.4188C121.436 27.2908 117.002 27.6749 112.568 27.6749C102.894 27.803 93.085 27.803 83.4109 27.5469C79.9175 27.5469 76.2897 27.4188 72.7963 27.5469C69.8403 27.6749 66.8844 27.5469 63.9284 27.6749C60.5693 27.6749 57.3446 27.6749 53.9856 27.6749C50.0891 27.5469 46.1925 27.4188 42.296 27.5469C39.0713 27.5469 35.981 27.803 32.7563 27.931C29.8003 27.931 26.9787 27.931 24.0227 27.931C21.8729 27.803 19.7231 27.803 17.5733 27.803C16.4984 27.931 15.1548 27.5469 14.2143 28.3151C13.005 29.4676 13.8112 31.5163 15.5579 31.5163C18.1108 31.6443 20.6637 31.5163 23.2166 31.7724C26.9787 31.9004 30.7409 31.9004 34.503 31.7724C39.0713 31.5163 43.6397 31.3882 48.3423 31.3882C51.8358 31.5163 55.4636 31.5163 58.957 31.5163C62.8535 31.6443 66.75 31.6443 70.6465 31.5163C73.1994 31.3882 75.7523 31.2602 78.3052 31.3882C85.4264 31.5163 92.4132 31.7724 99.5344 31.6443C106.656 31.6443 113.777 31.7724 120.898 31.3882C127.213 31.3882 133.663 31.3882 139.978 31.5163C149.383 31.7724 158.923 31.5163 168.328 31.5163C174.106 31.6443 179.749 31.7724 185.526 31.7724C189.826 31.9004 194.126 32.1565 198.425 32.0285C201.919 31.9004 205.278 31.9004 208.771 31.7724C210.787 31.6443 212.936 31.3882 214.952 31.3882C220.326 31.1321 225.701 31.2602 231.075 31.3882C231.613 31.3882 232.285 31.3882 232.688 30.8761C233.763 30.2358 233.628 28.9554 232.688 28.4432Z" fill="black"/>
</g>
<g clip-path="url(#clip2_139_28)">
<path d="M64.6371 134.721C65.5447 129.683 61.7669 124.934 56.199 124.113C50.6312 123.291 45.3817 126.709 44.4741 131.747C43.5664 136.785 47.3442 141.534 52.9121 142.355C58.4799 143.177 63.7294 139.759 64.6371 134.721Z" fill="#74BD6C"/>
<path d="M54.5545 142.741C48.7688 142.741 44.0545 138.476 44.0545 133.241C44.0545 128.007 48.7688 123.741 54.5545 123.741C60.3402 123.741 65.0545 128.007 65.0545 133.241C65.0545 138.476 60.3402 142.741 54.5545 142.741ZM54.5545 124.258C49.0545 124.258 44.626 128.265 44.626 133.241C44.626 138.218 49.126 142.224 54.5545 142.224C59.9831 142.224 64.4831 138.153 64.4831 133.241C64.4831 128.265 60.0545 124.258 54.5545 124.258Z" fill="#4E6075"/>
<path d="M49.1974 131.82L50.8403 130.268L53.4117 133.5L57.0545 128.007L59.126 129.428L53.626 137.119L49.1974 131.82Z" fill="white"/>
<path d="M53.626 137.377C53.5545 137.377 53.4831 137.313 53.4117 137.313L48.9831 131.949C48.9117 131.884 48.9117 131.69 48.9831 131.626L50.626 130.139C50.6974 130.075 50.7688 130.075 50.8403 130.075C50.9117 130.075 50.9831 130.139 51.0545 130.204L53.3403 133.112L56.7688 127.942C56.8403 127.877 56.8403 127.813 56.9831 127.813C57.0545 127.813 57.126 127.813 57.1974 127.877L59.2688 129.299C59.4117 129.364 59.4117 129.493 59.3403 129.622L53.8403 137.313C53.8403 137.313 53.6974 137.377 53.626 137.377ZM49.5545 131.82L53.626 136.731L58.7688 129.493L57.1974 128.394L53.6974 133.694C53.626 133.758 53.5545 133.823 53.4831 133.823C53.4117 133.823 53.3403 133.758 53.2688 133.694L50.9117 130.721L49.5545 131.82Z" fill="#4E6075"/>
<g opacity="0.1294">
<path d="M64.126 135.762C63.6974 135.632 63.5545 136.02 63.3403 136.214C63.0545 136.602 62.7688 136.925 62.4831 137.313C62.3403 137.507 62.1974 137.7 61.9831 137.83C61.6974 138.088 61.4117 138.282 61.126 138.541C60.9831 138.67 60.8403 138.864 60.626 138.993C60.626 138.993 60.626 138.993 60.5545 138.993L60.4831 139.058C60.4831 139.058 60.4831 139.058 60.4117 139.122C59.9117 139.445 59.3403 139.768 58.8403 140.027C58.5545 140.221 56.2688 140.802 55.9831 140.738C54.4831 140.867 54.0545 140.738 52.6974 140.479C51.5545 140.221 51.4117 140.156 50.5545 139.833C50.5545 139.833 50.4831 139.833 50.4831 139.833C49.8403 139.575 49.1974 139.316 48.626 138.993C47.9831 138.67 47.8403 138.347 47.0545 137.83C47.0545 137.83 47.0545 137.83 46.9831 137.765C46.7688 137.571 46.4831 137.313 46.1974 137.313C45.626 137.313 45.3403 137.959 45.7688 138.347C46.4831 138.864 47.0545 139.639 47.8403 140.092C48.8403 140.673 49.8403 141.19 50.9117 141.643C52.0545 142.03 53.2688 142.224 54.4831 142.354C55.3403 142.418 56.2688 142.224 57.0545 142.03C58.126 141.772 59.1974 141.449 60.126 140.867C60.5545 140.609 61.126 140.35 61.4117 139.898C61.5545 139.833 62.3403 138.993 62.4831 138.799C63.126 138.217 63.626 137.571 64.126 136.925C64.2688 136.731 64.4831 136.537 64.4831 136.279C64.5545 136.085 64.4117 135.826 64.126 135.762Z" fill="#4E6075"/>
</g>
<g opacity="0.1294">
<path d="M47.0545 137.83L47.126 137.894C47.0545 137.83 47.0545 137.83 47.0545 137.83C46.9831 137.765 46.9831 137.765 47.0545 137.83C47.0545 137.83 46.9831 137.765 47.0545 137.83Z" fill="#4E6075"/>
</g>
</g>
<g clip-path="url(#clip3_139_28)">
<path d="M39.6718 102.527C40.6227 96.6944 36.6649 91.195 30.8319 90.2441C24.9989 89.2932 19.4995 93.2509 18.5486 99.0839C17.5977 104.917 21.5555 110.416 27.3885 111.367C33.2215 112.318 38.7209 108.36 39.6718 102.527Z" fill="#74BD6C"/>
<path d="M29.1091 111.814C23.0479 111.814 18.1091 106.875 18.1091 100.814C18.1091 94.7529 23.0479 89.8141 29.1091 89.8141C35.1704 89.8141 40.1091 94.7529 40.1091 100.814C40.1091 106.875 35.1704 111.814 29.1091 111.814ZM29.1091 90.4127C23.3472 90.4127 18.7078 95.0522 18.7078 100.814C18.7078 106.576 23.4221 111.215 29.1091 111.215C34.7962 111.215 39.5105 106.501 39.5105 100.814C39.5105 95.0522 34.871 90.4127 29.1091 90.4127Z" fill="#4E6075"/>
<path d="M23.4969 99.1678L25.218 97.3719L27.9118 101.113L31.7282 94.7528L33.8982 96.3991L28.1363 105.304L23.4969 99.1678Z" fill="white"/>
<path d="M28.1363 105.603C28.0615 105.603 27.9867 105.528 27.9118 105.528L23.2724 99.3174C23.1976 99.2426 23.1976 99.0181 23.2724 98.9433L24.9935 97.2222C25.0683 97.1474 25.1431 97.1474 25.218 97.1474C25.2928 97.1474 25.3676 97.2222 25.4425 97.297L27.837 100.664L31.4289 94.678C31.5037 94.6032 31.5037 94.5283 31.6533 94.5283C31.7282 94.5283 31.803 94.5283 31.8778 94.6032L34.0479 96.2494C34.1976 96.3242 34.1976 96.4739 34.1227 96.6236L28.3608 105.528C28.3608 105.528 28.2112 105.603 28.1363 105.603ZM23.871 99.1678L28.1363 104.855L33.5241 96.4739L31.8778 95.2018L28.2112 101.338C28.1363 101.413 28.0615 101.488 27.9867 101.488C27.9118 101.488 27.837 101.413 27.7622 101.338L25.2928 97.8957L23.871 99.1678Z" fill="#4E6075"/>
<g opacity="0.1294">
<path d="M39.1363 103.732C38.6874 103.583 38.5377 104.032 38.3132 104.256C38.0139 104.705 37.7146 105.079 37.4153 105.528C37.2656 105.753 37.1159 105.977 36.8914 106.127C36.5921 106.426 36.2928 106.651 35.9935 106.95C35.8438 107.1 35.6942 107.324 35.4697 107.474C35.4697 107.474 35.4697 107.474 35.3948 107.474L35.32 107.549C35.32 107.549 35.32 107.549 35.2452 107.624C34.7214 107.998 34.1227 108.372 33.5989 108.671C33.2996 108.896 30.905 109.569 30.6057 109.494C29.0343 109.644 28.5853 109.494 27.1636 109.195C25.9663 108.896 25.8166 108.821 24.9187 108.447C24.9187 108.447 24.8438 108.447 24.8438 108.447C24.1704 108.147 23.4969 107.848 22.8982 107.474C22.2248 107.1 22.0751 106.726 21.252 106.127C21.252 106.127 21.252 106.127 21.1772 106.052C20.9527 105.828 20.6533 105.528 20.354 105.528C19.7554 105.528 19.4561 106.277 19.905 106.726C20.6533 107.324 21.252 108.222 22.0751 108.746C23.1227 109.42 24.1704 110.018 25.2928 110.542C26.4901 110.991 27.7622 111.215 29.0343 111.365C29.9323 111.44 30.9051 111.215 31.7282 110.991C32.8506 110.692 33.9731 110.317 34.9459 109.644C35.3948 109.345 35.9935 109.045 36.2928 108.522C36.4425 108.447 37.2656 107.474 37.4153 107.249C38.0887 106.576 38.6125 105.828 39.1363 105.079C39.286 104.855 39.5105 104.63 39.5105 104.331C39.5853 104.107 39.4357 103.807 39.1363 103.732Z" fill="#4E6075"/>
</g>
<g opacity="0.1294">
<path d="M21.252 106.127L21.3268 106.202C21.252 106.127 21.252 106.127 21.252 106.127C21.1772 106.052 21.1772 106.052 21.252 106.127C21.252 106.127 21.1772 106.052 21.252 106.127Z" fill="#4E6075"/>
</g>
</g>
<g clip-path="url(#clip4_139_28)">
<path d="M218.773 43.4366C219.119 41.3155 217.68 39.3157 215.559 38.97C213.438 38.6242 211.438 40.0634 211.092 42.1845C210.746 44.3055 212.186 46.3053 214.307 46.6511C216.428 46.9969 218.428 45.5577 218.773 43.4366Z" fill="#74BD6C"/>
<path d="M214.932 46.8136C212.728 46.8136 210.932 45.0177 210.932 42.8136C210.932 40.6095 212.728 38.8136 214.932 38.8136C217.137 38.8136 218.932 40.6095 218.932 42.8136C218.932 45.0177 217.137 46.8136 214.932 46.8136ZM214.932 39.0313C212.837 39.0313 211.15 40.7184 211.15 42.8136C211.15 44.9088 212.864 46.5959 214.932 46.5959C217 46.5959 218.715 44.8816 218.715 42.8136C218.715 40.7184 217.028 39.0313 214.932 39.0313Z" fill="#4E6075"/>
<path d="M212.892 42.2149L213.517 41.5619L214.497 42.9224L215.885 40.6095L216.674 41.2081L214.579 44.4462L212.892 42.2149Z" fill="white"/>
<path d="M214.579 44.555C214.551 44.555 214.524 44.5278 214.497 44.5278L212.81 42.2693C212.783 42.2421 212.783 42.1605 212.81 42.1333L213.436 41.5074C213.463 41.4802 213.49 41.4802 213.517 41.4802C213.545 41.4802 213.572 41.5074 213.599 41.5346L214.47 42.7591L215.776 40.5823C215.803 40.555 215.803 40.5278 215.858 40.5278C215.885 40.5278 215.912 40.5278 215.939 40.555L216.728 41.1537C216.783 41.1809 216.783 41.2353 216.756 41.2897L214.66 44.5278C214.66 44.5278 214.606 44.555 214.579 44.555ZM213.028 42.2149L214.579 44.2829L216.538 41.2353L215.939 40.7727L214.606 43.004C214.579 43.0312 214.551 43.0584 214.524 43.0584C214.497 43.0584 214.47 43.0312 214.443 43.004L213.545 41.7523L213.028 42.2149Z" fill="#4E6075"/>
<g opacity="0.1294">
<path d="M218.579 43.8748C218.415 43.8204 218.361 43.9836 218.279 44.0652C218.171 44.2285 218.062 44.3646 217.953 44.5278C217.898 44.6095 217.844 44.6911 217.762 44.7455C217.654 44.8544 217.545 44.936 217.436 45.0448C217.381 45.0993 217.327 45.1809 217.245 45.2353C217.245 45.2353 217.245 45.2353 217.218 45.2353L217.191 45.2625C217.191 45.2625 217.191 45.2625 217.164 45.2897C216.973 45.4258 216.756 45.5618 216.565 45.6707C216.456 45.7523 215.585 45.9972 215.477 45.97C214.905 46.0244 214.742 45.97 214.225 45.8612C213.79 45.7523 213.735 45.7251 213.409 45.5891C213.409 45.5891 213.381 45.5891 213.381 45.5891C213.137 45.4802 212.892 45.3714 212.674 45.2353C212.429 45.0993 212.375 44.9632 212.075 44.7455C212.075 44.7455 212.075 44.7455 212.048 44.7183C211.966 44.6367 211.858 44.5278 211.749 44.5278C211.531 44.5278 211.422 44.7999 211.585 44.9632C211.858 45.1809 212.075 45.5074 212.375 45.6979C212.756 45.9428 213.137 46.1605 213.545 46.351C213.98 46.5142 214.443 46.5959 214.905 46.6503C215.232 46.6775 215.585 46.5959 215.885 46.5142C216.293 46.4054 216.701 46.2693 217.055 46.0244C217.218 45.9156 217.436 45.8067 217.545 45.6163C217.599 45.5891 217.898 45.2353 217.953 45.1537C218.198 44.9088 218.388 44.6367 218.579 44.3646C218.633 44.2829 218.715 44.2013 218.715 44.0925C218.742 44.0108 218.688 43.902 218.579 43.8748Z" fill="#4E6075"/>
</g>
<g opacity="0.1294">
<path d="M212.075 44.7455L212.102 44.7727C212.075 44.7455 212.075 44.7455 212.075 44.7455C212.048 44.7183 212.048 44.7183 212.075 44.7455C212.075 44.7455 212.048 44.7183 212.075 44.7455Z" fill="#4E6075"/>
</g>
</g>
<path d="M98.9889 73.8534C98.9889 50.8118 99.2699 30.7208 98.9889 9.08423C66.6746 9.08423 34.2197 10.0677 1.62443 9.64622C1.34343 31.7042 1.62443 52.4978 1.62443 73.8534C34.0792 73.9938 66.5341 73.8534 98.9889 73.8534Z" fill="white"/>
<path d="M45.4559 19.5133C45.1749 19.5133 44.8939 19.2323 44.8939 18.9513C44.8939 18.6703 45.1749 18.3893 45.4559 18.3893H91.1174C91.3984 18.3893 91.6794 18.6703 91.6794 18.9513C91.6794 19.2323 91.3984 19.5133 91.1174 19.5133H45.4559Z" fill="black"/>
<path d="M45.4559 26.5133C45.1749 26.5133 44.8939 26.2323 44.8939 25.9513C44.8939 25.6703 45.1749 25.3893 45.4559 25.3893H91.1174C91.3984 25.3893 91.6794 25.6703 91.6794 25.9513C91.6794 26.2323 91.3984 26.5133 91.1174 26.5133H45.4559Z" fill="black"/>
<path d="M1.62443 74.5558C1.34344 74.5558 1.06244 74.2748 1.06244 73.9938C1.06244 66.8285 1.06244 59.6631 1.06244 52.6383C1.06244 38.7291 0.921946 24.3984 1.06244 9.64619C1.06244 9.3652 1.34344 9.0842 1.62443 9.0842C20.451 9.2247 39.5586 9.08421 57.9637 8.80321C71.3109 8.80321 85.2202 8.52222 98.9889 8.52222C99.2699 8.52222 99.5508 8.80321 99.5508 9.0842C99.6913 23.4149 99.6913 36.9026 99.5508 51.2333C99.5508 58.5392 99.5508 66.126 99.5508 73.9938C99.5508 74.2748 99.2699 74.5558 98.9889 74.5558C82.8317 74.5558 66.3936 74.5558 50.3769 74.5558C34.3602 74.5558 17.9221 74.5558 1.62443 74.5558ZM2.04592 10.2082C1.90543 24.8199 2.04592 39.0101 2.04592 52.6383C2.04592 59.3821 2.04592 66.407 2.04592 73.4318C18.2031 73.4318 34.5007 73.4318 50.3769 73.4318C66.1126 73.4318 82.4102 73.4318 98.4269 73.4318C98.4269 65.7045 98.4269 58.3987 98.4269 51.2333C98.4269 37.0431 98.5674 23.6959 98.4269 9.64619C84.9392 9.64619 71.1704 9.78669 57.9637 9.92719C39.6991 10.2082 20.732 10.4892 2.04592 10.2082Z" fill="black"/>
<path d="M1.76492 3.04307C1.62442 5.71251 1.76492 8.24146 1.62442 11.3324C34.2197 11.3324 66.534 11.3324 98.9889 11.1919C98.9889 8.38195 98.8484 4.72903 98.8484 2.48108L1.76492 3.04307Z" fill="#4E6075"/>
<path d="M34.5007 11.8944C23.261 11.8944 12.3022 11.8944 1.62443 11.8944C1.48393 11.8944 1.34343 11.8944 1.20294 11.7539C1.06244 11.6134 1.06244 11.4729 1.06244 11.3324C1.06244 9.78691 1.20294 8.24144 1.20294 6.83647C1.20294 5.572 1.20294 4.30752 1.34343 2.90255C1.34343 2.62156 1.62443 2.34056 1.90542 2.34056L98.8484 2.05957C98.9889 2.05957 99.1294 2.05957 99.2699 2.20007C99.4104 2.34056 99.4104 2.48106 99.4104 2.62156C99.4104 3.74553 99.4104 5.01001 99.4104 6.55548C99.4104 8.24144 99.4104 9.9274 99.4104 11.3324C99.4104 11.6134 99.1294 11.8944 98.8484 11.8944C75.9474 11.8944 54.7323 11.8944 34.5007 11.8944ZM2.18642 10.7704C31.5503 10.7704 63.1621 10.7704 98.4269 10.6299C98.4269 9.36542 98.4269 7.81995 98.4269 6.41498C98.4269 5.1505 98.4269 4.02653 98.4269 3.04305L2.32691 3.60504C2.32691 4.72901 2.32691 5.85299 2.18642 6.97697C2.18642 8.10094 2.18642 9.36542 2.18642 10.7704Z" fill="black"/>
<path d="M50.2364 34.5144C49.9554 34.5144 49.6744 34.2334 49.6744 33.9524C49.6744 33.6714 49.9554 33.3904 50.2364 33.3904H56.1373C56.4183 33.3904 56.6993 33.6714 56.6993 33.9524C56.6993 34.2334 56.4183 34.5144 56.1373 34.5144H50.2364Z" fill="black"/>
<path d="M50.2364 46.878C49.9554 46.878 49.6744 46.597 49.6744 46.316C49.6744 46.035 49.9554 45.754 50.2364 45.754H56.1373C56.4183 45.754 56.6993 46.035 56.6993 46.316C56.6993 46.597 56.4183 46.878 56.1373 46.878H50.2364Z" fill="black"/>
<path d="M13.8477 58.8203C13.5667 58.8203 13.2857 58.5393 13.2857 58.2583C13.2857 57.9773 13.5667 57.6963 13.8477 57.6963H59.5092C59.7902 57.6963 60.0712 57.9773 60.0712 58.2583C60.0712 58.5393 59.7902 58.8203 59.5092 58.8203H13.8477Z" fill="black"/>
<path d="M38.5751 46.316C38.5751 36.4812 38.5751 27.9109 38.5751 18.6381C30.4263 18.6381 22.137 19.0596 13.9882 18.9191C13.8477 28.3324 13.9882 37.1837 13.9882 46.4565C22.137 46.316 30.4263 46.316 38.5751 46.316Z" fill="#638ADC"/>
<path d="M13.9882 46.7374C13.7072 46.7374 13.4262 46.4564 13.4262 46.1754C13.4262 43.0845 13.4262 40.1341 13.4262 37.0431C13.4262 31.1423 13.4262 24.9604 13.4262 18.638C13.4262 18.4975 13.4262 18.357 13.5667 18.2165C13.7072 18.076 13.8477 18.076 13.9882 18.076C18.7651 18.2165 23.542 18.076 28.1784 17.9355C31.5503 17.795 35.0627 17.795 38.5751 17.795C38.8561 17.795 39.1371 18.076 39.1371 18.357C39.1371 24.5389 39.1371 30.2993 39.1371 36.3407C39.1371 39.4316 39.1371 42.663 39.1371 46.0349C39.1371 46.3159 38.8561 46.5969 38.5751 46.5969C34.5007 46.5969 30.4263 46.5969 26.3519 46.5969C22.137 46.7374 18.0626 46.7374 13.9882 46.7374ZM14.4097 19.3405C14.4097 25.3819 14.4097 31.4233 14.4097 37.1836C14.4097 39.9936 14.4097 42.944 14.4097 45.754C18.3436 45.754 22.2775 45.754 26.2114 45.754C30.1453 45.754 34.0792 45.754 38.0132 45.754C38.0132 42.5225 38.0132 39.5721 38.0132 36.6216C38.0132 30.7208 38.0132 25.1009 38.0132 19.2C34.7817 19.2 31.4098 19.3405 28.1784 19.3405C23.6825 19.3405 19.0461 19.3405 14.4097 19.3405Z" fill="black"/>
<path d="M18.4841 43.787C18.4841 43.787 18.3436 43.787 18.4841 43.787C17.6411 43.225 16.9386 42.5225 16.2361 41.9606C16.2361 41.9606 16.2361 41.8201 16.2361 41.6796C16.2361 41.6796 16.3766 41.6796 16.5171 41.6796C17.2196 42.3821 17.9221 42.944 18.6246 43.506C18.7651 43.506 18.7651 43.6465 18.6246 43.787H18.4841Z" fill="black"/>
<path d="M23.4015 44.4896C20.8725 42.2416 18.3436 39.9937 15.8146 37.7457C15.6741 37.7457 15.6741 37.6052 15.8146 37.4647C15.8146 37.3243 15.9551 37.3243 16.0956 37.4647C18.6246 39.5722 21.1535 41.8202 23.542 44.0681C23.542 44.3491 23.542 44.3491 23.4015 44.4896C23.4015 44.4896 23.542 44.4896 23.4015 44.4896Z" fill="black"/>
<path d="M28.4594 44.4896C28.3189 44.4896 28.3189 44.4896 28.4594 44.4896L16.2361 34.2333C16.0956 34.2333 16.0956 34.0928 16.2361 33.9523C16.2361 33.8118 16.3766 33.8118 16.5171 33.9523L28.5999 44.2086C28.5999 44.2086 28.5999 44.3491 28.4594 44.4896Z" fill="black"/>
<path d="M33.0958 44.349C32.9553 44.349 32.9553 44.2085 33.0958 44.349C27.4759 39.4316 21.9965 34.6547 16.3766 30.1588C16.2361 30.1588 16.2361 30.0183 16.3766 29.8778C16.3766 29.7373 16.5171 29.7373 16.6576 29.8778C22.2775 34.3737 27.8974 39.1506 33.2363 43.9275C33.2363 44.068 33.2363 44.2085 33.0958 44.349C33.0958 44.349 33.0958 44.2085 33.0958 44.349Z" fill="black"/>
<path d="M36.6082 42.8036C36.6082 42.8036 36.4677 42.8036 36.6082 42.8036C29.7238 37.3242 22.8395 31.5639 16.2361 25.8035C16.0956 25.8035 16.0956 25.663 16.2361 25.5225C16.2361 25.382 16.3766 25.382 16.5171 25.5225C23.1205 31.2829 29.8643 37.0432 36.7487 42.5226C36.7487 42.5226 36.7487 42.6631 36.6082 42.8036C36.6082 42.8036 36.7487 42.8036 36.6082 42.8036Z" fill="black"/>
<path d="M36.4677 38.1673C36.4677 38.1673 36.3272 38.1673 36.4677 38.1673L16.2361 21.7291C16.0956 21.7291 16.0956 21.5886 16.2361 21.4481C16.2361 21.3076 16.3766 21.3076 16.5171 21.4481L36.6082 37.8863C36.6082 38.0268 36.6082 38.0268 36.4677 38.1673C36.4677 38.1673 36.6082 38.1673 36.4677 38.1673Z" fill="black"/>
<path d="M36.4677 33.5307C31.5503 29.3158 26.4924 25.1009 21.575 21.167C21.4345 21.167 21.4345 21.0265 21.575 20.886C21.575 20.7455 21.7155 20.7455 21.856 20.886C26.9139 24.9604 31.8313 29.0348 36.7487 33.2498C36.7487 33.2498 36.7487 33.3902 36.4677 33.5307C36.6082 33.5307 36.6082 33.5307 36.4677 33.5307Z" fill="black"/>
<path d="M36.4677 28.3324C36.4677 28.3324 36.3272 28.3324 36.4677 28.3324C33.3768 26.2249 30.4263 23.8365 27.7569 21.5885C27.6164 21.5885 27.6164 21.448 27.7569 21.3075C27.7569 21.167 27.8974 21.167 28.0379 21.3075C30.8478 23.696 33.7983 25.9439 36.7487 28.0514C36.8892 28.0514 36.8892 28.1919 36.7487 28.3324C36.6082 28.3324 36.4677 28.3324 36.4677 28.3324Z" fill="black"/>
<path d="M36.6082 24.1175C36.6082 24.1175 36.4677 24.1175 36.6082 24.1175C35.4842 23.134 34.3602 22.291 33.2363 21.5885C33.0958 21.5885 33.0958 21.448 33.2363 21.3075C33.2363 21.167 33.3768 21.167 33.5173 21.3075C34.6412 22.1505 35.7652 22.9935 36.7487 23.8365C36.7487 23.977 36.7487 23.977 36.6082 24.1175C36.6082 24.1175 36.7487 24.1175 36.6082 24.1175Z" fill="black"/>
<g opacity="0.1294">
<path d="M97.7244 10.9109C97.3029 10.7704 96.8814 10.7704 96.4599 10.9109H96.3194C84.6582 10.7704 72.8564 10.7704 61.1952 10.6299C53.0463 10.4894 45.038 10.2084 37.0297 10.4894C31.8313 10.4894 26.6329 10.7704 21.4345 10.7704C18.9056 10.7704 16.3766 10.9109 13.9882 11.0514C11.8807 11.0514 9.77326 10.9109 7.66581 11.0514C6.54183 11.0514 5.41785 11.0514 4.43438 10.9109C3.59139 10.7704 2.88891 10.4894 2.32692 10.7704C0.500459 11.4729 1.06245 14.2828 3.02941 14.2828C5.41785 14.5638 7.8063 14.5638 10.1948 14.5638C13.5667 14.7043 16.9386 14.5638 20.17 14.4233C27.3354 14.5638 34.5007 14.4233 41.6661 14.4233C47.4265 14.2828 53.0463 14.5638 58.8067 14.5638C65.6911 14.7043 72.5754 14.7043 79.4598 14.8448C84.9392 14.8448 90.559 14.7043 96.0384 14.8448C96.1789 14.8448 96.3194 14.8448 96.4599 14.8448C96.6004 14.8448 96.6004 14.8448 96.7409 14.9853C96.8814 14.9853 97.0219 14.9853 97.1624 14.9853C97.3029 14.9853 97.3029 14.9853 97.4434 14.9853C99.6913 14.7043 99.9723 11.4729 97.7244 10.9109Z" fill="black"/>
</g>
<path d="M134.597 102.546C134.597 79.5048 134.878 59.4138 134.597 37.7772C102.283 37.7772 69.8279 38.7607 37.2326 38.3392C36.9516 60.3972 37.2326 81.1908 37.2326 102.546C69.6874 102.687 102.142 102.546 134.597 102.546Z" fill="white"/>
<path d="M37.2326 103.249C36.9516 103.249 36.6706 102.968 36.6706 102.687C36.6706 95.5214 36.6706 88.356 36.6706 81.3312C36.6706 67.4219 36.5301 53.0913 36.6706 38.3391C36.6706 38.0581 36.9516 37.7771 37.2326 37.7771C56.0592 37.9176 75.1668 37.7771 93.5719 37.4961C106.919 37.4961 120.828 37.2151 134.597 37.2151C134.878 37.2151 135.159 37.4961 135.159 37.7771C135.3 52.1078 135.3 65.5955 135.159 79.9262C135.159 87.232 135.159 94.8189 135.159 102.687C135.159 102.968 134.878 103.249 134.597 103.249C118.44 103.249 102.002 103.249 85.9851 103.249C69.9684 103.249 53.5303 103.249 37.2326 103.249ZM37.6541 38.9011C37.5136 53.5127 37.6541 67.7029 37.6541 81.3312C37.6541 88.075 37.6541 95.0999 37.6541 102.125C53.8113 102.125 70.1089 102.125 85.9851 102.125C101.721 102.125 118.018 102.125 134.035 102.125C134.035 94.3974 134.035 87.0915 134.035 79.9262C134.035 65.736 134.176 52.3888 134.035 38.3391C120.547 38.3391 106.779 38.4796 93.5719 38.6201C75.3073 38.9011 56.3402 39.182 37.6541 38.9011Z" fill="black"/>
<path d="M37.3731 31.7358C37.2326 34.4053 37.3731 36.9342 37.2326 40.0251C69.8279 40.0251 102.142 40.0251 134.597 39.8846C134.597 37.0747 134.457 33.4218 134.457 31.1738L37.3731 31.7358Z" fill="#4E6075"/>
<path d="M70.1089 40.5871C58.8692 40.5871 47.9104 40.5871 37.2326 40.5871C37.0921 40.5871 36.9516 40.5871 36.8111 40.4466C36.6706 40.3061 36.6706 40.1656 36.6706 40.0251C36.6706 38.4797 36.8111 36.9342 36.8111 35.5292C36.8111 34.2647 36.8111 33.0003 36.9516 31.5953C36.9516 31.3143 37.2326 31.0333 37.5136 31.0333L134.457 30.7523C134.597 30.7523 134.738 30.7523 134.878 30.8928C135.019 31.0333 135.019 31.1738 135.019 31.3143C135.019 32.4383 135.019 33.7028 135.019 35.2482C135.019 36.9342 135.019 38.6202 135.019 40.0251C135.019 40.3061 134.738 40.5871 134.457 40.5871C111.556 40.5871 90.3405 40.5871 70.1089 40.5871ZM37.7946 39.4631C67.1585 39.4631 98.7703 39.4631 134.035 39.3226C134.035 38.0582 134.035 36.5127 134.035 35.1077C134.035 33.8433 134.035 32.7193 134.035 31.7358L37.9351 32.2978C37.9351 33.4218 37.9351 34.5457 37.7946 35.6697C37.7946 36.7937 37.7946 38.0582 37.7946 39.4631Z" fill="black"/>
<path d="M85.8446 63.2072C85.5636 63.2072 85.2826 62.9262 85.2826 62.6452C85.2826 62.3642 85.5636 62.0833 85.8446 62.0833H91.7455C92.0265 62.0833 92.3075 62.3642 92.3075 62.6452C92.3075 62.9262 92.0265 63.2072 91.7455 63.2072H85.8446Z" fill="black"/>
<path d="M85.8446 75.5709C85.5636 75.5709 85.2826 75.2899 85.2826 75.0089C85.2826 74.7279 85.5636 74.4469 85.8446 74.4469H91.7455C92.0265 74.4469 92.3075 74.7279 92.3075 75.0089C92.3075 75.2899 92.0265 75.5709 91.7455 75.5709H85.8446Z" fill="black"/>
<path d="M49.4559 87.5133C49.1749 87.5133 48.8939 87.2323 48.8939 86.9513C48.8939 86.6703 49.1749 86.3893 49.4559 86.3893H95.1174C95.3984 86.3893 95.6794 86.6703 95.6794 86.9513C95.6794 87.2323 95.3984 87.5133 95.1174 87.5133H49.4559Z" fill="black"/>
<path d="M49.4559 77.5133C49.1749 77.5133 48.8939 77.2323 48.8939 76.9513C48.8939 76.6703 49.1749 76.3893 49.4559 76.3893H95.1174C95.3984 76.3893 95.6794 76.6703 95.6794 76.9513C95.6794 77.2323 95.3984 77.5133 95.1174 77.5133H49.4559Z" fill="black"/>
<path d="M79.4559 47.5133C79.1749 47.5133 78.8939 47.2323 78.8939 46.9513C78.8939 46.6703 79.1749 46.3893 79.4559 46.3893H125.117C125.398 46.3893 125.679 46.6703 125.679 46.9513C125.679 47.2323 125.398 47.5133 125.117 47.5133H79.4559Z" fill="black"/>
<path d="M79.4559 54.5133C79.1749 54.5133 78.8939 54.2323 78.8939 53.9513C78.8939 53.6703 79.1749 53.3893 79.4559 53.3893H125.117C125.398 53.3893 125.679 53.6703 125.679 53.9513C125.679 54.2323 125.398 54.5133 125.117 54.5133H79.4559Z" fill="black"/>
<g opacity="0.1294">
<path d="M133.333 39.6037C132.911 39.4632 132.49 39.4632 132.068 39.6037H131.928C120.266 39.4632 108.465 39.4632 96.8034 39.3227C88.6545 39.1822 80.6462 38.9012 72.6379 39.1822C67.4395 39.1822 62.2411 39.4632 57.0427 39.4632C54.5138 39.4632 51.9848 39.6037 49.5964 39.7442C47.4889 39.7442 45.3814 39.6037 43.274 39.7442C42.15 39.7442 41.026 39.7442 40.0426 39.6037C39.1996 39.4632 38.4971 39.1822 37.9351 39.4632C36.1086 40.1657 36.6706 42.9757 38.6376 42.9757C41.026 43.2567 43.4145 43.2567 45.8029 43.2567C49.1749 43.3972 52.5468 43.2567 55.7782 43.1162C62.9436 43.2567 70.1089 43.1162 77.2743 43.1162C83.0346 42.9757 88.6545 43.2567 94.4149 43.2567C101.299 43.3972 108.184 43.3972 115.068 43.5377C120.547 43.5377 126.167 43.3972 131.647 43.5377C131.787 43.5377 131.928 43.5377 132.068 43.5377C132.209 43.5377 132.209 43.5377 132.349 43.6781C132.49 43.6781 132.63 43.6781 132.771 43.6781C132.911 43.6781 132.911 43.6781 133.052 43.6781C135.3 43.3972 135.581 40.1657 133.333 39.6037Z" fill="black"/>
</g>
<g filter="url(#filter0_d_139_28)">
<path d="M46.7616 46.209L47.162 46.7445H66.208L66.6369 46.209H46.7616Z" fill="#638ADC"/>
<g opacity="0.4">
<path d="M46.7616 46.209L47.162 46.7445H66.208L66.6369 46.209H46.7616Z" fill="#404040"/>
</g>
<path d="M47.6334 45.9761H65.708V70.3713H47.6334V45.9761Z" fill="white" stroke="#1F1F1F"/>
<g opacity="0.8">
<path d="M47.9055 46.3498C47.9341 46.5753 47.7625 46.7726 47.5623 46.7726C47.3622 46.7726 47.162 46.5753 47.1334 46.3498C47.1048 46.1243 47.2764 45.927 47.4765 45.927C47.7053 45.927 47.8769 46.1243 47.9055 46.3498Z" fill="#EFEFEF"/>
<path d="M48.6204 46.3498C48.649 46.5753 48.4775 46.7726 48.2773 46.7726C48.0771 46.7726 47.8769 46.5753 47.8483 46.3498C47.8197 46.1243 47.9913 45.927 48.1915 45.927C48.3917 45.927 48.5918 46.1243 48.6204 46.3498Z" fill="#EFEFEF"/>
<path d="M49.3068 46.3498C49.3354 46.5753 49.1638 46.7726 48.9636 46.7726C48.7634 46.7726 48.5632 46.5753 48.5346 46.3498C48.506 46.1243 48.6776 45.927 48.8778 45.927C49.1066 45.927 49.3068 46.1243 49.3068 46.3498Z" fill="#EFEFEF"/>
<path d="M50.0217 46.3498C50.0503 46.5753 49.8787 46.7726 49.6786 46.7726C49.4784 46.7726 49.2782 46.5753 49.2496 46.3498C49.221 46.1243 49.3926 45.927 49.5928 45.927C49.8215 45.927 49.9931 46.1243 50.0217 46.3498Z" fill="#EFEFEF"/>
<path d="M50.7081 46.3498C50.7367 46.5753 50.5651 46.7726 50.3649 46.7726C50.1647 46.7726 49.9645 46.5753 49.9645 46.3498C49.9359 46.1243 50.1075 45.927 50.3077 45.927C50.5079 45.927 50.7081 46.1243 50.7081 46.3498Z" fill="#EFEFEF"/>
<path d="M51.423 46.3498C51.423 46.5753 51.28 46.7726 51.0512 46.7726C50.851 46.7726 50.6509 46.5753 50.6509 46.3498C50.6223 46.1243 50.7939 45.927 50.994 45.927C51.2228 45.927 51.423 46.1243 51.423 46.3498Z" fill="#EFEFEF"/>
<path d="M52.138 46.3498C52.138 46.5753 51.995 46.7726 51.7662 46.7726C51.566 46.7726 51.3658 46.5753 51.3658 46.3498C51.3658 46.1243 51.5088 45.927 51.7376 45.927C51.9664 45.927 52.1094 46.1243 52.138 46.3498Z" fill="#EFEFEF"/>
<path d="M52.8243 46.3498C52.8243 46.5753 52.6813 46.7726 52.4525 46.7726C52.2523 46.7726 52.0521 46.5753 52.0521 46.3498C52.0521 46.1243 52.1951 45.927 52.4239 45.927C52.6241 45.927 52.8243 46.1243 52.8243 46.3498Z" fill="#EFEFEF"/>
<path d="M53.5392 46.3498C53.5392 46.5753 53.3962 46.7726 53.1675 46.7726C52.9673 46.7726 52.7671 46.5753 52.7671 46.3498C52.7671 46.1243 52.9101 45.927 53.1389 45.927C53.3676 45.927 53.5106 46.1243 53.5392 46.3498Z" fill="#EFEFEF"/>
<path d="M54.2256 46.3498C54.2256 46.5753 54.054 46.7726 53.8538 46.7726C53.6536 46.7726 53.4534 46.5753 53.4534 46.3498C53.4534 46.1243 53.625 45.927 53.8252 45.927C54.0254 45.927 54.2256 46.1243 54.2256 46.3498Z" fill="#EFEFEF"/>
<path d="M54.9405 46.3498C54.9405 46.5753 54.7689 46.7726 54.5687 46.7726C54.3686 46.7726 54.1684 46.5753 54.1684 46.3498C54.1684 46.1243 54.34 45.927 54.5402 45.927C54.7403 45.927 54.9405 46.1243 54.9405 46.3498Z" fill="#EFEFEF"/>
<path d="M55.6269 46.3498C55.6269 46.5753 55.4553 46.7726 55.2551 46.7726C55.0549 46.7726 54.8833 46.5753 54.8547 46.3498C54.8547 46.1243 55.0263 45.927 55.2265 45.927C55.4553 45.927 55.6269 46.1243 55.6269 46.3498Z" fill="#EFEFEF"/>
<path d="M56.3418 46.3498C56.3418 46.5753 56.1702 46.7726 55.97 46.7726C55.7698 46.7726 55.5983 46.5753 55.5697 46.3498C55.5697 46.1243 55.7412 45.927 55.9414 45.927C56.1702 45.927 56.3418 46.1243 56.3418 46.3498Z" fill="#EFEFEF"/>
<path d="M57.0281 46.3498C57.0281 46.5753 56.8566 46.7726 56.6564 46.7726C56.4562 46.7726 56.2846 46.5753 56.2846 46.3498C56.2846 46.1243 56.4562 45.927 56.6564 45.927C56.8566 45.927 57.0567 46.1243 57.0281 46.3498Z" fill="#EFEFEF"/>
<path d="M57.7431 46.3498C57.7431 46.5753 57.5715 46.7726 57.3427 46.7726C57.1425 46.7726 56.9709 46.5753 56.9709 46.3498C56.9709 46.1243 57.1425 45.927 57.3713 45.927C57.5715 45.927 57.7431 46.1243 57.7431 46.3498Z" fill="#EFEFEF"/>
<path d="M58.458 46.3498C58.458 46.5753 58.2864 46.7726 58.0577 46.7726C57.8575 46.7726 57.6859 46.5753 57.6859 46.3498C57.6859 46.1243 57.8575 45.927 58.0863 45.927C58.2864 45.927 58.458 46.1243 58.458 46.3498Z" fill="#EFEFEF"/>
<path d="M59.1444 46.3498C59.1444 46.5753 58.9728 46.7726 58.744 46.7726C58.5438 46.7726 58.3722 46.5753 58.3722 46.3498C58.3722 46.1243 58.5438 45.927 58.7726 45.927C59.0014 45.927 59.1444 46.1243 59.1444 46.3498Z" fill="#EFEFEF"/>
<path d="M59.8593 46.3498C59.8593 46.5753 59.6877 46.7726 59.4589 46.7726C59.2588 46.7726 59.0872 46.5753 59.0872 46.3498C59.0872 46.1243 59.2587 45.927 59.4875 45.927C59.6877 45.927 59.8593 46.1243 59.8593 46.3498Z" fill="#EFEFEF"/>
<path d="M60.5456 46.3498C60.5456 46.5753 60.3455 46.7726 60.1453 46.7726C59.9451 46.7726 59.7735 46.5753 59.7735 46.3498C59.7735 46.1243 59.9737 45.927 60.1739 45.927C60.4027 45.927 60.5742 46.1243 60.5456 46.3498Z" fill="#EFEFEF"/>
<path d="M61.2606 46.3498C61.2606 46.5753 61.0604 46.7726 60.8602 46.7726C60.66 46.7726 60.4884 46.5753 60.4884 46.3498C60.4884 46.1243 60.6886 45.927 60.8888 45.927C61.1176 45.927 61.2606 46.1243 61.2606 46.3498Z" fill="#EFEFEF"/>
<path d="M61.9469 46.3498C61.9469 46.5753 61.7467 46.7726 61.5466 46.7726C61.3464 46.7726 61.1748 46.5753 61.1748 46.3498C61.1748 46.1243 61.375 45.927 61.5751 45.927C61.8039 45.927 61.9755 46.1243 61.9469 46.3498Z" fill="#EFEFEF"/>
<path d="M62.6619 46.3498C62.6333 46.5753 62.4617 46.7726 62.2615 46.7726C62.0613 46.7726 61.8897 46.5753 61.8897 46.3498C61.8897 46.1243 62.0899 45.927 62.2901 45.927C62.5189 45.927 62.6619 46.1243 62.6619 46.3498Z" fill="#EFEFEF"/>
<path d="M63.3768 46.3498C63.3482 46.5753 63.1766 46.7726 62.9764 46.7726C62.7763 46.7726 62.6047 46.5753 62.6333 46.3498C62.6619 46.1243 62.8335 45.927 63.0336 45.927C63.2338 45.927 63.3768 46.1243 63.3768 46.3498Z" fill="#EFEFEF"/>
<path d="M64.0631 46.3498C64.0346 46.5753 63.863 46.7726 63.6342 46.7726C63.434 46.7726 63.2624 46.5753 63.291 46.3498C63.3196 46.1243 63.4912 45.927 63.72 45.927C63.9202 45.927 64.0917 46.1243 64.0631 46.3498Z" fill="#EFEFEF"/>
<path d="M64.7781 46.3498C64.7495 46.5753 64.5779 46.7726 64.3491 46.7726C64.1203 46.7726 63.9774 46.5753 64.006 46.3498C64.0346 46.1243 64.2061 45.927 64.4349 45.927C64.6351 45.927 64.7781 46.1243 64.7781 46.3498Z" fill="#EFEFEF"/>
<path d="M65.4644 46.3498C65.4358 46.5753 65.2642 46.7726 65.0355 46.7726C64.8353 46.7726 64.6637 46.5753 64.6923 46.3498C64.7209 46.1243 64.8925 45.927 65.1213 45.927C65.35 45.927 65.493 46.1243 65.4644 46.3498Z" fill="#EFEFEF"/>
<path d="M66.1794 46.3498C66.1508 46.5753 65.9792 46.7726 65.7504 46.7726C65.5502 46.7726 65.3786 46.5753 65.4072 46.3498C65.4358 46.1243 65.6074 45.927 65.8362 45.927C66.0364 45.927 66.208 46.1243 66.1794 46.3498Z" fill="#EFEFEF"/>
</g>
<path d="M46.7616 45.6171H66.6369V46.209H46.7616V45.6171Z" fill="#4E6075"/>
<path d="M46.7616 45.0532L47.162 45.6169H66.208L66.6369 45.0532H46.7616Z" fill="#638ADC"/>
<g opacity="0.4">
<path d="M46.7616 45.0532L47.162 45.6169H66.208L66.6369 45.0532H46.7616Z" fill="#404040"/>
</g>
<path d="M46.7616 44.4896H66.6369V45.0533H46.7616V44.4896Z" fill="#4E6075"/>
<path d="M47.162 45.0532H66.208V45.6169H47.162V45.0532Z" fill="#638ADC"/>
<g opacity="0.8">
<path d="M47.162 45.0532H66.208V45.6169H47.162V45.0532Z" fill="#EFEFEF"/>
</g>
<g opacity="0.7">
<path d="M66.208 46.8007H47.1334V47.0543H66.208V46.8007Z" fill="#EFEFEF"/>
</g>
<g opacity="0.8">
<path d="M66.2366 59.2589H47.1906V59.5126H66.2366V59.2589Z" fill="#4E6075"/>
</g>
<path d="M53.4534 61.1753H51.1084V63.8529H53.4534V61.1753Z" fill="#638ADC"/>
<path d="M57.9719 61.1753H55.6269V63.8529H57.9719V61.1753Z" fill="#638ADC"/>
<path d="M62.4903 61.1753H60.1453V63.8529H62.4903V61.1753Z" fill="#638ADC"/>
<path d="M50.9082 66.7844H48.5632V69.4621H50.9082V66.7844Z" fill="#638ADC"/>
<path d="M64.7781 66.7844H62.4331V69.4621H64.7781V66.7844Z" fill="#638ADC"/>
<path d="M53.4534 49.1685H51.1084V51.8461H53.4534V49.1685Z" fill="#638ADC"/>
<path d="M57.9719 49.1685H55.6269V51.8461H57.9719V49.1685Z" fill="#638ADC"/>
<path d="M62.4903 49.1685H60.1453V51.8461H62.4903V49.1685Z" fill="#638ADC"/>
<path d="M53.4534 53.1426H51.1084V55.8202H53.4534V53.1426Z" fill="#638ADC"/>
<path d="M57.9719 53.1426H55.6269V55.8202H57.9719V53.1426Z" fill="#638ADC"/>
<path d="M62.4903 53.1426H60.1453V55.8202H62.4903V53.1426Z" fill="#638ADC"/>
<g opacity="0.8">
<path d="M53.9396 67.0945H56.399L56.3704 69.7721H53.9396V67.0945Z" fill="#EFEFEF"/>
</g>
<g opacity="0.8">
<path d="M56.8566 67.0945H59.4017L59.2874 69.7721H56.828L56.8566 67.0945Z" fill="#EFEFEF"/>
</g>
<path d="M59.8021 70.3077H53.3391L53.3105 69.7722H59.8307L59.8021 70.3077Z" fill="#638ADC"/>
<g opacity="0.1">
<path d="M59.8021 70.3077H53.3391L53.3105 69.7722H59.8307L59.8021 70.3077Z" fill="#EFEFEF"/>
</g>
<path d="M60.0595 70.8713H53.1103L53.0817 70.3358H60.0881L60.0595 70.8713Z" fill="#638ADC"/>
<g opacity="0.4">
<path d="M60.2883 66.1643H52.8815L52.8529 65.5724H60.3169L60.2883 66.1643Z" fill="#EFEFEF"/>
</g>
<path d="M52.8815 66.1643L53.9396 67.0944H59.4017L60.2883 66.1643H52.8815Z" fill="#4E6075"/>
<path d="M53.3677 66.6154L53.7394 69.7722H54.054L53.9396 66.6154C53.768 66.5027 53.5392 66.5027 53.3677 66.6154Z" fill="#638ADC"/>
<path d="M59.8879 66.6154L59.5161 69.7722H59.2016L59.316 66.6154C59.4875 66.5027 59.7163 66.5027 59.8879 66.6154Z" fill="#638ADC"/>
</g>
<path d="M169.251 130.881C169.251 107.839 169.532 87.748 169.251 66.1115C136.936 66.1115 104.482 67.0949 71.8863 66.6734C71.6053 88.7315 71.8863 109.525 71.8863 130.881C104.341 131.021 136.796 130.881 169.251 130.881Z" fill="white"/>
<path d="M71.8863 131.583C71.6054 131.583 71.3244 131.302 71.3244 131.021C71.3244 123.856 71.3244 116.69 71.3244 109.666C71.3244 95.7563 71.1839 81.4256 71.3244 66.6734C71.3244 66.3924 71.6054 66.1114 71.8863 66.1114C90.7129 66.2519 109.821 66.1114 128.226 65.8304C141.573 65.8304 155.482 65.5494 169.251 65.5494C169.532 65.5494 169.813 65.8304 169.813 66.1114C169.953 80.4421 169.953 93.9298 169.813 108.261C169.813 115.566 169.813 123.153 169.813 131.021C169.813 131.302 169.532 131.583 169.251 131.583C153.094 131.583 136.655 131.583 120.639 131.583C104.622 131.583 88.184 131.583 71.8863 131.583ZM72.3078 67.2354C72.1673 81.8471 72.3078 96.0373 72.3078 109.666C72.3078 116.409 72.3078 123.434 72.3078 130.459C88.465 130.459 104.763 130.459 120.639 130.459C136.374 130.459 152.672 130.459 168.689 130.459C168.689 122.732 168.689 115.426 168.689 108.261C168.689 94.0703 168.829 80.7231 168.689 66.6734C155.201 66.6734 141.432 66.8139 128.226 66.9544C109.961 67.2354 90.9939 67.5164 72.3078 67.2354Z" fill="black"/>
<path d="M72.0268 60.07C71.8863 62.7395 72.0268 65.2684 71.8863 68.3594C104.482 68.3594 136.796 68.3594 169.251 68.2189C169.251 65.4089 169.11 61.756 169.11 59.5081L72.0268 60.07Z" fill="#4E6075"/>
<path d="M104.763 68.9212C93.5229 68.9212 82.5641 68.9212 71.8863 68.9212C71.7458 68.9212 71.6053 68.9212 71.4648 68.7807C71.3244 68.6402 71.3244 68.4997 71.3244 68.3592C71.3244 66.8138 71.4648 65.2683 71.4648 63.8633C71.4648 62.5989 71.4648 61.3344 71.6053 59.9294C71.6053 59.6484 71.8863 59.3674 72.1673 59.3674L169.11 59.0864C169.251 59.0864 169.391 59.0864 169.532 59.2269C169.672 59.3674 169.672 59.5079 169.672 59.6484C169.672 60.7724 169.672 62.0369 169.672 63.5823C169.672 65.2683 169.672 66.9543 169.672 68.3592C169.672 68.6402 169.391 68.9212 169.11 68.9212C146.209 68.9212 124.994 68.9212 104.763 68.9212ZM72.4483 67.7972C101.812 67.7972 133.424 67.7972 168.689 67.6567C168.689 66.3923 168.689 64.8468 168.689 63.4418C168.689 62.1774 168.689 61.0534 168.689 60.0699L72.5888 60.6319C72.5888 61.7559 72.5888 62.8798 72.4483 64.0038C72.4483 65.1278 72.4483 66.3923 72.4483 67.7972Z" fill="black"/>
<path d="M120.498 91.5413C120.217 91.5413 119.936 91.2603 119.936 90.9793C119.936 90.6984 120.217 90.4174 120.498 90.4174H126.399C126.68 90.4174 126.961 90.6984 126.961 90.9793C126.961 91.2603 126.68 91.5413 126.399 91.5413H120.498Z" fill="black"/>
<path d="M120.498 103.905C120.217 103.905 119.936 103.624 119.936 103.343C119.936 103.062 120.217 102.781 120.498 102.781H126.399C126.68 102.781 126.961 103.062 126.961 103.343C126.961 103.624 126.68 103.905 126.399 103.905H120.498Z" fill="black"/>
<path d="M84.1096 115.847C83.8286 115.847 83.5476 115.566 83.5476 115.285C83.5476 115.004 83.8286 114.723 84.1096 114.723H129.771C130.052 114.723 130.333 115.004 130.333 115.285C130.333 115.566 130.052 115.847 129.771 115.847H84.1096Z" fill="black"/>
<path d="M108.837 103.343C108.837 93.5082 108.837 84.9378 108.837 75.665C100.688 75.665 92.3989 76.0865 84.2501 75.946C84.1096 85.3593 84.2501 94.2106 84.2501 103.483C92.3989 103.343 100.688 103.343 108.837 103.343Z" fill="white"/>
<path d="M84.2501 103.764C83.9691 103.764 83.6881 103.483 83.6881 103.202C83.6881 100.111 83.6881 97.161 83.6881 94.0701C83.6881 88.1692 83.6881 81.9874 83.6881 75.665C83.6881 75.5245 83.6881 75.384 83.8286 75.2435C83.9691 75.103 84.1096 75.103 84.2501 75.103C89.027 75.2435 93.8039 75.103 98.4403 74.9625C101.812 74.822 105.325 74.822 108.837 74.822C109.118 74.822 109.399 75.103 109.399 75.384C109.399 81.5659 109.399 87.3263 109.399 93.3676C109.399 96.4586 109.399 99.69 109.399 103.062C109.399 103.343 109.118 103.624 108.837 103.624C104.763 103.624 100.688 103.624 96.6138 103.624C92.3989 103.764 88.3245 103.764 84.2501 103.764ZM84.6716 76.3675C84.6716 82.4089 84.6716 88.4502 84.6716 94.2106C84.6716 97.0206 84.6716 99.971 84.6716 102.781C88.6055 102.781 92.5394 102.781 96.4733 102.781C100.407 102.781 104.341 102.781 108.275 102.781C108.275 99.5495 108.275 96.5991 108.275 93.6486C108.275 87.7477 108.275 82.1279 108.275 76.227C105.044 76.227 101.672 76.3675 98.4403 76.3675C93.9444 76.3675 89.308 76.3675 84.6716 76.3675Z" fill="black"/>
<path d="M88.746 100.814C88.746 100.814 88.6055 100.814 88.746 100.814C87.903 100.252 87.2005 99.5496 86.498 98.9877C86.498 98.9877 86.498 98.8472 86.498 98.7067C86.498 98.7067 86.6385 98.7067 86.779 98.7067C87.4815 99.4092 88.184 99.9711 88.8865 100.533C89.027 100.533 89.027 100.674 88.8865 100.814H88.746Z" fill="black"/>
<path d="M93.6634 101.517C91.1344 99.2686 88.6055 97.0207 86.0765 94.7727C85.936 94.7727 85.936 94.6322 86.0765 94.4917C86.0765 94.3512 86.217 94.3512 86.3575 94.4917C88.8865 96.5992 91.4154 98.8471 93.8039 101.095C93.8039 101.376 93.8039 101.376 93.6634 101.517C93.6634 101.517 93.8039 101.517 93.6634 101.517Z" fill="black"/>
<path d="M98.7213 101.517C98.5808 101.517 98.5808 101.517 98.7213 101.517L86.498 91.2603C86.3575 91.2603 86.3575 91.1198 86.498 90.9793C86.498 90.8388 86.6385 90.8388 86.779 90.9793L98.8618 101.236C98.8618 101.236 98.8618 101.376 98.7213 101.517Z" fill="black"/>
<path d="M103.358 101.376C103.217 101.376 103.217 101.236 103.358 101.376C97.7378 96.4587 92.2584 91.6818 86.6385 87.1859C86.498 87.1859 86.498 87.0454 86.6385 86.9049C86.6385 86.7644 86.779 86.7644 86.9195 86.9049C92.5394 91.4008 98.1593 96.1777 103.498 100.955C103.498 101.095 103.498 101.236 103.358 101.376C103.358 101.376 103.358 101.236 103.358 101.376Z" fill="black"/>
<path d="M106.87 99.8307C106.87 99.8307 106.73 99.8307 106.87 99.8307C99.9858 94.3513 93.1014 88.591 86.498 82.8306C86.3575 82.8306 86.3575 82.6901 86.498 82.5496C86.498 82.4091 86.6385 82.4091 86.779 82.5496C93.3824 88.31 100.126 94.0703 107.011 99.5497C107.011 99.5497 107.011 99.6902 106.87 99.8307C106.87 99.8307 107.011 99.8307 106.87 99.8307Z" fill="black"/>
<path d="M106.73 95.1941C106.73 95.1941 106.589 95.1941 106.73 95.1941L86.498 78.756C86.3575 78.756 86.3575 78.6155 86.498 78.475C86.498 78.3345 86.6385 78.3345 86.779 78.475L106.87 94.9132C106.87 95.0537 106.87 95.0537 106.73 95.1941C106.73 95.1941 106.87 95.1941 106.73 95.1941Z" fill="black"/>
<path d="M106.73 90.5577C101.812 86.3428 96.7543 82.1279 91.8369 78.194C91.6964 78.194 91.6964 78.0535 91.8369 77.913C91.8369 77.7725 91.9774 77.7725 92.1179 77.913C97.1758 81.9874 102.093 86.0618 107.011 90.2767C107.011 90.2767 107.011 90.4172 106.73 90.5577C106.87 90.5577 106.87 90.5577 106.73 90.5577Z" fill="black"/>
<path d="M106.73 85.3595C106.73 85.3595 106.589 85.3595 106.73 85.3595C103.639 83.252 100.688 80.8636 98.0188 78.6156C97.8783 78.6156 97.8783 78.4751 98.0188 78.3346C98.0188 78.1941 98.1593 78.1941 98.2998 78.3346C101.11 80.7231 104.06 82.971 107.011 85.0785C107.151 85.0785 107.151 85.219 107.011 85.3595C106.87 85.3595 106.73 85.3595 106.73 85.3595Z" fill="black"/>
<path d="M106.87 81.1446C106.87 81.1446 106.73 81.1446 106.87 81.1446C105.746 80.1611 104.622 79.3181 103.498 78.6156C103.358 78.6156 103.358 78.4751 103.498 78.3346C103.498 78.1941 103.639 78.1941 103.779 78.3346C104.903 79.1776 106.027 80.0206 107.011 80.8636C107.011 81.0041 107.011 81.0041 106.87 81.1446C106.87 81.1446 107.011 81.1446 106.87 81.1446Z" fill="black"/>
<g opacity="0.1294">
<path d="M167.986 67.9378C167.565 67.7973 167.143 67.7973 166.722 67.9378H166.581C154.92 67.7973 143.118 67.7973 131.457 67.6568C123.308 67.5163 115.3 67.2354 107.292 67.5163C102.093 67.5163 96.8948 67.7973 91.6964 67.7973C89.1675 67.7973 86.6385 67.9378 84.2501 68.0783C82.1426 68.0783 80.0352 67.9378 77.9277 68.0783C76.8037 68.0783 75.6798 68.0783 74.6963 67.9378C73.8533 67.7973 73.1508 67.5163 72.5888 67.7973C70.7624 68.4998 71.3244 71.3098 73.2913 71.3098C75.6798 71.5908 78.0682 71.5908 80.4567 71.5908C83.8286 71.7313 87.2005 71.5908 90.432 71.4503C97.5973 71.5908 104.763 71.4503 111.928 71.4503C117.688 71.3098 123.308 71.5908 129.069 71.5908C135.953 71.7313 142.837 71.7313 149.722 71.8718C155.201 71.8718 160.821 71.7313 166.3 71.8718C166.441 71.8718 166.581 71.8718 166.722 71.8718C166.862 71.8718 166.862 71.8718 167.003 72.0123C167.143 72.0123 167.284 72.0123 167.424 72.0123C167.565 72.0123 167.565 72.0123 167.705 72.0123C169.953 71.7313 170.234 68.4998 167.986 67.9378Z" fill="black"/>
</g>
<path d="M197.645 160.15C197.645 137.109 197.926 117.018 197.645 95.381C165.331 95.381 132.876 96.3645 100.281 95.943C99.9997 118.001 100.281 138.795 100.281 160.15C132.735 160.291 165.19 160.15 197.645 160.15Z" fill="white"/>
<path d="M134.048 103.908C135.854 106.166 136.908 109.087 136.878 112.008C136.848 113.754 136.276 115.44 135.644 117.036C132.873 123.932 128.357 130.345 123.84 136.247C123.75 136.398 123.147 136.609 123.027 136.428C120.708 133.417 118.54 130.255 116.523 127.033C114.867 124.444 113.301 121.764 112.006 118.993C111.043 116.886 110.049 114.597 110.019 112.249C110.109 106.136 114.264 100.957 120.136 99.4211C125.255 98.0962 130.766 99.7523 134.048 103.908ZM134.198 118.662C136.035 114.688 136.788 110.803 134.8 106.648C132.392 101.559 126.64 98.4274 121.04 99.4512C115.047 100.535 110.922 106.076 110.832 112.008C110.862 114.417 111.886 116.765 112.909 118.903C114.204 121.643 115.74 124.263 117.366 126.822C119.293 129.894 121.341 132.875 123.539 135.765C125.014 133.808 126.399 131.791 127.784 129.773C130.133 126.22 132.422 122.547 134.198 118.662Z" fill="#111111"/>
<path d="M134.8 106.647C136.758 110.803 136.005 114.687 134.198 118.662C132.422 122.546 130.133 126.19 127.754 129.743C126.399 131.79 124.984 133.778 123.509 135.735C121.311 132.844 119.263 129.863 117.336 126.792C115.74 124.263 114.204 121.643 112.909 118.903C111.916 116.765 110.892 114.416 110.832 112.007C110.922 106.075 115.047 100.535 121.04 99.4508C126.64 98.427 132.392 101.559 134.8 106.647ZM129.049 115.681C133.716 110.532 128.929 102.402 122.214 103.546C118.631 104.148 116.041 107.25 115.951 110.833C116.162 117.548 124.502 120.679 129.049 115.681Z" fill="#638ADC"/>
<path d="M133.084 112.128C133.084 117.367 128.808 121.914 123.509 121.884C118.089 121.854 113.963 117.307 113.813 112.068C113.963 106.798 117.968 102.282 123.418 102.312C128.718 102.312 133.084 106.858 133.084 112.128Z" fill="white"/>
<path d="M121.672 101.559C131.398 99.9027 138.323 111.676 131.579 119.144C125.014 126.401 112.879 121.854 112.608 112.128C112.759 106.919 116.493 102.432 121.672 101.559ZM123.509 121.884C128.808 121.914 133.114 117.397 133.084 112.128C133.084 106.858 128.688 102.312 123.388 102.312C117.968 102.312 113.933 106.798 113.813 112.068C113.963 117.307 118.089 121.854 123.509 121.884Z" fill="#111111"/>
<path d="M100.281 160.853C99.9997 160.853 99.7187 160.572 99.7187 160.291C99.7187 153.125 99.7187 145.96 99.7187 138.935C99.7187 125.026 99.5782 110.695 99.7187 95.9431C99.7187 95.6621 99.9997 95.3811 100.281 95.3811C119.107 95.5216 138.215 95.3811 156.62 95.1001C169.967 95.1001 183.876 94.8191 197.645 94.8191C197.926 94.8191 198.207 95.1001 198.207 95.3811C198.348 109.712 198.348 123.199 198.207 137.53C198.207 144.836 198.207 152.423 198.207 160.291C198.207 160.572 197.926 160.853 197.645 160.853C181.488 160.853 165.05 160.853 149.033 160.853C133.016 160.853 116.578 160.853 100.281 160.853ZM100.702 96.5051C100.562 111.117 100.702 125.307 100.702 138.935C100.702 145.679 100.702 152.704 100.702 159.729C116.859 159.729 133.157 159.729 149.033 159.729C164.769 159.729 181.066 159.729 197.083 159.729C197.083 152.001 197.083 144.696 197.083 137.53C197.083 123.34 197.224 109.993 197.083 95.9431C183.595 95.9431 169.827 96.0836 156.62 96.2241C138.355 96.5051 119.388 96.7861 100.702 96.5051Z" fill="black"/>
<path d="M100.421 89.3398C100.281 92.0093 100.421 94.5382 100.281 97.6291C132.876 97.6291 165.19 97.6291 197.645 97.4886C197.645 94.6787 197.505 91.0258 197.505 88.7778L100.421 89.3398Z" fill="#4E6075"/>
<path d="M133.157 98.1911C121.917 98.1911 110.958 98.1911 100.281 98.1911C100.14 98.1911 99.9997 98.1911 99.8592 98.0506C99.7187 97.9101 99.7187 97.7696 99.7187 97.6291C99.7187 96.0837 99.8592 94.5382 99.8592 93.1332C99.8592 91.8687 99.8592 90.6043 99.9997 89.1993C99.9997 88.9183 100.281 88.6373 100.562 88.6373L197.505 88.3563C197.645 88.3563 197.786 88.3563 197.926 88.4968C198.067 88.6373 198.067 88.7778 198.067 88.9183C198.067 90.0423 198.067 91.3068 198.067 92.8522C198.067 94.5382 198.067 96.2242 198.067 97.6291C198.067 97.9101 197.786 98.1911 197.505 98.1911C174.604 98.1911 153.389 98.1911 133.157 98.1911ZM100.843 97.0671C130.207 97.0671 161.818 97.0671 197.083 96.9266C197.083 95.6622 197.083 94.1167 197.083 92.7117C197.083 91.4473 197.083 90.3233 197.083 89.3398L100.983 89.9018C100.983 91.0258 100.983 92.1497 100.843 93.2737C100.843 94.3977 100.843 95.6622 100.843 97.0671Z" fill="black"/>
<path d="M148.893 120.811C148.612 120.811 148.331 120.53 148.331 120.249C148.331 119.968 148.612 119.687 148.893 119.687H154.794C155.075 119.687 155.355 119.968 155.355 120.249C155.355 120.53 155.075 120.811 154.794 120.811H148.893Z" fill="black"/>
<path d="M148.893 133.175C148.612 133.175 148.331 132.894 148.331 132.613C148.331 132.332 148.612 132.051 148.893 132.051H154.794C155.075 132.051 155.355 132.332 155.355 132.613C155.355 132.894 155.075 133.175 154.794 133.175H148.893Z" fill="black"/>
<path d="M112.504 147.912C112.223 147.912 111.942 147.631 111.942 147.35C111.942 147.069 112.223 146.788 112.504 146.788H158.165C158.446 146.788 158.727 147.069 158.727 147.35C158.727 147.631 158.446 147.912 158.165 147.912H112.504Z" fill="black"/>
<path d="M142.219 113.181C141.938 113.181 141.657 112.9 141.657 112.619C141.657 112.338 141.938 112.057 142.219 112.057H187.881C188.162 112.057 188.443 112.338 188.443 112.619C188.443 112.9 188.162 113.181 187.881 113.181H142.219Z" fill="black"/>
<path d="M142.219 121.935C141.938 121.935 141.657 121.654 141.657 121.373C141.657 121.092 141.938 120.811 142.219 120.811H187.881C188.162 120.811 188.443 121.092 188.443 121.373C188.443 121.654 188.162 121.935 187.881 121.935H142.219Z" fill="black"/>
<path d="M142.219 130.689C141.938 130.689 141.657 130.408 141.657 130.127C141.657 129.846 141.938 129.565 142.219 129.565H187.881C188.162 129.565 188.443 129.846 188.443 130.127C188.443 130.408 188.162 130.689 187.881 130.689H142.219Z" fill="black"/>
<path d="M133.749 139.443C133.417 139.443 133.084 139.162 133.084 138.881C133.084 138.6 133.417 138.319 133.749 138.319H187.778C188.11 138.319 188.443 138.6 188.443 138.881C188.443 139.162 188.11 139.443 187.778 139.443H133.749Z" fill="black"/>
<g opacity="0.1294">
<path d="M196.381 97.2076C195.959 97.0671 195.538 97.0671 195.116 97.2076H194.976C183.314 97.0671 171.513 97.0671 159.851 96.9266C151.703 96.7861 143.694 96.5051 135.686 96.7861C130.488 96.7861 125.289 97.0671 120.091 97.0671C117.562 97.0671 115.033 97.2076 112.644 97.3481C110.537 97.3481 108.429 97.2076 106.322 97.3481C105.198 97.3481 104.074 97.3481 103.091 97.2076C102.248 97.0671 101.545 96.7861 100.983 97.0671C99.1567 97.7696 99.7187 100.58 101.686 100.58C104.074 100.861 106.463 100.861 108.851 100.861C112.223 101.001 115.595 100.861 118.826 100.72C125.992 100.861 133.157 100.72 140.322 100.72C146.083 100.58 151.703 100.861 157.463 100.861C164.347 101.001 171.232 101.001 178.116 101.142C183.595 101.142 189.215 101.001 194.695 101.142C194.835 101.142 194.976 101.142 195.116 101.142C195.257 101.142 195.257 101.142 195.397 101.282C195.538 101.282 195.678 101.282 195.819 101.282C195.959 101.282 195.959 101.282 196.1 101.282C198.348 101.001 198.629 97.7696 196.381 97.2076Z" fill="black"/>
</g>
<path d="M243.743 188.484C243.743 165.443 244.024 145.352 243.743 123.715C211.429 123.715 178.974 124.699 146.379 124.277C146.098 146.335 146.379 167.129 146.379 188.484C178.834 188.625 211.289 188.484 243.743 188.484Z" fill="white"/>
<path d="M146.379 189.187C146.098 189.187 145.817 188.906 145.817 188.625C145.817 181.46 145.817 174.294 145.817 167.269C145.817 153.36 145.676 139.029 145.817 124.277C145.817 123.996 146.098 123.715 146.379 123.715C165.206 123.856 184.313 123.715 202.718 123.434C216.065 123.434 229.975 123.153 243.743 123.153C244.024 123.153 244.305 123.434 244.305 123.715C244.446 138.046 244.446 151.534 244.305 165.864C244.305 173.17 244.305 180.757 244.305 188.625C244.305 188.906 244.024 189.187 243.743 189.187C227.586 189.187 211.148 189.187 195.131 189.187C179.115 189.187 162.677 189.187 146.379 189.187ZM146.8 124.839C146.66 139.451 146.8 153.641 146.8 167.269C146.8 174.013 146.8 181.038 146.8 188.063C162.958 188.063 179.255 188.063 195.131 188.063C210.867 188.063 227.165 188.063 243.181 188.063C243.181 180.336 243.181 173.03 243.181 165.864C243.181 151.674 243.322 138.327 243.181 124.277C229.694 124.277 215.925 124.418 202.718 124.558C184.454 124.839 165.487 125.12 146.8 124.839Z" fill="black"/>
<path d="M146.519 117.674C146.379 120.343 146.519 122.872 146.379 125.963C178.974 125.963 211.289 125.963 243.743 125.823C243.743 123.013 243.603 119.36 243.603 117.112L146.519 117.674Z" fill="#4E6075"/>
<path d="M179.255 126.525C168.015 126.525 157.057 126.525 146.379 126.525C146.238 126.525 146.098 126.525 145.957 126.385C145.817 126.244 145.817 126.104 145.817 125.963C145.817 124.418 145.957 122.872 145.957 121.467C145.957 120.203 145.957 118.938 146.098 117.533C146.098 117.252 146.379 116.971 146.66 116.971L243.603 116.69C243.743 116.69 243.884 116.69 244.024 116.831C244.165 116.971 244.165 117.112 244.165 117.252C244.165 118.376 244.165 119.641 244.165 121.186C244.165 122.872 244.165 124.558 244.165 125.963C244.165 126.244 243.884 126.525 243.603 126.525C220.702 126.525 199.487 126.525 179.255 126.525ZM146.941 125.401C176.305 125.401 207.917 125.401 243.181 125.261C243.181 123.996 243.181 122.451 243.181 121.046C243.181 119.781 243.181 118.657 243.181 117.674L147.081 118.236C147.081 119.36 147.081 120.484 146.941 121.608C146.941 122.732 146.941 123.996 146.941 125.401Z" fill="black"/>
<g opacity="0.1294">
<path d="M242.479 125.542C242.057 125.401 241.636 125.401 241.214 125.542H241.074C229.413 125.401 217.611 125.401 205.95 125.261C197.801 125.12 189.793 124.839 181.784 125.12C176.586 125.12 171.387 125.401 166.189 125.401C163.66 125.401 161.131 125.542 158.743 125.682C156.635 125.682 154.528 125.542 152.42 125.682C151.296 125.682 150.172 125.682 149.189 125.542C148.346 125.401 147.643 125.12 147.081 125.401C145.255 126.104 145.817 128.914 147.784 128.914C150.172 129.195 152.561 129.195 154.949 129.195C158.321 129.335 161.693 129.195 164.925 129.054C172.09 129.195 179.255 129.054 186.421 129.054C192.181 128.914 197.801 129.195 203.561 129.195C210.446 129.335 217.33 129.335 224.214 129.476C229.694 129.476 235.314 129.335 240.793 129.476C240.933 129.476 241.074 129.476 241.214 129.476C241.355 129.476 241.355 129.476 241.495 129.616C241.636 129.616 241.776 129.616 241.917 129.616C242.057 129.616 242.057 129.616 242.198 129.616C244.446 129.335 244.727 126.104 242.479 125.542Z" fill="black"/>
</g>
<g clip-path="url(#clip5_139_28)">
<path d="M88.2646 119.884C89.7342 111.135 83.6177 102.885 74.603 101.459C65.5884 100.033 57.0893 105.969 55.6197 114.719C54.1502 123.468 60.2667 131.717 69.2813 133.144C78.2959 134.57 86.795 128.634 88.2646 119.884Z" fill="#74BD6C"/>
<path d="M71.9405 133.814C62.5732 133.814 54.9405 126.406 54.9405 117.314C54.9405 108.222 62.5732 100.814 71.9405 100.814C81.3079 100.814 88.9405 108.222 88.9405 117.314C88.9405 126.406 81.3079 133.814 71.9405 133.814ZM71.9405 101.712C63.0358 101.712 55.8657 108.671 55.8657 117.314C55.8657 125.957 63.1514 132.916 71.9405 132.916C80.7296 132.916 88.0153 125.845 88.0153 117.314C88.0153 108.671 80.8453 101.712 71.9405 101.712Z" fill="#4E6075"/>
<path d="M63.267 114.845L65.9269 112.151L70.0902 117.763L75.9881 108.222L79.3419 110.692L70.4371 124.049L63.267 114.845Z" fill="white"/>
<path d="M70.4371 124.498C70.3215 124.498 70.2058 124.385 70.0902 124.385L62.9201 115.069C62.8045 114.957 62.8045 114.62 62.9201 114.508L65.58 111.926C65.6956 111.814 65.8113 111.814 65.9269 111.814C66.0426 111.814 66.1582 111.926 66.2739 112.039L69.9745 117.09L75.5255 108.11C75.6412 107.998 75.6412 107.885 75.8725 107.885C75.9881 107.885 76.1038 107.885 76.2194 107.998L79.5732 110.467C79.8045 110.579 79.8045 110.804 79.6888 111.028L70.7841 124.385C70.7841 124.385 70.5528 124.498 70.4371 124.498ZM63.8453 114.845L70.4371 123.375L78.7636 110.804L76.2194 108.896L70.5528 118.1C70.4371 118.212 70.3215 118.324 70.2058 118.324C70.0902 118.324 69.9745 118.212 69.8589 118.1L66.0426 112.937L63.8453 114.845Z" fill="#4E6075"/>
<g opacity="0.1294">
<path d="M87.4371 121.692C86.7432 121.467 86.5119 122.141 86.165 122.477C85.7024 123.151 85.2398 123.712 84.7773 124.385C84.546 124.722 84.3147 125.059 83.9677 125.283C83.5051 125.732 83.0426 126.069 82.58 126.518C82.3487 126.743 82.1174 127.079 81.7704 127.304C81.7704 127.304 81.7704 127.304 81.6548 127.304L81.5392 127.416C81.5392 127.416 81.5392 127.416 81.4235 127.528C80.614 128.09 79.6888 128.651 78.8793 129.1C78.4167 129.437 74.716 130.447 74.2534 130.334C71.8249 130.559 71.131 130.334 68.9337 129.885C67.0834 129.437 66.8521 129.324 65.4643 128.763C65.4643 128.763 65.3487 128.763 65.3487 128.763C64.3079 128.314 63.267 127.865 62.3419 127.304C61.3011 126.743 61.0698 126.181 59.7977 125.283C59.7977 125.283 59.7977 125.283 59.682 125.171C59.3351 124.834 58.8725 124.385 58.4099 124.385C57.4847 124.385 57.0221 125.508 57.716 126.181C58.8725 127.079 59.7977 128.426 61.0698 129.212C62.6888 130.222 64.3079 131.12 66.0426 131.906C67.8929 132.579 69.8589 132.916 71.8249 133.141C73.2126 133.253 74.716 132.916 75.9881 132.579C77.7228 132.13 79.4575 131.569 80.9609 130.559C81.6548 130.11 82.58 129.661 83.0426 128.875C83.2738 128.763 84.546 127.304 84.7773 126.967C85.8181 125.957 86.6276 124.834 87.4371 123.712C87.6684 123.375 88.0153 123.039 88.0153 122.59C88.131 122.253 87.8997 121.804 87.4371 121.692Z" fill="#4E6075"/>
</g>
<g opacity="0.1294">
<path d="M59.7977 125.283L59.9133 125.396C59.7977 125.283 59.7977 125.283 59.7977 125.283C59.682 125.171 59.682 125.171 59.7977 125.283C59.7977 125.283 59.682 125.171 59.7977 125.283Z" fill="#4E6075"/>
</g>
</g>
<path d="M170.668 149.965L170.573 134.758C166.106 134.758 161.544 136.564 158.027 139.7C153.941 143.312 151.28 148.824 151.945 155.477C152.04 156.237 152.135 156.903 152.325 157.663C152.325 157.663 152.325 157.663 152.325 157.758L170.668 153.671V149.965V149.965Z" fill="#638ADC"/>
<g opacity="0.3">
<path d="M170.668 149.965L170.573 134.758C166.106 134.758 161.544 136.564 158.027 139.7C153.941 143.312 151.28 148.824 151.945 155.477C152.04 156.237 152.135 156.903 152.325 157.663C152.325 157.663 152.325 157.663 152.325 157.758L170.668 153.671V149.965V149.965Z" fill="white"/>
</g>
<path d="M189.581 145.308C187.015 139.985 181.978 135.613 174.755 134.948C174.565 134.948 174.374 134.948 174.184 134.853C174.089 134.853 173.899 134.853 173.804 134.853C173.424 134.853 173.044 134.853 172.664 134.853C172.664 134.853 172.664 134.853 172.569 134.853L172.664 150.06V153.671L191.007 157.663C191.292 156.332 191.387 155.097 191.387 153.671C191.482 150.82 190.816 147.874 189.581 145.308Z" fill="#638ADC"/>
<g opacity="0.3">
<path d="M189.581 145.308C187.015 139.985 181.978 135.613 174.755 134.948C174.565 134.948 174.374 134.948 174.184 134.853C174.089 134.853 173.899 134.853 173.804 134.853C173.424 134.853 173.044 134.853 172.664 134.853C172.664 134.853 172.664 134.853 172.569 134.853L172.664 150.06V153.671L191.007 157.663C191.292 156.332 191.387 155.097 191.387 153.671C191.482 150.82 190.816 147.874 189.581 145.308Z" fill="black"/>
</g>
<path d="M171.618 155.477L153.275 159.564C155.176 167.927 162.684 174.295 171.618 174.295C180.647 174.295 188.155 167.927 189.961 159.469L171.618 155.477Z" fill="#638ADC"/>
<path d="M237.626 152.721C237.626 152.816 228.86 153.006 218.078 153.006C207.296 153.006 198.529 152.911 198.529 152.721C198.529 152.626 207.296 152.436 218.078 152.436C228.86 152.436 237.626 152.531 237.626 152.721Z" fill="#1A2E35"/>
<path d="M237.626 147.874C237.626 147.969 228.86 148.159 218.078 148.159C207.296 148.159 198.529 148.064 198.529 147.874C198.529 147.779 207.296 147.589 218.078 147.589C228.86 147.589 237.626 147.779 237.626 147.874Z" fill="#1A2E35"/>
<path d="M237.626 143.026C237.626 143.121 228.86 143.312 218.078 143.312C207.296 143.312 198.529 143.217 198.529 143.026C198.529 142.931 207.296 142.741 218.078 142.741C228.86 142.836 237.626 142.931 237.626 143.026Z" fill="#1A2E35"/>
<path d="M237.626 157.188C237.626 157.283 228.86 157.473 218.078 157.473C207.296 157.473 198.529 157.378 198.529 157.188C198.529 157.093 207.296 156.903 218.078 156.903C228.86 156.998 237.626 157.093 237.626 157.188Z" fill="#1A2E35"/>
<path d="M225.529 162.13C225.529 162.225 219.48 162.415 212.117 162.415C204.666 162.415 198.705 162.32 198.705 162.13C198.705 162.035 204.753 161.845 212.117 161.845C219.48 161.845 225.529 161.94 225.529 162.13Z" fill="#1A2E35"/>
<g clip-path="url(#clip6_139_28)">
<path d="M192.923 47.7957C193.787 42.7581 190.189 38.0086 184.887 37.1874C179.584 36.3661 174.584 39.7842 173.72 44.8218C172.855 49.8593 176.453 54.6088 181.756 55.4301C187.059 56.2513 192.058 52.8333 192.923 47.7957Z" fill="#74BD6C"/>
<path d="M183.32 55.816C177.81 55.816 173.32 51.5507 173.32 46.316C173.32 41.0813 177.81 36.816 183.32 36.816C188.831 36.816 193.32 41.0813 193.32 46.316C193.32 51.5507 188.831 55.816 183.32 55.816ZM183.32 37.333C178.082 37.333 173.865 41.3398 173.865 46.316C173.865 51.2922 178.15 55.299 183.32 55.299C188.49 55.299 192.776 51.2276 192.776 46.316C192.776 41.3398 188.558 37.333 183.32 37.333Z" fill="#4E6075"/>
<path d="M178.218 44.8942L179.783 43.3432L182.232 46.5745L185.701 41.0813L187.674 42.5031L182.436 50.1935L178.218 44.8942Z" fill="white"/>
<path d="M182.436 50.4521C182.368 50.4521 182.3 50.3875 182.232 50.3875L178.014 45.0235C177.946 44.9589 177.946 44.765 178.014 44.7004L179.579 43.214C179.647 43.1494 179.715 43.1494 179.783 43.1494C179.851 43.1494 179.919 43.214 179.987 43.2786L182.164 46.1868L185.429 41.0167C185.497 40.9521 185.497 40.8875 185.633 40.8875C185.701 40.8875 185.769 40.8875 185.837 40.9521L187.81 42.3738C187.946 42.4385 187.946 42.5677 187.878 42.697L182.64 50.3875C182.64 50.3875 182.504 50.4521 182.436 50.4521ZM178.558 44.8943L182.436 49.8058L187.334 42.5677L185.837 41.4691L182.504 46.7684C182.436 46.833 182.368 46.8977 182.3 46.8977C182.232 46.8977 182.164 46.833 182.096 46.7684L179.851 43.7956L178.558 44.8943Z" fill="#4E6075"/>
<g opacity="0.1294">
<path d="M192.436 48.8364C192.028 48.7071 191.892 49.0949 191.688 49.2888C191.416 49.6765 191.143 49.9997 190.871 50.3874C190.735 50.5813 190.599 50.7752 190.395 50.9044C190.123 51.1629 189.851 51.3568 189.579 51.6153C189.443 51.7446 189.307 51.9384 189.103 52.0677C189.103 52.0677 189.103 52.0677 189.035 52.0677L188.967 52.1323C188.967 52.1323 188.967 52.1323 188.899 52.1969C188.422 52.5201 187.878 52.8432 187.402 53.1017C187.13 53.2956 184.953 53.8772 184.681 53.8126C183.252 53.9418 182.844 53.8126 181.552 53.5541C180.463 53.2956 180.327 53.2309 179.511 52.9078C179.511 52.9078 179.443 52.9078 179.443 52.9078C178.831 52.6493 178.218 52.3908 177.674 52.0677C177.062 51.7446 176.926 51.4214 176.177 50.9044C176.177 50.9044 176.177 50.9044 176.109 50.8398C175.905 50.6459 175.633 50.3874 175.361 50.3874C174.817 50.3874 174.545 51.0337 174.953 51.4214C175.633 51.9384 176.177 52.7139 176.926 53.1663C177.878 53.748 178.831 54.265 179.851 54.7173C180.939 55.1051 182.096 55.299 183.252 55.4282C184.069 55.4929 184.953 55.299 185.701 55.1051C186.722 54.8466 187.742 54.5235 188.626 53.9418C189.035 53.6833 189.579 53.4248 189.851 52.9724C189.987 52.9078 190.735 52.0677 190.871 51.8738C191.484 51.2922 191.96 50.6459 192.436 49.9997C192.572 49.8058 192.776 49.6119 192.776 49.3534C192.844 49.1595 192.708 48.901 192.436 48.8364Z" fill="#4E6075"/>
</g>
<g opacity="0.1294">
<path d="M176.177 50.9044L176.245 50.9691C176.177 50.9044 176.177 50.9044 176.177 50.9044C176.109 50.8398 176.109 50.8398 176.177 50.9044C176.177 50.9044 176.109 50.8398 176.177 50.9044Z" fill="#4E6075"/>
</g>
</g>
<g clip-path="url(#clip7_139_28)">
<path d="M225.403 66.9106C226.051 63.1987 223.352 59.6991 219.375 59.094C215.398 58.4888 211.649 61.0074 211 64.7193C210.352 68.4312 213.051 71.9308 217.028 72.536C221.005 73.1411 224.754 70.6225 225.403 66.9106Z" fill="#74BD6C"/>
<path d="M218.201 72.8203C214.068 72.8203 210.701 69.6775 210.701 65.8203C210.701 61.9632 214.068 58.8203 218.201 58.8203C222.333 58.8203 225.701 61.9632 225.701 65.8203C225.701 69.6775 222.333 72.8203 218.201 72.8203ZM218.201 59.2013C214.272 59.2013 211.109 62.1536 211.109 65.8203C211.109 69.487 214.323 72.4394 218.201 72.4394C222.078 72.4394 225.293 69.4394 225.293 65.8203C225.293 62.1536 222.129 59.2013 218.201 59.2013Z" fill="#4E6075"/>
<path d="M214.374 64.7727L215.548 63.6298L217.384 66.0108L219.986 61.9631L221.466 63.0108L217.537 68.6774L214.374 64.7727Z" fill="white"/>
<path d="M217.537 68.8679C217.486 68.8679 217.435 68.8203 217.384 68.8203L214.221 64.8679C214.17 64.8203 214.17 64.6775 214.221 64.6298L215.395 63.5346C215.446 63.487 215.497 63.487 215.548 63.487C215.599 63.487 215.65 63.5346 215.701 63.5822L217.333 65.7251L219.782 61.9156C219.833 61.8679 219.833 61.8203 219.935 61.8203C219.986 61.8203 220.037 61.8203 220.089 61.8679L221.568 62.9156C221.67 62.9632 221.67 63.0584 221.619 63.1536L217.691 68.8203C217.691 68.8203 217.589 68.8679 217.537 68.8679ZM214.629 64.7727L217.537 68.3917L221.211 63.0584L220.089 62.2489L217.589 66.1536C217.537 66.2013 217.486 66.2489 217.435 66.2489C217.384 66.2489 217.333 66.2013 217.282 66.1536L215.599 63.9632L214.629 64.7727Z" fill="#4E6075"/>
<g opacity="0.1294">
<path d="M225.037 67.6775C224.731 67.5822 224.629 67.868 224.476 68.0108C224.272 68.2965 224.068 68.5346 223.864 68.8203C223.762 68.9632 223.66 69.1061 223.507 69.2013C223.303 69.3918 223.099 69.5346 222.895 69.7251C222.793 69.8203 222.691 69.9632 222.537 70.0584C222.537 70.0584 222.537 70.0584 222.486 70.0584L222.435 70.1061C222.435 70.1061 222.435 70.1061 222.384 70.1537C222.027 70.3918 221.619 70.6299 221.262 70.8203C221.058 70.9632 219.425 71.3918 219.221 71.3442C218.15 71.4394 217.844 71.3442 216.874 71.1537C216.058 70.9632 215.956 70.9156 215.344 70.6775C215.344 70.6775 215.293 70.6775 215.293 70.6775C214.833 70.487 214.374 70.2965 213.966 70.0584C213.507 69.8203 213.405 69.5822 212.844 69.2013C212.844 69.2013 212.844 69.2013 212.793 69.1537C212.64 69.0108 212.435 68.8203 212.231 68.8203C211.823 68.8203 211.619 69.2965 211.925 69.5822C212.435 69.9632 212.844 70.5346 213.405 70.868C214.119 71.2965 214.833 71.6775 215.599 72.0108C216.415 72.2965 217.282 72.4394 218.15 72.5346C218.762 72.5822 219.425 72.4394 219.986 72.2965C220.752 72.1061 221.517 71.868 222.18 71.4394C222.486 71.2489 222.895 71.0584 223.099 70.7251C223.201 70.6775 223.762 70.0584 223.864 69.9156C224.323 69.487 224.68 69.0108 225.037 68.5346C225.14 68.3918 225.293 68.2489 225.293 68.0584C225.344 67.9156 225.242 67.7251 225.037 67.6775Z" fill="#4E6075"/>
</g>
<g opacity="0.1294">
<path d="M212.844 69.2012L212.895 69.2489C212.844 69.2012 212.844 69.2012 212.844 69.2012C212.793 69.1536 212.793 69.1536 212.844 69.2012C212.844 69.2012 212.793 69.1536 212.844 69.2012Z" fill="#4E6075"/>
</g>
</g>
<g clip-path="url(#clip8_139_28)">
<path d="M20.628 158.848C21.2763 155.136 18.5778 151.637 14.6008 151.032C10.6238 150.426 6.87414 152.945 6.22581 156.657C5.57747 160.369 8.27593 163.868 12.253 164.474C16.23 165.079 19.9796 162.56 20.628 158.848Z" fill="#74BD6C"/>
<path d="M13.4261 164.758C9.29349 164.758 5.92615 161.615 5.92615 157.758C5.92615 153.901 9.29349 150.758 13.4261 150.758C17.5588 150.758 20.9261 153.901 20.9261 157.758C20.9261 161.615 17.5588 164.758 13.4261 164.758ZM13.4261 151.139C9.49758 151.139 6.33431 154.091 6.33431 157.758C6.33431 161.425 9.5486 164.377 13.4261 164.377C17.3037 164.377 20.518 161.377 20.518 157.758C20.518 154.091 17.3547 151.139 13.4261 151.139Z" fill="#4E6075"/>
<path d="M9.59962 156.71L10.7731 155.567L12.6098 157.948L15.2119 153.901L16.6915 154.948L12.7629 160.615L9.59962 156.71Z" fill="white"/>
<path d="M12.7629 160.806C12.7119 160.806 12.6608 160.758 12.6098 160.758L9.44656 156.806C9.39554 156.758 9.39554 156.615 9.44656 156.567L10.62 155.472C10.671 155.425 10.7221 155.425 10.7731 155.425C10.8241 155.425 10.8751 155.472 10.9262 155.52L12.5588 157.663L15.0078 153.853C15.0588 153.806 15.0588 153.758 15.1608 153.758C15.2119 153.758 15.2629 153.758 15.3139 153.806L16.7935 154.853C16.8955 154.901 16.8955 154.996 16.8445 155.091L12.9159 160.758C12.9159 160.758 12.8139 160.806 12.7629 160.806ZM9.85472 156.71L12.7629 160.329L16.4364 154.996L15.3139 154.187L12.8139 158.091C12.7629 158.139 12.7119 158.187 12.6608 158.187C12.6098 158.187 12.5588 158.139 12.5078 158.091L10.8241 155.901L9.85472 156.71Z" fill="#4E6075"/>
<g opacity="0.1294">
<path d="M20.2629 159.615C19.9568 159.52 19.8547 159.806 19.7017 159.948C19.4976 160.234 19.2935 160.472 19.0894 160.758C18.9874 160.901 18.8853 161.044 18.7323 161.139C18.5282 161.329 18.3241 161.472 18.12 161.663C18.018 161.758 17.916 161.901 17.7629 161.996C17.7629 161.996 17.7629 161.996 17.7119 161.996L17.6608 162.044C17.6608 162.044 17.6608 162.044 17.6098 162.091C17.2527 162.329 16.8445 162.567 16.4874 162.758C16.2833 162.901 14.6506 163.329 14.4466 163.282C13.3751 163.377 13.069 163.282 12.0996 163.091C11.2833 162.901 11.1813 162.853 10.569 162.615C10.569 162.615 10.518 162.615 10.518 162.615C10.0588 162.425 9.59962 162.234 9.19146 161.996C8.73228 161.758 8.63023 161.52 8.06901 161.139C8.06901 161.139 8.06901 161.139 8.01799 161.091C7.86493 160.948 7.66085 160.758 7.45676 160.758C7.0486 160.758 6.84452 161.234 7.15064 161.52C7.66085 161.901 8.06901 162.472 8.63023 162.806C9.34452 163.234 10.0588 163.615 10.8241 163.948C11.6404 164.234 12.5078 164.377 13.3751 164.472C13.9874 164.52 14.6506 164.377 15.2119 164.234C15.9772 164.044 16.7425 163.806 17.4057 163.377C17.7119 163.187 18.12 162.996 18.3241 162.663C18.4262 162.615 18.9874 161.996 19.0894 161.853C19.5486 161.425 19.9057 160.948 20.2629 160.472C20.3649 160.329 20.518 160.187 20.518 159.996C20.569 159.853 20.467 159.663 20.2629 159.615Z" fill="#4E6075"/>
</g>
<g opacity="0.1294">
<path d="M8.06901 161.139L8.12003 161.186C8.06901 161.139 8.06901 161.139 8.06901 161.139C8.01799 161.091 8.01799 161.091 8.06901 161.139C8.06901 161.139 8.01799 161.091 8.06901 161.139Z" fill="#4E6075"/>
</g>
</g>
<path d="M205.992 93.2868V93.2833V91.9691C205.992 85.091 200.375 79.4746 193.497 79.4746H63.0421C56.164 79.4746 50.5476 85.091 50.5476 91.9691V93.2833C50.5476 100.163 56.1148 105.727 63.0421 105.727H193.447C200.375 105.727 205.939 100.163 205.992 93.2868Z" fill="white" fill-opacity="0.97" stroke="#212121" stroke-width="0.93"/>
<path d="M171.258 79.6868V105.262H192.84C201.055 105.262 205.628 99.5507 205.628 92.4745C205.628 85.3983 199.916 79.6868 192.84 79.6868H171.258Z" fill="#74BD6C"/>
<path d="M196.543 99.5132L196.611 99.445V99.3486C196.611 99.2931 196.591 99.2528 196.586 99.2416C196.577 99.2249 196.569 99.2122 196.563 99.2049C196.553 99.1901 196.542 99.1776 196.534 99.1693C196.518 99.1518 196.497 99.1323 196.476 99.1129C196.433 99.073 196.372 99.02 196.296 98.9567C196.144 98.8296 195.925 98.654 195.655 98.4445C195.116 98.0253 194.367 97.4671 193.53 96.8835C192.67 96.2764 191.897 95.7445 191.332 95.37C191.05 95.1831 190.818 95.0339 190.651 94.934C190.569 94.8846 190.498 94.8445 190.444 94.8177C190.418 94.805 190.387 94.791 190.357 94.7815C190.343 94.7771 190.318 94.7696 190.287 94.7676C190.269 94.7664 190.175 94.7602 190.098 94.8372L190.03 94.9053V95.0018C190.03 95.0578 190.05 95.0984 190.056 95.1103C190.064 95.1274 190.074 95.1404 190.079 95.1477C190.09 95.1627 190.102 95.1752 190.109 95.1833C190.126 95.2006 190.146 95.2195 190.167 95.2382C190.211 95.2767 190.272 95.3277 190.347 95.3888C190.499 95.5116 190.717 95.6821 190.987 95.888C191.525 96.3 192.272 96.8571 193.108 97.4645L193.108 97.4645L193.11 97.4664C193.971 98.0737 194.743 98.6058 195.308 98.9803C195.59 99.1673 195.823 99.3164 195.989 99.4163C196.072 99.4657 196.142 99.5059 196.197 99.5326C196.223 99.5454 196.253 99.5593 196.283 99.5689C196.297 99.5733 196.323 99.5807 196.354 99.5828C196.372 99.584 196.466 99.5901 196.543 99.5132Z" fill="white" stroke="white" stroke-width="0.465576"/>
<path d="M157.743 90.5604H68.0144C66.7199 90.5604 65.6705 91.6098 65.6705 92.9044C65.6705 94.1989 66.7199 95.2483 68.0144 95.2483H157.743C159.038 95.2483 160.087 94.1989 160.087 92.9044C160.087 91.6098 159.038 90.5604 157.743 90.5604Z" fill="#74BD6C"/>
<circle cx="185.276" cy="90.6008" r="6.02829" stroke="white" stroke-width="2"/>
</g>
<defs>
<filter id="filter0_d_139_28" x="46.7616" y="44.4896" width="21.8753" height="28.3817" filterUnits="userSpaceOnUse" color-interpolation-filters="sRGB">
<feFlood flood-opacity="0" result="BackgroundImageFix"/>
<feColorMatrix in="SourceAlpha" type="matrix" values="0 0 0 0 0 0 0 0 0 0 0 0 0 0 0 0 0 0 127 0" result="hardAlpha"/>
<feOffset dx="2" dy="2"/>
<feComposite in2="hardAlpha" operator="out"/>
<feColorMatrix type="matrix" values="0 0 0 0 0 0 0 0 0 0 0 0 0 0 0 0 0 0 0.25 0"/>
<feBlend mode="normal" in2="BackgroundImageFix" result="effect1_dropShadow_139_28"/>
<feBlend mode="normal" in="SourceGraphic" in2="effect1_dropShadow_139_28" result="shape"/>
</filter>
<clipPath id="clip0_139_28">
<rect width="260" height="189" fill="white" transform="translate(0 0.813599)"/>
</clipPath>
<clipPath id="clip1_139_28">
<rect width="27" height="26" fill="white" transform="translate(230.911 29.8136)"/>
</clipPath>
<clipPath id="clip2_139_28">
<rect width="21" height="19" fill="white" transform="translate(44.0545 123.741)"/>
</clipPath>
<clipPath id="clip3_139_28">
<rect width="22" height="22" fill="white" transform="translate(18.1091 89.8141)"/>
</clipPath>
<clipPath id="clip4_139_28">
<rect width="8" height="8" fill="white" transform="translate(210.932 38.8136)"/>
</clipPath>
<clipPath id="clip5_139_28">
<rect width="34" height="33" fill="white" transform="translate(54.9405 100.814)"/>
</clipPath>
<clipPath id="clip6_139_28">
<rect width="20" height="19" fill="white" transform="translate(173.32 36.816)"/>
</clipPath>
<clipPath id="clip7_139_28">
<rect width="15" height="14" fill="white" transform="translate(210.701 58.8203)"/>
</clipPath>
<clipPath id="clip8_139_28">
<rect width="15" height="14" fill="white" transform="translate(5.92615 150.758)"/>
</clipPath>
</defs>
</svg>