<svg width="260" height="190" viewBox="0 0 260 190" fill="none" xmlns="http://www.w3.org/2000/svg"><script xmlns=""/>
<path d="M241.594 34.2637H16.4062V188.15H241.594V34.2637Z" fill="white"/>
<path d="M241.456 188.544H16.4061C16.1304 188.544 15.8546 188.282 15.8546 188.019V34.2636C15.8546 34.0007 16.1304 33.7379 16.4061 33.7379H241.594C241.87 33.7379 242.145 34.0007 242.145 34.2636V188.15C242.008 188.413 241.732 188.544 241.456 188.544ZM16.9577 187.625H241.042V34.7892H16.9577V187.625Z" fill="black"/>
<path d="M241.594 26.5101H16.4062V39.783H241.594V26.5101Z" fill="#4E6075"/>
<path d="M241.456 40.3087H16.4061C16.1304 40.3087 15.8546 40.0459 15.8546 39.783V26.5102C15.8546 26.2473 16.1304 25.9845 16.4061 25.9845H241.594C241.87 25.9845 242.145 26.2473 242.145 26.5102V39.783C242.008 40.0459 241.732 40.3087 241.456 40.3087ZM16.9577 39.2574H241.042V27.0358H16.9577V39.2574Z" fill="black"/>
<path d="M195.26 36.1034C196.936 36.1034 198.294 34.809 198.294 33.2123C198.294 31.6156 196.936 30.3212 195.26 30.3212C193.585 30.3212 192.226 31.6156 192.226 33.2123C192.226 34.809 193.585 36.1034 195.26 36.1034Z" fill="#74BD6C"/>
<path d="M195.26 36.4976C193.329 36.4976 191.813 35.0521 191.813 33.2122C191.813 31.3724 193.329 29.9269 195.26 29.9269C197.191 29.9269 198.707 31.3724 198.707 33.2122C198.707 35.0521 197.191 36.4976 195.26 36.4976ZM195.26 30.8468C193.881 30.8468 192.778 31.8981 192.778 33.2122C192.778 34.5264 193.881 35.5777 195.26 35.5777C196.639 35.5777 197.742 34.5264 197.742 33.2122C197.742 31.8981 196.639 30.8468 195.26 30.8468Z" fill="black"/>
<path d="M212.911 36.1034C214.587 36.1034 215.945 34.809 215.945 33.2123C215.945 31.6156 214.587 30.3212 212.911 30.3212C211.236 30.3212 209.877 31.6156 209.877 33.2123C209.877 34.809 211.236 36.1034 212.911 36.1034Z" fill="#74BD6C"/>
<path d="M212.911 36.4976C210.98 36.4976 209.464 35.0521 209.464 33.2122C209.464 31.3724 210.98 29.9269 212.911 29.9269C214.842 29.9269 216.358 31.3724 216.358 33.2122C216.358 35.0521 214.842 36.4976 212.911 36.4976ZM212.911 30.8468C211.532 30.8468 210.429 31.8981 210.429 33.2122C210.429 34.5264 211.532 35.5777 212.911 35.5777C214.29 35.5777 215.393 34.5264 215.393 33.2122C215.393 31.8981 214.29 30.8468 212.911 30.8468Z" fill="black"/>
<path d="M227.115 33.2123C227.115 31.6353 228.494 30.3212 230.148 30.3212C231.803 30.3212 233.182 31.6353 233.182 33.2123C233.182 34.7893 231.803 36.1034 230.148 36.1034C228.494 35.972 227.115 34.7893 227.115 33.2123Z" fill="#74BD6C"/>
<path d="M230.148 36.4976C228.218 36.4976 226.701 35.0521 226.701 33.2122C226.701 31.3724 228.218 29.9269 230.148 29.9269C232.079 29.9269 233.596 31.3724 233.596 33.2122C233.596 35.0521 232.079 36.4976 230.148 36.4976ZM230.148 30.8468C228.769 30.8468 227.666 31.8981 227.666 33.2122C227.666 34.5264 228.769 35.5777 230.148 35.5777C231.527 35.5777 232.63 34.5264 232.63 33.2122C232.63 31.8981 231.527 30.8468 230.148 30.8468Z" fill="black"/>
<g opacity="0.1294">
<path d="M240.766 40.4401C240.491 40.1772 239.525 40.1772 239.801 40.1772C239.25 40.1772 238.698 40.1772 238.146 40.1772C235.802 40.0458 233.596 40.0458 231.251 39.9144C224.357 39.6516 217.462 40.4401 210.429 40.3087C206.844 40.3087 203.396 40.4401 199.811 40.3087C197.053 40.3087 194.433 40.0458 191.675 39.9144C183.815 39.9144 175.954 39.3888 168.094 39.5202C161.199 39.6516 154.442 39.5202 147.547 39.3888C142.031 39.3888 136.653 39.3888 131.137 39.3888C126.587 39.2573 122.036 39.6516 117.486 39.6516C107.557 39.783 97.4903 39.783 87.5616 39.5202C83.9763 39.5202 80.253 39.3888 76.6677 39.5202C73.6339 39.6516 70.6002 39.5202 67.5664 39.6516C64.119 39.6516 60.8094 39.6516 57.3619 39.6516C53.3629 39.5202 49.3638 39.3888 45.3648 39.5202C42.0552 39.5202 38.8836 39.783 35.574 39.9144C32.5403 39.9144 29.6444 39.9144 26.6107 39.9144C24.4043 39.783 22.1979 39.783 19.9915 39.783C18.8884 39.9144 17.5094 39.5202 16.5441 40.3087C15.303 41.4914 16.1304 43.594 17.9231 43.594C20.5431 43.7254 23.1632 43.594 25.7833 43.8569C29.6444 43.9883 33.5056 43.9883 37.3667 43.8569C42.0552 43.594 46.7438 43.4626 51.5702 43.4626C55.1556 43.594 58.8788 43.594 62.4642 43.594C66.4632 43.7254 70.4623 43.7254 74.4613 43.594C77.0814 43.4626 79.7014 43.3312 82.3215 43.4626C89.6301 43.594 96.8008 43.8569 104.109 43.7254C111.418 43.7254 118.727 43.8569 126.035 43.4626C132.516 43.4626 139.136 43.4626 145.617 43.594C155.27 43.8569 165.06 43.594 174.713 43.594C180.643 43.7254 186.435 43.8569 192.364 43.8569C196.777 43.9883 201.19 44.2511 205.602 44.1197C209.188 43.9883 212.635 43.9883 216.221 43.8569C218.289 43.7254 220.495 43.4626 222.564 43.4626C228.08 43.1998 233.596 43.3312 239.112 43.4626C239.663 43.4626 240.353 43.4626 240.766 42.937C241.87 42.2799 241.732 40.9657 240.766 40.4401Z" fill="black"/>
</g>
<path d="M164.49 62.6204C164.49 66.3618 161.372 69.4797 157.631 69.4797C153.89 69.4797 150.772 66.3618 150.772 62.6204C150.772 58.879 153.89 55.7612 157.631 55.7612C161.372 55.7612 164.49 58.879 164.49 62.6204Z" fill="#638ADC"/>
<path d="M237.246 56.7979C237.246 56.8998 222.052 57.1038 203.289 57.1038C184.525 57.1038 169.331 57.0018 169.331 56.7979C169.331 56.6959 184.525 56.4919 203.289 56.4919C222.052 56.5939 237.246 56.6959 237.246 56.7979Z" fill="#638ADC"/>
<path d="M215.32 66.2505C215.32 66.3525 205.031 66.5564 192.325 66.5564C179.62 66.5564 169.331 66.4544 169.331 66.2505C169.331 66.1485 179.62 65.9446 192.325 65.9446C205.031 66.0466 215.32 66.1485 215.32 66.2505Z" fill="#638ADC"/>
<path d="M196.558 61.5736C196.558 61.5736 196.15 61.6756 195.539 61.6756C194.825 61.6756 193.907 61.7776 192.683 61.7776C190.236 61.7776 186.871 61.8796 183.2 61.8796C179.529 61.8796 176.163 61.8795 173.716 61.7776C172.492 61.7776 171.575 61.6756 170.861 61.6756C170.147 61.6756 169.841 61.5736 169.841 61.5736C169.841 61.5736 170.249 61.4716 170.861 61.4716C171.575 61.4716 172.492 61.3697 173.716 61.3697C176.163 61.3697 179.529 61.2677 183.2 61.2677C186.871 61.2677 190.236 61.2677 192.683 61.3697C193.907 61.3697 194.825 61.4716 195.539 61.4716C196.252 61.4716 196.558 61.4717 196.558 61.5736Z" fill="#638ADC"/>
<path d="M128.77 101.881C128.77 101.995 105.3 102.224 76.431 102.224C47.5624 102.224 24.092 102.11 24.092 101.881C24.092 101.766 47.5624 101.537 76.431 101.537C105.3 101.537 128.77 101.651 128.77 101.881Z" fill="#1A2E35"/>
<path d="M128.77 161.133C128.77 161.247 105.3 161.477 76.4311 161.477C47.5625 161.477 24.092 161.362 24.092 161.133C24.092 161.018 47.5625 160.789 76.4311 160.789C105.3 160.789 128.77 160.903 128.77 161.133Z" fill="#1A2E35"/>
<path d="M128.77 96.0339C128.77 96.1485 105.3 96.3778 76.431 96.3778C47.5624 96.3778 24.092 96.2632 24.092 96.0339C24.092 95.9192 47.5624 95.6899 76.431 95.6899C105.3 95.6899 128.77 95.9192 128.77 96.0339Z" fill="#1A2E35"/>
<path d="M128.77 155.286C128.77 155.401 105.3 155.63 76.4311 155.63C47.5625 155.63 24.092 155.515 24.092 155.286C24.092 155.171 47.5625 154.942 76.4311 154.942C105.3 154.942 128.77 155.171 128.77 155.286Z" fill="#1A2E35"/>
<path d="M128.77 90.1871C128.77 90.3017 105.3 90.531 76.431 90.531C47.5624 90.531 24.0919 90.4164 24.0919 90.1871C24.0919 90.0724 47.5624 89.8431 76.431 89.8431C105.3 89.9578 128.77 90.0724 128.77 90.1871Z" fill="#1A2E35"/>
<path d="M128.77 168.284C128.77 168.399 105.3 168.628 76.431 168.628C47.5624 168.628 24.092 168.514 24.092 168.284C24.092 168.17 47.5624 167.94 76.431 167.94C105.3 168.055 128.77 168.17 128.77 168.284Z" fill="#1A2E35"/>
<path d="M96.3808 174.246C96.3808 174.36 80.1862 174.59 60.4711 174.59C40.5212 174.59 24.5613 174.475 24.5613 174.246C24.5613 174.131 40.7559 173.902 60.4711 173.902C80.1862 173.902 96.3808 174.016 96.3808 174.246Z" fill="#1A2E35"/>
<g filter="url(#filter0_d_110_4503)">
<path d="M21.1398 21.4108L21.8374 22.3574H55.021L55.7683 21.4108H21.1398Z" fill="#638ADC"/>
<g opacity="0.4">
<path d="M21.1398 21.4108L21.8374 22.3574H55.021L55.7683 21.4108H21.1398Z" fill="#404040"/>
</g>
<path d="M22.2875 20.6154H54.5209V64.5079H22.2875V20.6154Z" fill="white" stroke="#1F1F1F"/>
<g opacity="0.8">
<path d="M23.1328 21.66C23.1827 22.0586 22.8837 22.4074 22.5349 22.4074C22.1862 22.4074 21.8374 22.0586 21.7876 21.66C21.7377 21.2614 22.0367 20.9126 22.3855 20.9126C22.7841 20.9126 23.083 21.2614 23.1328 21.66Z" fill="#EFEFEF"/>
<path d="M24.3785 21.66C24.4283 22.0586 24.1294 22.4074 23.7806 22.4074C23.4318 22.4074 23.083 22.0586 23.0332 21.66C22.9834 21.2614 23.2824 20.9126 23.6311 20.9126C23.9799 20.9126 24.3287 21.2614 24.3785 21.66Z" fill="#EFEFEF"/>
<path d="M25.5742 21.66C25.6241 22.0586 25.3251 22.4074 24.9763 22.4074C24.6276 22.4074 24.2788 22.0586 24.229 21.66C24.1791 21.2614 24.4781 20.9126 24.8269 20.9126C25.2255 20.9126 25.5742 21.2614 25.5742 21.66Z" fill="#EFEFEF"/>
<path d="M26.8199 21.66C26.8697 22.0586 26.5708 22.4074 26.222 22.4074C25.8732 22.4074 25.5245 22.0586 25.4746 21.66C25.4248 21.2614 25.7238 20.9126 26.0725 20.9126C26.4711 20.9126 26.7701 21.2614 26.8199 21.66Z" fill="#EFEFEF"/>
<path d="M28.0157 21.66C28.0655 22.0586 27.7666 22.4074 27.4178 22.4074C27.069 22.4074 26.7202 22.0586 26.7202 21.66C26.6704 21.2614 26.9694 20.9126 27.3181 20.9126C27.6669 20.9126 28.0157 21.2614 28.0157 21.66Z" fill="#EFEFEF"/>
<path d="M29.2613 21.66C29.2613 22.0586 29.0122 22.4074 28.6136 22.4074C28.2648 22.4074 27.9161 22.0586 27.9161 21.66C27.8662 21.2614 28.1652 20.9126 28.514 20.9126C28.9126 20.9126 29.2613 21.2614 29.2613 21.66Z" fill="#EFEFEF"/>
<path d="M30.507 21.66C30.507 22.0586 30.2579 22.4074 29.8593 22.4074C29.5105 22.4074 29.1617 22.0586 29.1617 21.66C29.1617 21.2614 29.4108 20.9126 29.8094 20.9126C30.208 20.9126 30.4572 21.2614 30.507 21.66Z" fill="#EFEFEF"/>
<path d="M31.7028 21.66C31.7028 22.0586 31.4536 22.4074 31.055 22.4074C30.7063 22.4074 30.3575 22.0586 30.3575 21.66C30.3575 21.2614 30.6066 20.9126 31.0052 20.9126C31.354 20.9126 31.7028 21.2614 31.7028 21.66Z" fill="#EFEFEF"/>
<path d="M32.9484 21.66C32.9484 22.0586 32.6993 22.4074 32.3007 22.4074C31.9519 22.4074 31.6031 22.0586 31.6031 21.66C31.6031 21.2614 31.8522 20.9126 32.2508 20.9126C32.6494 20.9126 32.8986 21.2614 32.9484 21.66Z" fill="#EFEFEF"/>
<path d="M34.1442 21.66C34.1442 22.0586 33.8452 22.4074 33.4965 22.4074C33.1477 22.4074 32.7989 22.0586 32.7989 21.66C32.7989 21.2614 33.0979 20.9126 33.4466 20.9126C33.7954 20.9126 34.1442 21.2614 34.1442 21.66Z" fill="#EFEFEF"/>
<path d="M35.3898 21.66C35.3898 22.0586 35.0909 22.4074 34.7421 22.4074C34.3933 22.4074 34.0446 22.0586 34.0446 21.66C34.0446 21.2614 34.3435 20.9126 34.6923 20.9126C35.0411 20.9126 35.3898 21.2614 35.3898 21.66Z" fill="#EFEFEF"/>
<path d="M36.5856 21.66C36.5856 22.0586 36.2867 22.4074 35.9379 22.4074C35.5891 22.4074 35.2902 22.0586 35.2404 21.66C35.2404 21.2614 35.5393 20.9126 35.8881 20.9126C36.2867 20.9126 36.5856 21.2614 36.5856 21.66Z" fill="#EFEFEF"/>
<path d="M37.8313 21.66C37.8313 22.0586 37.5323 22.4074 37.1835 22.4074C36.8348 22.4074 36.5358 22.0586 36.486 21.66C36.486 21.2614 36.7849 20.9126 37.1337 20.9126C37.5323 20.9126 37.8313 21.2614 37.8313 21.66Z" fill="#EFEFEF"/>
<path d="M39.0271 21.66C39.0271 22.0586 38.7281 22.4074 38.3794 22.4074C38.0306 22.4074 37.7316 22.0586 37.7316 21.66C37.7316 21.2614 38.0306 20.9126 38.3794 20.9126C38.7281 20.9126 39.0769 21.2614 39.0271 21.66Z" fill="#EFEFEF"/>
<path d="M40.2727 21.66C40.2727 22.0586 39.9738 22.4074 39.5752 22.4074C39.2264 22.4074 38.9274 22.0586 38.9274 21.66C38.9274 21.2614 39.2264 20.9126 39.625 20.9126C39.9738 20.9126 40.2727 21.2614 40.2727 21.66Z" fill="#EFEFEF"/>
<path d="M41.5183 21.66C41.5183 22.0586 41.2194 22.4074 40.8208 22.4074C40.472 22.4074 40.1731 22.0586 40.1731 21.66C40.1731 21.2614 40.472 20.9126 40.8706 20.9126C41.2194 20.9126 41.5183 21.2614 41.5183 21.66Z" fill="#EFEFEF"/>
<path d="M42.7141 21.66C42.7141 22.0586 42.4152 22.4074 42.0166 22.4074C41.6678 22.4074 41.3689 22.0586 41.3689 21.66C41.3689 21.2614 41.6678 20.9126 42.0664 20.9126C42.465 20.9126 42.7141 21.2614 42.7141 21.66Z" fill="#EFEFEF"/>
<path d="M43.9598 21.66C43.9598 22.0586 43.6608 22.4074 43.2622 22.4074C42.9135 22.4074 42.6145 22.0586 42.6145 21.66C42.6145 21.2614 42.9135 20.9126 43.3121 20.9126C43.6608 20.9126 43.9598 21.2614 43.9598 21.66Z" fill="#EFEFEF"/>
<path d="M45.1556 21.66C45.1556 22.0586 44.8068 22.4074 44.458 22.4074C44.1093 22.4074 43.8103 22.0586 43.8103 21.66C43.8103 21.2614 44.1591 20.9126 44.5079 20.9126C44.9065 20.9126 45.2054 21.2614 45.1556 21.66Z" fill="#EFEFEF"/>
<path d="M46.4012 21.66C46.4012 22.0586 46.0524 22.4074 45.7037 22.4074C45.3549 22.4074 45.0559 22.0586 45.0559 21.66C45.0559 21.2614 45.4047 20.9126 45.7535 20.9126C46.1521 20.9126 46.4012 21.2614 46.4012 21.66Z" fill="#EFEFEF"/>
<path d="M47.597 21.66C47.597 22.0586 47.2482 22.4074 46.8995 22.4074C46.5507 22.4074 46.2517 22.0586 46.2517 21.66C46.2517 21.2614 46.6005 20.9126 46.9493 20.9126C47.3479 20.9126 47.6468 21.2614 47.597 21.66Z" fill="#EFEFEF"/>
<path d="M48.8427 21.66C48.7928 22.0586 48.4939 22.4074 48.1451 22.4074C47.7963 22.4074 47.4974 22.0586 47.4974 21.66C47.4974 21.2614 47.8462 20.9126 48.1949 20.9126C48.5935 20.9126 48.8427 21.2614 48.8427 21.66Z" fill="#EFEFEF"/>
<path d="M50.0883 21.66C50.0384 22.0586 49.7395 22.4074 49.3907 22.4074C49.0419 22.4074 48.743 22.0586 48.7928 21.66C48.8426 21.2614 49.1416 20.9126 49.4904 20.9126C49.8391 20.9126 50.0883 21.2614 50.0883 21.66Z" fill="#EFEFEF"/>
<path d="M51.2841 21.66C51.2342 22.0586 50.9353 22.4074 50.5367 22.4074C50.1879 22.4074 49.8889 22.0586 49.9388 21.66C49.9886 21.2614 50.2875 20.9126 50.6861 20.9126C51.0349 20.9126 51.3339 21.2614 51.2841 21.66Z" fill="#EFEFEF"/>
<path d="M52.5297 21.66C52.4799 22.0586 52.1809 22.4074 51.7823 22.4074C51.3837 22.4074 51.1346 22.0586 51.1844 21.66C51.2342 21.2614 51.5332 20.9126 51.9318 20.9126C52.2806 20.9126 52.5297 21.2614 52.5297 21.66Z" fill="#EFEFEF"/>
<path d="M53.7255 21.66C53.6757 22.0586 53.3767 22.4074 52.9781 22.4074C52.6294 22.4074 52.3304 22.0586 52.3802 21.66C52.4301 21.2614 52.729 20.9126 53.1276 20.9126C53.5262 20.9126 53.7753 21.2614 53.7255 21.66Z" fill="#EFEFEF"/>
<path d="M54.9711 21.66C54.9213 22.0586 54.6223 22.4074 54.2237 22.4074C53.875 22.4074 53.576 22.0586 53.6258 21.66C53.6757 21.2614 53.9746 20.9126 54.3732 20.9126C54.722 20.9126 55.0209 21.2614 54.9711 21.66Z" fill="#EFEFEF"/>
</g>
<path d="M21.1398 20.3646H55.7683V21.411H21.1398V20.3646Z" fill="#4E6075"/>
<path d="M21.1398 19.368L21.8374 20.3645H55.021L55.7683 19.368H21.1398Z" fill="#638ADC"/>
<g opacity="0.4">
<path d="M21.1398 19.368L21.8374 20.3645H55.021L55.7683 19.368H21.1398Z" fill="#404040"/>
</g>
<path d="M21.1398 18.3716H55.7683V19.3681H21.1398V18.3716Z" fill="#4E6075"/>
<path d="M21.8374 19.368H55.021V20.3645H21.8374V19.368Z" fill="#638ADC"/>
<g opacity="0.8">
<path d="M21.8374 19.368H55.021V20.3645H21.8374V19.368Z" fill="#EFEFEF"/>
</g>
<g opacity="0.7">
<path d="M55.0209 22.4572H21.7875V22.9056H55.0209V22.4572Z" fill="#EFEFEF"/>
</g>
<g opacity="0.8">
<path d="M55.0708 44.4799H21.8872V44.9283H55.0708V44.4799Z" fill="#4E6075"/>
</g>
<path d="M32.7989 47.868H28.7133V52.6014H32.7989V47.868Z" fill="#638ADC"/>
<path d="M40.6713 47.868H36.5856V52.6014H40.6713V47.868Z" fill="#638ADC"/>
<path d="M48.5437 47.868H44.458V52.6014H48.5437V47.868Z" fill="#638ADC"/>
<path d="M28.3645 57.7832H24.2788V62.5166H28.3645V57.7832Z" fill="#638ADC"/>
<path d="M52.5297 57.7832H48.444V62.5166H52.5297V57.7832Z" fill="#638ADC"/>
<path d="M32.7989 26.6426H28.7133V31.376H32.7989V26.6426Z" fill="#638ADC"/>
<path d="M40.6713 26.6426H36.5856V31.376H40.6713V26.6426Z" fill="#638ADC"/>
<path d="M48.5437 26.6426H44.458V31.376H48.5437V26.6426Z" fill="#638ADC"/>
<path d="M32.7989 33.6678H28.7133V38.4012H32.7989V33.6678Z" fill="#638ADC"/>
<path d="M40.6713 33.6678H36.5856V38.4012H40.6713V33.6678Z" fill="#638ADC"/>
<path d="M48.5437 33.6678H44.458V38.4012H48.5437V33.6678Z" fill="#638ADC"/>
<g opacity="0.8">
<path d="M33.646 58.3314H37.9309L37.8811 63.0648H33.646V58.3314Z" fill="#EFEFEF"/>
</g>
<g opacity="0.8">
<path d="M38.7281 58.3314H43.1626L42.9633 63.0648H38.6783L38.7281 58.3314Z" fill="#EFEFEF"/>
</g>
<path d="M43.8601 64.0114H32.5996L32.5498 63.0647H43.91L43.8601 64.0114Z" fill="#638ADC"/>
<g opacity="0.1">
<path d="M43.8601 64.0114H32.5996L32.5498 63.0647H43.91L43.8601 64.0114Z" fill="#EFEFEF"/>
</g>
<path d="M44.3085 65.008H32.201L32.1512 64.0613H44.3584L44.3085 65.008Z" fill="#638ADC"/>
<g opacity="0.4">
<path d="M44.7071 56.6871H31.8024L31.7526 55.6407H44.757L44.7071 56.6871Z" fill="#EFEFEF"/>
</g>
<path d="M31.8024 56.6871L33.646 58.3314H43.1626L44.7072 56.6871H31.8024Z" fill="#4E6075"/>
<path d="M32.6495 57.4844L33.2972 63.0649H33.8453L33.646 57.4844C33.347 57.2851 32.9484 57.2851 32.6495 57.4844Z" fill="#638ADC"/>
<path d="M44.0096 57.4844L43.3619 63.0649H42.8138L43.0131 57.4844C43.3121 57.2851 43.7107 57.2851 44.0096 57.4844Z" fill="#638ADC"/>
</g>
<g filter="url(#filter1_d_110_4503)">
<path d="M106.1 21.4108L106.797 22.3574H139.981L140.728 21.4108H106.1Z" fill="#638ADC"/>
<g opacity="0.4">
<path d="M106.1 21.4108L106.797 22.3574H139.981L140.728 21.4108H106.1Z" fill="#404040"/>
</g>
<path d="M107.247 20.6154H139.481V64.5079H107.247V20.6154Z" fill="white" stroke="#1F1F1F"/>
<g opacity="0.8">
<path d="M108.093 21.66C108.142 22.0586 107.843 22.4074 107.495 22.4074C107.146 22.4074 106.797 22.0586 106.747 21.66C106.697 21.2614 106.996 20.9126 107.345 20.9126C107.744 20.9126 108.043 21.2614 108.093 21.66Z" fill="#EFEFEF"/>
<path d="M109.338 21.66C109.388 22.0586 109.089 22.4074 108.74 22.4074C108.392 22.4074 108.043 22.0586 107.993 21.66C107.943 21.2614 108.242 20.9126 108.591 20.9126C108.94 20.9126 109.288 21.2614 109.338 21.66Z" fill="#EFEFEF"/>
<path d="M110.534 21.66C110.584 22.0586 110.285 22.4074 109.936 22.4074C109.587 22.4074 109.239 22.0586 109.189 21.66C109.139 21.2614 109.438 20.9126 109.787 20.9126C110.185 20.9126 110.534 21.2614 110.534 21.66Z" fill="#EFEFEF"/>
<path d="M111.78 21.66C111.829 22.0586 111.531 22.4074 111.182 22.4074C110.833 22.4074 110.484 22.0586 110.434 21.66C110.385 21.2614 110.683 20.9126 111.032 20.9126C111.431 20.9126 111.73 21.2614 111.78 21.66Z" fill="#EFEFEF"/>
<path d="M112.975 21.66C113.025 22.0586 112.726 22.4074 112.378 22.4074C112.029 22.4074 111.68 22.0586 111.68 21.66C111.63 21.2614 111.929 20.9126 112.278 20.9126C112.627 20.9126 112.975 21.2614 112.975 21.66Z" fill="#EFEFEF"/>
<path d="M114.221 21.66C114.221 22.0586 113.972 22.4074 113.573 22.4074C113.225 22.4074 112.876 22.0586 112.876 21.66C112.826 21.2614 113.125 20.9126 113.474 20.9126C113.872 20.9126 114.221 21.2614 114.221 21.66Z" fill="#EFEFEF"/>
<path d="M115.467 21.66C115.467 22.0586 115.218 22.4074 114.819 22.4074C114.47 22.4074 114.121 22.0586 114.121 21.66C114.121 21.2614 114.371 20.9126 114.769 20.9126C115.168 20.9126 115.417 21.2614 115.467 21.66Z" fill="#EFEFEF"/>
<path d="M116.663 21.66C116.663 22.0586 116.413 22.4074 116.015 22.4074C115.666 22.4074 115.317 22.0586 115.317 21.66C115.317 21.2614 115.566 20.9126 115.965 20.9126C116.314 20.9126 116.663 21.2614 116.663 21.66Z" fill="#EFEFEF"/>
<path d="M117.908 21.66C117.908 22.0586 117.659 22.4074 117.26 22.4074C116.912 22.4074 116.563 22.0586 116.563 21.66C116.563 21.2614 116.812 20.9126 117.211 20.9126C117.609 20.9126 117.858 21.2614 117.908 21.66Z" fill="#EFEFEF"/>
<path d="M119.104 21.66C119.104 22.0586 118.805 22.4074 118.456 22.4074C118.107 22.4074 117.759 22.0586 117.759 21.66C117.759 21.2614 118.058 20.9126 118.406 20.9126C118.755 20.9126 119.104 21.2614 119.104 21.66Z" fill="#EFEFEF"/>
<path d="M120.35 21.66C120.35 22.0586 120.051 22.4074 119.702 22.4074C119.353 22.4074 119.004 22.0586 119.004 21.66C119.004 21.2614 119.303 20.9126 119.652 20.9126C120.001 20.9126 120.35 21.2614 120.35 21.66Z" fill="#EFEFEF"/>
<path d="M121.545 21.66C121.545 22.0586 121.246 22.4074 120.898 22.4074C120.549 22.4074 120.25 22.0586 120.2 21.66C120.2 21.2614 120.499 20.9126 120.848 20.9126C121.246 20.9126 121.545 21.2614 121.545 21.66Z" fill="#EFEFEF"/>
<path d="M122.791 21.66C122.791 22.0586 122.492 22.4074 122.143 22.4074C121.795 22.4074 121.496 22.0586 121.446 21.66C121.446 21.2614 121.745 20.9126 122.093 20.9126C122.492 20.9126 122.791 21.2614 122.791 21.66Z" fill="#EFEFEF"/>
<path d="M123.987 21.66C123.987 22.0586 123.688 22.4074 123.339 22.4074C122.99 22.4074 122.691 22.0586 122.691 21.66C122.691 21.2614 122.99 20.9126 123.339 20.9126C123.688 20.9126 124.037 21.2614 123.987 21.66Z" fill="#EFEFEF"/>
<path d="M125.232 21.66C125.232 22.0586 124.934 22.4074 124.535 22.4074C124.186 22.4074 123.887 22.0586 123.887 21.66C123.887 21.2614 124.186 20.9126 124.585 20.9126C124.934 20.9126 125.232 21.2614 125.232 21.66Z" fill="#EFEFEF"/>
<path d="M126.478 21.66C126.478 22.0586 126.179 22.4074 125.781 22.4074C125.432 22.4074 125.133 22.0586 125.133 21.66C125.133 21.2614 125.432 20.9126 125.83 20.9126C126.179 20.9126 126.478 21.2614 126.478 21.66Z" fill="#EFEFEF"/>
<path d="M127.674 21.66C127.674 22.0586 127.375 22.4074 126.976 22.4074C126.628 22.4074 126.329 22.0586 126.329 21.66C126.329 21.2614 126.628 20.9126 127.026 20.9126C127.425 20.9126 127.674 21.2614 127.674 21.66Z" fill="#EFEFEF"/>
<path d="M128.92 21.66C128.92 22.0586 128.621 22.4074 128.222 22.4074C127.873 22.4074 127.574 22.0586 127.574 21.66C127.574 21.2614 127.873 20.9126 128.272 20.9126C128.621 20.9126 128.92 21.2614 128.92 21.66Z" fill="#EFEFEF"/>
<path d="M130.115 21.66C130.115 22.0586 129.767 22.4074 129.418 22.4074C129.069 22.4074 128.77 22.0586 128.77 21.66C128.77 21.2614 129.119 20.9126 129.468 20.9126C129.866 20.9126 130.165 21.2614 130.115 21.66Z" fill="#EFEFEF"/>
<path d="M131.361 21.66C131.361 22.0586 131.012 22.4074 130.663 22.4074C130.315 22.4074 130.016 22.0586 130.016 21.66C130.016 21.2614 130.364 20.9126 130.713 20.9126C131.112 20.9126 131.361 21.2614 131.361 21.66Z" fill="#EFEFEF"/>
<path d="M132.557 21.66C132.557 22.0586 132.208 22.4074 131.859 22.4074C131.51 22.4074 131.211 22.0586 131.211 21.66C131.211 21.2614 131.56 20.9126 131.909 20.9126C132.308 20.9126 132.607 21.2614 132.557 21.66Z" fill="#EFEFEF"/>
<path d="M133.802 21.66C133.753 22.0586 133.454 22.4074 133.105 22.4074C132.756 22.4074 132.457 22.0586 132.457 21.66C132.457 21.2614 132.806 20.9126 133.155 20.9126C133.553 20.9126 133.802 21.2614 133.802 21.66Z" fill="#EFEFEF"/>
<path d="M135.048 21.66C134.998 22.0586 134.699 22.4074 134.35 22.4074C134.002 22.4074 133.703 22.0586 133.753 21.66C133.802 21.2614 134.101 20.9126 134.45 20.9126C134.799 20.9126 135.048 21.2614 135.048 21.66Z" fill="#EFEFEF"/>
<path d="M136.244 21.66C136.194 22.0586 135.895 22.4074 135.496 22.4074C135.148 22.4074 134.849 22.0586 134.899 21.66C134.948 21.2614 135.247 20.9126 135.646 20.9126C135.995 20.9126 136.294 21.2614 136.244 21.66Z" fill="#EFEFEF"/>
<path d="M137.489 21.66C137.44 22.0586 137.141 22.4074 136.742 22.4074C136.343 22.4074 136.094 22.0586 136.144 21.66C136.194 21.2614 136.493 20.9126 136.892 20.9126C137.24 20.9126 137.489 21.2614 137.489 21.66Z" fill="#EFEFEF"/>
<path d="M138.685 21.66C138.635 22.0586 138.336 22.4074 137.938 22.4074C137.589 22.4074 137.29 22.0586 137.34 21.66C137.39 21.2614 137.689 20.9126 138.087 20.9126C138.486 20.9126 138.735 21.2614 138.685 21.66Z" fill="#EFEFEF"/>
<path d="M139.931 21.66C139.881 22.0586 139.582 22.4074 139.183 22.4074C138.835 22.4074 138.536 22.0586 138.586 21.66C138.635 21.2614 138.934 20.9126 139.333 20.9126C139.682 20.9126 139.981 21.2614 139.931 21.66Z" fill="#EFEFEF"/>
</g>
<path d="M106.1 20.3646H140.728V21.411H106.1V20.3646Z" fill="#4E6075"/>
<path d="M106.1 19.368L106.797 20.3645H139.981L140.728 19.368H106.1Z" fill="#638ADC"/>
<g opacity="0.4">
<path d="M106.1 19.368L106.797 20.3645H139.981L140.728 19.368H106.1Z" fill="#404040"/>
</g>
<path d="M106.1 18.3716H140.728V19.3681H106.1V18.3716Z" fill="#4E6075"/>
<path d="M106.797 19.368H139.981V20.3645H106.797V19.368Z" fill="#638ADC"/>
<g opacity="0.8">
<path d="M106.797 19.368H139.981V20.3645H106.797V19.368Z" fill="#EFEFEF"/>
</g>
<g opacity="0.7">
<path d="M139.981 22.4572H106.747V22.9056H139.981V22.4572Z" fill="#EFEFEF"/>
</g>
<g opacity="0.8">
<path d="M140.031 44.4799H106.847V44.9283H140.031V44.4799Z" fill="#4E6075"/>
</g>
<path d="M117.759 47.868H113.673V52.6014H117.759V47.868Z" fill="#638ADC"/>
<path d="M125.631 47.868H121.545V52.6014H125.631V47.868Z" fill="#638ADC"/>
<path d="M133.503 47.868H129.418V52.6014H133.503V47.868Z" fill="#638ADC"/>
<path d="M113.324 57.7832H109.239V62.5166H113.324V57.7832Z" fill="#638ADC"/>
<path d="M137.489 57.7832H133.404V62.5166H137.489V57.7832Z" fill="#638ADC"/>
<path d="M117.759 26.6426H113.673V31.376H117.759V26.6426Z" fill="#638ADC"/>
<path d="M125.631 26.6426H121.545V31.376H125.631V26.6426Z" fill="#638ADC"/>
<path d="M133.503 26.6426H129.418V31.376H133.503V26.6426Z" fill="#638ADC"/>
<path d="M117.759 33.6678H113.673V38.4012H117.759V33.6678Z" fill="#638ADC"/>
<path d="M125.631 33.6678H121.545V38.4012H125.631V33.6678Z" fill="#638ADC"/>
<path d="M133.503 33.6678H129.418V38.4012H133.503V33.6678Z" fill="#638ADC"/>
<g opacity="0.8">
<path d="M118.606 58.3314H122.891L122.841 63.0648H118.606V58.3314Z" fill="#EFEFEF"/>
</g>
<g opacity="0.8">
<path d="M123.688 58.3314H128.122L127.923 63.0648H123.638L123.688 58.3314Z" fill="#EFEFEF"/>
</g>
<path d="M128.82 64.0114H117.559L117.51 63.0647H128.87L128.82 64.0114Z" fill="#638ADC"/>
<g opacity="0.1">
<path d="M128.82 64.0114H117.559L117.51 63.0647H128.87L128.82 64.0114Z" fill="#EFEFEF"/>
</g>
<path d="M129.268 65.008H117.161L117.111 64.0613H129.318L129.268 65.008Z" fill="#638ADC"/>
<g opacity="0.4">
<path d="M129.667 56.6871H116.762L116.712 55.6407H129.717L129.667 56.6871Z" fill="#EFEFEF"/>
</g>
<path d="M116.762 56.6871L118.606 58.3314H128.122L129.667 56.6871H116.762Z" fill="#4E6075"/>
<path d="M117.609 57.4844L118.257 63.0649H118.805L118.606 57.4844C118.307 57.2851 117.908 57.2851 117.609 57.4844Z" fill="#638ADC"/>
<path d="M128.969 57.4844L128.322 63.0649H127.774L127.973 57.4844C128.272 57.2851 128.67 57.2851 128.969 57.4844Z" fill="#638ADC"/>
</g>
<g filter="url(#filter2_d_110_4503)">
<path d="M84.2336 16.4988L85.1058 17.6824H126.595L127.529 16.4988H84.2336Z" fill="#638ADC"/>
<g opacity="0.4">
<path d="M84.2336 16.4988L85.1058 17.6824H126.595L127.529 16.4988H84.2336Z" fill="#404040"/>
</g>
<path d="M85.5435 15.379H126.095V70.5079H85.5435V15.379Z" fill="white" stroke="#1F1F1F"/>
<g opacity="0.8">
<path d="M86.7255 16.8103C86.7878 17.3087 86.414 17.7447 85.9779 17.7447C85.5419 17.7447 85.1058 17.3087 85.0435 16.8103C84.9812 16.3119 85.355 15.8759 85.7911 15.8759C86.2894 15.8759 86.6632 16.3119 86.7255 16.8103Z" fill="#EFEFEF"/>
<path d="M88.2829 16.8103C88.3452 17.3087 87.9714 17.7447 87.5353 17.7447C87.0993 17.7447 86.6632 17.3087 86.6009 16.8103C86.5386 16.3119 86.9124 15.8759 87.3485 15.8759C87.7845 15.8759 88.2206 16.3119 88.2829 16.8103Z" fill="#EFEFEF"/>
<path d="M89.778 16.8103C89.8403 17.3087 89.4665 17.7447 89.0304 17.7447C88.5944 17.7447 88.1583 17.3087 88.096 16.8103C88.0337 16.3119 88.4075 15.8759 88.8435 15.8759C89.3419 15.8759 89.778 16.3119 89.778 16.8103Z" fill="#EFEFEF"/>
<path d="M91.3354 16.8103C91.3977 17.3087 91.0239 17.7447 90.5879 17.7447C90.1518 17.7447 89.7157 17.3087 89.6534 16.8103C89.5911 16.3119 89.9649 15.8759 90.401 15.8759C90.8993 15.8759 91.2731 16.3119 91.3354 16.8103Z" fill="#EFEFEF"/>
<path d="M92.8305 16.8103C92.8928 17.3087 92.519 17.7447 92.083 17.7447C91.6469 17.7447 91.2108 17.3087 91.2108 16.8103C91.1485 16.3119 91.5223 15.8759 91.9584 15.8759C92.3945 15.8759 92.8305 16.3119 92.8305 16.8103Z" fill="#EFEFEF"/>
<path d="M94.3879 16.8103C94.3879 17.3087 94.0764 17.7447 93.5781 17.7447C93.142 17.7447 92.7059 17.3087 92.7059 16.8103C92.6436 16.3119 93.0174 15.8759 93.4535 15.8759C93.9518 15.8759 94.3879 16.3119 94.3879 16.8103Z" fill="#EFEFEF"/>
<path d="M95.9453 16.8103C95.9453 17.3087 95.6339 17.7447 95.1355 17.7447C94.6994 17.7447 94.2633 17.3087 94.2633 16.8103C94.2633 16.3119 94.5748 15.8759 95.0732 15.8759C95.5716 15.8759 95.883 16.3119 95.9453 16.8103Z" fill="#EFEFEF"/>
<path d="M97.4404 16.8103C97.4404 17.3087 97.1289 17.7447 96.6306 17.7447C96.1945 17.7447 95.7584 17.3087 95.7584 16.8103C95.7584 16.3119 96.0699 15.8759 96.5683 15.8759C97.0043 15.8759 97.4404 16.3119 97.4404 16.8103Z" fill="#EFEFEF"/>
<path d="M98.9979 16.8103C98.9979 17.3087 98.6864 17.7447 98.188 17.7447C97.7519 17.7447 97.3159 17.3087 97.3159 16.8103C97.3159 16.3119 97.6273 15.8759 98.1257 15.8759C98.6241 15.8759 98.9356 16.3119 98.9979 16.8103Z" fill="#EFEFEF"/>
<path d="M100.493 16.8103C100.493 17.3087 100.119 17.7447 99.6831 17.7447C99.247 17.7447 98.8109 17.3087 98.8109 16.8103C98.8109 16.3119 99.1847 15.8759 99.6208 15.8759C100.057 15.8759 100.493 16.3119 100.493 16.8103Z" fill="#EFEFEF"/>
<path d="M102.05 16.8103C102.05 17.3087 101.677 17.7447 101.24 17.7447C100.804 17.7447 100.368 17.3087 100.368 16.8103C100.368 16.3119 100.742 15.8759 101.178 15.8759C101.614 15.8759 102.05 16.3119 102.05 16.8103Z" fill="#EFEFEF"/>
<path d="M103.545 16.8103C103.545 17.3087 103.172 17.7447 102.736 17.7447C102.3 17.7447 101.926 17.3087 101.863 16.8103C101.863 16.3119 102.237 15.8759 102.673 15.8759C103.172 15.8759 103.545 16.3119 103.545 16.8103Z" fill="#EFEFEF"/>
<path d="M105.103 16.8103C105.103 17.3087 104.729 17.7447 104.293 17.7447C103.857 17.7447 103.483 17.3087 103.421 16.8103C103.421 16.3119 103.795 15.8759 104.231 15.8759C104.729 15.8759 105.103 16.3119 105.103 16.8103Z" fill="#EFEFEF"/>
<path d="M106.598 16.8103C106.598 17.3087 106.224 17.7447 105.788 17.7447C105.352 17.7447 104.978 17.3087 104.978 16.8103C104.978 16.3119 105.352 15.8759 105.788 15.8759C106.224 15.8759 106.66 16.3119 106.598 16.8103Z" fill="#EFEFEF"/>
<path d="M108.155 16.8103C108.155 17.3087 107.782 17.7447 107.283 17.7447C106.847 17.7447 106.473 17.3087 106.473 16.8103C106.473 16.3119 106.847 15.8759 107.346 15.8759C107.782 15.8759 108.155 16.3119 108.155 16.8103Z" fill="#EFEFEF"/>
<path d="M109.713 16.8103C109.713 17.3087 109.339 17.7447 108.841 17.7447C108.405 17.7447 108.031 17.3087 108.031 16.8103C108.031 16.3119 108.405 15.8759 108.903 15.8759C109.339 15.8759 109.713 16.3119 109.713 16.8103Z" fill="#EFEFEF"/>
<path d="M111.208 16.8103C111.208 17.3087 110.834 17.7447 110.336 17.7447C109.9 17.7447 109.526 17.3087 109.526 16.8103C109.526 16.3119 109.9 15.8759 110.398 15.8759C110.896 15.8759 111.208 16.3119 111.208 16.8103Z" fill="#EFEFEF"/>
<path d="M112.765 16.8103C112.765 17.3087 112.392 17.7447 111.893 17.7447C111.457 17.7447 111.083 17.3087 111.083 16.8103C111.083 16.3119 111.457 15.8759 111.955 15.8759C112.392 15.8759 112.765 16.3119 112.765 16.8103Z" fill="#EFEFEF"/>
<path d="M114.26 16.8103C114.26 17.3087 113.824 17.7447 113.388 17.7447C112.952 17.7447 112.578 17.3087 112.578 16.8103C112.578 16.3119 113.014 15.8759 113.451 15.8759C113.949 15.8759 114.323 16.3119 114.26 16.8103Z" fill="#EFEFEF"/>
<path d="M115.818 16.8103C115.818 17.3087 115.382 17.7447 114.946 17.7447C114.51 17.7447 114.136 17.3087 114.136 16.8103C114.136 16.3119 114.572 15.8759 115.008 15.8759C115.506 15.8759 115.818 16.3119 115.818 16.8103Z" fill="#EFEFEF"/>
<path d="M117.313 16.8103C117.313 17.3087 116.877 17.7447 116.441 17.7447C116.005 17.7447 115.631 17.3087 115.631 16.8103C115.631 16.3119 116.067 15.8759 116.503 15.8759C117.001 15.8759 117.375 16.3119 117.313 16.8103Z" fill="#EFEFEF"/>
<path d="M118.87 16.8103C118.808 17.3087 118.434 17.7447 117.998 17.7447C117.562 17.7447 117.188 17.3087 117.188 16.8103C117.188 16.3119 117.624 15.8759 118.06 15.8759C118.559 15.8759 118.87 16.3119 118.87 16.8103Z" fill="#EFEFEF"/>
<path d="M120.428 16.8103C120.365 17.3087 119.992 17.7447 119.556 17.7447C119.12 17.7447 118.746 17.3087 118.808 16.8103C118.87 16.3119 119.244 15.8759 119.68 15.8759C120.116 15.8759 120.428 16.3119 120.428 16.8103Z" fill="#EFEFEF"/>
<path d="M121.923 16.8103C121.861 17.3087 121.487 17.7447 120.988 17.7447C120.552 17.7447 120.179 17.3087 120.241 16.8103C120.303 16.3119 120.677 15.8759 121.175 15.8759C121.611 15.8759 121.985 16.3119 121.923 16.8103Z" fill="#EFEFEF"/>
<path d="M123.48 16.8103C123.418 17.3087 123.044 17.7447 122.546 17.7447C122.047 17.7447 121.736 17.3087 121.798 16.8103C121.861 16.3119 122.234 15.8759 122.733 15.8759C123.169 15.8759 123.48 16.3119 123.48 16.8103Z" fill="#EFEFEF"/>
<path d="M124.975 16.8103C124.913 17.3087 124.539 17.7447 124.041 17.7447C123.605 17.7447 123.231 17.3087 123.293 16.8103C123.356 16.3119 123.729 15.8759 124.228 15.8759C124.726 15.8759 125.038 16.3119 124.975 16.8103Z" fill="#EFEFEF"/>
<path d="M126.533 16.8103C126.47 17.3087 126.097 17.7447 125.598 17.7447C125.162 17.7447 124.788 17.3087 124.851 16.8103C124.913 16.3119 125.287 15.8759 125.785 15.8759C126.221 15.8759 126.595 16.3119 126.533 16.8103Z" fill="#EFEFEF"/>
</g>
<path d="M84.2336 15.1907H127.529V16.4989H84.2336V15.1907Z" fill="#4E6075"/>
<path d="M84.2336 13.9446L85.1058 15.1905H126.595L127.529 13.9446H84.2336Z" fill="#638ADC"/>
<g opacity="0.4">
<path d="M84.2336 13.9446L85.1058 15.1905H126.595L127.529 13.9446H84.2336Z" fill="#404040"/>
</g>
<path d="M84.2336 12.6987H127.529V13.9447H84.2336V12.6987Z" fill="#4E6075"/>
<path d="M85.1058 13.9446H126.595V15.1905H85.1058V13.9446Z" fill="#638ADC"/>
<g opacity="0.8">
<path d="M85.1058 13.9446H126.595V15.1905H85.1058V13.9446Z" fill="#EFEFEF"/>
</g>
<g opacity="0.7">
<path d="M126.595 17.8069H85.0435V18.3676H126.595V17.8069Z" fill="#EFEFEF"/>
</g>
<g opacity="0.8">
<path d="M126.657 45.3419H85.1681V45.9026H126.657V45.3419Z" fill="#4E6075"/>
</g>
<path d="M98.8109 49.5781H93.7026V55.4963H98.8109V49.5781Z" fill="#638ADC"/>
<path d="M108.654 49.5781H103.545V55.4963H108.654V49.5781Z" fill="#638ADC"/>
<path d="M118.496 49.5781H113.388V55.4963H118.496V49.5781Z" fill="#638ADC"/>
<path d="M93.2665 61.975H88.1583V67.8931H93.2665V61.975Z" fill="#638ADC"/>
<path d="M123.48 61.975H118.372V67.8931H123.48V61.975Z" fill="#638ADC"/>
<path d="M98.8109 23.04H93.7026V28.9582H98.8109V23.04Z" fill="#638ADC"/>
<path d="M108.654 23.04H103.545V28.9582H108.654V23.04Z" fill="#638ADC"/>
<path d="M118.496 23.04H113.388V28.9582H118.496V23.04Z" fill="#638ADC"/>
<path d="M98.8109 31.8236H93.7026V37.7417H98.8109V31.8236Z" fill="#638ADC"/>
<path d="M108.654 31.8236H103.545V37.7417H108.654V31.8236Z" fill="#638ADC"/>
<path d="M118.496 31.8236H113.388V37.7417H118.496V31.8236Z" fill="#638ADC"/>
<g opacity="0.8">
<path d="M99.87 62.6603H105.227L105.165 68.5784H99.87V62.6603Z" fill="#EFEFEF"/>
</g>
<g opacity="0.8">
<path d="M106.224 62.6603H111.769L111.519 68.5784H106.162L106.224 62.6603Z" fill="#EFEFEF"/>
</g>
<path d="M112.641 69.762H98.5617L98.4995 68.5784H112.703L112.641 69.762Z" fill="#638ADC"/>
<g opacity="0.1">
<path d="M112.641 69.762H98.5617L98.4995 68.5784H112.703L112.641 69.762Z" fill="#EFEFEF"/>
</g>
<path d="M113.201 71.008H98.0634L98.0011 69.8243H113.264L113.201 71.008Z" fill="#638ADC"/>
<g opacity="0.4">
<path d="M113.7 60.6045H97.565L97.5027 59.2963H113.762L113.7 60.6045Z" fill="#EFEFEF"/>
</g>
<path d="M97.565 60.6045L99.87 62.6603H111.769L113.7 60.6045H97.565Z" fill="#4E6075"/>
<path d="M98.6241 61.6013L99.4339 68.5785H100.119L99.87 61.6013C99.4962 61.3521 98.9979 61.3521 98.6241 61.6013Z" fill="#638ADC"/>
<path d="M112.828 61.6013L112.018 68.5785H111.332L111.582 61.6013C111.955 61.3521 112.454 61.3521 112.828 61.6013Z" fill="#638ADC"/>
</g>
<g filter="url(#filter3_d_110_4503)">
<path d="M34.5986 16.4988L35.4707 17.6824H76.9599L77.8944 16.4988H34.5986Z" fill="#638ADC"/>
<g opacity="0.4">
<path d="M34.5986 16.4988L35.4707 17.6824H76.9599L77.8944 16.4988H34.5986Z" fill="#404040"/>
</g>
<path d="M35.9084 15.379H76.4599V70.5079H35.9084V15.379Z" fill="white" stroke="#1F1F1F"/>
<g opacity="0.8">
<path d="M37.0904 16.8103C37.1527 17.3087 36.7789 17.7447 36.3429 17.7447C35.9068 17.7447 35.4707 17.3087 35.4084 16.8103C35.3461 16.3119 35.7199 15.8759 36.156 15.8759C36.6544 15.8759 37.0281 16.3119 37.0904 16.8103Z" fill="#EFEFEF"/>
<path d="M38.6478 16.8103C38.7101 17.3087 38.3363 17.7447 37.9003 17.7447C37.4642 17.7447 37.0281 17.3087 36.9658 16.8103C36.9035 16.3119 37.2773 15.8759 37.7134 15.8759C38.1495 15.8759 38.5855 16.3119 38.6478 16.8103Z" fill="#EFEFEF"/>
<path d="M40.1429 16.8103C40.2052 17.3087 39.8314 17.7447 39.3954 17.7447C38.9593 17.7447 38.5232 17.3087 38.4609 16.8103C38.3986 16.3119 38.7724 15.8759 39.2085 15.8759C39.7068 15.8759 40.1429 16.3119 40.1429 16.8103Z" fill="#EFEFEF"/>
<path d="M41.7003 16.8103C41.7626 17.3087 41.3888 17.7447 40.9528 17.7447C40.5167 17.7447 40.0806 17.3087 40.0183 16.8103C39.956 16.3119 40.3298 15.8759 40.7659 15.8759C41.2642 15.8759 41.638 16.3119 41.7003 16.8103Z" fill="#EFEFEF"/>
<path d="M43.1955 16.8103C43.2578 17.3087 42.884 17.7447 42.4479 17.7447C42.0118 17.7447 41.5758 17.3087 41.5758 16.8103C41.5135 16.3119 41.8872 15.8759 42.3233 15.8759C42.7594 15.8759 43.1955 16.3119 43.1955 16.8103Z" fill="#EFEFEF"/>
<path d="M44.7528 16.8103C44.7528 17.3087 44.4414 17.7447 43.943 17.7447C43.5069 17.7447 43.0708 17.3087 43.0708 16.8103C43.0085 16.3119 43.3823 15.8759 43.8184 15.8759C44.3168 15.8759 44.7528 16.3119 44.7528 16.8103Z" fill="#EFEFEF"/>
<path d="M46.3103 16.8103C46.3103 17.3087 45.9988 17.7447 45.5004 17.7447C45.0643 17.7447 44.6283 17.3087 44.6283 16.8103C44.6283 16.3119 44.9397 15.8759 45.4381 15.8759C45.9365 15.8759 46.248 16.3119 46.3103 16.8103Z" fill="#EFEFEF"/>
<path d="M47.8053 16.8103C47.8053 17.3087 47.4939 17.7447 46.9955 17.7447C46.5594 17.7447 46.1234 17.3087 46.1234 16.8103C46.1234 16.3119 46.4348 15.8759 46.9332 15.8759C47.3693 15.8759 47.8053 16.3119 47.8053 16.8103Z" fill="#EFEFEF"/>
<path d="M49.3628 16.8103C49.3628 17.3087 49.0513 17.7447 48.5529 17.7447C48.1168 17.7447 47.6808 17.3087 47.6808 16.8103C47.6808 16.3119 47.9922 15.8759 48.4906 15.8759C48.989 15.8759 49.3005 16.3119 49.3628 16.8103Z" fill="#EFEFEF"/>
<path d="M50.8579 16.8103C50.8579 17.3087 50.4841 17.7447 50.048 17.7447C49.6119 17.7447 49.1759 17.3087 49.1759 16.8103C49.1759 16.3119 49.5497 15.8759 49.9857 15.8759C50.4218 15.8759 50.8579 16.3119 50.8579 16.8103Z" fill="#EFEFEF"/>
<path d="M52.4153 16.8103C52.4153 17.3087 52.0415 17.7447 51.6054 17.7447C51.1694 17.7447 50.7333 17.3087 50.7333 16.8103C50.7333 16.3119 51.1071 15.8759 51.5431 15.8759C51.9792 15.8759 52.4153 16.3119 52.4153 16.8103Z" fill="#EFEFEF"/>
<path d="M53.9104 16.8103C53.9104 17.3087 53.5366 17.7447 53.1005 17.7447C52.6645 17.7447 52.2907 17.3087 52.2284 16.8103C52.2284 16.3119 52.6022 15.8759 53.0382 15.8759C53.5366 15.8759 53.9104 16.3119 53.9104 16.8103Z" fill="#EFEFEF"/>
<path d="M55.4678 16.8103C55.4678 17.3087 55.094 17.7447 54.6579 17.7447C54.2219 17.7447 53.8481 17.3087 53.7858 16.8103C53.7858 16.3119 54.1596 15.8759 54.5956 15.8759C55.094 15.8759 55.4678 16.3119 55.4678 16.8103Z" fill="#EFEFEF"/>
<path d="M56.9629 16.8103C56.9629 17.3087 56.5891 17.7447 56.1531 17.7447C55.717 17.7447 55.3432 17.3087 55.3432 16.8103C55.3432 16.3119 55.717 15.8759 56.1531 15.8759C56.5891 15.8759 57.0252 16.3119 56.9629 16.8103Z" fill="#EFEFEF"/>
<path d="M58.5203 16.8103C58.5203 17.3087 58.1465 17.7447 57.6481 17.7447C57.2121 17.7447 56.8383 17.3087 56.8383 16.8103C56.8383 16.3119 57.2121 15.8759 57.7104 15.8759C58.1465 15.8759 58.5203 16.3119 58.5203 16.8103Z" fill="#EFEFEF"/>
<path d="M60.0777 16.8103C60.0777 17.3087 59.7039 17.7447 59.2056 17.7447C58.7695 17.7447 58.3957 17.3087 58.3957 16.8103C58.3957 16.3119 58.7695 15.8759 59.2679 15.8759C59.7039 15.8759 60.0777 16.3119 60.0777 16.8103Z" fill="#EFEFEF"/>
<path d="M61.5728 16.8103C61.5728 17.3087 61.199 17.7447 60.7007 17.7447C60.2646 17.7447 59.8908 17.3087 59.8908 16.8103C59.8908 16.3119 60.2646 15.8759 60.763 15.8759C61.2613 15.8759 61.5728 16.3119 61.5728 16.8103Z" fill="#EFEFEF"/>
<path d="M63.1302 16.8103C63.1302 17.3087 62.7564 17.7447 62.2581 17.7447C61.822 17.7447 61.4482 17.3087 61.4482 16.8103C61.4482 16.3119 61.822 15.8759 62.3204 15.8759C62.7564 15.8759 63.1302 16.3119 63.1302 16.8103Z" fill="#EFEFEF"/>
<path d="M64.6253 16.8103C64.6253 17.3087 64.1893 17.7447 63.7532 17.7447C63.3171 17.7447 62.9433 17.3087 62.9433 16.8103C62.9433 16.3119 63.3794 15.8759 63.8155 15.8759C64.3138 15.8759 64.6876 16.3119 64.6253 16.8103Z" fill="#EFEFEF"/>
<path d="M66.1827 16.8103C66.1827 17.3087 65.7467 17.7447 65.3106 17.7447C64.8745 17.7447 64.5007 17.3087 64.5007 16.8103C64.5007 16.3119 64.9368 15.8759 65.3729 15.8759C65.8712 15.8759 66.1827 16.3119 66.1827 16.8103Z" fill="#EFEFEF"/>
<path d="M67.6778 16.8103C67.6778 17.3087 67.2417 17.7447 66.8057 17.7447C66.3696 17.7447 65.9958 17.3087 65.9958 16.8103C65.9958 16.3119 66.4319 15.8759 66.868 15.8759C67.3663 15.8759 67.7401 16.3119 67.6778 16.8103Z" fill="#EFEFEF"/>
<path d="M69.2352 16.8103C69.1729 17.3087 68.7991 17.7447 68.3631 17.7447C67.927 17.7447 67.5532 17.3087 67.5532 16.8103C67.5532 16.3119 67.9893 15.8759 68.4254 15.8759C68.9237 15.8759 69.2352 16.3119 69.2352 16.8103Z" fill="#EFEFEF"/>
<path d="M70.7926 16.8103C70.7303 17.3087 70.3566 17.7447 69.9205 17.7447C69.4844 17.7447 69.1106 17.3087 69.1729 16.8103C69.2352 16.3119 69.609 15.8759 70.0451 15.8759C70.4811 15.8759 70.7926 16.3119 70.7926 16.8103Z" fill="#EFEFEF"/>
<path d="M72.2877 16.8103C72.2255 17.3087 71.8517 17.7447 71.3533 17.7447C70.9172 17.7447 70.5435 17.3087 70.6058 16.8103C70.6681 16.3119 71.0418 15.8759 71.5402 15.8759C71.9763 15.8759 72.35 16.3119 72.2877 16.8103Z" fill="#EFEFEF"/>
<path d="M73.8451 16.8103C73.7828 17.3087 73.4091 17.7447 72.9107 17.7447C72.4123 17.7447 72.1008 17.3087 72.1631 16.8103C72.2254 16.3119 72.5992 15.8759 73.0976 15.8759C73.5337 15.8759 73.8451 16.3119 73.8451 16.8103Z" fill="#EFEFEF"/>
<path d="M75.3403 16.8103C75.278 17.3087 74.9042 17.7447 74.4058 17.7447C73.9698 17.7447 73.596 17.3087 73.6583 16.8103C73.7206 16.3119 74.0943 15.8759 74.5927 15.8759C75.0911 15.8759 75.4026 16.3119 75.3403 16.8103Z" fill="#EFEFEF"/>
<path d="M76.8976 16.8103C76.8353 17.3087 76.4616 17.7447 75.9632 17.7447C75.5271 17.7447 75.1534 17.3087 75.2156 16.8103C75.2779 16.3119 75.6517 15.8759 76.1501 15.8759C76.5862 15.8759 76.9599 16.3119 76.8976 16.8103Z" fill="#EFEFEF"/>
</g>
<path d="M34.5986 15.1907H77.8944V16.4989H34.5986V15.1907Z" fill="#4E6075"/>
<path d="M34.5986 13.9446L35.4707 15.1905H76.9599L77.8944 13.9446H34.5986Z" fill="#638ADC"/>
<g opacity="0.4">
<path d="M34.5986 13.9446L35.4707 15.1905H76.9599L77.8944 13.9446H34.5986Z" fill="#404040"/>
</g>
<path d="M34.5986 12.6987H77.8944V13.9447H34.5986V12.6987Z" fill="#4E6075"/>
<path d="M35.4707 13.9446H76.9599V15.1905H35.4707V13.9446Z" fill="#638ADC"/>
<g opacity="0.8">
<path d="M35.4707 13.9446H76.9599V15.1905H35.4707V13.9446Z" fill="#EFEFEF"/>
</g>
<g opacity="0.7">
<path d="M76.9599 17.8069H35.4084V18.3676H76.9599V17.8069Z" fill="#EFEFEF"/>
</g>
<g opacity="0.8">
<path d="M77.0223 45.3419H35.533V45.9026H77.0223V45.3419Z" fill="#4E6075"/>
</g>
<path d="M49.1758 49.5781H44.0676V55.4963H49.1758V49.5781Z" fill="#638ADC"/>
<path d="M59.0186 49.5781H53.9103V55.4963H59.0186V49.5781Z" fill="#638ADC"/>
<path d="M68.8614 49.5781H63.7531V55.4963H68.8614V49.5781Z" fill="#638ADC"/>
<path d="M43.6315 61.975H38.5232V67.8931H43.6315V61.975Z" fill="#638ADC"/>
<path d="M73.8451 61.975H68.7368V67.8931H73.8451V61.975Z" fill="#638ADC"/>
<path d="M49.1758 23.04H44.0676V28.9582H49.1758V23.04Z" fill="#638ADC"/>
<path d="M59.0186 23.04H53.9103V28.9582H59.0186V23.04Z" fill="#638ADC"/>
<path d="M68.8614 23.04H63.7531V28.9582H68.8614V23.04Z" fill="#638ADC"/>
<path d="M49.1758 31.8236H44.0676V37.7417H49.1758V31.8236Z" fill="#638ADC"/>
<path d="M59.0186 31.8236H53.9103V37.7417H59.0186V31.8236Z" fill="#638ADC"/>
<path d="M68.8614 31.8236H63.7531V37.7417H68.8614V31.8236Z" fill="#638ADC"/>
<g opacity="0.8">
<path d="M50.2349 62.6603H55.5924L55.5301 68.5784H50.2349V62.6603Z" fill="#EFEFEF"/>
</g>
<g opacity="0.8">
<path d="M56.5891 62.6603H62.1334L61.8843 68.5784H56.5268L56.5891 62.6603Z" fill="#EFEFEF"/>
</g>
<path d="M63.0056 69.762H48.9267L48.8644 68.5784H63.0679L63.0056 69.762Z" fill="#638ADC"/>
<g opacity="0.1">
<path d="M63.0056 69.762H48.9267L48.8644 68.5784H63.0679L63.0056 69.762Z" fill="#EFEFEF"/>
</g>
<path d="M63.5663 71.008H48.4283L48.366 69.8243H63.6286L63.5663 71.008Z" fill="#638ADC"/>
<g opacity="0.4">
<path d="M64.0646 60.6045H47.9299L47.8676 59.2963H64.1269L64.0646 60.6045Z" fill="#EFEFEF"/>
</g>
<path d="M47.9299 60.6045L50.2349 62.6603H62.1335L64.0646 60.6045H47.9299Z" fill="#4E6075"/>
<path d="M48.989 61.6013L49.7988 68.5785H50.4841L50.2349 61.6013C49.8611 61.3521 49.3628 61.3521 48.989 61.6013Z" fill="#638ADC"/>
<path d="M63.1925 61.6013L62.3826 68.5785H61.6974L61.9466 61.6013C62.3204 61.3521 62.8187 61.3521 63.1925 61.6013Z" fill="#638ADC"/>
</g>
<g filter="url(#filter4_d_110_4503)">
<path d="M55.9108 10.1322L56.9488 11.5409H106.328L107.441 10.1322H55.9108Z" fill="#638ADC"/>
<g opacity="0.4">
<path d="M55.9108 10.1322L56.9488 11.5409H106.328L107.441 10.1322H55.9108Z" fill="#404040"/>
</g>
<path d="M57.3747 8.70447H105.828V74.5079H57.3747V8.70447Z" fill="white" stroke="#1F1F1F"/>
<g opacity="0.8">
<path d="M58.8765 10.503C58.9507 11.0962 58.5058 11.6152 57.9868 11.6152C57.4678 11.6152 56.9488 11.0962 56.8747 10.503C56.8005 9.90987 57.2454 9.39087 57.7644 9.39087C58.3575 9.39087 58.8024 9.90987 58.8765 10.503Z" fill="#EFEFEF"/>
<path d="M60.7301 10.503C60.8043 11.0962 60.3594 11.6152 59.8404 11.6152C59.3214 11.6152 58.8024 11.0962 58.7283 10.503C58.6541 9.90987 59.099 9.39087 59.618 9.39087C60.137 9.39087 60.656 9.90987 60.7301 10.503Z" fill="#EFEFEF"/>
<path d="M62.5096 10.503C62.5837 11.0962 62.1388 11.6152 61.6198 11.6152C61.1008 11.6152 60.5818 11.0962 60.5077 10.503C60.4335 9.90987 60.8784 9.39087 61.3974 9.39087C61.9906 9.39087 62.5096 9.90987 62.5096 10.503Z" fill="#EFEFEF"/>
<path d="M64.3632 10.503C64.4373 11.0962 63.9925 11.6152 63.4734 11.6152C62.9544 11.6152 62.4354 11.0962 62.3613 10.503C62.2872 9.90987 62.732 9.39087 63.251 9.39087C63.8442 9.39087 64.289 9.90987 64.3632 10.503Z" fill="#EFEFEF"/>
<path d="M66.1426 10.503C66.2167 11.0962 65.7719 11.6152 65.2529 11.6152C64.7339 11.6152 64.2149 11.0962 64.2149 10.503C64.1407 9.90987 64.5856 9.39087 65.1046 9.39087C65.6236 9.39087 66.1426 9.90987 66.1426 10.503Z" fill="#EFEFEF"/>
<path d="M67.9962 10.503C67.9962 11.0962 67.6255 11.6152 67.0323 11.6152C66.5133 11.6152 65.9943 11.0962 65.9943 10.503C65.9202 9.90987 66.365 9.39087 66.884 9.39087C67.4772 9.39087 67.9962 9.90987 67.9962 10.503Z" fill="#EFEFEF"/>
<path d="M69.8498 10.503C69.8498 11.0962 69.4791 11.6152 68.8859 11.6152C68.3669 11.6152 67.8479 11.0962 67.8479 10.503C67.8479 9.90987 68.2186 9.39087 68.8118 9.39087C69.4049 9.39087 69.7757 9.90987 69.8498 10.503Z" fill="#EFEFEF"/>
<path d="M71.6292 10.503C71.6292 11.0962 71.2585 11.6152 70.6654 11.6152C70.1464 11.6152 69.6273 11.0962 69.6273 10.503C69.6273 9.90987 69.9981 9.39087 70.5912 9.39087C71.1102 9.39087 71.6292 9.90987 71.6292 10.503Z" fill="#EFEFEF"/>
<path d="M73.4828 10.503C73.4828 11.0962 73.1121 11.6152 72.519 11.6152C72 11.6152 71.481 11.0962 71.481 10.503C71.481 9.90987 71.8517 9.39087 72.4448 9.39087C73.038 9.39087 73.4087 9.90987 73.4828 10.503Z" fill="#EFEFEF"/>
<path d="M75.2623 10.503C75.2623 11.0962 74.8174 11.6152 74.2984 11.6152C73.7794 11.6152 73.2604 11.0962 73.2604 10.503C73.2604 9.90987 73.7053 9.39087 74.2243 9.39087C74.7433 9.39087 75.2623 9.90987 75.2623 10.503Z" fill="#EFEFEF"/>
<path d="M77.1159 10.503C77.1159 11.0962 76.671 11.6152 76.152 11.6152C75.633 11.6152 75.114 11.0962 75.114 10.503C75.114 9.90987 75.5588 9.39087 76.0779 9.39087C76.5969 9.39087 77.1159 9.90987 77.1159 10.503Z" fill="#EFEFEF"/>
<path d="M78.8953 10.503C78.8953 11.0962 78.4504 11.6152 77.9314 11.6152C77.4124 11.6152 76.9676 11.0962 76.8934 10.503C76.8934 9.90987 77.3383 9.39087 77.8573 9.39087C78.4504 9.39087 78.8953 9.90987 78.8953 10.503Z" fill="#EFEFEF"/>
<path d="M80.7489 10.503C80.7489 11.0962 80.3041 11.6152 79.7851 11.6152C79.266 11.6152 78.8212 11.0962 78.747 10.503C78.747 9.90987 79.1919 9.39087 79.7109 9.39087C80.3041 9.39087 80.7489 9.90987 80.7489 10.503Z" fill="#EFEFEF"/>
<path d="M82.5283 10.503C82.5283 11.0962 82.0835 11.6152 81.5645 11.6152C81.0455 11.6152 80.6006 11.0962 80.6006 10.503C80.6006 9.90987 81.0455 9.39087 81.5645 9.39087C82.0835 9.39087 82.6025 9.90987 82.5283 10.503Z" fill="#EFEFEF"/>
<path d="M84.3819 10.503C84.3819 11.0962 83.9371 11.6152 83.3439 11.6152C82.8249 11.6152 82.3801 11.0962 82.3801 10.503C82.3801 9.90987 82.8249 9.39087 83.4181 9.39087C83.9371 9.39087 84.3819 9.90987 84.3819 10.503Z" fill="#EFEFEF"/>
<path d="M86.2355 10.503C86.2355 11.0962 85.7907 11.6152 85.1975 11.6152C84.6785 11.6152 84.2337 11.0962 84.2337 10.503C84.2337 9.90987 84.6785 9.39087 85.2717 9.39087C85.7907 9.39087 86.2355 9.90987 86.2355 10.503Z" fill="#EFEFEF"/>
<path d="M88.015 10.503C88.015 11.0962 87.5701 11.6152 86.977 11.6152C86.458 11.6152 86.0131 11.0962 86.0131 10.503C86.0131 9.90987 86.458 9.39087 87.0511 9.39087C87.6443 9.39087 88.015 9.90987 88.015 10.503Z" fill="#EFEFEF"/>
<path d="M89.8686 10.503C89.8686 11.0962 89.4237 11.6152 88.8306 11.6152C88.3116 11.6152 87.8667 11.0962 87.8667 10.503C87.8667 9.90987 88.3116 9.39087 88.9047 9.39087C89.4237 9.39087 89.8686 9.90987 89.8686 10.503Z" fill="#EFEFEF"/>
<path d="M91.648 10.503C91.648 11.0962 91.129 11.6152 90.61 11.6152C90.091 11.6152 89.6461 11.0962 89.6461 10.503C89.6461 9.90987 90.1652 9.39087 90.6842 9.39087C91.2773 9.39087 91.7222 9.90987 91.648 10.503Z" fill="#EFEFEF"/>
<path d="M93.5016 10.503C93.5016 11.0962 92.9826 11.6152 92.4636 11.6152C91.9446 11.6152 91.4997 11.0962 91.4997 10.503C91.4997 9.90987 92.0187 9.39087 92.5377 9.39087C93.1309 9.39087 93.5016 9.90987 93.5016 10.503Z" fill="#EFEFEF"/>
<path d="M95.2811 10.503C95.2811 11.0962 94.762 11.6152 94.243 11.6152C93.724 11.6152 93.2792 11.0962 93.2792 10.503C93.2792 9.90987 93.7982 9.39087 94.3172 9.39087C94.9103 9.39087 95.3552 9.90987 95.2811 10.503Z" fill="#EFEFEF"/>
<path d="M97.1347 10.503C97.0605 11.0962 96.6157 11.6152 96.0967 11.6152C95.5776 11.6152 95.1328 11.0962 95.1328 10.503C95.1328 9.90987 95.6518 9.39087 96.1708 9.39087C96.7639 9.39087 97.1347 9.90987 97.1347 10.503Z" fill="#EFEFEF"/>
<path d="M98.9883 10.503C98.9141 11.0962 98.4692 11.6152 97.9502 11.6152C97.4312 11.6152 96.9864 11.0962 97.0605 10.503C97.1347 9.90987 97.5795 9.39087 98.0985 9.39087C98.6175 9.39087 98.9883 9.90987 98.9883 10.503Z" fill="#EFEFEF"/>
<path d="M100.768 10.503C100.694 11.0962 100.249 11.6152 99.6555 11.6152C99.1365 11.6152 98.6917 11.0962 98.7658 10.503C98.8399 9.90987 99.2848 9.39087 99.878 9.39087C100.397 9.39087 100.842 9.90987 100.768 10.503Z" fill="#EFEFEF"/>
<path d="M102.621 10.503C102.547 11.0962 102.102 11.6152 101.509 11.6152C100.916 11.6152 100.545 11.0962 100.619 10.503C100.694 9.90987 101.138 9.39087 101.732 9.39087C102.251 9.39087 102.621 9.90987 102.621 10.503Z" fill="#EFEFEF"/>
<path d="M104.401 10.503C104.327 11.0962 103.882 11.6152 103.289 11.6152C102.77 11.6152 102.325 11.0962 102.399 10.503C102.473 9.90987 102.918 9.39087 103.511 9.39087C104.104 9.39087 104.475 9.90987 104.401 10.503Z" fill="#EFEFEF"/>
<path d="M106.254 10.503C106.18 11.0962 105.735 11.6152 105.142 11.6152C104.623 11.6152 104.178 11.0962 104.252 10.503C104.327 9.90987 104.771 9.39087 105.365 9.39087C105.884 9.39087 106.328 9.90987 106.254 10.503Z" fill="#EFEFEF"/>
</g>
<path d="M55.9108 8.57532H107.441V10.1323H55.9108V8.57532Z" fill="#4E6075"/>
<path d="M55.9108 7.09229L56.9488 8.57516H106.328L107.441 7.09229H55.9108Z" fill="#638ADC"/>
<g opacity="0.4">
<path d="M55.9108 7.09229L56.9488 8.57516H106.328L107.441 7.09229H55.9108Z" fill="#404040"/>
</g>
<path d="M55.9108 5.6095H107.441V7.09237H55.9108V5.6095Z" fill="#4E6075"/>
<path d="M56.9488 7.09229H106.328V8.57516H56.9488V7.09229Z" fill="#638ADC"/>
<g opacity="0.8">
<path d="M56.9488 7.09229H106.328V8.57516H56.9488V7.09229Z" fill="#EFEFEF"/>
</g>
<g opacity="0.7">
<path d="M106.328 11.6892H56.8747V12.3565H106.328V11.6892Z" fill="#EFEFEF"/>
</g>
<g opacity="0.8">
<path d="M106.403 44.4607H57.0229V45.128H106.403V44.4607Z" fill="#4E6075"/>
</g>
<path d="M73.2604 49.5026H67.1806V56.5462H73.2604V49.5026Z" fill="#638ADC"/>
<path d="M84.9751 49.5026H78.8953V56.5462H84.9751V49.5026Z" fill="#638ADC"/>
<path d="M96.6898 49.5026H90.61V56.5462H96.6898V49.5026Z" fill="#638ADC"/>
<path d="M66.6616 64.2572H60.5818V71.3008H66.6616V64.2572Z" fill="#638ADC"/>
<path d="M102.621 64.2572H96.5415V71.3008H102.621V64.2572Z" fill="#638ADC"/>
<path d="M73.2604 17.9174H67.1806V24.961H73.2604V17.9174Z" fill="#638ADC"/>
<path d="M84.975 17.9174H78.8953V24.961H84.975V17.9174Z" fill="#638ADC"/>
<path d="M96.6898 17.9174H90.61V24.961H96.6898V17.9174Z" fill="#638ADC"/>
<path d="M73.2604 28.3716H67.1806V35.4152H73.2604V28.3716Z" fill="#638ADC"/>
<path d="M84.975 28.3716H78.8953V35.4152H84.975V28.3716Z" fill="#638ADC"/>
<path d="M96.6898 28.3716H90.61V35.4152H96.6898V28.3716Z" fill="#638ADC"/>
<g opacity="0.8">
<path d="M74.5208 65.0728H80.8972L80.8231 72.1164H74.5208V65.0728Z" fill="#EFEFEF"/>
</g>
<g opacity="0.8">
<path d="M82.0835 65.0728H88.6823L88.3857 72.1164H82.0094L82.0835 65.0728Z" fill="#EFEFEF"/>
</g>
<path d="M89.7203 73.5251H72.9639L72.8897 72.1163H89.7945L89.7203 73.5251Z" fill="#638ADC"/>
<g opacity="0.1">
<path d="M89.7203 73.5251H72.9639L72.8897 72.1163H89.7945L89.7203 73.5251Z" fill="#EFEFEF"/>
</g>
<path d="M90.3876 75.0081H72.3707L72.2965 73.5994H90.4617L90.3876 75.0081Z" fill="#638ADC"/>
<g opacity="0.4">
<path d="M90.9807 62.626H71.7775L71.7034 61.069H91.0549L90.9807 62.626Z" fill="#EFEFEF"/>
</g>
<path d="M71.7776 62.626L74.5209 65.0727H88.6823L90.9808 62.626H71.7776Z" fill="#4E6075"/>
<path d="M73.038 63.8123L74.0019 72.1164H74.8174L74.5209 63.8123C74.076 63.5157 73.4829 63.5157 73.038 63.8123Z" fill="#638ADC"/>
<path d="M89.9427 63.8123L88.9789 72.1164H88.1633L88.4599 63.8123C88.9047 63.5157 89.4979 63.5157 89.9427 63.8123Z" fill="#638ADC"/>
</g>
<path d="M159.772 86.3163C159.772 88.8163 157.772 90.8163 155.272 90.8163C152.772 90.8163 150.772 88.8163 150.772 86.3163C150.772 83.8163 152.772 81.8163 155.272 81.8163C157.772 81.8163 159.772 83.8163 159.772 86.3163Z" fill="#45619A"/>
<path d="M195.872 83.2163H164.272V85.0163H195.872V83.2163Z" fill="#45619A"/>
<path d="M225.672 87.2163H164.272V89.0163H225.672V87.2163Z" fill="#BBBBBB"/>
<path d="M159.772 101.316C159.772 103.816 157.772 105.816 155.272 105.816C152.772 105.816 150.772 103.816 150.772 101.316C150.772 98.8163 152.772 96.8163 155.272 96.8163C157.772 96.8163 159.772 98.8163 159.772 101.316Z" fill="#91ADE6"/>
<path d="M180.372 98.2163H164.272V100.016H180.372V98.2163Z" fill="#91ADE6"/>
<path d="M225.672 102.216H164.272V104.016H225.672V102.216Z" fill="#BBBBBB"/>
<path d="M159.772 116.316C159.772 118.816 157.772 120.816 155.272 120.816C152.772 120.816 150.772 118.816 150.772 116.316C150.772 113.816 152.772 111.816 155.272 111.816C157.772 111.816 159.772 113.816 159.772 116.316Z" fill="#91ADE6"/>
<path d="M180.372 113.216H164.272V115.016H180.372V113.216Z" fill="#91ADE6"/>
<path d="M225.672 117.216H164.272V119.016H225.672V117.216Z" fill="#BBBBBB"/>
<path d="M159.772 131.316C159.772 133.816 157.772 135.816 155.272 135.816C152.772 135.816 150.772 133.816 150.772 131.316C150.772 128.816 152.772 126.816 155.272 126.816C157.772 126.816 159.772 128.816 159.772 131.316Z" fill="#45619A"/>
<path d="M195.872 128.216H164.272V130.016H195.872V128.216Z" fill="#45619A"/>
<path d="M225.672 132.216H164.272V134.016H225.672V132.216Z" fill="#BBBBBB"/>
<path d="M159.772 146.316C159.772 148.816 157.772 150.816 155.272 150.816C152.772 150.816 150.772 148.816 150.772 146.316C150.772 143.816 152.772 141.816 155.272 141.816C157.772 141.816 159.772 143.816 159.772 146.316Z" fill="#91ADE6"/>
<path d="M180.372 143.216H164.272V145.016H180.372V143.216Z" fill="#91ADE6"/>
<path d="M225.672 147.216H164.272V149.016H225.672V147.216Z" fill="#BBBBBB"/>
<path d="M159.772 161.316C159.772 163.816 157.772 165.816 155.272 165.816C152.772 165.816 150.772 163.816 150.772 161.316C150.772 158.816 152.772 156.816 155.272 156.816C157.772 156.816 159.772 158.816 159.772 161.316Z" fill="#45619A"/>
<path d="M195.872 158.216H164.272V160.016H195.872V158.216Z" fill="#45619A"/>
<path d="M225.672 162.216H164.272V164.016H225.672V162.216Z" fill="#BBBBBB"/>
<path d="M159.772 176.316C159.772 178.816 157.772 180.816 155.272 180.816C152.772 180.816 150.772 178.816 150.772 176.316C150.772 173.816 152.772 171.816 155.272 171.816C157.772 171.816 159.772 173.816 159.772 176.316Z" fill="#45619A"/>
<path d="M195.872 173.216H164.272V175.016H195.872V173.216Z" fill="#45619A"/>
<path d="M225.672 177.216H164.272V179.016H225.672V177.216Z" fill="#BBBBBB"/>
<path d="M127.76 110.332C127.76 110.397 126.356 109.805 123.549 109.213C120.836 108.621 116.626 108.029 111.48 108.556C108.953 108.819 106.24 109.411 103.527 110.332C100.813 111.252 98.2872 112.7 95.6675 114.278C93.1413 115.857 90.5215 117.699 87.6211 119.343C84.7206 120.987 81.3524 122.566 77.3292 123.224C75.3643 123.553 73.306 123.684 71.3411 123.487C69.3763 123.29 67.5051 122.829 65.8209 122.303C62.3591 121.185 59.4587 119.672 56.4647 118.422C53.5642 117.172 50.6638 116.12 47.6697 115.66C44.7693 115.133 41.8689 115.068 39.3427 115.199C34.1967 115.528 30.2671 116.778 27.8344 117.83C25.4018 118.883 24.1855 119.672 24.0919 119.606C24.0919 119.606 24.3726 119.409 24.934 119.014C25.4954 118.619 26.431 118.159 27.6473 117.567C30.0799 116.449 34.0096 115.068 39.2491 114.673C41.8689 114.476 44.7693 114.541 47.8569 115.068C50.9444 115.528 53.9385 116.58 56.8389 117.83C59.8329 119.08 62.7334 120.593 66.1016 121.645C69.3763 122.763 73.306 123.29 77.0485 122.566C80.791 121.908 84.0657 120.395 86.9661 118.751C89.8666 117.107 92.3928 115.331 95.0125 113.752C97.6323 112.173 100.252 110.726 103.059 109.74C105.866 108.753 108.673 108.227 111.292 107.964C116.532 107.437 120.836 108.095 123.549 108.819C124.953 109.148 125.982 109.476 126.637 109.74C127.479 110.134 127.853 110.332 127.76 110.332Z" fill="#638ADC"/>
<path d="M52.4419 124.408H40.8621V145.588H52.4419V124.408Z" fill="#638ADC"/>
<path d="M101.486 124.408H89.9058V145.588H101.486V124.408Z" fill="#638ADC"/>
<path d="M117.931 111.976H106.351V145.588H117.931V111.976Z" fill="#638ADC"/>
<path d="M37.4563 138.945H25.8765V146.049H37.4563V138.945Z" fill="#638ADC"/>
<path d="M68.7898 134.011H57.21V145.588H68.7898V134.011Z" fill="#638ADC"/>
<path d="M85.1377 131.314H73.5579V145.588H85.1377V131.314Z" fill="#638ADC"/>
<path d="M52.8311 148.088C52.8311 148.285 50.0091 148.417 46.6033 148.417C43.1975 148.417 40.3755 148.285 40.3755 148.088C40.3755 147.89 43.1975 147.759 46.6033 147.759C50.1064 147.759 52.8311 147.89 52.8311 148.088Z" fill="#263238"/>
<path d="M38.4294 148.088C38.4294 148.285 35.6074 148.417 32.2016 148.417C28.7958 148.417 25.9738 148.285 25.9738 148.088C25.9738 147.89 28.7958 147.759 32.2016 147.759C35.7047 147.759 38.4294 147.89 38.4294 148.088Z" fill="#263238"/>
<path d="M120.169 148.088C120.169 148.285 116.958 148.417 113.065 148.417C109.173 148.417 105.962 148.285 105.962 148.088C105.962 147.89 109.173 147.759 113.065 147.759C117.055 147.759 120.169 147.89 120.169 148.088Z" fill="#263238"/>
<path d="M95.9389 148.417C99.8621 148.417 103.042 148.269 103.042 148.088C103.042 147.906 99.8621 147.759 95.9389 147.759C92.0158 147.759 88.8354 147.906 88.8354 148.088C88.8354 148.269 92.0158 148.417 95.9389 148.417Z" fill="#263238"/>
<path d="M85.1376 148.088C85.1376 148.285 82.3157 148.417 78.9099 148.417C75.5041 148.417 72.6821 148.285 72.6821 148.088C72.6821 147.89 75.5041 147.759 78.9099 147.759C82.3157 147.759 85.1376 147.89 85.1376 148.088Z" fill="#263238"/>
<path d="M68.2059 148.088C68.2059 148.285 65.3839 148.417 61.9781 148.417C58.5723 148.417 55.7503 148.285 55.7503 148.088C55.7503 147.89 58.5723 147.759 61.9781 147.759C65.4812 147.759 68.2059 147.89 68.2059 148.088Z" fill="#263238"/>
<defs>
<filter id="filter0_d_110_4503" x="21.1398" y="18.3716" width="39.6285" height="46.6364" filterUnits="userSpaceOnUse" color-interpolation-filters="sRGB">
<feFlood flood-opacity="0" result="BackgroundImageFix"/>
<feColorMatrix in="SourceAlpha" type="matrix" values="0 0 0 0 0 0 0 0 0 0 0 0 0 0 0 0 0 0 127 0" result="hardAlpha"/>
<feOffset dx="5"/>
<feComposite in2="hardAlpha" operator="out"/>
<feColorMatrix type="matrix" values="0 0 0 0 0.0694166 0 0 0 0 0 0 0 0 0 0.495833 0 0 0 0.25 0"/>
<feBlend mode="normal" in2="BackgroundImageFix" result="effect1_dropShadow_110_4503"/>
<feBlend mode="normal" in="SourceGraphic" in2="effect1_dropShadow_110_4503" result="shape"/>
</filter>
<filter id="filter1_d_110_4503" x="106.1" y="18.3716" width="39.6285" height="46.6364" filterUnits="userSpaceOnUse" color-interpolation-filters="sRGB">
<feFlood flood-opacity="0" result="BackgroundImageFix"/>
<feColorMatrix in="SourceAlpha" type="matrix" values="0 0 0 0 0 0 0 0 0 0 0 0 0 0 0 0 0 0 127 0" result="hardAlpha"/>
<feOffset dx="5"/>
<feComposite in2="hardAlpha" operator="out"/>
<feColorMatrix type="matrix" values="0 0 0 0 0.0694166 0 0 0 0 0 0 0 0 0 0.495833 0 0 0 0.25 0"/>
<feBlend mode="normal" in2="BackgroundImageFix" result="effect1_dropShadow_110_4503"/>
<feBlend mode="normal" in="SourceGraphic" in2="effect1_dropShadow_110_4503" result="shape"/>
</filter>
<filter id="filter2_d_110_4503" x="84.2336" y="12.6987" width="48.2958" height="58.3092" filterUnits="userSpaceOnUse" color-interpolation-filters="sRGB">
<feFlood flood-opacity="0" result="BackgroundImageFix"/>
<feColorMatrix in="SourceAlpha" type="matrix" values="0 0 0 0 0 0 0 0 0 0 0 0 0 0 0 0 0 0 127 0" result="hardAlpha"/>
<feOffset dx="5"/>
<feComposite in2="hardAlpha" operator="out"/>
<feColorMatrix type="matrix" values="0 0 0 0 0.0694166 0 0 0 0 0 0 0 0 0 0.495833 0 0 0 0.25 0"/>
<feBlend mode="normal" in2="BackgroundImageFix" result="effect1_dropShadow_110_4503"/>
<feBlend mode="normal" in="SourceGraphic" in2="effect1_dropShadow_110_4503" result="shape"/>
</filter>
<filter id="filter3_d_110_4503" x="34.5986" y="12.6987" width="48.2958" height="58.3092" filterUnits="userSpaceOnUse" color-interpolation-filters="sRGB">
<feFlood flood-opacity="0" result="BackgroundImageFix"/>
<feColorMatrix in="SourceAlpha" type="matrix" values="0 0 0 0 0 0 0 0 0 0 0 0 0 0 0 0 0 0 127 0" result="hardAlpha"/>
<feOffset dx="5"/>
<feComposite in2="hardAlpha" operator="out"/>
<feColorMatrix type="matrix" values="0 0 0 0 0.0694166 0 0 0 0 0 0 0 0 0 0.495833 0 0 0 0.25 0"/>
<feBlend mode="normal" in2="BackgroundImageFix" result="effect1_dropShadow_110_4503"/>
<feBlend mode="normal" in="SourceGraphic" in2="effect1_dropShadow_110_4503" result="shape"/>
</filter>
<filter id="filter4_d_110_4503" x="55.9108" y="5.6095" width="56.5298" height="69.3986" filterUnits="userSpaceOnUse" color-interpolation-filters="sRGB">
<feFlood flood-opacity="0" result="BackgroundImageFix"/>
<feColorMatrix in="SourceAlpha" type="matrix" values="0 0 0 0 0 0 0 0 0 0 0 0 0 0 0 0 0 0 127 0" result="hardAlpha"/>
<feOffset dx="5"/>
<feComposite in2="hardAlpha" operator="out"/>
<feColorMatrix type="matrix" values="0 0 0 0 0.0694166 0 0 0 0 0 0 0 0 0 0.495833 0 0 0 0.25 0"/>
<feBlend mode="normal" in2="BackgroundImageFix" result="effect1_dropShadow_110_4503"/>
<feBlend mode="normal" in="SourceGraphic" in2="effect1_dropShadow_110_4503" result="shape"/>
</filter>
</defs>
</svg>